$ Input file for a square clamped plate
SOL 103
CEND
BEGIN BULK
GRID*                  1               0 0.000000000e+00 0.000000000e+00*       
*        0.000000000e+00               0                               0        
GRID*                 22               0 5.000000000e-02 0.000000000e+00*       
*        0.000000000e+00               0                               0        
GRID*                 43               0 1.000000000e-01 0.000000000e+00*       
*        0.000000000e+00               0                               0        
GRID*                 64               0 1.500000000e-01 0.000000000e+00*       
*        0.000000000e+00               0                               0        
GRID*                 85               0 2.000000000e-01 0.000000000e+00*       
*        0.000000000e+00               0                               0        
GRID*                106               0 2.500000000e-01 0.000000000e+00*       
*        0.000000000e+00               0                               0        
GRID*                127               0 3.000000000e-01 0.000000000e+00*       
*        0.000000000e+00               0                               0        
GRID*                148               0 3.500000000e-01 0.000000000e+00*       
*        0.000000000e+00               0                               0        
GRID*                169               0 4.000000000e-01 0.000000000e+00*       
*        0.000000000e+00               0                               0        
GRID*                190               0 4.500000000e-01 0.000000000e+00*       
*        0.000000000e+00               0                               0        
GRID*                211               0 5.000000000e-01 0.000000000e+00*       
*        0.000000000e+00               0                               0        
GRID*                232               0 5.500000000e-01 0.000000000e+00*       
*        0.000000000e+00               0                               0        
GRID*                253               0 6.000000000e-01 0.000000000e+00*       
*        0.000000000e+00               0                               0        
GRID*                274               0 6.500000000e-01 0.000000000e+00*       
*        0.000000000e+00               0                               0        
GRID*                295               0 7.000000000e-01 0.000000000e+00*       
*        0.000000000e+00               0                               0        
GRID*                316               0 7.500000000e-01 0.000000000e+00*       
*        0.000000000e+00               0                               0        
GRID*                337               0 8.000000000e-01 0.000000000e+00*       
*        0.000000000e+00               0                               0        
GRID*                358               0 8.500000000e-01 0.000000000e+00*       
*        0.000000000e+00               0                               0        
GRID*                379               0 9.000000000e-01 0.000000000e+00*       
*        0.000000000e+00               0                               0        
GRID*                400               0 9.500000000e-01 0.000000000e+00*       
*        0.000000000e+00               0                               0        
GRID*                421               0 1.000000000e+00 0.000000000e+00*       
*        0.000000000e+00               0                               0        
GRID*                  2               0 0.000000000e+00 5.000000000e-02*       
*        0.000000000e+00               0                               0        
GRID*                 23               0 5.000000000e-02 5.000000000e-02*       
*        0.000000000e+00               0                               0        
GRID*                 44               0 1.000000000e-01 5.000000000e-02*       
*        0.000000000e+00               0                               0        
GRID*                 65               0 1.500000000e-01 5.000000000e-02*       
*        0.000000000e+00               0                               0        
GRID*                 86               0 2.000000000e-01 5.000000000e-02*       
*        0.000000000e+00               0                               0        
GRID*                107               0 2.500000000e-01 5.000000000e-02*       
*        0.000000000e+00               0                               0        
GRID*                128               0 3.000000000e-01 5.000000000e-02*       
*        0.000000000e+00               0                               0        
GRID*                149               0 3.500000000e-01 5.000000000e-02*       
*        0.000000000e+00               0                               0        
GRID*                170               0 4.000000000e-01 5.000000000e-02*       
*        0.000000000e+00               0                               0        
GRID*                191               0 4.500000000e-01 5.000000000e-02*       
*        0.000000000e+00               0                               0        
GRID*                212               0 5.000000000e-01 5.000000000e-02*       
*        0.000000000e+00               0                               0        
GRID*                233               0 5.500000000e-01 5.000000000e-02*       
*        0.000000000e+00               0                               0        
GRID*                254               0 6.000000000e-01 5.000000000e-02*       
*        0.000000000e+00               0                               0        
GRID*                275               0 6.500000000e-01 5.000000000e-02*       
*        0.000000000e+00               0                               0        
GRID*                296               0 7.000000000e-01 5.000000000e-02*       
*        0.000000000e+00               0                               0        
GRID*                317               0 7.500000000e-01 5.000000000e-02*       
*        0.000000000e+00               0                               0        
GRID*                338               0 8.000000000e-01 5.000000000e-02*       
*        0.000000000e+00               0                               0        
GRID*                359               0 8.500000000e-01 5.000000000e-02*       
*        0.000000000e+00               0                               0        
GRID*                380               0 9.000000000e-01 5.000000000e-02*       
*        0.000000000e+00               0                               0        
GRID*                401               0 9.500000000e-01 5.000000000e-02*       
*        0.000000000e+00               0                               0        
GRID*                422               0 1.000000000e+00 5.000000000e-02*       
*        0.000000000e+00               0                               0        
GRID*                  3               0 0.000000000e+00 1.000000000e-01*       
*        0.000000000e+00               0                               0        
GRID*                 24               0 5.000000000e-02 1.000000000e-01*       
*        0.000000000e+00               0                               0        
GRID*                 45               0 1.000000000e-01 1.000000000e-01*       
*        0.000000000e+00               0                               0        
GRID*                 66               0 1.500000000e-01 1.000000000e-01*       
*        0.000000000e+00               0                               0        
GRID*                 87               0 2.000000000e-01 1.000000000e-01*       
*        0.000000000e+00               0                               0        
GRID*                108               0 2.500000000e-01 1.000000000e-01*       
*        0.000000000e+00               0                               0        
GRID*                129               0 3.000000000e-01 1.000000000e-01*       
*        0.000000000e+00               0                               0        
GRID*                150               0 3.500000000e-01 1.000000000e-01*       
*        0.000000000e+00               0                               0        
GRID*                171               0 4.000000000e-01 1.000000000e-01*       
*        0.000000000e+00               0                               0        
GRID*                192               0 4.500000000e-01 1.000000000e-01*       
*        0.000000000e+00               0                               0        
GRID*                213               0 5.000000000e-01 1.000000000e-01*       
*        0.000000000e+00               0                               0        
GRID*                234               0 5.500000000e-01 1.000000000e-01*       
*        0.000000000e+00               0                               0        
GRID*                255               0 6.000000000e-01 1.000000000e-01*       
*        0.000000000e+00               0                               0        
GRID*                276               0 6.500000000e-01 1.000000000e-01*       
*        0.000000000e+00               0                               0        
GRID*                297               0 7.000000000e-01 1.000000000e-01*       
*        0.000000000e+00               0                               0        
GRID*                318               0 7.500000000e-01 1.000000000e-01*       
*        0.000000000e+00               0                               0        
GRID*                339               0 8.000000000e-01 1.000000000e-01*       
*        0.000000000e+00               0                               0        
GRID*                360               0 8.500000000e-01 1.000000000e-01*       
*        0.000000000e+00               0                               0        
GRID*                381               0 9.000000000e-01 1.000000000e-01*       
*        0.000000000e+00               0                               0        
GRID*                402               0 9.500000000e-01 1.000000000e-01*       
*        0.000000000e+00               0                               0        
GRID*                423               0 1.000000000e+00 1.000000000e-01*       
*        0.000000000e+00               0                               0        
GRID*                  4               0 0.000000000e+00 1.500000000e-01*       
*        0.000000000e+00               0                               0        
GRID*                 25               0 5.000000000e-02 1.500000000e-01*       
*        0.000000000e+00               0                               0        
GRID*                 46               0 1.000000000e-01 1.500000000e-01*       
*        0.000000000e+00               0                               0        
GRID*                 67               0 1.500000000e-01 1.500000000e-01*       
*        0.000000000e+00               0                               0        
GRID*                 88               0 2.000000000e-01 1.500000000e-01*       
*        0.000000000e+00               0                               0        
GRID*                109               0 2.500000000e-01 1.500000000e-01*       
*        0.000000000e+00               0                               0        
GRID*                130               0 3.000000000e-01 1.500000000e-01*       
*        0.000000000e+00               0                               0        
GRID*                151               0 3.500000000e-01 1.500000000e-01*       
*        0.000000000e+00               0                               0        
GRID*                172               0 4.000000000e-01 1.500000000e-01*       
*        0.000000000e+00               0                               0        
GRID*                193               0 4.500000000e-01 1.500000000e-01*       
*        0.000000000e+00               0                               0        
GRID*                214               0 5.000000000e-01 1.500000000e-01*       
*        0.000000000e+00               0                               0        
GRID*                235               0 5.500000000e-01 1.500000000e-01*       
*        0.000000000e+00               0                               0        
GRID*                256               0 6.000000000e-01 1.500000000e-01*       
*        0.000000000e+00               0                               0        
GRID*                277               0 6.500000000e-01 1.500000000e-01*       
*        0.000000000e+00               0                               0        
GRID*                298               0 7.000000000e-01 1.500000000e-01*       
*        0.000000000e+00               0                               0        
GRID*                319               0 7.500000000e-01 1.500000000e-01*       
*        0.000000000e+00               0                               0        
GRID*                340               0 8.000000000e-01 1.500000000e-01*       
*        0.000000000e+00               0                               0        
GRID*                361               0 8.500000000e-01 1.500000000e-01*       
*        0.000000000e+00               0                               0        
GRID*                382               0 9.000000000e-01 1.500000000e-01*       
*        0.000000000e+00               0                               0        
GRID*                403               0 9.500000000e-01 1.500000000e-01*       
*        0.000000000e+00               0                               0        
GRID*                424               0 1.000000000e+00 1.500000000e-01*       
*        0.000000000e+00               0                               0        
GRID*                  5               0 0.000000000e+00 2.000000000e-01*       
*        0.000000000e+00               0                               0        
GRID*                 26               0 5.000000000e-02 2.000000000e-01*       
*        0.000000000e+00               0                               0        
GRID*                 47               0 1.000000000e-01 2.000000000e-01*       
*        0.000000000e+00               0                               0        
GRID*                 68               0 1.500000000e-01 2.000000000e-01*       
*        0.000000000e+00               0                               0        
GRID*                 89               0 2.000000000e-01 2.000000000e-01*       
*        0.000000000e+00               0                               0        
GRID*                110               0 2.500000000e-01 2.000000000e-01*       
*        0.000000000e+00               0                               0        
GRID*                131               0 3.000000000e-01 2.000000000e-01*       
*        0.000000000e+00               0                               0        
GRID*                152               0 3.500000000e-01 2.000000000e-01*       
*        0.000000000e+00               0                               0        
GRID*                173               0 4.000000000e-01 2.000000000e-01*       
*        0.000000000e+00               0                               0        
GRID*                194               0 4.500000000e-01 2.000000000e-01*       
*        0.000000000e+00               0                               0        
GRID*                215               0 5.000000000e-01 2.000000000e-01*       
*        0.000000000e+00               0                               0        
GRID*                236               0 5.500000000e-01 2.000000000e-01*       
*        0.000000000e+00               0                               0        
GRID*                257               0 6.000000000e-01 2.000000000e-01*       
*        0.000000000e+00               0                               0        
GRID*                278               0 6.500000000e-01 2.000000000e-01*       
*        0.000000000e+00               0                               0        
GRID*                299               0 7.000000000e-01 2.000000000e-01*       
*        0.000000000e+00               0                               0        
GRID*                320               0 7.500000000e-01 2.000000000e-01*       
*        0.000000000e+00               0                               0        
GRID*                341               0 8.000000000e-01 2.000000000e-01*       
*        0.000000000e+00               0                               0        
GRID*                362               0 8.500000000e-01 2.000000000e-01*       
*        0.000000000e+00               0                               0        
GRID*                383               0 9.000000000e-01 2.000000000e-01*       
*        0.000000000e+00               0                               0        
GRID*                404               0 9.500000000e-01 2.000000000e-01*       
*        0.000000000e+00               0                               0        
GRID*                425               0 1.000000000e+00 2.000000000e-01*       
*        0.000000000e+00               0                               0        
GRID*                  6               0 0.000000000e+00 2.500000000e-01*       
*        0.000000000e+00               0                               0        
GRID*                 27               0 5.000000000e-02 2.500000000e-01*       
*        0.000000000e+00               0                               0        
GRID*                 48               0 1.000000000e-01 2.500000000e-01*       
*        0.000000000e+00               0                               0        
GRID*                 69               0 1.500000000e-01 2.500000000e-01*       
*        0.000000000e+00               0                               0        
GRID*                 90               0 2.000000000e-01 2.500000000e-01*       
*        0.000000000e+00               0                               0        
GRID*                111               0 2.500000000e-01 2.500000000e-01*       
*        0.000000000e+00               0                               0        
GRID*                132               0 3.000000000e-01 2.500000000e-01*       
*        0.000000000e+00               0                               0        
GRID*                153               0 3.500000000e-01 2.500000000e-01*       
*        0.000000000e+00               0                               0        
GRID*                174               0 4.000000000e-01 2.500000000e-01*       
*        0.000000000e+00               0                               0        
GRID*                195               0 4.500000000e-01 2.500000000e-01*       
*        0.000000000e+00               0                               0        
GRID*                216               0 5.000000000e-01 2.500000000e-01*       
*        0.000000000e+00               0                               0        
GRID*                237               0 5.500000000e-01 2.500000000e-01*       
*        0.000000000e+00               0                               0        
GRID*                258               0 6.000000000e-01 2.500000000e-01*       
*        0.000000000e+00               0                               0        
GRID*                279               0 6.500000000e-01 2.500000000e-01*       
*        0.000000000e+00               0                               0        
GRID*                300               0 7.000000000e-01 2.500000000e-01*       
*        0.000000000e+00               0                               0        
GRID*                321               0 7.500000000e-01 2.500000000e-01*       
*        0.000000000e+00               0                               0        
GRID*                342               0 8.000000000e-01 2.500000000e-01*       
*        0.000000000e+00               0                               0        
GRID*                363               0 8.500000000e-01 2.500000000e-01*       
*        0.000000000e+00               0                               0        
GRID*                384               0 9.000000000e-01 2.500000000e-01*       
*        0.000000000e+00               0                               0        
GRID*                405               0 9.500000000e-01 2.500000000e-01*       
*        0.000000000e+00               0                               0        
GRID*                426               0 1.000000000e+00 2.500000000e-01*       
*        0.000000000e+00               0                               0        
GRID*                  7               0 0.000000000e+00 3.000000000e-01*       
*        0.000000000e+00               0                               0        
GRID*                 28               0 5.000000000e-02 3.000000000e-01*       
*        0.000000000e+00               0                               0        
GRID*                 49               0 1.000000000e-01 3.000000000e-01*       
*        0.000000000e+00               0                               0        
GRID*                 70               0 1.500000000e-01 3.000000000e-01*       
*        0.000000000e+00               0                               0        
GRID*                 91               0 2.000000000e-01 3.000000000e-01*       
*        0.000000000e+00               0                               0        
GRID*                112               0 2.500000000e-01 3.000000000e-01*       
*        0.000000000e+00               0                               0        
GRID*                133               0 3.000000000e-01 3.000000000e-01*       
*        0.000000000e+00               0                               0        
GRID*                154               0 3.500000000e-01 3.000000000e-01*       
*        0.000000000e+00               0                               0        
GRID*                175               0 4.000000000e-01 3.000000000e-01*       
*        0.000000000e+00               0                               0        
GRID*                196               0 4.500000000e-01 3.000000000e-01*       
*        0.000000000e+00               0                               0        
GRID*                217               0 5.000000000e-01 3.000000000e-01*       
*        0.000000000e+00               0                               0        
GRID*                238               0 5.500000000e-01 3.000000000e-01*       
*        0.000000000e+00               0                               0        
GRID*                259               0 6.000000000e-01 3.000000000e-01*       
*        0.000000000e+00               0                               0        
GRID*                280               0 6.500000000e-01 3.000000000e-01*       
*        0.000000000e+00               0                               0        
GRID*                301               0 7.000000000e-01 3.000000000e-01*       
*        0.000000000e+00               0                               0        
GRID*                322               0 7.500000000e-01 3.000000000e-01*       
*        0.000000000e+00               0                               0        
GRID*                343               0 8.000000000e-01 3.000000000e-01*       
*        0.000000000e+00               0                               0        
GRID*                364               0 8.500000000e-01 3.000000000e-01*       
*        0.000000000e+00               0                               0        
GRID*                385               0 9.000000000e-01 3.000000000e-01*       
*        0.000000000e+00               0                               0        
GRID*                406               0 9.500000000e-01 3.000000000e-01*       
*        0.000000000e+00               0                               0        
GRID*                427               0 1.000000000e+00 3.000000000e-01*       
*        0.000000000e+00               0                               0        
GRID*                  8               0 0.000000000e+00 3.500000000e-01*       
*        0.000000000e+00               0                               0        
GRID*                 29               0 5.000000000e-02 3.500000000e-01*       
*        0.000000000e+00               0                               0        
GRID*                 50               0 1.000000000e-01 3.500000000e-01*       
*        0.000000000e+00               0                               0        
GRID*                 71               0 1.500000000e-01 3.500000000e-01*       
*        0.000000000e+00               0                               0        
GRID*                 92               0 2.000000000e-01 3.500000000e-01*       
*        0.000000000e+00               0                               0        
GRID*                113               0 2.500000000e-01 3.500000000e-01*       
*        0.000000000e+00               0                               0        
GRID*                134               0 3.000000000e-01 3.500000000e-01*       
*        0.000000000e+00               0                               0        
GRID*                155               0 3.500000000e-01 3.500000000e-01*       
*        0.000000000e+00               0                               0        
GRID*                176               0 4.000000000e-01 3.500000000e-01*       
*        0.000000000e+00               0                               0        
GRID*                197               0 4.500000000e-01 3.500000000e-01*       
*        0.000000000e+00               0                               0        
GRID*                218               0 5.000000000e-01 3.500000000e-01*       
*        0.000000000e+00               0                               0        
GRID*                239               0 5.500000000e-01 3.500000000e-01*       
*        0.000000000e+00               0                               0        
GRID*                260               0 6.000000000e-01 3.500000000e-01*       
*        0.000000000e+00               0                               0        
GRID*                281               0 6.500000000e-01 3.500000000e-01*       
*        0.000000000e+00               0                               0        
GRID*                302               0 7.000000000e-01 3.500000000e-01*       
*        0.000000000e+00               0                               0        
GRID*                323               0 7.500000000e-01 3.500000000e-01*       
*        0.000000000e+00               0                               0        
GRID*                344               0 8.000000000e-01 3.500000000e-01*       
*        0.000000000e+00               0                               0        
GRID*                365               0 8.500000000e-01 3.500000000e-01*       
*        0.000000000e+00               0                               0        
GRID*                386               0 9.000000000e-01 3.500000000e-01*       
*        0.000000000e+00               0                               0        
GRID*                407               0 9.500000000e-01 3.500000000e-01*       
*        0.000000000e+00               0                               0        
GRID*                428               0 1.000000000e+00 3.500000000e-01*       
*        0.000000000e+00               0                               0        
GRID*                  9               0 0.000000000e+00 4.000000000e-01*       
*        0.000000000e+00               0                               0        
GRID*                 30               0 5.000000000e-02 4.000000000e-01*       
*        0.000000000e+00               0                               0        
GRID*                 51               0 1.000000000e-01 4.000000000e-01*       
*        0.000000000e+00               0                               0        
GRID*                 72               0 1.500000000e-01 4.000000000e-01*       
*        0.000000000e+00               0                               0        
GRID*                 93               0 2.000000000e-01 4.000000000e-01*       
*        0.000000000e+00               0                               0        
GRID*                114               0 2.500000000e-01 4.000000000e-01*       
*        0.000000000e+00               0                               0        
GRID*                135               0 3.000000000e-01 4.000000000e-01*       
*        0.000000000e+00               0                               0        
GRID*                156               0 3.500000000e-01 4.000000000e-01*       
*        0.000000000e+00               0                               0        
GRID*                177               0 4.000000000e-01 4.000000000e-01*       
*        0.000000000e+00               0                               0        
GRID*                198               0 4.500000000e-01 4.000000000e-01*       
*        0.000000000e+00               0                               0        
GRID*                219               0 5.000000000e-01 4.000000000e-01*       
*        0.000000000e+00               0                               0        
GRID*                240               0 5.500000000e-01 4.000000000e-01*       
*        0.000000000e+00               0                               0        
GRID*                261               0 6.000000000e-01 4.000000000e-01*       
*        0.000000000e+00               0                               0        
GRID*                282               0 6.500000000e-01 4.000000000e-01*       
*        0.000000000e+00               0                               0        
GRID*                303               0 7.000000000e-01 4.000000000e-01*       
*        0.000000000e+00               0                               0        
GRID*                324               0 7.500000000e-01 4.000000000e-01*       
*        0.000000000e+00               0                               0        
GRID*                345               0 8.000000000e-01 4.000000000e-01*       
*        0.000000000e+00               0                               0        
GRID*                366               0 8.500000000e-01 4.000000000e-01*       
*        0.000000000e+00               0                               0        
GRID*                387               0 9.000000000e-01 4.000000000e-01*       
*        0.000000000e+00               0                               0        
GRID*                408               0 9.500000000e-01 4.000000000e-01*       
*        0.000000000e+00               0                               0        
GRID*                429               0 1.000000000e+00 4.000000000e-01*       
*        0.000000000e+00               0                               0        
GRID*                 10               0 0.000000000e+00 4.500000000e-01*       
*        0.000000000e+00               0                               0        
GRID*                 31               0 5.000000000e-02 4.500000000e-01*       
*        0.000000000e+00               0                               0        
GRID*                 52               0 1.000000000e-01 4.500000000e-01*       
*        0.000000000e+00               0                               0        
GRID*                 73               0 1.500000000e-01 4.500000000e-01*       
*        0.000000000e+00               0                               0        
GRID*                 94               0 2.000000000e-01 4.500000000e-01*       
*        0.000000000e+00               0                               0        
GRID*                115               0 2.500000000e-01 4.500000000e-01*       
*        0.000000000e+00               0                               0        
GRID*                136               0 3.000000000e-01 4.500000000e-01*       
*        0.000000000e+00               0                               0        
GRID*                157               0 3.500000000e-01 4.500000000e-01*       
*        0.000000000e+00               0                               0        
GRID*                178               0 4.000000000e-01 4.500000000e-01*       
*        0.000000000e+00               0                               0        
GRID*                199               0 4.500000000e-01 4.500000000e-01*       
*        0.000000000e+00               0                               0        
GRID*                220               0 5.000000000e-01 4.500000000e-01*       
*        0.000000000e+00               0                               0        
GRID*                241               0 5.500000000e-01 4.500000000e-01*       
*        0.000000000e+00               0                               0        
GRID*                262               0 6.000000000e-01 4.500000000e-01*       
*        0.000000000e+00               0                               0        
GRID*                283               0 6.500000000e-01 4.500000000e-01*       
*        0.000000000e+00               0                               0        
GRID*                304               0 7.000000000e-01 4.500000000e-01*       
*        0.000000000e+00               0                               0        
GRID*                325               0 7.500000000e-01 4.500000000e-01*       
*        0.000000000e+00               0                               0        
GRID*                346               0 8.000000000e-01 4.500000000e-01*       
*        0.000000000e+00               0                               0        
GRID*                367               0 8.500000000e-01 4.500000000e-01*       
*        0.000000000e+00               0                               0        
GRID*                388               0 9.000000000e-01 4.500000000e-01*       
*        0.000000000e+00               0                               0        
GRID*                409               0 9.500000000e-01 4.500000000e-01*       
*        0.000000000e+00               0                               0        
GRID*                430               0 1.000000000e+00 4.500000000e-01*       
*        0.000000000e+00               0                               0        
GRID*                 11               0 0.000000000e+00 5.000000000e-01*       
*        0.000000000e+00               0                               0        
GRID*                 32               0 5.000000000e-02 5.000000000e-01*       
*        0.000000000e+00               0                               0        
GRID*                 53               0 1.000000000e-01 5.000000000e-01*       
*        0.000000000e+00               0                               0        
GRID*                 74               0 1.500000000e-01 5.000000000e-01*       
*        0.000000000e+00               0                               0        
GRID*                 95               0 2.000000000e-01 5.000000000e-01*       
*        0.000000000e+00               0                               0        
GRID*                116               0 2.500000000e-01 5.000000000e-01*       
*        0.000000000e+00               0                               0        
GRID*                137               0 3.000000000e-01 5.000000000e-01*       
*        0.000000000e+00               0                               0        
GRID*                158               0 3.500000000e-01 5.000000000e-01*       
*        0.000000000e+00               0                               0        
GRID*                179               0 4.000000000e-01 5.000000000e-01*       
*        0.000000000e+00               0                               0        
GRID*                200               0 4.500000000e-01 5.000000000e-01*       
*        0.000000000e+00               0                               0        
GRID*                221               0 5.000000000e-01 5.000000000e-01*       
*        0.000000000e+00               0                               0        
GRID*                242               0 5.500000000e-01 5.000000000e-01*       
*        0.000000000e+00               0                               0        
GRID*                263               0 6.000000000e-01 5.000000000e-01*       
*        0.000000000e+00               0                               0        
GRID*                284               0 6.500000000e-01 5.000000000e-01*       
*        0.000000000e+00               0                               0        
GRID*                305               0 7.000000000e-01 5.000000000e-01*       
*        0.000000000e+00               0                               0        
GRID*                326               0 7.500000000e-01 5.000000000e-01*       
*        0.000000000e+00               0                               0        
GRID*                347               0 8.000000000e-01 5.000000000e-01*       
*        0.000000000e+00               0                               0        
GRID*                368               0 8.500000000e-01 5.000000000e-01*       
*        0.000000000e+00               0                               0        
GRID*                389               0 9.000000000e-01 5.000000000e-01*       
*        0.000000000e+00               0                               0        
GRID*                410               0 9.500000000e-01 5.000000000e-01*       
*        0.000000000e+00               0                               0        
GRID*                431               0 1.000000000e+00 5.000000000e-01*       
*        0.000000000e+00               0                               0        
GRID*                 12               0 0.000000000e+00 5.500000000e-01*       
*        0.000000000e+00               0                               0        
GRID*                 33               0 5.000000000e-02 5.500000000e-01*       
*        0.000000000e+00               0                               0        
GRID*                 54               0 1.000000000e-01 5.500000000e-01*       
*        0.000000000e+00               0                               0        
GRID*                 75               0 1.500000000e-01 5.500000000e-01*       
*        0.000000000e+00               0                               0        
GRID*                 96               0 2.000000000e-01 5.500000000e-01*       
*        0.000000000e+00               0                               0        
GRID*                117               0 2.500000000e-01 5.500000000e-01*       
*        0.000000000e+00               0                               0        
GRID*                138               0 3.000000000e-01 5.500000000e-01*       
*        0.000000000e+00               0                               0        
GRID*                159               0 3.500000000e-01 5.500000000e-01*       
*        0.000000000e+00               0                               0        
GRID*                180               0 4.000000000e-01 5.500000000e-01*       
*        0.000000000e+00               0                               0        
GRID*                201               0 4.500000000e-01 5.500000000e-01*       
*        0.000000000e+00               0                               0        
GRID*                222               0 5.000000000e-01 5.500000000e-01*       
*        0.000000000e+00               0                               0        
GRID*                243               0 5.500000000e-01 5.500000000e-01*       
*        0.000000000e+00               0                               0        
GRID*                264               0 6.000000000e-01 5.500000000e-01*       
*        0.000000000e+00               0                               0        
GRID*                285               0 6.500000000e-01 5.500000000e-01*       
*        0.000000000e+00               0                               0        
GRID*                306               0 7.000000000e-01 5.500000000e-01*       
*        0.000000000e+00               0                               0        
GRID*                327               0 7.500000000e-01 5.500000000e-01*       
*        0.000000000e+00               0                               0        
GRID*                348               0 8.000000000e-01 5.500000000e-01*       
*        0.000000000e+00               0                               0        
GRID*                369               0 8.500000000e-01 5.500000000e-01*       
*        0.000000000e+00               0                               0        
GRID*                390               0 9.000000000e-01 5.500000000e-01*       
*        0.000000000e+00               0                               0        
GRID*                411               0 9.500000000e-01 5.500000000e-01*       
*        0.000000000e+00               0                               0        
GRID*                432               0 1.000000000e+00 5.500000000e-01*       
*        0.000000000e+00               0                               0        
GRID*                 13               0 0.000000000e+00 6.000000000e-01*       
*        0.000000000e+00               0                               0        
GRID*                 34               0 5.000000000e-02 6.000000000e-01*       
*        0.000000000e+00               0                               0        
GRID*                 55               0 1.000000000e-01 6.000000000e-01*       
*        0.000000000e+00               0                               0        
GRID*                 76               0 1.500000000e-01 6.000000000e-01*       
*        0.000000000e+00               0                               0        
GRID*                 97               0 2.000000000e-01 6.000000000e-01*       
*        0.000000000e+00               0                               0        
GRID*                118               0 2.500000000e-01 6.000000000e-01*       
*        0.000000000e+00               0                               0        
GRID*                139               0 3.000000000e-01 6.000000000e-01*       
*        0.000000000e+00               0                               0        
GRID*                160               0 3.500000000e-01 6.000000000e-01*       
*        0.000000000e+00               0                               0        
GRID*                181               0 4.000000000e-01 6.000000000e-01*       
*        0.000000000e+00               0                               0        
GRID*                202               0 4.500000000e-01 6.000000000e-01*       
*        0.000000000e+00               0                               0        
GRID*                223               0 5.000000000e-01 6.000000000e-01*       
*        0.000000000e+00               0                               0        
GRID*                244               0 5.500000000e-01 6.000000000e-01*       
*        0.000000000e+00               0                               0        
GRID*                265               0 6.000000000e-01 6.000000000e-01*       
*        0.000000000e+00               0                               0        
GRID*                286               0 6.500000000e-01 6.000000000e-01*       
*        0.000000000e+00               0                               0        
GRID*                307               0 7.000000000e-01 6.000000000e-01*       
*        0.000000000e+00               0                               0        
GRID*                328               0 7.500000000e-01 6.000000000e-01*       
*        0.000000000e+00               0                               0        
GRID*                349               0 8.000000000e-01 6.000000000e-01*       
*        0.000000000e+00               0                               0        
GRID*                370               0 8.500000000e-01 6.000000000e-01*       
*        0.000000000e+00               0                               0        
GRID*                391               0 9.000000000e-01 6.000000000e-01*       
*        0.000000000e+00               0                               0        
GRID*                412               0 9.500000000e-01 6.000000000e-01*       
*        0.000000000e+00               0                               0        
GRID*                433               0 1.000000000e+00 6.000000000e-01*       
*        0.000000000e+00               0                               0        
GRID*                 14               0 0.000000000e+00 6.500000000e-01*       
*        0.000000000e+00               0                               0        
GRID*                 35               0 5.000000000e-02 6.500000000e-01*       
*        0.000000000e+00               0                               0        
GRID*                 56               0 1.000000000e-01 6.500000000e-01*       
*        0.000000000e+00               0                               0        
GRID*                 77               0 1.500000000e-01 6.500000000e-01*       
*        0.000000000e+00               0                               0        
GRID*                 98               0 2.000000000e-01 6.500000000e-01*       
*        0.000000000e+00               0                               0        
GRID*                119               0 2.500000000e-01 6.500000000e-01*       
*        0.000000000e+00               0                               0        
GRID*                140               0 3.000000000e-01 6.500000000e-01*       
*        0.000000000e+00               0                               0        
GRID*                161               0 3.500000000e-01 6.500000000e-01*       
*        0.000000000e+00               0                               0        
GRID*                182               0 4.000000000e-01 6.500000000e-01*       
*        0.000000000e+00               0                               0        
GRID*                203               0 4.500000000e-01 6.500000000e-01*       
*        0.000000000e+00               0                               0        
GRID*                224               0 5.000000000e-01 6.500000000e-01*       
*        0.000000000e+00               0                               0        
GRID*                245               0 5.500000000e-01 6.500000000e-01*       
*        0.000000000e+00               0                               0        
GRID*                266               0 6.000000000e-01 6.500000000e-01*       
*        0.000000000e+00               0                               0        
GRID*                287               0 6.500000000e-01 6.500000000e-01*       
*        0.000000000e+00               0                               0        
GRID*                308               0 7.000000000e-01 6.500000000e-01*       
*        0.000000000e+00               0                               0        
GRID*                329               0 7.500000000e-01 6.500000000e-01*       
*        0.000000000e+00               0                               0        
GRID*                350               0 8.000000000e-01 6.500000000e-01*       
*        0.000000000e+00               0                               0        
GRID*                371               0 8.500000000e-01 6.500000000e-01*       
*        0.000000000e+00               0                               0        
GRID*                392               0 9.000000000e-01 6.500000000e-01*       
*        0.000000000e+00               0                               0        
GRID*                413               0 9.500000000e-01 6.500000000e-01*       
*        0.000000000e+00               0                               0        
GRID*                434               0 1.000000000e+00 6.500000000e-01*       
*        0.000000000e+00               0                               0        
GRID*                 15               0 0.000000000e+00 7.000000000e-01*       
*        0.000000000e+00               0                               0        
GRID*                 36               0 5.000000000e-02 7.000000000e-01*       
*        0.000000000e+00               0                               0        
GRID*                 57               0 1.000000000e-01 7.000000000e-01*       
*        0.000000000e+00               0                               0        
GRID*                 78               0 1.500000000e-01 7.000000000e-01*       
*        0.000000000e+00               0                               0        
GRID*                 99               0 2.000000000e-01 7.000000000e-01*       
*        0.000000000e+00               0                               0        
GRID*                120               0 2.500000000e-01 7.000000000e-01*       
*        0.000000000e+00               0                               0        
GRID*                141               0 3.000000000e-01 7.000000000e-01*       
*        0.000000000e+00               0                               0        
GRID*                162               0 3.500000000e-01 7.000000000e-01*       
*        0.000000000e+00               0                               0        
GRID*                183               0 4.000000000e-01 7.000000000e-01*       
*        0.000000000e+00               0                               0        
GRID*                204               0 4.500000000e-01 7.000000000e-01*       
*        0.000000000e+00               0                               0        
GRID*                225               0 5.000000000e-01 7.000000000e-01*       
*        0.000000000e+00               0                               0        
GRID*                246               0 5.500000000e-01 7.000000000e-01*       
*        0.000000000e+00               0                               0        
GRID*                267               0 6.000000000e-01 7.000000000e-01*       
*        0.000000000e+00               0                               0        
GRID*                288               0 6.500000000e-01 7.000000000e-01*       
*        0.000000000e+00               0                               0        
GRID*                309               0 7.000000000e-01 7.000000000e-01*       
*        0.000000000e+00               0                               0        
GRID*                330               0 7.500000000e-01 7.000000000e-01*       
*        0.000000000e+00               0                               0        
GRID*                351               0 8.000000000e-01 7.000000000e-01*       
*        0.000000000e+00               0                               0        
GRID*                372               0 8.500000000e-01 7.000000000e-01*       
*        0.000000000e+00               0                               0        
GRID*                393               0 9.000000000e-01 7.000000000e-01*       
*        0.000000000e+00               0                               0        
GRID*                414               0 9.500000000e-01 7.000000000e-01*       
*        0.000000000e+00               0                               0        
GRID*                435               0 1.000000000e+00 7.000000000e-01*       
*        0.000000000e+00               0                               0        
GRID*                 16               0 0.000000000e+00 7.500000000e-01*       
*        0.000000000e+00               0                               0        
GRID*                 37               0 5.000000000e-02 7.500000000e-01*       
*        0.000000000e+00               0                               0        
GRID*                 58               0 1.000000000e-01 7.500000000e-01*       
*        0.000000000e+00               0                               0        
GRID*                 79               0 1.500000000e-01 7.500000000e-01*       
*        0.000000000e+00               0                               0        
GRID*                100               0 2.000000000e-01 7.500000000e-01*       
*        0.000000000e+00               0                               0        
GRID*                121               0 2.500000000e-01 7.500000000e-01*       
*        0.000000000e+00               0                               0        
GRID*                142               0 3.000000000e-01 7.500000000e-01*       
*        0.000000000e+00               0                               0        
GRID*                163               0 3.500000000e-01 7.500000000e-01*       
*        0.000000000e+00               0                               0        
GRID*                184               0 4.000000000e-01 7.500000000e-01*       
*        0.000000000e+00               0                               0        
GRID*                205               0 4.500000000e-01 7.500000000e-01*       
*        0.000000000e+00               0                               0        
GRID*                226               0 5.000000000e-01 7.500000000e-01*       
*        0.000000000e+00               0                               0        
GRID*                247               0 5.500000000e-01 7.500000000e-01*       
*        0.000000000e+00               0                               0        
GRID*                268               0 6.000000000e-01 7.500000000e-01*       
*        0.000000000e+00               0                               0        
GRID*                289               0 6.500000000e-01 7.500000000e-01*       
*        0.000000000e+00               0                               0        
GRID*                310               0 7.000000000e-01 7.500000000e-01*       
*        0.000000000e+00               0                               0        
GRID*                331               0 7.500000000e-01 7.500000000e-01*       
*        0.000000000e+00               0                               0        
GRID*                352               0 8.000000000e-01 7.500000000e-01*       
*        0.000000000e+00               0                               0        
GRID*                373               0 8.500000000e-01 7.500000000e-01*       
*        0.000000000e+00               0                               0        
GRID*                394               0 9.000000000e-01 7.500000000e-01*       
*        0.000000000e+00               0                               0        
GRID*                415               0 9.500000000e-01 7.500000000e-01*       
*        0.000000000e+00               0                               0        
GRID*                436               0 1.000000000e+00 7.500000000e-01*       
*        0.000000000e+00               0                               0        
GRID*                 17               0 0.000000000e+00 8.000000000e-01*       
*        0.000000000e+00               0                               0        
GRID*                 38               0 5.000000000e-02 8.000000000e-01*       
*        0.000000000e+00               0                               0        
GRID*                 59               0 1.000000000e-01 8.000000000e-01*       
*        0.000000000e+00               0                               0        
GRID*                 80               0 1.500000000e-01 8.000000000e-01*       
*        0.000000000e+00               0                               0        
GRID*                101               0 2.000000000e-01 8.000000000e-01*       
*        0.000000000e+00               0                               0        
GRID*                122               0 2.500000000e-01 8.000000000e-01*       
*        0.000000000e+00               0                               0        
GRID*                143               0 3.000000000e-01 8.000000000e-01*       
*        0.000000000e+00               0                               0        
GRID*                164               0 3.500000000e-01 8.000000000e-01*       
*        0.000000000e+00               0                               0        
GRID*                185               0 4.000000000e-01 8.000000000e-01*       
*        0.000000000e+00               0                               0        
GRID*                206               0 4.500000000e-01 8.000000000e-01*       
*        0.000000000e+00               0                               0        
GRID*                227               0 5.000000000e-01 8.000000000e-01*       
*        0.000000000e+00               0                               0        
GRID*                248               0 5.500000000e-01 8.000000000e-01*       
*        0.000000000e+00               0                               0        
GRID*                269               0 6.000000000e-01 8.000000000e-01*       
*        0.000000000e+00               0                               0        
GRID*                290               0 6.500000000e-01 8.000000000e-01*       
*        0.000000000e+00               0                               0        
GRID*                311               0 7.000000000e-01 8.000000000e-01*       
*        0.000000000e+00               0                               0        
GRID*                332               0 7.500000000e-01 8.000000000e-01*       
*        0.000000000e+00               0                               0        
GRID*                353               0 8.000000000e-01 8.000000000e-01*       
*        0.000000000e+00               0                               0        
GRID*                374               0 8.500000000e-01 8.000000000e-01*       
*        0.000000000e+00               0                               0        
GRID*                395               0 9.000000000e-01 8.000000000e-01*       
*        0.000000000e+00               0                               0        
GRID*                416               0 9.500000000e-01 8.000000000e-01*       
*        0.000000000e+00               0                               0        
GRID*                437               0 1.000000000e+00 8.000000000e-01*       
*        0.000000000e+00               0                               0        
GRID*                 18               0 0.000000000e+00 8.500000000e-01*       
*        0.000000000e+00               0                               0        
GRID*                 39               0 5.000000000e-02 8.500000000e-01*       
*        0.000000000e+00               0                               0        
GRID*                 60               0 1.000000000e-01 8.500000000e-01*       
*        0.000000000e+00               0                               0        
GRID*                 81               0 1.500000000e-01 8.500000000e-01*       
*        0.000000000e+00               0                               0        
GRID*                102               0 2.000000000e-01 8.500000000e-01*       
*        0.000000000e+00               0                               0        
GRID*                123               0 2.500000000e-01 8.500000000e-01*       
*        0.000000000e+00               0                               0        
GRID*                144               0 3.000000000e-01 8.500000000e-01*       
*        0.000000000e+00               0                               0        
GRID*                165               0 3.500000000e-01 8.500000000e-01*       
*        0.000000000e+00               0                               0        
GRID*                186               0 4.000000000e-01 8.500000000e-01*       
*        0.000000000e+00               0                               0        
GRID*                207               0 4.500000000e-01 8.500000000e-01*       
*        0.000000000e+00               0                               0        
GRID*                228               0 5.000000000e-01 8.500000000e-01*       
*        0.000000000e+00               0                               0        
GRID*                249               0 5.500000000e-01 8.500000000e-01*       
*        0.000000000e+00               0                               0        
GRID*                270               0 6.000000000e-01 8.500000000e-01*       
*        0.000000000e+00               0                               0        
GRID*                291               0 6.500000000e-01 8.500000000e-01*       
*        0.000000000e+00               0                               0        
GRID*                312               0 7.000000000e-01 8.500000000e-01*       
*        0.000000000e+00               0                               0        
GRID*                333               0 7.500000000e-01 8.500000000e-01*       
*        0.000000000e+00               0                               0        
GRID*                354               0 8.000000000e-01 8.500000000e-01*       
*        0.000000000e+00               0                               0        
GRID*                375               0 8.500000000e-01 8.500000000e-01*       
*        0.000000000e+00               0                               0        
GRID*                396               0 9.000000000e-01 8.500000000e-01*       
*        0.000000000e+00               0                               0        
GRID*                417               0 9.500000000e-01 8.500000000e-01*       
*        0.000000000e+00               0                               0        
GRID*                438               0 1.000000000e+00 8.500000000e-01*       
*        0.000000000e+00               0                               0        
GRID*                 19               0 0.000000000e+00 9.000000000e-01*       
*        0.000000000e+00               0                               0        
GRID*                 40               0 5.000000000e-02 9.000000000e-01*       
*        0.000000000e+00               0                               0        
GRID*                 61               0 1.000000000e-01 9.000000000e-01*       
*        0.000000000e+00               0                               0        
GRID*                 82               0 1.500000000e-01 9.000000000e-01*       
*        0.000000000e+00               0                               0        
GRID*                103               0 2.000000000e-01 9.000000000e-01*       
*        0.000000000e+00               0                               0        
GRID*                124               0 2.500000000e-01 9.000000000e-01*       
*        0.000000000e+00               0                               0        
GRID*                145               0 3.000000000e-01 9.000000000e-01*       
*        0.000000000e+00               0                               0        
GRID*                166               0 3.500000000e-01 9.000000000e-01*       
*        0.000000000e+00               0                               0        
GRID*                187               0 4.000000000e-01 9.000000000e-01*       
*        0.000000000e+00               0                               0        
GRID*                208               0 4.500000000e-01 9.000000000e-01*       
*        0.000000000e+00               0                               0        
GRID*                229               0 5.000000000e-01 9.000000000e-01*       
*        0.000000000e+00               0                               0        
GRID*                250               0 5.500000000e-01 9.000000000e-01*       
*        0.000000000e+00               0                               0        
GRID*                271               0 6.000000000e-01 9.000000000e-01*       
*        0.000000000e+00               0                               0        
GRID*                292               0 6.500000000e-01 9.000000000e-01*       
*        0.000000000e+00               0                               0        
GRID*                313               0 7.000000000e-01 9.000000000e-01*       
*        0.000000000e+00               0                               0        
GRID*                334               0 7.500000000e-01 9.000000000e-01*       
*        0.000000000e+00               0                               0        
GRID*                355               0 8.000000000e-01 9.000000000e-01*       
*        0.000000000e+00               0                               0        
GRID*                376               0 8.500000000e-01 9.000000000e-01*       
*        0.000000000e+00               0                               0        
GRID*                397               0 9.000000000e-01 9.000000000e-01*       
*        0.000000000e+00               0                               0        
GRID*                418               0 9.500000000e-01 9.000000000e-01*       
*        0.000000000e+00               0                               0        
GRID*                439               0 1.000000000e+00 9.000000000e-01*       
*        0.000000000e+00               0                               0        
GRID*                 20               0 0.000000000e+00 9.500000000e-01*       
*        0.000000000e+00               0                               0        
GRID*                 41               0 5.000000000e-02 9.500000000e-01*       
*        0.000000000e+00               0                               0        
GRID*                 62               0 1.000000000e-01 9.500000000e-01*       
*        0.000000000e+00               0                               0        
GRID*                 83               0 1.500000000e-01 9.500000000e-01*       
*        0.000000000e+00               0                               0        
GRID*                104               0 2.000000000e-01 9.500000000e-01*       
*        0.000000000e+00               0                               0        
GRID*                125               0 2.500000000e-01 9.500000000e-01*       
*        0.000000000e+00               0                               0        
GRID*                146               0 3.000000000e-01 9.500000000e-01*       
*        0.000000000e+00               0                               0        
GRID*                167               0 3.500000000e-01 9.500000000e-01*       
*        0.000000000e+00               0                               0        
GRID*                188               0 4.000000000e-01 9.500000000e-01*       
*        0.000000000e+00               0                               0        
GRID*                209               0 4.500000000e-01 9.500000000e-01*       
*        0.000000000e+00               0                               0        
GRID*                230               0 5.000000000e-01 9.500000000e-01*       
*        0.000000000e+00               0                               0        
GRID*                251               0 5.500000000e-01 9.500000000e-01*       
*        0.000000000e+00               0                               0        
GRID*                272               0 6.000000000e-01 9.500000000e-01*       
*        0.000000000e+00               0                               0        
GRID*                293               0 6.500000000e-01 9.500000000e-01*       
*        0.000000000e+00               0                               0        
GRID*                314               0 7.000000000e-01 9.500000000e-01*       
*        0.000000000e+00               0                               0        
GRID*                335               0 7.500000000e-01 9.500000000e-01*       
*        0.000000000e+00               0                               0        
GRID*                356               0 8.000000000e-01 9.500000000e-01*       
*        0.000000000e+00               0                               0        
GRID*                377               0 8.500000000e-01 9.500000000e-01*       
*        0.000000000e+00               0                               0        
GRID*                398               0 9.000000000e-01 9.500000000e-01*       
*        0.000000000e+00               0                               0        
GRID*                419               0 9.500000000e-01 9.500000000e-01*       
*        0.000000000e+00               0                               0        
GRID*                440               0 1.000000000e+00 9.500000000e-01*       
*        0.000000000e+00               0                               0        
GRID*                 21               0 0.000000000e+00 1.000000000e+00*       
*        0.000000000e+00               0                               0        
GRID*                 42               0 5.000000000e-02 1.000000000e+00*       
*        0.000000000e+00               0                               0        
GRID*                 63               0 1.000000000e-01 1.000000000e+00*       
*        0.000000000e+00               0                               0        
GRID*                 84               0 1.500000000e-01 1.000000000e+00*       
*        0.000000000e+00               0                               0        
GRID*                105               0 2.000000000e-01 1.000000000e+00*       
*        0.000000000e+00               0                               0        
GRID*                126               0 2.500000000e-01 1.000000000e+00*       
*        0.000000000e+00               0                               0        
GRID*                147               0 3.000000000e-01 1.000000000e+00*       
*        0.000000000e+00               0                               0        
GRID*                168               0 3.500000000e-01 1.000000000e+00*       
*        0.000000000e+00               0                               0        
GRID*                189               0 4.000000000e-01 1.000000000e+00*       
*        0.000000000e+00               0                               0        
GRID*                210               0 4.500000000e-01 1.000000000e+00*       
*        0.000000000e+00               0                               0        
GRID*                231               0 5.000000000e-01 1.000000000e+00*       
*        0.000000000e+00               0                               0        
GRID*                252               0 5.500000000e-01 1.000000000e+00*       
*        0.000000000e+00               0                               0        
GRID*                273               0 6.000000000e-01 1.000000000e+00*       
*        0.000000000e+00               0                               0        
GRID*                294               0 6.500000000e-01 1.000000000e+00*       
*        0.000000000e+00               0                               0        
GRID*                315               0 7.000000000e-01 1.000000000e+00*       
*        0.000000000e+00               0                               0        
GRID*                336               0 7.500000000e-01 1.000000000e+00*       
*        0.000000000e+00               0                               0        
GRID*                357               0 8.000000000e-01 1.000000000e+00*       
*        0.000000000e+00               0                               0        
GRID*                378               0 8.500000000e-01 1.000000000e+00*       
*        0.000000000e+00               0                               0        
GRID*                399               0 9.000000000e-01 1.000000000e+00*       
*        0.000000000e+00               0                               0        
GRID*                420               0 9.500000000e-01 1.000000000e+00*       
*        0.000000000e+00               0                               0        
GRID*                441               0 1.000000000e+00 1.000000000e+00*       
*        0.000000000e+00               0                               0        
CQUAD          1       1       1      43      45       3      22      44
              24       2      23
CQUAD          2       1      43      85      87      45      64      86
              66      44      65
CQUAD          3       1      85     127     129      87     106     128
             108      86     107
CQUAD          4       1     127     169     171     129     148     170
             150     128     149
CQUAD          5       1     169     211     213     171     190     212
             192     170     191
CQUAD          6       1     211     253     255     213     232     254
             234     212     233
CQUAD          7       1     253     295     297     255     274     296
             276     254     275
CQUAD          8       1     295     337     339     297     316     338
             318     296     317
CQUAD          9       1     337     379     381     339     358     380
             360     338     359
CQUAD         10       1     379     421     423     381     400     422
             402     380     401
CQUAD         11       1       3      45      47       5      24      46
              26       4      25
CQUAD         12       1      45      87      89      47      66      88
              68      46      67
CQUAD         13       1      87     129     131      89     108     130
             110      88     109
CQUAD         14       1     129     171     173     131     150     172
             152     130     151
CQUAD         15       1     171     213     215     173     192     214
             194     172     193
CQUAD         16       1     213     255     257     215     234     256
             236     214     235
CQUAD         17       1     255     297     299     257     276     298
             278     256     277
CQUAD         18       1     297     339     341     299     318     340
             320     298     319
CQUAD         19       1     339     381     383     341     360     382
             362     340     361
CQUAD         20       1     381     423     425     383     402     424
             404     382     403
CQUAD         21       1       5      47      49       7      26      48
              28       6      27
CQUAD         22       1      47      89      91      49      68      90
              70      48      69
CQUAD         23       1      89     131     133      91     110     132
             112      90     111
CQUAD         24       1     131     173     175     133     152     174
             154     132     153
CQUAD         25       1     173     215     217     175     194     216
             196     174     195
CQUAD         26       1     215     257     259     217     236     258
             238     216     237
CQUAD         27       1     257     299     301     259     278     300
             280     258     279
CQUAD         28       1     299     341     343     301     320     342
             322     300     321
CQUAD         29       1     341     383     385     343     362     384
             364     342     363
CQUAD         30       1     383     425     427     385     404     426
             406     384     405
CQUAD         31       1       7      49      51       9      28      50
              30       8      29
CQUAD         32       1      49      91      93      51      70      92
              72      50      71
CQUAD         33       1      91     133     135      93     112     134
             114      92     113
CQUAD         34       1     133     175     177     135     154     176
             156     134     155
CQUAD         35       1     175     217     219     177     196     218
             198     176     197
CQUAD         36       1     217     259     261     219     238     260
             240     218     239
CQUAD         37       1     259     301     303     261     280     302
             282     260     281
CQUAD         38       1     301     343     345     303     322     344
             324     302     323
CQUAD         39       1     343     385     387     345     364     386
             366     344     365
CQUAD         40       1     385     427     429     387     406     428
             408     386     407
CQUAD         41       1       9      51      53      11      30      52
              32      10      31
CQUAD         42       1      51      93      95      53      72      94
              74      52      73
CQUAD         43       1      93     135     137      95     114     136
             116      94     115
CQUAD         44       1     135     177     179     137     156     178
             158     136     157
CQUAD         45       1     177     219     221     179     198     220
             200     178     199
CQUAD         46       1     219     261     263     221     240     262
             242     220     241
CQUAD         47       1     261     303     305     263     282     304
             284     262     283
CQUAD         48       1     303     345     347     305     324     346
             326     304     325
CQUAD         49       1     345     387     389     347     366     388
             368     346     367
CQUAD         50       1     387     429     431     389     408     430
             410     388     409
CQUAD         51       1      11      53      55      13      32      54
              34      12      33
CQUAD         52       1      53      95      97      55      74      96
              76      54      75
CQUAD         53       1      95     137     139      97     116     138
             118      96     117
CQUAD         54       1     137     179     181     139     158     180
             160     138     159
CQUAD         55       1     179     221     223     181     200     222
             202     180     201
CQUAD         56       1     221     263     265     223     242     264
             244     222     243
CQUAD         57       1     263     305     307     265     284     306
             286     264     285
CQUAD         58       1     305     347     349     307     326     348
             328     306     327
CQUAD         59       1     347     389     391     349     368     390
             370     348     369
CQUAD         60       1     389     431     433     391     410     432
             412     390     411
CQUAD         61       1      13      55      57      15      34      56
              36      14      35
CQUAD         62       1      55      97      99      57      76      98
              78      56      77
CQUAD         63       1      97     139     141      99     118     140
             120      98     119
CQUAD         64       1     139     181     183     141     160     182
             162     140     161
CQUAD         65       1     181     223     225     183     202     224
             204     182     203
CQUAD         66       1     223     265     267     225     244     266
             246     224     245
CQUAD         67       1     265     307     309     267     286     308
             288     266     287
CQUAD         68       1     307     349     351     309     328     350
             330     308     329
CQUAD         69       1     349     391     393     351     370     392
             372     350     371
CQUAD         70       1     391     433     435     393     412     434
             414     392     413
CQUAD         71       1      15      57      59      17      36      58
              38      16      37
CQUAD         72       1      57      99     101      59      78     100
              80      58      79
CQUAD         73       1      99     141     143     101     120     142
             122     100     121
CQUAD         74       1     141     183     185     143     162     184
             164     142     163
CQUAD         75       1     183     225     227     185     204     226
             206     184     205
CQUAD         76       1     225     267     269     227     246     268
             248     226     247
CQUAD         77       1     267     309     311     269     288     310
             290     268     289
CQUAD         78       1     309     351     353     311     330     352
             332     310     331
CQUAD         79       1     351     393     395     353     372     394
             374     352     373
CQUAD         80       1     393     435     437     395     414     436
             416     394     415
CQUAD         81       1      17      59      61      19      38      60
              40      18      39
CQUAD         82       1      59     101     103      61      80     102
              82      60      81
CQUAD         83       1     101     143     145     103     122     144
             124     102     123
CQUAD         84       1     143     185     187     145     164     186
             166     144     165
CQUAD         85       1     185     227     229     187     206     228
             208     186     207
CQUAD         86       1     227     269     271     229     248     270
             250     228     249
CQUAD         87       1     269     311     313     271     290     312
             292     270     291
CQUAD         88       1     311     353     355     313     332     354
             334     312     333
CQUAD         89       1     353     395     397     355     374     396
             376     354     375
CQUAD         90       1     395     437     439     397     416     438
             418     396     417
CQUAD         91       1      19      61      63      21      40      62
              42      20      41
CQUAD         92       1      61     103     105      63      82     104
              84      62      83
CQUAD         93       1     103     145     147     105     124     146
             126     104     125
CQUAD         94       1     145     187     189     147     166     188
             168     146     167
CQUAD         95       1     187     229     231     189     208     230
             210     188     209
CQUAD         96       1     229     271     273     231     250     272
             252     230     251
CQUAD         97       1     271     313     315     273     292     314
             294     272     293
CQUAD         98       1     313     355     357     315     334     356
             336     314     335
CQUAD         99       1     355     397     399     357     376     398
             378     356     377
CQUAD        100       1     397     439     441     399     418     440
             420     398     419
SPC            1       1     1230.000000
SPC            1      22     1230.000000
SPC            1      43     1230.000000
SPC            1      64     1230.000000
SPC            1      85     1230.000000
SPC            1     106     1230.000000
SPC            1     127     1230.000000
SPC            1     148     1230.000000
SPC            1     169     1230.000000
SPC            1     190     1230.000000
SPC            1     211     1230.000000
SPC            1     232     1230.000000
SPC            1     253     1230.000000
SPC            1     274     1230.000000
SPC            1     295     1230.000000
SPC            1     316     1230.000000
SPC            1     337     1230.000000
SPC            1     358     1230.000000
SPC            1     379     1230.000000
SPC            1     400     1230.000000
SPC            1     421     1230.000000
END BULK