$ Input file for a rotor simulation with 4 blades
$ Blade 4, theta=270.000000 deg alpha=0.000000 deg
$ nx=24, ny=2, x0=-0.060500, x1=0.060500, y0=2.000000, y1=0.440000
GRID*                736               0 6.050000000e-02 2.000000000e+00*       
*        9.000000000e-01               0                               0        
GRID*                741               0 6.050000000e-02 1.967500000e+00*       
*        9.000000000e-01               0                               0        
GRID*                746               0 6.050000000e-02 1.935000000e+00*       
*        9.000000000e-01               0                               0        
GRID*                751               0 6.050000000e-02 1.902500000e+00*       
*        9.000000000e-01               0                               0        
GRID*                756               0 6.050000000e-02 1.870000000e+00*       
*        9.000000000e-01               0                               0        
GRID*                761               0 6.050000000e-02 1.837500000e+00*       
*        9.000000000e-01               0                               0        
GRID*                766               0 6.050000000e-02 1.805000000e+00*       
*        9.000000000e-01               0                               0        
GRID*                771               0 6.050000000e-02 1.772500000e+00*       
*        9.000000000e-01               0                               0        
GRID*                776               0 6.050000000e-02 1.740000000e+00*       
*        9.000000000e-01               0                               0        
GRID*                781               0 6.050000000e-02 1.707500000e+00*       
*        9.000000000e-01               0                               0        
GRID*                786               0 6.050000000e-02 1.675000000e+00*       
*        9.000000000e-01               0                               0        
GRID*                791               0 6.050000000e-02 1.642500000e+00*       
*        9.000000000e-01               0                               0        
GRID*                796               0 6.050000000e-02 1.610000000e+00*       
*        9.000000000e-01               0                               0        
GRID*                801               0 6.050000000e-02 1.577500000e+00*       
*        9.000000000e-01               0                               0        
GRID*                806               0 6.050000000e-02 1.545000000e+00*       
*        9.000000000e-01               0                               0        
GRID*                811               0 6.050000000e-02 1.512500000e+00*       
*        9.000000000e-01               0                               0        
GRID*                816               0 6.050000000e-02 1.480000000e+00*       
*        9.000000000e-01               0                               0        
GRID*                821               0 6.050000000e-02 1.447500000e+00*       
*        9.000000000e-01               0                               0        
GRID*                826               0 6.050000000e-02 1.415000000e+00*       
*        9.000000000e-01               0                               0        
GRID*                831               0 6.050000000e-02 1.382500000e+00*       
*        9.000000000e-01               0                               0        
GRID*                836               0 6.050000000e-02 1.350000000e+00*       
*        9.000000000e-01               0                               0        
GRID*                841               0 6.050000000e-02 1.317500000e+00*       
*        9.000000000e-01               0                               0        
GRID*                846               0 6.050000000e-02 1.285000000e+00*       
*        9.000000000e-01               0                               0        
GRID*                851               0 6.050000000e-02 1.252500000e+00*       
*        9.000000000e-01               0                               0        
GRID*                856               0 6.050000000e-02 1.220000000e+00*       
*        9.000000000e-01               0                               0        
GRID*                861               0 6.050000000e-02 1.187500000e+00*       
*        9.000000000e-01               0                               0        
GRID*                866               0 6.050000000e-02 1.155000000e+00*       
*        9.000000000e-01               0                               0        
GRID*                871               0 6.050000000e-02 1.122500000e+00*       
*        9.000000000e-01               0                               0        
GRID*                876               0 6.050000000e-02 1.090000000e+00*       
*        9.000000000e-01               0                               0        
GRID*                881               0 6.050000000e-02 1.057500000e+00*       
*        9.000000000e-01               0                               0        
GRID*                886               0 6.050000000e-02 1.025000000e+00*       
*        9.000000000e-01               0                               0        
GRID*                891               0 6.050000000e-02 9.925000000e-01*       
*        9.000000000e-01               0                               0        
GRID*                896               0 6.050000000e-02 9.600000000e-01*       
*        9.000000000e-01               0                               0        
GRID*                901               0 6.050000000e-02 9.275000000e-01*       
*        9.000000000e-01               0                               0        
GRID*                906               0 6.050000000e-02 8.950000000e-01*       
*        9.000000000e-01               0                               0        
GRID*                911               0 6.050000000e-02 8.625000000e-01*       
*        9.000000000e-01               0                               0        
GRID*                916               0 6.050000000e-02 8.300000000e-01*       
*        9.000000000e-01               0                               0        
GRID*                921               0 6.050000000e-02 7.975000000e-01*       
*        9.000000000e-01               0                               0        
GRID*                926               0 6.050000000e-02 7.650000000e-01*       
*        9.000000000e-01               0                               0        
GRID*                931               0 6.050000000e-02 7.325000000e-01*       
*        9.000000000e-01               0                               0        
GRID*                936               0 6.050000000e-02 7.000000000e-01*       
*        9.000000000e-01               0                               0        
GRID*                941               0 6.050000000e-02 6.675000000e-01*       
*        9.000000000e-01               0                               0        
GRID*                946               0 6.050000000e-02 6.350000000e-01*       
*        9.000000000e-01               0                               0        
GRID*                951               0 6.050000000e-02 6.025000000e-01*       
*        9.000000000e-01               0                               0        
GRID*                956               0 6.050000000e-02 5.700000000e-01*       
*        9.000000000e-01               0                               0        
GRID*                961               0 6.050000000e-02 5.375000000e-01*       
*        9.000000000e-01               0                               0        
GRID*                966               0 6.050000000e-02 5.050000000e-01*       
*        9.000000000e-01               0                               0        
GRID*                971               0 6.050000000e-02 4.725000000e-01*       
*        9.000000000e-01               0                               0        
GRID*                976               0 6.050000000e-02 4.400000000e-01*       
*        9.000000000e-01               0                               0        
GRID*                737               0 3.025000000e-02 2.000000000e+00*       
*        9.000000000e-01               0                               0        
GRID*                742               0 3.025000000e-02 1.967500000e+00*       
*        9.000000000e-01               0                               0        
GRID*                747               0 3.025000000e-02 1.935000000e+00*       
*        9.000000000e-01               0                               0        
GRID*                752               0 3.025000000e-02 1.902500000e+00*       
*        9.000000000e-01               0                               0        
GRID*                757               0 3.025000000e-02 1.870000000e+00*       
*        9.000000000e-01               0                               0        
GRID*                762               0 3.025000000e-02 1.837500000e+00*       
*        9.000000000e-01               0                               0        
GRID*                767               0 3.025000000e-02 1.805000000e+00*       
*        9.000000000e-01               0                               0        
GRID*                772               0 3.025000000e-02 1.772500000e+00*       
*        9.000000000e-01               0                               0        
GRID*                777               0 3.025000000e-02 1.740000000e+00*       
*        9.000000000e-01               0                               0        
GRID*                782               0 3.025000000e-02 1.707500000e+00*       
*        9.000000000e-01               0                               0        
GRID*                787               0 3.025000000e-02 1.675000000e+00*       
*        9.000000000e-01               0                               0        
GRID*                792               0 3.025000000e-02 1.642500000e+00*       
*        9.000000000e-01               0                               0        
GRID*                797               0 3.025000000e-02 1.610000000e+00*       
*        9.000000000e-01               0                               0        
GRID*                802               0 3.025000000e-02 1.577500000e+00*       
*        9.000000000e-01               0                               0        
GRID*                807               0 3.025000000e-02 1.545000000e+00*       
*        9.000000000e-01               0                               0        
GRID*                812               0 3.025000000e-02 1.512500000e+00*       
*        9.000000000e-01               0                               0        
GRID*                817               0 3.025000000e-02 1.480000000e+00*       
*        9.000000000e-01               0                               0        
GRID*                822               0 3.025000000e-02 1.447500000e+00*       
*        9.000000000e-01               0                               0        
GRID*                827               0 3.025000000e-02 1.415000000e+00*       
*        9.000000000e-01               0                               0        
GRID*                832               0 3.025000000e-02 1.382500000e+00*       
*        9.000000000e-01               0                               0        
GRID*                837               0 3.025000000e-02 1.350000000e+00*       
*        9.000000000e-01               0                               0        
GRID*                842               0 3.025000000e-02 1.317500000e+00*       
*        9.000000000e-01               0                               0        
GRID*                847               0 3.025000000e-02 1.285000000e+00*       
*        9.000000000e-01               0                               0        
GRID*                852               0 3.025000000e-02 1.252500000e+00*       
*        9.000000000e-01               0                               0        
GRID*                857               0 3.025000000e-02 1.220000000e+00*       
*        9.000000000e-01               0                               0        
GRID*                862               0 3.025000000e-02 1.187500000e+00*       
*        9.000000000e-01               0                               0        
GRID*                867               0 3.025000000e-02 1.155000000e+00*       
*        9.000000000e-01               0                               0        
GRID*                872               0 3.025000000e-02 1.122500000e+00*       
*        9.000000000e-01               0                               0        
GRID*                877               0 3.025000000e-02 1.090000000e+00*       
*        9.000000000e-01               0                               0        
GRID*                882               0 3.025000000e-02 1.057500000e+00*       
*        9.000000000e-01               0                               0        
GRID*                887               0 3.025000000e-02 1.025000000e+00*       
*        9.000000000e-01               0                               0        
GRID*                892               0 3.025000000e-02 9.925000000e-01*       
*        9.000000000e-01               0                               0        
GRID*                897               0 3.025000000e-02 9.600000000e-01*       
*        9.000000000e-01               0                               0        
GRID*                902               0 3.025000000e-02 9.275000000e-01*       
*        9.000000000e-01               0                               0        
GRID*                907               0 3.025000000e-02 8.950000000e-01*       
*        9.000000000e-01               0                               0        
GRID*                912               0 3.025000000e-02 8.625000000e-01*       
*        9.000000000e-01               0                               0        
GRID*                917               0 3.025000000e-02 8.300000000e-01*       
*        9.000000000e-01               0                               0        
GRID*                922               0 3.025000000e-02 7.975000000e-01*       
*        9.000000000e-01               0                               0        
GRID*                927               0 3.025000000e-02 7.650000000e-01*       
*        9.000000000e-01               0                               0        
GRID*                932               0 3.025000000e-02 7.325000000e-01*       
*        9.000000000e-01               0                               0        
GRID*                937               0 3.025000000e-02 7.000000000e-01*       
*        9.000000000e-01               0                               0        
GRID*                942               0 3.025000000e-02 6.675000000e-01*       
*        9.000000000e-01               0                               0        
GRID*                947               0 3.025000000e-02 6.350000000e-01*       
*        9.000000000e-01               0                               0        
GRID*                952               0 3.025000000e-02 6.025000000e-01*       
*        9.000000000e-01               0                               0        
GRID*                957               0 3.025000000e-02 5.700000000e-01*       
*        9.000000000e-01               0                               0        
GRID*                962               0 3.025000000e-02 5.375000000e-01*       
*        9.000000000e-01               0                               0        
GRID*                967               0 3.025000000e-02 5.050000000e-01*       
*        9.000000000e-01               0                               0        
GRID*                972               0 3.025000000e-02 4.725000000e-01*       
*        9.000000000e-01               0                               0        
GRID*                977               0 3.025000000e-02 4.400000000e-01*       
*        9.000000000e-01               0                               0        
GRID*                738               0-3.673940397e-16 2.000000000e+00*       
*        9.000000000e-01               0                               0        
GRID*                743               0-3.614238866e-16 1.967500000e+00*       
*        9.000000000e-01               0                               0        
GRID*                748               0-3.554537335e-16 1.935000000e+00*       
*        9.000000000e-01               0                               0        
GRID*                753               0-3.494835803e-16 1.902500000e+00*       
*        9.000000000e-01               0                               0        
GRID*                758               0-3.435134272e-16 1.870000000e+00*       
*        9.000000000e-01               0                               0        
GRID*                763               0-3.375432740e-16 1.837500000e+00*       
*        9.000000000e-01               0                               0        
GRID*                768               0-3.315731209e-16 1.805000000e+00*       
*        9.000000000e-01               0                               0        
GRID*                773               0-3.256029677e-16 1.772500000e+00*       
*        9.000000000e-01               0                               0        
GRID*                778               0-3.196328146e-16 1.740000000e+00*       
*        9.000000000e-01               0                               0        
GRID*                783               0-3.136626614e-16 1.707500000e+00*       
*        9.000000000e-01               0                               0        
GRID*                788               0-3.076925083e-16 1.675000000e+00*       
*        9.000000000e-01               0                               0        
GRID*                793               0-3.017223551e-16 1.642500000e+00*       
*        9.000000000e-01               0                               0        
GRID*                798               0-2.957522020e-16 1.610000000e+00*       
*        9.000000000e-01               0                               0        
GRID*                803               0-2.897820488e-16 1.577500000e+00*       
*        9.000000000e-01               0                               0        
GRID*                808               0-2.838118957e-16 1.545000000e+00*       
*        9.000000000e-01               0                               0        
GRID*                813               0-2.778417426e-16 1.512500000e+00*       
*        9.000000000e-01               0                               0        
GRID*                818               0-2.718715894e-16 1.480000000e+00*       
*        9.000000000e-01               0                               0        
GRID*                823               0-2.659014363e-16 1.447500000e+00*       
*        9.000000000e-01               0                               0        
GRID*                828               0-2.599312831e-16 1.415000000e+00*       
*        9.000000000e-01               0                               0        
GRID*                833               0-2.539611300e-16 1.382500000e+00*       
*        9.000000000e-01               0                               0        
GRID*                838               0-2.479909768e-16 1.350000000e+00*       
*        9.000000000e-01               0                               0        
GRID*                843               0-2.420208237e-16 1.317500000e+00*       
*        9.000000000e-01               0                               0        
GRID*                848               0-2.360506705e-16 1.285000000e+00*       
*        9.000000000e-01               0                               0        
GRID*                853               0-2.300805174e-16 1.252500000e+00*       
*        9.000000000e-01               0                               0        
GRID*                858               0-2.241103642e-16 1.220000000e+00*       
*        9.000000000e-01               0                               0        
GRID*                863               0-2.181402111e-16 1.187500000e+00*       
*        9.000000000e-01               0                               0        
GRID*                868               0-2.121700580e-16 1.155000000e+00*       
*        9.000000000e-01               0                               0        
GRID*                873               0-2.061999048e-16 1.122500000e+00*       
*        9.000000000e-01               0                               0        
GRID*                878               0-2.002297517e-16 1.090000000e+00*       
*        9.000000000e-01               0                               0        
GRID*                883               0-1.942595985e-16 1.057500000e+00*       
*        9.000000000e-01               0                               0        
GRID*                888               0-1.882894454e-16 1.025000000e+00*       
*        9.000000000e-01               0                               0        
GRID*                893               0-1.823192922e-16 9.925000000e-01*       
*        9.000000000e-01               0                               0        
GRID*                898               0-1.763491391e-16 9.600000000e-01*       
*        9.000000000e-01               0                               0        
GRID*                903               0-1.703789859e-16 9.275000000e-01*       
*        9.000000000e-01               0                               0        
GRID*                908               0-1.644088328e-16 8.950000000e-01*       
*        9.000000000e-01               0                               0        
GRID*                913               0-1.584386796e-16 8.625000000e-01*       
*        9.000000000e-01               0                               0        
GRID*                918               0-1.524685265e-16 8.300000000e-01*       
*        9.000000000e-01               0                               0        
GRID*                923               0-1.464983733e-16 7.975000000e-01*       
*        9.000000000e-01               0                               0        
GRID*                928               0-1.405282202e-16 7.650000000e-01*       
*        9.000000000e-01               0                               0        
GRID*                933               0-1.345580671e-16 7.325000000e-01*       
*        9.000000000e-01               0                               0        
GRID*                938               0-1.285879139e-16 7.000000000e-01*       
*        9.000000000e-01               0                               0        
GRID*                943               0-1.226177608e-16 6.675000000e-01*       
*        9.000000000e-01               0                               0        
GRID*                948               0-1.166476076e-16 6.350000000e-01*       
*        9.000000000e-01               0                               0        
GRID*                953               0-1.106774545e-16 6.025000000e-01*       
*        9.000000000e-01               0                               0        
GRID*                958               0-1.047073013e-16 5.700000000e-01*       
*        9.000000000e-01               0                               0        
GRID*                963               0-9.873714818e-17 5.375000000e-01*       
*        9.000000000e-01               0                               0        
GRID*                968               0-9.276699504e-17 5.050000000e-01*       
*        9.000000000e-01               0                               0        
GRID*                973               0-8.679684189e-17 4.725000000e-01*       
*        9.000000000e-01               0                               0        
GRID*                978               0-8.082668874e-17 4.400000000e-01*       
*        9.000000000e-01               0                               0        
GRID*                739               0-3.025000000e-02 2.000000000e+00*       
*        9.000000000e-01               0                               0        
GRID*                744               0-3.025000000e-02 1.967500000e+00*       
*        9.000000000e-01               0                               0        
GRID*                749               0-3.025000000e-02 1.935000000e+00*       
*        9.000000000e-01               0                               0        
GRID*                754               0-3.025000000e-02 1.902500000e+00*       
*        9.000000000e-01               0                               0        
GRID*                759               0-3.025000000e-02 1.870000000e+00*       
*        9.000000000e-01               0                               0        
GRID*                764               0-3.025000000e-02 1.837500000e+00*       
*        9.000000000e-01               0                               0        
GRID*                769               0-3.025000000e-02 1.805000000e+00*       
*        9.000000000e-01               0                               0        
GRID*                774               0-3.025000000e-02 1.772500000e+00*       
*        9.000000000e-01               0                               0        
GRID*                779               0-3.025000000e-02 1.740000000e+00*       
*        9.000000000e-01               0                               0        
GRID*                784               0-3.025000000e-02 1.707500000e+00*       
*        9.000000000e-01               0                               0        
GRID*                789               0-3.025000000e-02 1.675000000e+00*       
*        9.000000000e-01               0                               0        
GRID*                794               0-3.025000000e-02 1.642500000e+00*       
*        9.000000000e-01               0                               0        
GRID*                799               0-3.025000000e-02 1.610000000e+00*       
*        9.000000000e-01               0                               0        
GRID*                804               0-3.025000000e-02 1.577500000e+00*       
*        9.000000000e-01               0                               0        
GRID*                809               0-3.025000000e-02 1.545000000e+00*       
*        9.000000000e-01               0                               0        
GRID*                814               0-3.025000000e-02 1.512500000e+00*       
*        9.000000000e-01               0                               0        
GRID*                819               0-3.025000000e-02 1.480000000e+00*       
*        9.000000000e-01               0                               0        
GRID*                824               0-3.025000000e-02 1.447500000e+00*       
*        9.000000000e-01               0                               0        
GRID*                829               0-3.025000000e-02 1.415000000e+00*       
*        9.000000000e-01               0                               0        
GRID*                834               0-3.025000000e-02 1.382500000e+00*       
*        9.000000000e-01               0                               0        
GRID*                839               0-3.025000000e-02 1.350000000e+00*       
*        9.000000000e-01               0                               0        
GRID*                844               0-3.025000000e-02 1.317500000e+00*       
*        9.000000000e-01               0                               0        
GRID*                849               0-3.025000000e-02 1.285000000e+00*       
*        9.000000000e-01               0                               0        
GRID*                854               0-3.025000000e-02 1.252500000e+00*       
*        9.000000000e-01               0                               0        
GRID*                859               0-3.025000000e-02 1.220000000e+00*       
*        9.000000000e-01               0                               0        
GRID*                864               0-3.025000000e-02 1.187500000e+00*       
*        9.000000000e-01               0                               0        
GRID*                869               0-3.025000000e-02 1.155000000e+00*       
*        9.000000000e-01               0                               0        
GRID*                874               0-3.025000000e-02 1.122500000e+00*       
*        9.000000000e-01               0                               0        
GRID*                879               0-3.025000000e-02 1.090000000e+00*       
*        9.000000000e-01               0                               0        
GRID*                884               0-3.025000000e-02 1.057500000e+00*       
*        9.000000000e-01               0                               0        
GRID*                889               0-3.025000000e-02 1.025000000e+00*       
*        9.000000000e-01               0                               0        
GRID*                894               0-3.025000000e-02 9.925000000e-01*       
*        9.000000000e-01               0                               0        
GRID*                899               0-3.025000000e-02 9.600000000e-01*       
*        9.000000000e-01               0                               0        
GRID*                904               0-3.025000000e-02 9.275000000e-01*       
*        9.000000000e-01               0                               0        
GRID*                909               0-3.025000000e-02 8.950000000e-01*       
*        9.000000000e-01               0                               0        
GRID*                914               0-3.025000000e-02 8.625000000e-01*       
*        9.000000000e-01               0                               0        
GRID*                919               0-3.025000000e-02 8.300000000e-01*       
*        9.000000000e-01               0                               0        
GRID*                924               0-3.025000000e-02 7.975000000e-01*       
*        9.000000000e-01               0                               0        
GRID*                929               0-3.025000000e-02 7.650000000e-01*       
*        9.000000000e-01               0                               0        
GRID*                934               0-3.025000000e-02 7.325000000e-01*       
*        9.000000000e-01               0                               0        
GRID*                939               0-3.025000000e-02 7.000000000e-01*       
*        9.000000000e-01               0                               0        
GRID*                944               0-3.025000000e-02 6.675000000e-01*       
*        9.000000000e-01               0                               0        
GRID*                949               0-3.025000000e-02 6.350000000e-01*       
*        9.000000000e-01               0                               0        
GRID*                954               0-3.025000000e-02 6.025000000e-01*       
*        9.000000000e-01               0                               0        
GRID*                959               0-3.025000000e-02 5.700000000e-01*       
*        9.000000000e-01               0                               0        
GRID*                964               0-3.025000000e-02 5.375000000e-01*       
*        9.000000000e-01               0                               0        
GRID*                969               0-3.025000000e-02 5.050000000e-01*       
*        9.000000000e-01               0                               0        
GRID*                974               0-3.025000000e-02 4.725000000e-01*       
*        9.000000000e-01               0                               0        
GRID*                979               0-3.025000000e-02 4.400000000e-01*       
*        9.000000000e-01               0                               0        
GRID*                740               0-6.050000000e-02 2.000000000e+00*       
*        9.000000000e-01               0                               0        
GRID*                745               0-6.050000000e-02 1.967500000e+00*       
*        9.000000000e-01               0                               0        
GRID*                750               0-6.050000000e-02 1.935000000e+00*       
*        9.000000000e-01               0                               0        
GRID*                755               0-6.050000000e-02 1.902500000e+00*       
*        9.000000000e-01               0                               0        
GRID*                760               0-6.050000000e-02 1.870000000e+00*       
*        9.000000000e-01               0                               0        
GRID*                765               0-6.050000000e-02 1.837500000e+00*       
*        9.000000000e-01               0                               0        
GRID*                770               0-6.050000000e-02 1.805000000e+00*       
*        9.000000000e-01               0                               0        
GRID*                775               0-6.050000000e-02 1.772500000e+00*       
*        9.000000000e-01               0                               0        
GRID*                780               0-6.050000000e-02 1.740000000e+00*       
*        9.000000000e-01               0                               0        
GRID*                785               0-6.050000000e-02 1.707500000e+00*       
*        9.000000000e-01               0                               0        
GRID*                790               0-6.050000000e-02 1.675000000e+00*       
*        9.000000000e-01               0                               0        
GRID*                795               0-6.050000000e-02 1.642500000e+00*       
*        9.000000000e-01               0                               0        
GRID*                800               0-6.050000000e-02 1.610000000e+00*       
*        9.000000000e-01               0                               0        
GRID*                805               0-6.050000000e-02 1.577500000e+00*       
*        9.000000000e-01               0                               0        
GRID*                810               0-6.050000000e-02 1.545000000e+00*       
*        9.000000000e-01               0                               0        
GRID*                815               0-6.050000000e-02 1.512500000e+00*       
*        9.000000000e-01               0                               0        
GRID*                820               0-6.050000000e-02 1.480000000e+00*       
*        9.000000000e-01               0                               0        
GRID*                825               0-6.050000000e-02 1.447500000e+00*       
*        9.000000000e-01               0                               0        
GRID*                830               0-6.050000000e-02 1.415000000e+00*       
*        9.000000000e-01               0                               0        
GRID*                835               0-6.050000000e-02 1.382500000e+00*       
*        9.000000000e-01               0                               0        
GRID*                840               0-6.050000000e-02 1.350000000e+00*       
*        9.000000000e-01               0                               0        
GRID*                845               0-6.050000000e-02 1.317500000e+00*       
*        9.000000000e-01               0                               0        
GRID*                850               0-6.050000000e-02 1.285000000e+00*       
*        9.000000000e-01               0                               0        
GRID*                855               0-6.050000000e-02 1.252500000e+00*       
*        9.000000000e-01               0                               0        
GRID*                860               0-6.050000000e-02 1.220000000e+00*       
*        9.000000000e-01               0                               0        
GRID*                865               0-6.050000000e-02 1.187500000e+00*       
*        9.000000000e-01               0                               0        
GRID*                870               0-6.050000000e-02 1.155000000e+00*       
*        9.000000000e-01               0                               0        
GRID*                875               0-6.050000000e-02 1.122500000e+00*       
*        9.000000000e-01               0                               0        
GRID*                880               0-6.050000000e-02 1.090000000e+00*       
*        9.000000000e-01               0                               0        
GRID*                885               0-6.050000000e-02 1.057500000e+00*       
*        9.000000000e-01               0                               0        
GRID*                890               0-6.050000000e-02 1.025000000e+00*       
*        9.000000000e-01               0                               0        
GRID*                895               0-6.050000000e-02 9.925000000e-01*       
*        9.000000000e-01               0                               0        
GRID*                900               0-6.050000000e-02 9.600000000e-01*       
*        9.000000000e-01               0                               0        
GRID*                905               0-6.050000000e-02 9.275000000e-01*       
*        9.000000000e-01               0                               0        
GRID*                910               0-6.050000000e-02 8.950000000e-01*       
*        9.000000000e-01               0                               0        
GRID*                915               0-6.050000000e-02 8.625000000e-01*       
*        9.000000000e-01               0                               0        
GRID*                920               0-6.050000000e-02 8.300000000e-01*       
*        9.000000000e-01               0                               0        
GRID*                925               0-6.050000000e-02 7.975000000e-01*       
*        9.000000000e-01               0                               0        
GRID*                930               0-6.050000000e-02 7.650000000e-01*       
*        9.000000000e-01               0                               0        
GRID*                935               0-6.050000000e-02 7.325000000e-01*       
*        9.000000000e-01               0                               0        
GRID*                940               0-6.050000000e-02 7.000000000e-01*       
*        9.000000000e-01               0                               0        
GRID*                945               0-6.050000000e-02 6.675000000e-01*       
*        9.000000000e-01               0                               0        
GRID*                950               0-6.050000000e-02 6.350000000e-01*       
*        9.000000000e-01               0                               0        
GRID*                955               0-6.050000000e-02 6.025000000e-01*       
*        9.000000000e-01               0                               0        
GRID*                960               0-6.050000000e-02 5.700000000e-01*       
*        9.000000000e-01               0                               0        
GRID*                965               0-6.050000000e-02 5.375000000e-01*       
*        9.000000000e-01               0                               0        
GRID*                970               0-6.050000000e-02 5.050000000e-01*       
*        9.000000000e-01               0                               0        
GRID*                975               0-6.050000000e-02 4.725000000e-01*       
*        9.000000000e-01               0                               0        
GRID*                980               0-6.050000000e-02 4.400000000e-01*       
*        9.000000000e-01               0                               0        
CQUAD          1       1     736     746     748     738     741     747
             743     737     742
CQUAD          2       1     746     756     758     748     751     757
             753     747     752
CQUAD          3       1     756     766     768     758     761     767
             763     757     762
CQUAD          4       1     766     776     778     768     771     777
             773     767     772
CQUAD          5       1     776     786     788     778     781     787
             783     777     782
CQUAD          6       1     786     796     798     788     791     797
             793     787     792
CQUAD          7       1     796     806     808     798     801     807
             803     797     802
CQUAD          8       1     806     816     818     808     811     817
             813     807     812
CQUAD          9       1     816     826     828     818     821     827
             823     817     822
CQUAD         10       1     826     836     838     828     831     837
             833     827     832
CQUAD         11       1     836     846     848     838     841     847
             843     837     842
CQUAD         12       1     846     856     858     848     851     857
             853     847     852
CQUAD         13       1     856     866     868     858     861     867
             863     857     862
CQUAD         14       1     866     876     878     868     871     877
             873     867     872
CQUAD         15       1     876     886     888     878     881     887
             883     877     882
CQUAD         16       1     886     896     898     888     891     897
             893     887     892
CQUAD         17       1     896     906     908     898     901     907
             903     897     902
CQUAD         18       1     906     916     918     908     911     917
             913     907     912
CQUAD         19       1     916     926     928     918     921     927
             923     917     922
CQUAD         20       1     926     936     938     928     931     937
             933     927     932
CQUAD         21       1     936     946     948     938     941     947
             943     937     942
CQUAD         22       1     946     956     958     948     951     957
             953     947     952
CQUAD         23       1     956     966     968     958     961     967
             963     957     962
CQUAD         24       1     966     976     978     968     971     977
             973     967     972
CQUAD         25       1     738     748     750     740     743     749
             745     739     744
CQUAD         26       1     748     758     760     750     753     759
             755     749     754
CQUAD         27       1     758     768     770     760     763     769
             765     759     764
CQUAD         28       1     768     778     780     770     773     779
             775     769     774
CQUAD         29       1     778     788     790     780     783     789
             785     779     784
CQUAD         30       1     788     798     800     790     793     799
             795     789     794
CQUAD         31       1     798     808     810     800     803     809
             805     799     804
CQUAD         32       1     808     818     820     810     813     819
             815     809     814
CQUAD         33       1     818     828     830     820     823     829
             825     819     824
CQUAD         34       1     828     838     840     830     833     839
             835     829     834
CQUAD         35       1     838     848     850     840     843     849
             845     839     844
CQUAD         36       1     848     858     860     850     853     859
             855     849     854
CQUAD         37       1     858     868     870     860     863     869
             865     859     864
CQUAD         38       1     868     878     880     870     873     879
             875     869     874
CQUAD         39       1     878     888     890     880     883     889
             885     879     884
CQUAD         40       1     888     898     900     890     893     899
             895     889     894
CQUAD         41       1     898     908     910     900     903     909
             905     899     904
CQUAD         42       1     908     918     920     910     913     919
             915     909     914
CQUAD         43       1     918     928     930     920     923     929
             925     919     924
CQUAD         44       1     928     938     940     930     933     939
             935     929     934
CQUAD         45       1     938     948     950     940     943     949
             945     939     944
CQUAD         46       1     948     958     960     950     953     959
             955     949     954
CQUAD         47       1     958     968     970     960     963     969
             965     959     964
CQUAD         48       1     968     978     980     970     973     979
             975     969     974
SPC            1     976     1230.000000
SPC            1     977     1230.000000
SPC            1     978     1230.000000
SPC            1     979     1230.000000
SPC            1     980     1230.000000
$ END