$ Input file for a rotor simulation with 4 blades
$ Blade 3, theta=180.000000 deg alpha=0.000000 deg
$ nx=24, ny=2, x0=-0.060500, x1=0.060500, y0=2.000000, y1=0.440000
GRID*                491               0-2.000000000e+00 6.050000000e-02*       
*        9.000000000e-01               0                               0        
GRID*                496               0-1.967500000e+00 6.050000000e-02*       
*        9.000000000e-01               0                               0        
GRID*                501               0-1.935000000e+00 6.050000000e-02*       
*        9.000000000e-01               0                               0        
GRID*                506               0-1.902500000e+00 6.050000000e-02*       
*        9.000000000e-01               0                               0        
GRID*                511               0-1.870000000e+00 6.050000000e-02*       
*        9.000000000e-01               0                               0        
GRID*                516               0-1.837500000e+00 6.050000000e-02*       
*        9.000000000e-01               0                               0        
GRID*                521               0-1.805000000e+00 6.050000000e-02*       
*        9.000000000e-01               0                               0        
GRID*                526               0-1.772500000e+00 6.050000000e-02*       
*        9.000000000e-01               0                               0        
GRID*                531               0-1.740000000e+00 6.050000000e-02*       
*        9.000000000e-01               0                               0        
GRID*                536               0-1.707500000e+00 6.050000000e-02*       
*        9.000000000e-01               0                               0        
GRID*                541               0-1.675000000e+00 6.050000000e-02*       
*        9.000000000e-01               0                               0        
GRID*                546               0-1.642500000e+00 6.050000000e-02*       
*        9.000000000e-01               0                               0        
GRID*                551               0-1.610000000e+00 6.050000000e-02*       
*        9.000000000e-01               0                               0        
GRID*                556               0-1.577500000e+00 6.050000000e-02*       
*        9.000000000e-01               0                               0        
GRID*                561               0-1.545000000e+00 6.050000000e-02*       
*        9.000000000e-01               0                               0        
GRID*                566               0-1.512500000e+00 6.050000000e-02*       
*        9.000000000e-01               0                               0        
GRID*                571               0-1.480000000e+00 6.050000000e-02*       
*        9.000000000e-01               0                               0        
GRID*                576               0-1.447500000e+00 6.050000000e-02*       
*        9.000000000e-01               0                               0        
GRID*                581               0-1.415000000e+00 6.050000000e-02*       
*        9.000000000e-01               0                               0        
GRID*                586               0-1.382500000e+00 6.050000000e-02*       
*        9.000000000e-01               0                               0        
GRID*                591               0-1.350000000e+00 6.050000000e-02*       
*        9.000000000e-01               0                               0        
GRID*                596               0-1.317500000e+00 6.050000000e-02*       
*        9.000000000e-01               0                               0        
GRID*                601               0-1.285000000e+00 6.050000000e-02*       
*        9.000000000e-01               0                               0        
GRID*                606               0-1.252500000e+00 6.050000000e-02*       
*        9.000000000e-01               0                               0        
GRID*                611               0-1.220000000e+00 6.050000000e-02*       
*        9.000000000e-01               0                               0        
GRID*                616               0-1.187500000e+00 6.050000000e-02*       
*        9.000000000e-01               0                               0        
GRID*                621               0-1.155000000e+00 6.050000000e-02*       
*        9.000000000e-01               0                               0        
GRID*                626               0-1.122500000e+00 6.050000000e-02*       
*        9.000000000e-01               0                               0        
GRID*                631               0-1.090000000e+00 6.050000000e-02*       
*        9.000000000e-01               0                               0        
GRID*                636               0-1.057500000e+00 6.050000000e-02*       
*        9.000000000e-01               0                               0        
GRID*                641               0-1.025000000e+00 6.050000000e-02*       
*        9.000000000e-01               0                               0        
GRID*                646               0-9.925000000e-01 6.050000000e-02*       
*        9.000000000e-01               0                               0        
GRID*                651               0-9.600000000e-01 6.050000000e-02*       
*        9.000000000e-01               0                               0        
GRID*                656               0-9.275000000e-01 6.050000000e-02*       
*        9.000000000e-01               0                               0        
GRID*                661               0-8.950000000e-01 6.050000000e-02*       
*        9.000000000e-01               0                               0        
GRID*                666               0-8.625000000e-01 6.050000000e-02*       
*        9.000000000e-01               0                               0        
GRID*                671               0-8.300000000e-01 6.050000000e-02*       
*        9.000000000e-01               0                               0        
GRID*                676               0-7.975000000e-01 6.050000000e-02*       
*        9.000000000e-01               0                               0        
GRID*                681               0-7.650000000e-01 6.050000000e-02*       
*        9.000000000e-01               0                               0        
GRID*                686               0-7.325000000e-01 6.050000000e-02*       
*        9.000000000e-01               0                               0        
GRID*                691               0-7.000000000e-01 6.050000000e-02*       
*        9.000000000e-01               0                               0        
GRID*                696               0-6.675000000e-01 6.050000000e-02*       
*        9.000000000e-01               0                               0        
GRID*                701               0-6.350000000e-01 6.050000000e-02*       
*        9.000000000e-01               0                               0        
GRID*                706               0-6.025000000e-01 6.050000000e-02*       
*        9.000000000e-01               0                               0        
GRID*                711               0-5.700000000e-01 6.050000000e-02*       
*        9.000000000e-01               0                               0        
GRID*                716               0-5.375000000e-01 6.050000000e-02*       
*        9.000000000e-01               0                               0        
GRID*                721               0-5.050000000e-01 6.050000000e-02*       
*        9.000000000e-01               0                               0        
GRID*                726               0-4.725000000e-01 6.050000000e-02*       
*        9.000000000e-01               0                               0        
GRID*                731               0-4.400000000e-01 6.050000000e-02*       
*        9.000000000e-01               0                               0        
GRID*                492               0-2.000000000e+00 3.025000000e-02*       
*        9.000000000e-01               0                               0        
GRID*                497               0-1.967500000e+00 3.025000000e-02*       
*        9.000000000e-01               0                               0        
GRID*                502               0-1.935000000e+00 3.025000000e-02*       
*        9.000000000e-01               0                               0        
GRID*                507               0-1.902500000e+00 3.025000000e-02*       
*        9.000000000e-01               0                               0        
GRID*                512               0-1.870000000e+00 3.025000000e-02*       
*        9.000000000e-01               0                               0        
GRID*                517               0-1.837500000e+00 3.025000000e-02*       
*        9.000000000e-01               0                               0        
GRID*                522               0-1.805000000e+00 3.025000000e-02*       
*        9.000000000e-01               0                               0        
GRID*                527               0-1.772500000e+00 3.025000000e-02*       
*        9.000000000e-01               0                               0        
GRID*                532               0-1.740000000e+00 3.025000000e-02*       
*        9.000000000e-01               0                               0        
GRID*                537               0-1.707500000e+00 3.025000000e-02*       
*        9.000000000e-01               0                               0        
GRID*                542               0-1.675000000e+00 3.025000000e-02*       
*        9.000000000e-01               0                               0        
GRID*                547               0-1.642500000e+00 3.025000000e-02*       
*        9.000000000e-01               0                               0        
GRID*                552               0-1.610000000e+00 3.025000000e-02*       
*        9.000000000e-01               0                               0        
GRID*                557               0-1.577500000e+00 3.025000000e-02*       
*        9.000000000e-01               0                               0        
GRID*                562               0-1.545000000e+00 3.025000000e-02*       
*        9.000000000e-01               0                               0        
GRID*                567               0-1.512500000e+00 3.025000000e-02*       
*        9.000000000e-01               0                               0        
GRID*                572               0-1.480000000e+00 3.025000000e-02*       
*        9.000000000e-01               0                               0        
GRID*                577               0-1.447500000e+00 3.025000000e-02*       
*        9.000000000e-01               0                               0        
GRID*                582               0-1.415000000e+00 3.025000000e-02*       
*        9.000000000e-01               0                               0        
GRID*                587               0-1.382500000e+00 3.025000000e-02*       
*        9.000000000e-01               0                               0        
GRID*                592               0-1.350000000e+00 3.025000000e-02*       
*        9.000000000e-01               0                               0        
GRID*                597               0-1.317500000e+00 3.025000000e-02*       
*        9.000000000e-01               0                               0        
GRID*                602               0-1.285000000e+00 3.025000000e-02*       
*        9.000000000e-01               0                               0        
GRID*                607               0-1.252500000e+00 3.025000000e-02*       
*        9.000000000e-01               0                               0        
GRID*                612               0-1.220000000e+00 3.025000000e-02*       
*        9.000000000e-01               0                               0        
GRID*                617               0-1.187500000e+00 3.025000000e-02*       
*        9.000000000e-01               0                               0        
GRID*                622               0-1.155000000e+00 3.025000000e-02*       
*        9.000000000e-01               0                               0        
GRID*                627               0-1.122500000e+00 3.025000000e-02*       
*        9.000000000e-01               0                               0        
GRID*                632               0-1.090000000e+00 3.025000000e-02*       
*        9.000000000e-01               0                               0        
GRID*                637               0-1.057500000e+00 3.025000000e-02*       
*        9.000000000e-01               0                               0        
GRID*                642               0-1.025000000e+00 3.025000000e-02*       
*        9.000000000e-01               0                               0        
GRID*                647               0-9.925000000e-01 3.025000000e-02*       
*        9.000000000e-01               0                               0        
GRID*                652               0-9.600000000e-01 3.025000000e-02*       
*        9.000000000e-01               0                               0        
GRID*                657               0-9.275000000e-01 3.025000000e-02*       
*        9.000000000e-01               0                               0        
GRID*                662               0-8.950000000e-01 3.025000000e-02*       
*        9.000000000e-01               0                               0        
GRID*                667               0-8.625000000e-01 3.025000000e-02*       
*        9.000000000e-01               0                               0        
GRID*                672               0-8.300000000e-01 3.025000000e-02*       
*        9.000000000e-01               0                               0        
GRID*                677               0-7.975000000e-01 3.025000000e-02*       
*        9.000000000e-01               0                               0        
GRID*                682               0-7.650000000e-01 3.025000000e-02*       
*        9.000000000e-01               0                               0        
GRID*                687               0-7.325000000e-01 3.025000000e-02*       
*        9.000000000e-01               0                               0        
GRID*                692               0-7.000000000e-01 3.025000000e-02*       
*        9.000000000e-01               0                               0        
GRID*                697               0-6.675000000e-01 3.025000000e-02*       
*        9.000000000e-01               0                               0        
GRID*                702               0-6.350000000e-01 3.025000000e-02*       
*        9.000000000e-01               0                               0        
GRID*                707               0-6.025000000e-01 3.025000000e-02*       
*        9.000000000e-01               0                               0        
GRID*                712               0-5.700000000e-01 3.025000000e-02*       
*        9.000000000e-01               0                               0        
GRID*                717               0-5.375000000e-01 3.025000000e-02*       
*        9.000000000e-01               0                               0        
GRID*                722               0-5.050000000e-01 3.025000000e-02*       
*        9.000000000e-01               0                               0        
GRID*                727               0-4.725000000e-01 3.025000000e-02*       
*        9.000000000e-01               0                               0        
GRID*                732               0-4.400000000e-01 3.025000000e-02*       
*        9.000000000e-01               0                               0        
GRID*                493               0-2.000000000e+00-2.449293598e-16*       
*        9.000000000e-01               0                               0        
GRID*                498               0-1.967500000e+00-2.409492577e-16*       
*        9.000000000e-01               0                               0        
GRID*                503               0-1.935000000e+00-2.369691556e-16*       
*        9.000000000e-01               0                               0        
GRID*                508               0-1.902500000e+00-2.329890535e-16*       
*        9.000000000e-01               0                               0        
GRID*                513               0-1.870000000e+00-2.290089514e-16*       
*        9.000000000e-01               0                               0        
GRID*                518               0-1.837500000e+00-2.250288493e-16*       
*        9.000000000e-01               0                               0        
GRID*                523               0-1.805000000e+00-2.210487472e-16*       
*        9.000000000e-01               0                               0        
GRID*                528               0-1.772500000e+00-2.170686451e-16*       
*        9.000000000e-01               0                               0        
GRID*                533               0-1.740000000e+00-2.130885431e-16*       
*        9.000000000e-01               0                               0        
GRID*                538               0-1.707500000e+00-2.091084410e-16*       
*        9.000000000e-01               0                               0        
GRID*                543               0-1.675000000e+00-2.051283389e-16*       
*        9.000000000e-01               0                               0        
GRID*                548               0-1.642500000e+00-2.011482368e-16*       
*        9.000000000e-01               0                               0        
GRID*                553               0-1.610000000e+00-1.971681347e-16*       
*        9.000000000e-01               0                               0        
GRID*                558               0-1.577500000e+00-1.931880326e-16*       
*        9.000000000e-01               0                               0        
GRID*                563               0-1.545000000e+00-1.892079305e-16*       
*        9.000000000e-01               0                               0        
GRID*                568               0-1.512500000e+00-1.852278284e-16*       
*        9.000000000e-01               0                               0        
GRID*                573               0-1.480000000e+00-1.812477263e-16*       
*        9.000000000e-01               0                               0        
GRID*                578               0-1.447500000e+00-1.772676242e-16*       
*        9.000000000e-01               0                               0        
GRID*                583               0-1.415000000e+00-1.732875221e-16*       
*        9.000000000e-01               0                               0        
GRID*                588               0-1.382500000e+00-1.693074200e-16*       
*        9.000000000e-01               0                               0        
GRID*                593               0-1.350000000e+00-1.653273179e-16*       
*        9.000000000e-01               0                               0        
GRID*                598               0-1.317500000e+00-1.613472158e-16*       
*        9.000000000e-01               0                               0        
GRID*                603               0-1.285000000e+00-1.573671137e-16*       
*        9.000000000e-01               0                               0        
GRID*                608               0-1.252500000e+00-1.533870116e-16*       
*        9.000000000e-01               0                               0        
GRID*                613               0-1.220000000e+00-1.494069095e-16*       
*        9.000000000e-01               0                               0        
GRID*                618               0-1.187500000e+00-1.454268074e-16*       
*        9.000000000e-01               0                               0        
GRID*                623               0-1.155000000e+00-1.414467053e-16*       
*        9.000000000e-01               0                               0        
GRID*                628               0-1.122500000e+00-1.374666032e-16*       
*        9.000000000e-01               0                               0        
GRID*                633               0-1.090000000e+00-1.334865011e-16*       
*        9.000000000e-01               0                               0        
GRID*                638               0-1.057500000e+00-1.295063990e-16*       
*        9.000000000e-01               0                               0        
GRID*                643               0-1.025000000e+00-1.255262969e-16*       
*        9.000000000e-01               0                               0        
GRID*                648               0-9.925000000e-01-1.215461948e-16*       
*        9.000000000e-01               0                               0        
GRID*                653               0-9.600000000e-01-1.175660927e-16*       
*        9.000000000e-01               0                               0        
GRID*                658               0-9.275000000e-01-1.135859906e-16*       
*        9.000000000e-01               0                               0        
GRID*                663               0-8.950000000e-01-1.096058885e-16*       
*        9.000000000e-01               0                               0        
GRID*                668               0-8.625000000e-01-1.056257864e-16*       
*        9.000000000e-01               0                               0        
GRID*                673               0-8.300000000e-01-1.016456843e-16*       
*        9.000000000e-01               0                               0        
GRID*                678               0-7.975000000e-01-9.766558223e-17*       
*        9.000000000e-01               0                               0        
GRID*                683               0-7.650000000e-01-9.368548013e-17*       
*        9.000000000e-01               0                               0        
GRID*                688               0-7.325000000e-01-8.970537804e-17*       
*        9.000000000e-01               0                               0        
GRID*                693               0-7.000000000e-01-8.572527594e-17*       
*        9.000000000e-01               0                               0        
GRID*                698               0-6.675000000e-01-8.174517384e-17*       
*        9.000000000e-01               0                               0        
GRID*                703               0-6.350000000e-01-7.776507175e-17*       
*        9.000000000e-01               0                               0        
GRID*                708               0-6.025000000e-01-7.378496965e-17*       
*        9.000000000e-01               0                               0        
GRID*                713               0-5.700000000e-01-6.980486755e-17*       
*        9.000000000e-01               0                               0        
GRID*                718               0-5.375000000e-01-6.582476545e-17*       
*        9.000000000e-01               0                               0        
GRID*                723               0-5.050000000e-01-6.184466336e-17*       
*        9.000000000e-01               0                               0        
GRID*                728               0-4.725000000e-01-5.786456126e-17*       
*        9.000000000e-01               0                               0        
GRID*                733               0-4.400000000e-01-5.388445916e-17*       
*        9.000000000e-01               0                               0        
GRID*                494               0-2.000000000e+00-3.025000000e-02*       
*        9.000000000e-01               0                               0        
GRID*                499               0-1.967500000e+00-3.025000000e-02*       
*        9.000000000e-01               0                               0        
GRID*                504               0-1.935000000e+00-3.025000000e-02*       
*        9.000000000e-01               0                               0        
GRID*                509               0-1.902500000e+00-3.025000000e-02*       
*        9.000000000e-01               0                               0        
GRID*                514               0-1.870000000e+00-3.025000000e-02*       
*        9.000000000e-01               0                               0        
GRID*                519               0-1.837500000e+00-3.025000000e-02*       
*        9.000000000e-01               0                               0        
GRID*                524               0-1.805000000e+00-3.025000000e-02*       
*        9.000000000e-01               0                               0        
GRID*                529               0-1.772500000e+00-3.025000000e-02*       
*        9.000000000e-01               0                               0        
GRID*                534               0-1.740000000e+00-3.025000000e-02*       
*        9.000000000e-01               0                               0        
GRID*                539               0-1.707500000e+00-3.025000000e-02*       
*        9.000000000e-01               0                               0        
GRID*                544               0-1.675000000e+00-3.025000000e-02*       
*        9.000000000e-01               0                               0        
GRID*                549               0-1.642500000e+00-3.025000000e-02*       
*        9.000000000e-01               0                               0        
GRID*                554               0-1.610000000e+00-3.025000000e-02*       
*        9.000000000e-01               0                               0        
GRID*                559               0-1.577500000e+00-3.025000000e-02*       
*        9.000000000e-01               0                               0        
GRID*                564               0-1.545000000e+00-3.025000000e-02*       
*        9.000000000e-01               0                               0        
GRID*                569               0-1.512500000e+00-3.025000000e-02*       
*        9.000000000e-01               0                               0        
GRID*                574               0-1.480000000e+00-3.025000000e-02*       
*        9.000000000e-01               0                               0        
GRID*                579               0-1.447500000e+00-3.025000000e-02*       
*        9.000000000e-01               0                               0        
GRID*                584               0-1.415000000e+00-3.025000000e-02*       
*        9.000000000e-01               0                               0        
GRID*                589               0-1.382500000e+00-3.025000000e-02*       
*        9.000000000e-01               0                               0        
GRID*                594               0-1.350000000e+00-3.025000000e-02*       
*        9.000000000e-01               0                               0        
GRID*                599               0-1.317500000e+00-3.025000000e-02*       
*        9.000000000e-01               0                               0        
GRID*                604               0-1.285000000e+00-3.025000000e-02*       
*        9.000000000e-01               0                               0        
GRID*                609               0-1.252500000e+00-3.025000000e-02*       
*        9.000000000e-01               0                               0        
GRID*                614               0-1.220000000e+00-3.025000000e-02*       
*        9.000000000e-01               0                               0        
GRID*                619               0-1.187500000e+00-3.025000000e-02*       
*        9.000000000e-01               0                               0        
GRID*                624               0-1.155000000e+00-3.025000000e-02*       
*        9.000000000e-01               0                               0        
GRID*                629               0-1.122500000e+00-3.025000000e-02*       
*        9.000000000e-01               0                               0        
GRID*                634               0-1.090000000e+00-3.025000000e-02*       
*        9.000000000e-01               0                               0        
GRID*                639               0-1.057500000e+00-3.025000000e-02*       
*        9.000000000e-01               0                               0        
GRID*                644               0-1.025000000e+00-3.025000000e-02*       
*        9.000000000e-01               0                               0        
GRID*                649               0-9.925000000e-01-3.025000000e-02*       
*        9.000000000e-01               0                               0        
GRID*                654               0-9.600000000e-01-3.025000000e-02*       
*        9.000000000e-01               0                               0        
GRID*                659               0-9.275000000e-01-3.025000000e-02*       
*        9.000000000e-01               0                               0        
GRID*                664               0-8.950000000e-01-3.025000000e-02*       
*        9.000000000e-01               0                               0        
GRID*                669               0-8.625000000e-01-3.025000000e-02*       
*        9.000000000e-01               0                               0        
GRID*                674               0-8.300000000e-01-3.025000000e-02*       
*        9.000000000e-01               0                               0        
GRID*                679               0-7.975000000e-01-3.025000000e-02*       
*        9.000000000e-01               0                               0        
GRID*                684               0-7.650000000e-01-3.025000000e-02*       
*        9.000000000e-01               0                               0        
GRID*                689               0-7.325000000e-01-3.025000000e-02*       
*        9.000000000e-01               0                               0        
GRID*                694               0-7.000000000e-01-3.025000000e-02*       
*        9.000000000e-01               0                               0        
GRID*                699               0-6.675000000e-01-3.025000000e-02*       
*        9.000000000e-01               0                               0        
GRID*                704               0-6.350000000e-01-3.025000000e-02*       
*        9.000000000e-01               0                               0        
GRID*                709               0-6.025000000e-01-3.025000000e-02*       
*        9.000000000e-01               0                               0        
GRID*                714               0-5.700000000e-01-3.025000000e-02*       
*        9.000000000e-01               0                               0        
GRID*                719               0-5.375000000e-01-3.025000000e-02*       
*        9.000000000e-01               0                               0        
GRID*                724               0-5.050000000e-01-3.025000000e-02*       
*        9.000000000e-01               0                               0        
GRID*                729               0-4.725000000e-01-3.025000000e-02*       
*        9.000000000e-01               0                               0        
GRID*                734               0-4.400000000e-01-3.025000000e-02*       
*        9.000000000e-01               0                               0        
GRID*                495               0-2.000000000e+00-6.050000000e-02*       
*        9.000000000e-01               0                               0        
GRID*                500               0-1.967500000e+00-6.050000000e-02*       
*        9.000000000e-01               0                               0        
GRID*                505               0-1.935000000e+00-6.050000000e-02*       
*        9.000000000e-01               0                               0        
GRID*                510               0-1.902500000e+00-6.050000000e-02*       
*        9.000000000e-01               0                               0        
GRID*                515               0-1.870000000e+00-6.050000000e-02*       
*        9.000000000e-01               0                               0        
GRID*                520               0-1.837500000e+00-6.050000000e-02*       
*        9.000000000e-01               0                               0        
GRID*                525               0-1.805000000e+00-6.050000000e-02*       
*        9.000000000e-01               0                               0        
GRID*                530               0-1.772500000e+00-6.050000000e-02*       
*        9.000000000e-01               0                               0        
GRID*                535               0-1.740000000e+00-6.050000000e-02*       
*        9.000000000e-01               0                               0        
GRID*                540               0-1.707500000e+00-6.050000000e-02*       
*        9.000000000e-01               0                               0        
GRID*                545               0-1.675000000e+00-6.050000000e-02*       
*        9.000000000e-01               0                               0        
GRID*                550               0-1.642500000e+00-6.050000000e-02*       
*        9.000000000e-01               0                               0        
GRID*                555               0-1.610000000e+00-6.050000000e-02*       
*        9.000000000e-01               0                               0        
GRID*                560               0-1.577500000e+00-6.050000000e-02*       
*        9.000000000e-01               0                               0        
GRID*                565               0-1.545000000e+00-6.050000000e-02*       
*        9.000000000e-01               0                               0        
GRID*                570               0-1.512500000e+00-6.050000000e-02*       
*        9.000000000e-01               0                               0        
GRID*                575               0-1.480000000e+00-6.050000000e-02*       
*        9.000000000e-01               0                               0        
GRID*                580               0-1.447500000e+00-6.050000000e-02*       
*        9.000000000e-01               0                               0        
GRID*                585               0-1.415000000e+00-6.050000000e-02*       
*        9.000000000e-01               0                               0        
GRID*                590               0-1.382500000e+00-6.050000000e-02*       
*        9.000000000e-01               0                               0        
GRID*                595               0-1.350000000e+00-6.050000000e-02*       
*        9.000000000e-01               0                               0        
GRID*                600               0-1.317500000e+00-6.050000000e-02*       
*        9.000000000e-01               0                               0        
GRID*                605               0-1.285000000e+00-6.050000000e-02*       
*        9.000000000e-01               0                               0        
GRID*                610               0-1.252500000e+00-6.050000000e-02*       
*        9.000000000e-01               0                               0        
GRID*                615               0-1.220000000e+00-6.050000000e-02*       
*        9.000000000e-01               0                               0        
GRID*                620               0-1.187500000e+00-6.050000000e-02*       
*        9.000000000e-01               0                               0        
GRID*                625               0-1.155000000e+00-6.050000000e-02*       
*        9.000000000e-01               0                               0        
GRID*                630               0-1.122500000e+00-6.050000000e-02*       
*        9.000000000e-01               0                               0        
GRID*                635               0-1.090000000e+00-6.050000000e-02*       
*        9.000000000e-01               0                               0        
GRID*                640               0-1.057500000e+00-6.050000000e-02*       
*        9.000000000e-01               0                               0        
GRID*                645               0-1.025000000e+00-6.050000000e-02*       
*        9.000000000e-01               0                               0        
GRID*                650               0-9.925000000e-01-6.050000000e-02*       
*        9.000000000e-01               0                               0        
GRID*                655               0-9.600000000e-01-6.050000000e-02*       
*        9.000000000e-01               0                               0        
GRID*                660               0-9.275000000e-01-6.050000000e-02*       
*        9.000000000e-01               0                               0        
GRID*                665               0-8.950000000e-01-6.050000000e-02*       
*        9.000000000e-01               0                               0        
GRID*                670               0-8.625000000e-01-6.050000000e-02*       
*        9.000000000e-01               0                               0        
GRID*                675               0-8.300000000e-01-6.050000000e-02*       
*        9.000000000e-01               0                               0        
GRID*                680               0-7.975000000e-01-6.050000000e-02*       
*        9.000000000e-01               0                               0        
GRID*                685               0-7.650000000e-01-6.050000000e-02*       
*        9.000000000e-01               0                               0        
GRID*                690               0-7.325000000e-01-6.050000000e-02*       
*        9.000000000e-01               0                               0        
GRID*                695               0-7.000000000e-01-6.050000000e-02*       
*        9.000000000e-01               0                               0        
GRID*                700               0-6.675000000e-01-6.050000000e-02*       
*        9.000000000e-01               0                               0        
GRID*                705               0-6.350000000e-01-6.050000000e-02*       
*        9.000000000e-01               0                               0        
GRID*                710               0-6.025000000e-01-6.050000000e-02*       
*        9.000000000e-01               0                               0        
GRID*                715               0-5.700000000e-01-6.050000000e-02*       
*        9.000000000e-01               0                               0        
GRID*                720               0-5.375000000e-01-6.050000000e-02*       
*        9.000000000e-01               0                               0        
GRID*                725               0-5.050000000e-01-6.050000000e-02*       
*        9.000000000e-01               0                               0        
GRID*                730               0-4.725000000e-01-6.050000000e-02*       
*        9.000000000e-01               0                               0        
GRID*                735               0-4.400000000e-01-6.050000000e-02*       
*        9.000000000e-01               0                               0        
CQUAD          1       1     491     501     503     493     496     502
             498     492     497
CQUAD          2       1     501     511     513     503     506     512
             508     502     507
CQUAD          3       1     511     521     523     513     516     522
             518     512     517
CQUAD          4       1     521     531     533     523     526     532
             528     522     527
CQUAD          5       1     531     541     543     533     536     542
             538     532     537
CQUAD          6       1     541     551     553     543     546     552
             548     542     547
CQUAD          7       1     551     561     563     553     556     562
             558     552     557
CQUAD          8       1     561     571     573     563     566     572
             568     562     567
CQUAD          9       1     571     581     583     573     576     582
             578     572     577
CQUAD         10       1     581     591     593     583     586     592
             588     582     587
CQUAD         11       1     591     601     603     593     596     602
             598     592     597
CQUAD         12       1     601     611     613     603     606     612
             608     602     607
CQUAD         13       1     611     621     623     613     616     622
             618     612     617
CQUAD         14       1     621     631     633     623     626     632
             628     622     627
CQUAD         15       1     631     641     643     633     636     642
             638     632     637
CQUAD         16       1     641     651     653     643     646     652
             648     642     647
CQUAD         17       1     651     661     663     653     656     662
             658     652     657
CQUAD         18       1     661     671     673     663     666     672
             668     662     667
CQUAD         19       1     671     681     683     673     676     682
             678     672     677
CQUAD         20       1     681     691     693     683     686     692
             688     682     687
CQUAD         21       1     691     701     703     693     696     702
             698     692     697
CQUAD         22       1     701     711     713     703     706     712
             708     702     707
CQUAD         23       1     711     721     723     713     716     722
             718     712     717
CQUAD         24       1     721     731     733     723     726     732
             728     722     727
CQUAD         25       1     493     503     505     495     498     504
             500     494     499
CQUAD         26       1     503     513     515     505     508     514
             510     504     509
CQUAD         27       1     513     523     525     515     518     524
             520     514     519
CQUAD         28       1     523     533     535     525     528     534
             530     524     529
CQUAD         29       1     533     543     545     535     538     544
             540     534     539
CQUAD         30       1     543     553     555     545     548     554
             550     544     549
CQUAD         31       1     553     563     565     555     558     564
             560     554     559
CQUAD         32       1     563     573     575     565     568     574
             570     564     569
CQUAD         33       1     573     583     585     575     578     584
             580     574     579
CQUAD         34       1     583     593     595     585     588     594
             590     584     589
CQUAD         35       1     593     603     605     595     598     604
             600     594     599
CQUAD         36       1     603     613     615     605     608     614
             610     604     609
CQUAD         37       1     613     623     625     615     618     624
             620     614     619
CQUAD         38       1     623     633     635     625     628     634
             630     624     629
CQUAD         39       1     633     643     645     635     638     644
             640     634     639
CQUAD         40       1     643     653     655     645     648     654
             650     644     649
CQUAD         41       1     653     663     665     655     658     664
             660     654     659
CQUAD         42       1     663     673     675     665     668     674
             670     664     669
CQUAD         43       1     673     683     685     675     678     684
             680     674     679
CQUAD         44       1     683     693     695     685     688     694
             690     684     689
CQUAD         45       1     693     703     705     695     698     704
             700     694     699
CQUAD         46       1     703     713     715     705     708     714
             710     704     709
CQUAD         47       1     713     723     725     715     718     724
             720     714     719
CQUAD         48       1     723     733     735     725     728     734
             730     724     729
SPC            1     731     1230.000000
SPC            1     732     1230.000000
SPC            1     733     1230.000000
SPC            1     734     1230.000000
SPC            1     735     1230.000000
$ END