$ Input file for a rotor simulation with 4 blades
$ Blade 1, theta=0.000000 deg alpha=0.000000 deg
$ nx=24, ny=2, x0=-0.060500, x1=0.060500, y0=2.000000, y1=0.440000
GRID*                  1               0 2.000000000e+00-6.050000000e-02*       
*        9.000000000e-01               0                               0        
GRID*                  6               0 1.967500000e+00-6.050000000e-02*       
*        9.000000000e-01               0                               0        
GRID*                 11               0 1.935000000e+00-6.050000000e-02*       
*        9.000000000e-01               0                               0        
GRID*                 16               0 1.902500000e+00-6.050000000e-02*       
*        9.000000000e-01               0                               0        
GRID*                 21               0 1.870000000e+00-6.050000000e-02*       
*        9.000000000e-01               0                               0        
GRID*                 26               0 1.837500000e+00-6.050000000e-02*       
*        9.000000000e-01               0                               0        
GRID*                 31               0 1.805000000e+00-6.050000000e-02*       
*        9.000000000e-01               0                               0        
GRID*                 36               0 1.772500000e+00-6.050000000e-02*       
*        9.000000000e-01               0                               0        
GRID*                 41               0 1.740000000e+00-6.050000000e-02*       
*        9.000000000e-01               0                               0        
GRID*                 46               0 1.707500000e+00-6.050000000e-02*       
*        9.000000000e-01               0                               0        
GRID*                 51               0 1.675000000e+00-6.050000000e-02*       
*        9.000000000e-01               0                               0        
GRID*                 56               0 1.642500000e+00-6.050000000e-02*       
*        9.000000000e-01               0                               0        
GRID*                 61               0 1.610000000e+00-6.050000000e-02*       
*        9.000000000e-01               0                               0        
GRID*                 66               0 1.577500000e+00-6.050000000e-02*       
*        9.000000000e-01               0                               0        
GRID*                 71               0 1.545000000e+00-6.050000000e-02*       
*        9.000000000e-01               0                               0        
GRID*                 76               0 1.512500000e+00-6.050000000e-02*       
*        9.000000000e-01               0                               0        
GRID*                 81               0 1.480000000e+00-6.050000000e-02*       
*        9.000000000e-01               0                               0        
GRID*                 86               0 1.447500000e+00-6.050000000e-02*       
*        9.000000000e-01               0                               0        
GRID*                 91               0 1.415000000e+00-6.050000000e-02*       
*        9.000000000e-01               0                               0        
GRID*                 96               0 1.382500000e+00-6.050000000e-02*       
*        9.000000000e-01               0                               0        
GRID*                101               0 1.350000000e+00-6.050000000e-02*       
*        9.000000000e-01               0                               0        
GRID*                106               0 1.317500000e+00-6.050000000e-02*       
*        9.000000000e-01               0                               0        
GRID*                111               0 1.285000000e+00-6.050000000e-02*       
*        9.000000000e-01               0                               0        
GRID*                116               0 1.252500000e+00-6.050000000e-02*       
*        9.000000000e-01               0                               0        
GRID*                121               0 1.220000000e+00-6.050000000e-02*       
*        9.000000000e-01               0                               0        
GRID*                126               0 1.187500000e+00-6.050000000e-02*       
*        9.000000000e-01               0                               0        
GRID*                131               0 1.155000000e+00-6.050000000e-02*       
*        9.000000000e-01               0                               0        
GRID*                136               0 1.122500000e+00-6.050000000e-02*       
*        9.000000000e-01               0                               0        
GRID*                141               0 1.090000000e+00-6.050000000e-02*       
*        9.000000000e-01               0                               0        
GRID*                146               0 1.057500000e+00-6.050000000e-02*       
*        9.000000000e-01               0                               0        
GRID*                151               0 1.025000000e+00-6.050000000e-02*       
*        9.000000000e-01               0                               0        
GRID*                156               0 9.925000000e-01-6.050000000e-02*       
*        9.000000000e-01               0                               0        
GRID*                161               0 9.600000000e-01-6.050000000e-02*       
*        9.000000000e-01               0                               0        
GRID*                166               0 9.275000000e-01-6.050000000e-02*       
*        9.000000000e-01               0                               0        
GRID*                171               0 8.950000000e-01-6.050000000e-02*       
*        9.000000000e-01               0                               0        
GRID*                176               0 8.625000000e-01-6.050000000e-02*       
*        9.000000000e-01               0                               0        
GRID*                181               0 8.300000000e-01-6.050000000e-02*       
*        9.000000000e-01               0                               0        
GRID*                186               0 7.975000000e-01-6.050000000e-02*       
*        9.000000000e-01               0                               0        
GRID*                191               0 7.650000000e-01-6.050000000e-02*       
*        9.000000000e-01               0                               0        
GRID*                196               0 7.325000000e-01-6.050000000e-02*       
*        9.000000000e-01               0                               0        
GRID*                201               0 7.000000000e-01-6.050000000e-02*       
*        9.000000000e-01               0                               0        
GRID*                206               0 6.675000000e-01-6.050000000e-02*       
*        9.000000000e-01               0                               0        
GRID*                211               0 6.350000000e-01-6.050000000e-02*       
*        9.000000000e-01               0                               0        
GRID*                216               0 6.025000000e-01-6.050000000e-02*       
*        9.000000000e-01               0                               0        
GRID*                221               0 5.700000000e-01-6.050000000e-02*       
*        9.000000000e-01               0                               0        
GRID*                226               0 5.375000000e-01-6.050000000e-02*       
*        9.000000000e-01               0                               0        
GRID*                231               0 5.050000000e-01-6.050000000e-02*       
*        9.000000000e-01               0                               0        
GRID*                236               0 4.725000000e-01-6.050000000e-02*       
*        9.000000000e-01               0                               0        
GRID*                241               0 4.400000000e-01-6.050000000e-02*       
*        9.000000000e-01               0                               0        
GRID*                  2               0 2.000000000e+00-3.025000000e-02*       
*        9.000000000e-01               0                               0        
GRID*                  7               0 1.967500000e+00-3.025000000e-02*       
*        9.000000000e-01               0                               0        
GRID*                 12               0 1.935000000e+00-3.025000000e-02*       
*        9.000000000e-01               0                               0        
GRID*                 17               0 1.902500000e+00-3.025000000e-02*       
*        9.000000000e-01               0                               0        
GRID*                 22               0 1.870000000e+00-3.025000000e-02*       
*        9.000000000e-01               0                               0        
GRID*                 27               0 1.837500000e+00-3.025000000e-02*       
*        9.000000000e-01               0                               0        
GRID*                 32               0 1.805000000e+00-3.025000000e-02*       
*        9.000000000e-01               0                               0        
GRID*                 37               0 1.772500000e+00-3.025000000e-02*       
*        9.000000000e-01               0                               0        
GRID*                 42               0 1.740000000e+00-3.025000000e-02*       
*        9.000000000e-01               0                               0        
GRID*                 47               0 1.707500000e+00-3.025000000e-02*       
*        9.000000000e-01               0                               0        
GRID*                 52               0 1.675000000e+00-3.025000000e-02*       
*        9.000000000e-01               0                               0        
GRID*                 57               0 1.642500000e+00-3.025000000e-02*       
*        9.000000000e-01               0                               0        
GRID*                 62               0 1.610000000e+00-3.025000000e-02*       
*        9.000000000e-01               0                               0        
GRID*                 67               0 1.577500000e+00-3.025000000e-02*       
*        9.000000000e-01               0                               0        
GRID*                 72               0 1.545000000e+00-3.025000000e-02*       
*        9.000000000e-01               0                               0        
GRID*                 77               0 1.512500000e+00-3.025000000e-02*       
*        9.000000000e-01               0                               0        
GRID*                 82               0 1.480000000e+00-3.025000000e-02*       
*        9.000000000e-01               0                               0        
GRID*                 87               0 1.447500000e+00-3.025000000e-02*       
*        9.000000000e-01               0                               0        
GRID*                 92               0 1.415000000e+00-3.025000000e-02*       
*        9.000000000e-01               0                               0        
GRID*                 97               0 1.382500000e+00-3.025000000e-02*       
*        9.000000000e-01               0                               0        
GRID*                102               0 1.350000000e+00-3.025000000e-02*       
*        9.000000000e-01               0                               0        
GRID*                107               0 1.317500000e+00-3.025000000e-02*       
*        9.000000000e-01               0                               0        
GRID*                112               0 1.285000000e+00-3.025000000e-02*       
*        9.000000000e-01               0                               0        
GRID*                117               0 1.252500000e+00-3.025000000e-02*       
*        9.000000000e-01               0                               0        
GRID*                122               0 1.220000000e+00-3.025000000e-02*       
*        9.000000000e-01               0                               0        
GRID*                127               0 1.187500000e+00-3.025000000e-02*       
*        9.000000000e-01               0                               0        
GRID*                132               0 1.155000000e+00-3.025000000e-02*       
*        9.000000000e-01               0                               0        
GRID*                137               0 1.122500000e+00-3.025000000e-02*       
*        9.000000000e-01               0                               0        
GRID*                142               0 1.090000000e+00-3.025000000e-02*       
*        9.000000000e-01               0                               0        
GRID*                147               0 1.057500000e+00-3.025000000e-02*       
*        9.000000000e-01               0                               0        
GRID*                152               0 1.025000000e+00-3.025000000e-02*       
*        9.000000000e-01               0                               0        
GRID*                157               0 9.925000000e-01-3.025000000e-02*       
*        9.000000000e-01               0                               0        
GRID*                162               0 9.600000000e-01-3.025000000e-02*       
*        9.000000000e-01               0                               0        
GRID*                167               0 9.275000000e-01-3.025000000e-02*       
*        9.000000000e-01               0                               0        
GRID*                172               0 8.950000000e-01-3.025000000e-02*       
*        9.000000000e-01               0                               0        
GRID*                177               0 8.625000000e-01-3.025000000e-02*       
*        9.000000000e-01               0                               0        
GRID*                182               0 8.300000000e-01-3.025000000e-02*       
*        9.000000000e-01               0                               0        
GRID*                187               0 7.975000000e-01-3.025000000e-02*       
*        9.000000000e-01               0                               0        
GRID*                192               0 7.650000000e-01-3.025000000e-02*       
*        9.000000000e-01               0                               0        
GRID*                197               0 7.325000000e-01-3.025000000e-02*       
*        9.000000000e-01               0                               0        
GRID*                202               0 7.000000000e-01-3.025000000e-02*       
*        9.000000000e-01               0                               0        
GRID*                207               0 6.675000000e-01-3.025000000e-02*       
*        9.000000000e-01               0                               0        
GRID*                212               0 6.350000000e-01-3.025000000e-02*       
*        9.000000000e-01               0                               0        
GRID*                217               0 6.025000000e-01-3.025000000e-02*       
*        9.000000000e-01               0                               0        
GRID*                222               0 5.700000000e-01-3.025000000e-02*       
*        9.000000000e-01               0                               0        
GRID*                227               0 5.375000000e-01-3.025000000e-02*       
*        9.000000000e-01               0                               0        
GRID*                232               0 5.050000000e-01-3.025000000e-02*       
*        9.000000000e-01               0                               0        
GRID*                237               0 4.725000000e-01-3.025000000e-02*       
*        9.000000000e-01               0                               0        
GRID*                242               0 4.400000000e-01-3.025000000e-02*       
*        9.000000000e-01               0                               0        
GRID*                  3               0 2.000000000e+00 0.000000000e+00*       
*        9.000000000e-01               0                               0        
GRID*                  8               0 1.967500000e+00 0.000000000e+00*       
*        9.000000000e-01               0                               0        
GRID*                 13               0 1.935000000e+00 0.000000000e+00*       
*        9.000000000e-01               0                               0        
GRID*                 18               0 1.902500000e+00 0.000000000e+00*       
*        9.000000000e-01               0                               0        
GRID*                 23               0 1.870000000e+00 0.000000000e+00*       
*        9.000000000e-01               0                               0        
GRID*                 28               0 1.837500000e+00 0.000000000e+00*       
*        9.000000000e-01               0                               0        
GRID*                 33               0 1.805000000e+00 0.000000000e+00*       
*        9.000000000e-01               0                               0        
GRID*                 38               0 1.772500000e+00 0.000000000e+00*       
*        9.000000000e-01               0                               0        
GRID*                 43               0 1.740000000e+00 0.000000000e+00*       
*        9.000000000e-01               0                               0        
GRID*                 48               0 1.707500000e+00 0.000000000e+00*       
*        9.000000000e-01               0                               0        
GRID*                 53               0 1.675000000e+00 0.000000000e+00*       
*        9.000000000e-01               0                               0        
GRID*                 58               0 1.642500000e+00 0.000000000e+00*       
*        9.000000000e-01               0                               0        
GRID*                 63               0 1.610000000e+00 0.000000000e+00*       
*        9.000000000e-01               0                               0        
GRID*                 68               0 1.577500000e+00 0.000000000e+00*       
*        9.000000000e-01               0                               0        
GRID*                 73               0 1.545000000e+00 0.000000000e+00*       
*        9.000000000e-01               0                               0        
GRID*                 78               0 1.512500000e+00 0.000000000e+00*       
*        9.000000000e-01               0                               0        
GRID*                 83               0 1.480000000e+00 0.000000000e+00*       
*        9.000000000e-01               0                               0        
GRID*                 88               0 1.447500000e+00 0.000000000e+00*       
*        9.000000000e-01               0                               0        
GRID*                 93               0 1.415000000e+00 0.000000000e+00*       
*        9.000000000e-01               0                               0        
GRID*                 98               0 1.382500000e+00 0.000000000e+00*       
*        9.000000000e-01               0                               0        
GRID*                103               0 1.350000000e+00 0.000000000e+00*       
*        9.000000000e-01               0                               0        
GRID*                108               0 1.317500000e+00 0.000000000e+00*       
*        9.000000000e-01               0                               0        
GRID*                113               0 1.285000000e+00 0.000000000e+00*       
*        9.000000000e-01               0                               0        
GRID*                118               0 1.252500000e+00 0.000000000e+00*       
*        9.000000000e-01               0                               0        
GRID*                123               0 1.220000000e+00 0.000000000e+00*       
*        9.000000000e-01               0                               0        
GRID*                128               0 1.187500000e+00 0.000000000e+00*       
*        9.000000000e-01               0                               0        
GRID*                133               0 1.155000000e+00 0.000000000e+00*       
*        9.000000000e-01               0                               0        
GRID*                138               0 1.122500000e+00 0.000000000e+00*       
*        9.000000000e-01               0                               0        
GRID*                143               0 1.090000000e+00 0.000000000e+00*       
*        9.000000000e-01               0                               0        
GRID*                148               0 1.057500000e+00 0.000000000e+00*       
*        9.000000000e-01               0                               0        
GRID*                153               0 1.025000000e+00 0.000000000e+00*       
*        9.000000000e-01               0                               0        
GRID*                158               0 9.925000000e-01 0.000000000e+00*       
*        9.000000000e-01               0                               0        
GRID*                163               0 9.600000000e-01 0.000000000e+00*       
*        9.000000000e-01               0                               0        
GRID*                168               0 9.275000000e-01 0.000000000e+00*       
*        9.000000000e-01               0                               0        
GRID*                173               0 8.950000000e-01 0.000000000e+00*       
*        9.000000000e-01               0                               0        
GRID*                178               0 8.625000000e-01 0.000000000e+00*       
*        9.000000000e-01               0                               0        
GRID*                183               0 8.300000000e-01 0.000000000e+00*       
*        9.000000000e-01               0                               0        
GRID*                188               0 7.975000000e-01 0.000000000e+00*       
*        9.000000000e-01               0                               0        
GRID*                193               0 7.650000000e-01 0.000000000e+00*       
*        9.000000000e-01               0                               0        
GRID*                198               0 7.325000000e-01 0.000000000e+00*       
*        9.000000000e-01               0                               0        
GRID*                203               0 7.000000000e-01 0.000000000e+00*       
*        9.000000000e-01               0                               0        
GRID*                208               0 6.675000000e-01 0.000000000e+00*       
*        9.000000000e-01               0                               0        
GRID*                213               0 6.350000000e-01 0.000000000e+00*       
*        9.000000000e-01               0                               0        
GRID*                218               0 6.025000000e-01 0.000000000e+00*       
*        9.000000000e-01               0                               0        
GRID*                223               0 5.700000000e-01 0.000000000e+00*       
*        9.000000000e-01               0                               0        
GRID*                228               0 5.375000000e-01 0.000000000e+00*       
*        9.000000000e-01               0                               0        
GRID*                233               0 5.050000000e-01 0.000000000e+00*       
*        9.000000000e-01               0                               0        
GRID*                238               0 4.725000000e-01 0.000000000e+00*       
*        9.000000000e-01               0                               0        
GRID*                243               0 4.400000000e-01 0.000000000e+00*       
*        9.000000000e-01               0                               0        
GRID*                  4               0 2.000000000e+00 3.025000000e-02*       
*        9.000000000e-01               0                               0        
GRID*                  9               0 1.967500000e+00 3.025000000e-02*       
*        9.000000000e-01               0                               0        
GRID*                 14               0 1.935000000e+00 3.025000000e-02*       
*        9.000000000e-01               0                               0        
GRID*                 19               0 1.902500000e+00 3.025000000e-02*       
*        9.000000000e-01               0                               0        
GRID*                 24               0 1.870000000e+00 3.025000000e-02*       
*        9.000000000e-01               0                               0        
GRID*                 29               0 1.837500000e+00 3.025000000e-02*       
*        9.000000000e-01               0                               0        
GRID*                 34               0 1.805000000e+00 3.025000000e-02*       
*        9.000000000e-01               0                               0        
GRID*                 39               0 1.772500000e+00 3.025000000e-02*       
*        9.000000000e-01               0                               0        
GRID*                 44               0 1.740000000e+00 3.025000000e-02*       
*        9.000000000e-01               0                               0        
GRID*                 49               0 1.707500000e+00 3.025000000e-02*       
*        9.000000000e-01               0                               0        
GRID*                 54               0 1.675000000e+00 3.025000000e-02*       
*        9.000000000e-01               0                               0        
GRID*                 59               0 1.642500000e+00 3.025000000e-02*       
*        9.000000000e-01               0                               0        
GRID*                 64               0 1.610000000e+00 3.025000000e-02*       
*        9.000000000e-01               0                               0        
GRID*                 69               0 1.577500000e+00 3.025000000e-02*       
*        9.000000000e-01               0                               0        
GRID*                 74               0 1.545000000e+00 3.025000000e-02*       
*        9.000000000e-01               0                               0        
GRID*                 79               0 1.512500000e+00 3.025000000e-02*       
*        9.000000000e-01               0                               0        
GRID*                 84               0 1.480000000e+00 3.025000000e-02*       
*        9.000000000e-01               0                               0        
GRID*                 89               0 1.447500000e+00 3.025000000e-02*       
*        9.000000000e-01               0                               0        
GRID*                 94               0 1.415000000e+00 3.025000000e-02*       
*        9.000000000e-01               0                               0        
GRID*                 99               0 1.382500000e+00 3.025000000e-02*       
*        9.000000000e-01               0                               0        
GRID*                104               0 1.350000000e+00 3.025000000e-02*       
*        9.000000000e-01               0                               0        
GRID*                109               0 1.317500000e+00 3.025000000e-02*       
*        9.000000000e-01               0                               0        
GRID*                114               0 1.285000000e+00 3.025000000e-02*       
*        9.000000000e-01               0                               0        
GRID*                119               0 1.252500000e+00 3.025000000e-02*       
*        9.000000000e-01               0                               0        
GRID*                124               0 1.220000000e+00 3.025000000e-02*       
*        9.000000000e-01               0                               0        
GRID*                129               0 1.187500000e+00 3.025000000e-02*       
*        9.000000000e-01               0                               0        
GRID*                134               0 1.155000000e+00 3.025000000e-02*       
*        9.000000000e-01               0                               0        
GRID*                139               0 1.122500000e+00 3.025000000e-02*       
*        9.000000000e-01               0                               0        
GRID*                144               0 1.090000000e+00 3.025000000e-02*       
*        9.000000000e-01               0                               0        
GRID*                149               0 1.057500000e+00 3.025000000e-02*       
*        9.000000000e-01               0                               0        
GRID*                154               0 1.025000000e+00 3.025000000e-02*       
*        9.000000000e-01               0                               0        
GRID*                159               0 9.925000000e-01 3.025000000e-02*       
*        9.000000000e-01               0                               0        
GRID*                164               0 9.600000000e-01 3.025000000e-02*       
*        9.000000000e-01               0                               0        
GRID*                169               0 9.275000000e-01 3.025000000e-02*       
*        9.000000000e-01               0                               0        
GRID*                174               0 8.950000000e-01 3.025000000e-02*       
*        9.000000000e-01               0                               0        
GRID*                179               0 8.625000000e-01 3.025000000e-02*       
*        9.000000000e-01               0                               0        
GRID*                184               0 8.300000000e-01 3.025000000e-02*       
*        9.000000000e-01               0                               0        
GRID*                189               0 7.975000000e-01 3.025000000e-02*       
*        9.000000000e-01               0                               0        
GRID*                194               0 7.650000000e-01 3.025000000e-02*       
*        9.000000000e-01               0                               0        
GRID*                199               0 7.325000000e-01 3.025000000e-02*       
*        9.000000000e-01               0                               0        
GRID*                204               0 7.000000000e-01 3.025000000e-02*       
*        9.000000000e-01               0                               0        
GRID*                209               0 6.675000000e-01 3.025000000e-02*       
*        9.000000000e-01               0                               0        
GRID*                214               0 6.350000000e-01 3.025000000e-02*       
*        9.000000000e-01               0                               0        
GRID*                219               0 6.025000000e-01 3.025000000e-02*       
*        9.000000000e-01               0                               0        
GRID*                224               0 5.700000000e-01 3.025000000e-02*       
*        9.000000000e-01               0                               0        
GRID*                229               0 5.375000000e-01 3.025000000e-02*       
*        9.000000000e-01               0                               0        
GRID*                234               0 5.050000000e-01 3.025000000e-02*       
*        9.000000000e-01               0                               0        
GRID*                239               0 4.725000000e-01 3.025000000e-02*       
*        9.000000000e-01               0                               0        
GRID*                244               0 4.400000000e-01 3.025000000e-02*       
*        9.000000000e-01               0                               0        
GRID*                  5               0 2.000000000e+00 6.050000000e-02*       
*        9.000000000e-01               0                               0        
GRID*                 10               0 1.967500000e+00 6.050000000e-02*       
*        9.000000000e-01               0                               0        
GRID*                 15               0 1.935000000e+00 6.050000000e-02*       
*        9.000000000e-01               0                               0        
GRID*                 20               0 1.902500000e+00 6.050000000e-02*       
*        9.000000000e-01               0                               0        
GRID*                 25               0 1.870000000e+00 6.050000000e-02*       
*        9.000000000e-01               0                               0        
GRID*                 30               0 1.837500000e+00 6.050000000e-02*       
*        9.000000000e-01               0                               0        
GRID*                 35               0 1.805000000e+00 6.050000000e-02*       
*        9.000000000e-01               0                               0        
GRID*                 40               0 1.772500000e+00 6.050000000e-02*       
*        9.000000000e-01               0                               0        
GRID*                 45               0 1.740000000e+00 6.050000000e-02*       
*        9.000000000e-01               0                               0        
GRID*                 50               0 1.707500000e+00 6.050000000e-02*       
*        9.000000000e-01               0                               0        
GRID*                 55               0 1.675000000e+00 6.050000000e-02*       
*        9.000000000e-01               0                               0        
GRID*                 60               0 1.642500000e+00 6.050000000e-02*       
*        9.000000000e-01               0                               0        
GRID*                 65               0 1.610000000e+00 6.050000000e-02*       
*        9.000000000e-01               0                               0        
GRID*                 70               0 1.577500000e+00 6.050000000e-02*       
*        9.000000000e-01               0                               0        
GRID*                 75               0 1.545000000e+00 6.050000000e-02*       
*        9.000000000e-01               0                               0        
GRID*                 80               0 1.512500000e+00 6.050000000e-02*       
*        9.000000000e-01               0                               0        
GRID*                 85               0 1.480000000e+00 6.050000000e-02*       
*        9.000000000e-01               0                               0        
GRID*                 90               0 1.447500000e+00 6.050000000e-02*       
*        9.000000000e-01               0                               0        
GRID*                 95               0 1.415000000e+00 6.050000000e-02*       
*        9.000000000e-01               0                               0        
GRID*                100               0 1.382500000e+00 6.050000000e-02*       
*        9.000000000e-01               0                               0        
GRID*                105               0 1.350000000e+00 6.050000000e-02*       
*        9.000000000e-01               0                               0        
GRID*                110               0 1.317500000e+00 6.050000000e-02*       
*        9.000000000e-01               0                               0        
GRID*                115               0 1.285000000e+00 6.050000000e-02*       
*        9.000000000e-01               0                               0        
GRID*                120               0 1.252500000e+00 6.050000000e-02*       
*        9.000000000e-01               0                               0        
GRID*                125               0 1.220000000e+00 6.050000000e-02*       
*        9.000000000e-01               0                               0        
GRID*                130               0 1.187500000e+00 6.050000000e-02*       
*        9.000000000e-01               0                               0        
GRID*                135               0 1.155000000e+00 6.050000000e-02*       
*        9.000000000e-01               0                               0        
GRID*                140               0 1.122500000e+00 6.050000000e-02*       
*        9.000000000e-01               0                               0        
GRID*                145               0 1.090000000e+00 6.050000000e-02*       
*        9.000000000e-01               0                               0        
GRID*                150               0 1.057500000e+00 6.050000000e-02*       
*        9.000000000e-01               0                               0        
GRID*                155               0 1.025000000e+00 6.050000000e-02*       
*        9.000000000e-01               0                               0        
GRID*                160               0 9.925000000e-01 6.050000000e-02*       
*        9.000000000e-01               0                               0        
GRID*                165               0 9.600000000e-01 6.050000000e-02*       
*        9.000000000e-01               0                               0        
GRID*                170               0 9.275000000e-01 6.050000000e-02*       
*        9.000000000e-01               0                               0        
GRID*                175               0 8.950000000e-01 6.050000000e-02*       
*        9.000000000e-01               0                               0        
GRID*                180               0 8.625000000e-01 6.050000000e-02*       
*        9.000000000e-01               0                               0        
GRID*                185               0 8.300000000e-01 6.050000000e-02*       
*        9.000000000e-01               0                               0        
GRID*                190               0 7.975000000e-01 6.050000000e-02*       
*        9.000000000e-01               0                               0        
GRID*                195               0 7.650000000e-01 6.050000000e-02*       
*        9.000000000e-01               0                               0        
GRID*                200               0 7.325000000e-01 6.050000000e-02*       
*        9.000000000e-01               0                               0        
GRID*                205               0 7.000000000e-01 6.050000000e-02*       
*        9.000000000e-01               0                               0        
GRID*                210               0 6.675000000e-01 6.050000000e-02*       
*        9.000000000e-01               0                               0        
GRID*                215               0 6.350000000e-01 6.050000000e-02*       
*        9.000000000e-01               0                               0        
GRID*                220               0 6.025000000e-01 6.050000000e-02*       
*        9.000000000e-01               0                               0        
GRID*                225               0 5.700000000e-01 6.050000000e-02*       
*        9.000000000e-01               0                               0        
GRID*                230               0 5.375000000e-01 6.050000000e-02*       
*        9.000000000e-01               0                               0        
GRID*                235               0 5.050000000e-01 6.050000000e-02*       
*        9.000000000e-01               0                               0        
GRID*                240               0 4.725000000e-01 6.050000000e-02*       
*        9.000000000e-01               0                               0        
GRID*                245               0 4.400000000e-01 6.050000000e-02*       
*        9.000000000e-01               0                               0        
CQUAD          1       1       1      11      13       3       6      12
               8       2       7
CQUAD          2       1      11      21      23      13      16      22
              18      12      17
CQUAD          3       1      21      31      33      23      26      32
              28      22      27
CQUAD          4       1      31      41      43      33      36      42
              38      32      37
CQUAD          5       1      41      51      53      43      46      52
              48      42      47
CQUAD          6       1      51      61      63      53      56      62
              58      52      57
CQUAD          7       1      61      71      73      63      66      72
              68      62      67
CQUAD          8       1      71      81      83      73      76      82
              78      72      77
CQUAD          9       1      81      91      93      83      86      92
              88      82      87
CQUAD         10       1      91     101     103      93      96     102
              98      92      97
CQUAD         11       1     101     111     113     103     106     112
             108     102     107
CQUAD         12       1     111     121     123     113     116     122
             118     112     117
CQUAD         13       1     121     131     133     123     126     132
             128     122     127
CQUAD         14       1     131     141     143     133     136     142
             138     132     137
CQUAD         15       1     141     151     153     143     146     152
             148     142     147
CQUAD         16       1     151     161     163     153     156     162
             158     152     157
CQUAD         17       1     161     171     173     163     166     172
             168     162     167
CQUAD         18       1     171     181     183     173     176     182
             178     172     177
CQUAD         19       1     181     191     193     183     186     192
             188     182     187
CQUAD         20       1     191     201     203     193     196     202
             198     192     197
CQUAD         21       1     201     211     213     203     206     212
             208     202     207
CQUAD         22       1     211     221     223     213     216     222
             218     212     217
CQUAD         23       1     221     231     233     223     226     232
             228     222     227
CQUAD         24       1     231     241     243     233     236     242
             238     232     237
CQUAD         25       1       3      13      15       5       8      14
              10       4       9
CQUAD         26       1      13      23      25      15      18      24
              20      14      19
CQUAD         27       1      23      33      35      25      28      34
              30      24      29
CQUAD         28       1      33      43      45      35      38      44
              40      34      39
CQUAD         29       1      43      53      55      45      48      54
              50      44      49
CQUAD         30       1      53      63      65      55      58      64
              60      54      59
CQUAD         31       1      63      73      75      65      68      74
              70      64      69
CQUAD         32       1      73      83      85      75      78      84
              80      74      79
CQUAD         33       1      83      93      95      85      88      94
              90      84      89
CQUAD         34       1      93     103     105      95      98     104
             100      94      99
CQUAD         35       1     103     113     115     105     108     114
             110     104     109
CQUAD         36       1     113     123     125     115     118     124
             120     114     119
CQUAD         37       1     123     133     135     125     128     134
             130     124     129
CQUAD         38       1     133     143     145     135     138     144
             140     134     139
CQUAD         39       1     143     153     155     145     148     154
             150     144     149
CQUAD         40       1     153     163     165     155     158     164
             160     154     159
CQUAD         41       1     163     173     175     165     168     174
             170     164     169
CQUAD         42       1     173     183     185     175     178     184
             180     174     179
CQUAD         43       1     183     193     195     185     188     194
             190     184     189
CQUAD         44       1     193     203     205     195     198     204
             200     194     199
CQUAD         45       1     203     213     215     205     208     214
             210     204     209
CQUAD         46       1     213     223     225     215     218     224
             220     214     219
CQUAD         47       1     223     233     235     225     228     234
             230     224     229
CQUAD         48       1     233     243     245     235     238     244
             240     234     239
SPC            1     241     1230.000000
SPC            1     242     1230.000000
SPC            1     243     1230.000000
SPC            1     244     1230.000000
SPC            1     245     1230.000000
$ END