$ Input file for a rotor simulation with 4 blades
$ Blade 2, theta=90.000000 deg alpha=0.000000 deg
$ nx=24, ny=2, x0=-0.060500, x1=0.060500, y0=2.000000, y1=0.440000
GRID*                246               0-6.050000000e-02-2.000000000e+00*       
*        9.000000000e-01               0                               0        
GRID*                251               0-6.050000000e-02-1.967500000e+00*       
*        9.000000000e-01               0                               0        
GRID*                256               0-6.050000000e-02-1.935000000e+00*       
*        9.000000000e-01               0                               0        
GRID*                261               0-6.050000000e-02-1.902500000e+00*       
*        9.000000000e-01               0                               0        
GRID*                266               0-6.050000000e-02-1.870000000e+00*       
*        9.000000000e-01               0                               0        
GRID*                271               0-6.050000000e-02-1.837500000e+00*       
*        9.000000000e-01               0                               0        
GRID*                276               0-6.050000000e-02-1.805000000e+00*       
*        9.000000000e-01               0                               0        
GRID*                281               0-6.050000000e-02-1.772500000e+00*       
*        9.000000000e-01               0                               0        
GRID*                286               0-6.050000000e-02-1.740000000e+00*       
*        9.000000000e-01               0                               0        
GRID*                291               0-6.050000000e-02-1.707500000e+00*       
*        9.000000000e-01               0                               0        
GRID*                296               0-6.050000000e-02-1.675000000e+00*       
*        9.000000000e-01               0                               0        
GRID*                301               0-6.050000000e-02-1.642500000e+00*       
*        9.000000000e-01               0                               0        
GRID*                306               0-6.050000000e-02-1.610000000e+00*       
*        9.000000000e-01               0                               0        
GRID*                311               0-6.050000000e-02-1.577500000e+00*       
*        9.000000000e-01               0                               0        
GRID*                316               0-6.050000000e-02-1.545000000e+00*       
*        9.000000000e-01               0                               0        
GRID*                321               0-6.050000000e-02-1.512500000e+00*       
*        9.000000000e-01               0                               0        
GRID*                326               0-6.050000000e-02-1.480000000e+00*       
*        9.000000000e-01               0                               0        
GRID*                331               0-6.050000000e-02-1.447500000e+00*       
*        9.000000000e-01               0                               0        
GRID*                336               0-6.050000000e-02-1.415000000e+00*       
*        9.000000000e-01               0                               0        
GRID*                341               0-6.050000000e-02-1.382500000e+00*       
*        9.000000000e-01               0                               0        
GRID*                346               0-6.050000000e-02-1.350000000e+00*       
*        9.000000000e-01               0                               0        
GRID*                351               0-6.050000000e-02-1.317500000e+00*       
*        9.000000000e-01               0                               0        
GRID*                356               0-6.050000000e-02-1.285000000e+00*       
*        9.000000000e-01               0                               0        
GRID*                361               0-6.050000000e-02-1.252500000e+00*       
*        9.000000000e-01               0                               0        
GRID*                366               0-6.050000000e-02-1.220000000e+00*       
*        9.000000000e-01               0                               0        
GRID*                371               0-6.050000000e-02-1.187500000e+00*       
*        9.000000000e-01               0                               0        
GRID*                376               0-6.050000000e-02-1.155000000e+00*       
*        9.000000000e-01               0                               0        
GRID*                381               0-6.050000000e-02-1.122500000e+00*       
*        9.000000000e-01               0                               0        
GRID*                386               0-6.050000000e-02-1.090000000e+00*       
*        9.000000000e-01               0                               0        
GRID*                391               0-6.050000000e-02-1.057500000e+00*       
*        9.000000000e-01               0                               0        
GRID*                396               0-6.050000000e-02-1.025000000e+00*       
*        9.000000000e-01               0                               0        
GRID*                401               0-6.050000000e-02-9.925000000e-01*       
*        9.000000000e-01               0                               0        
GRID*                406               0-6.050000000e-02-9.600000000e-01*       
*        9.000000000e-01               0                               0        
GRID*                411               0-6.050000000e-02-9.275000000e-01*       
*        9.000000000e-01               0                               0        
GRID*                416               0-6.050000000e-02-8.950000000e-01*       
*        9.000000000e-01               0                               0        
GRID*                421               0-6.050000000e-02-8.625000000e-01*       
*        9.000000000e-01               0                               0        
GRID*                426               0-6.050000000e-02-8.300000000e-01*       
*        9.000000000e-01               0                               0        
GRID*                431               0-6.050000000e-02-7.975000000e-01*       
*        9.000000000e-01               0                               0        
GRID*                436               0-6.050000000e-02-7.650000000e-01*       
*        9.000000000e-01               0                               0        
GRID*                441               0-6.050000000e-02-7.325000000e-01*       
*        9.000000000e-01               0                               0        
GRID*                446               0-6.050000000e-02-7.000000000e-01*       
*        9.000000000e-01               0                               0        
GRID*                451               0-6.050000000e-02-6.675000000e-01*       
*        9.000000000e-01               0                               0        
GRID*                456               0-6.050000000e-02-6.350000000e-01*       
*        9.000000000e-01               0                               0        
GRID*                461               0-6.050000000e-02-6.025000000e-01*       
*        9.000000000e-01               0                               0        
GRID*                466               0-6.050000000e-02-5.700000000e-01*       
*        9.000000000e-01               0                               0        
GRID*                471               0-6.050000000e-02-5.375000000e-01*       
*        9.000000000e-01               0                               0        
GRID*                476               0-6.050000000e-02-5.050000000e-01*       
*        9.000000000e-01               0                               0        
GRID*                481               0-6.050000000e-02-4.725000000e-01*       
*        9.000000000e-01               0                               0        
GRID*                486               0-6.050000000e-02-4.400000000e-01*       
*        9.000000000e-01               0                               0        
GRID*                247               0-3.025000000e-02-2.000000000e+00*       
*        9.000000000e-01               0                               0        
GRID*                252               0-3.025000000e-02-1.967500000e+00*       
*        9.000000000e-01               0                               0        
GRID*                257               0-3.025000000e-02-1.935000000e+00*       
*        9.000000000e-01               0                               0        
GRID*                262               0-3.025000000e-02-1.902500000e+00*       
*        9.000000000e-01               0                               0        
GRID*                267               0-3.025000000e-02-1.870000000e+00*       
*        9.000000000e-01               0                               0        
GRID*                272               0-3.025000000e-02-1.837500000e+00*       
*        9.000000000e-01               0                               0        
GRID*                277               0-3.025000000e-02-1.805000000e+00*       
*        9.000000000e-01               0                               0        
GRID*                282               0-3.025000000e-02-1.772500000e+00*       
*        9.000000000e-01               0                               0        
GRID*                287               0-3.025000000e-02-1.740000000e+00*       
*        9.000000000e-01               0                               0        
GRID*                292               0-3.025000000e-02-1.707500000e+00*       
*        9.000000000e-01               0                               0        
GRID*                297               0-3.025000000e-02-1.675000000e+00*       
*        9.000000000e-01               0                               0        
GRID*                302               0-3.025000000e-02-1.642500000e+00*       
*        9.000000000e-01               0                               0        
GRID*                307               0-3.025000000e-02-1.610000000e+00*       
*        9.000000000e-01               0                               0        
GRID*                312               0-3.025000000e-02-1.577500000e+00*       
*        9.000000000e-01               0                               0        
GRID*                317               0-3.025000000e-02-1.545000000e+00*       
*        9.000000000e-01               0                               0        
GRID*                322               0-3.025000000e-02-1.512500000e+00*       
*        9.000000000e-01               0                               0        
GRID*                327               0-3.025000000e-02-1.480000000e+00*       
*        9.000000000e-01               0                               0        
GRID*                332               0-3.025000000e-02-1.447500000e+00*       
*        9.000000000e-01               0                               0        
GRID*                337               0-3.025000000e-02-1.415000000e+00*       
*        9.000000000e-01               0                               0        
GRID*                342               0-3.025000000e-02-1.382500000e+00*       
*        9.000000000e-01               0                               0        
GRID*                347               0-3.025000000e-02-1.350000000e+00*       
*        9.000000000e-01               0                               0        
GRID*                352               0-3.025000000e-02-1.317500000e+00*       
*        9.000000000e-01               0                               0        
GRID*                357               0-3.025000000e-02-1.285000000e+00*       
*        9.000000000e-01               0                               0        
GRID*                362               0-3.025000000e-02-1.252500000e+00*       
*        9.000000000e-01               0                               0        
GRID*                367               0-3.025000000e-02-1.220000000e+00*       
*        9.000000000e-01               0                               0        
GRID*                372               0-3.025000000e-02-1.187500000e+00*       
*        9.000000000e-01               0                               0        
GRID*                377               0-3.025000000e-02-1.155000000e+00*       
*        9.000000000e-01               0                               0        
GRID*                382               0-3.025000000e-02-1.122500000e+00*       
*        9.000000000e-01               0                               0        
GRID*                387               0-3.025000000e-02-1.090000000e+00*       
*        9.000000000e-01               0                               0        
GRID*                392               0-3.025000000e-02-1.057500000e+00*       
*        9.000000000e-01               0                               0        
GRID*                397               0-3.025000000e-02-1.025000000e+00*       
*        9.000000000e-01               0                               0        
GRID*                402               0-3.025000000e-02-9.925000000e-01*       
*        9.000000000e-01               0                               0        
GRID*                407               0-3.025000000e-02-9.600000000e-01*       
*        9.000000000e-01               0                               0        
GRID*                412               0-3.025000000e-02-9.275000000e-01*       
*        9.000000000e-01               0                               0        
GRID*                417               0-3.025000000e-02-8.950000000e-01*       
*        9.000000000e-01               0                               0        
GRID*                422               0-3.025000000e-02-8.625000000e-01*       
*        9.000000000e-01               0                               0        
GRID*                427               0-3.025000000e-02-8.300000000e-01*       
*        9.000000000e-01               0                               0        
GRID*                432               0-3.025000000e-02-7.975000000e-01*       
*        9.000000000e-01               0                               0        
GRID*                437               0-3.025000000e-02-7.650000000e-01*       
*        9.000000000e-01               0                               0        
GRID*                442               0-3.025000000e-02-7.325000000e-01*       
*        9.000000000e-01               0                               0        
GRID*                447               0-3.025000000e-02-7.000000000e-01*       
*        9.000000000e-01               0                               0        
GRID*                452               0-3.025000000e-02-6.675000000e-01*       
*        9.000000000e-01               0                               0        
GRID*                457               0-3.025000000e-02-6.350000000e-01*       
*        9.000000000e-01               0                               0        
GRID*                462               0-3.025000000e-02-6.025000000e-01*       
*        9.000000000e-01               0                               0        
GRID*                467               0-3.025000000e-02-5.700000000e-01*       
*        9.000000000e-01               0                               0        
GRID*                472               0-3.025000000e-02-5.375000000e-01*       
*        9.000000000e-01               0                               0        
GRID*                477               0-3.025000000e-02-5.050000000e-01*       
*        9.000000000e-01               0                               0        
GRID*                482               0-3.025000000e-02-4.725000000e-01*       
*        9.000000000e-01               0                               0        
GRID*                487               0-3.025000000e-02-4.400000000e-01*       
*        9.000000000e-01               0                               0        
GRID*                248               0 1.224646799e-16-2.000000000e+00*       
*        9.000000000e-01               0                               0        
GRID*                253               0 1.204746289e-16-1.967500000e+00*       
*        9.000000000e-01               0                               0        
GRID*                258               0 1.184845778e-16-1.935000000e+00*       
*        9.000000000e-01               0                               0        
GRID*                263               0 1.164945268e-16-1.902500000e+00*       
*        9.000000000e-01               0                               0        
GRID*                268               0 1.145044757e-16-1.870000000e+00*       
*        9.000000000e-01               0                               0        
GRID*                273               0 1.125144247e-16-1.837500000e+00*       
*        9.000000000e-01               0                               0        
GRID*                278               0 1.105243736e-16-1.805000000e+00*       
*        9.000000000e-01               0                               0        
GRID*                283               0 1.085343226e-16-1.772500000e+00*       
*        9.000000000e-01               0                               0        
GRID*                288               0 1.065442715e-16-1.740000000e+00*       
*        9.000000000e-01               0                               0        
GRID*                293               0 1.045542205e-16-1.707500000e+00*       
*        9.000000000e-01               0                               0        
GRID*                298               0 1.025641694e-16-1.675000000e+00*       
*        9.000000000e-01               0                               0        
GRID*                303               0 1.005741184e-16-1.642500000e+00*       
*        9.000000000e-01               0                               0        
GRID*                308               0 9.858406733e-17-1.610000000e+00*       
*        9.000000000e-01               0                               0        
GRID*                313               0 9.659401628e-17-1.577500000e+00*       
*        9.000000000e-01               0                               0        
GRID*                318               0 9.460396523e-17-1.545000000e+00*       
*        9.000000000e-01               0                               0        
GRID*                323               0 9.261391419e-17-1.512500000e+00*       
*        9.000000000e-01               0                               0        
GRID*                328               0 9.062386314e-17-1.480000000e+00*       
*        9.000000000e-01               0                               0        
GRID*                333               0 8.863381209e-17-1.447500000e+00*       
*        9.000000000e-01               0                               0        
GRID*                338               0 8.664376104e-17-1.415000000e+00*       
*        9.000000000e-01               0                               0        
GRID*                343               0 8.465370999e-17-1.382500000e+00*       
*        9.000000000e-01               0                               0        
GRID*                348               0 8.266365894e-17-1.350000000e+00*       
*        9.000000000e-01               0                               0        
GRID*                353               0 8.067360789e-17-1.317500000e+00*       
*        9.000000000e-01               0                               0        
GRID*                358               0 7.868355685e-17-1.285000000e+00*       
*        9.000000000e-01               0                               0        
GRID*                363               0 7.669350580e-17-1.252500000e+00*       
*        9.000000000e-01               0                               0        
GRID*                368               0 7.470345475e-17-1.220000000e+00*       
*        9.000000000e-01               0                               0        
GRID*                373               0 7.271340370e-17-1.187500000e+00*       
*        9.000000000e-01               0                               0        
GRID*                378               0 7.072335265e-17-1.155000000e+00*       
*        9.000000000e-01               0                               0        
GRID*                383               0 6.873330160e-17-1.122500000e+00*       
*        9.000000000e-01               0                               0        
GRID*                388               0 6.674325055e-17-1.090000000e+00*       
*        9.000000000e-01               0                               0        
GRID*                393               0 6.475319950e-17-1.057500000e+00*       
*        9.000000000e-01               0                               0        
GRID*                398               0 6.276314846e-17-1.025000000e+00*       
*        9.000000000e-01               0                               0        
GRID*                403               0 6.077309741e-17-9.925000000e-01*       
*        9.000000000e-01               0                               0        
GRID*                408               0 5.878304636e-17-9.600000000e-01*       
*        9.000000000e-01               0                               0        
GRID*                413               0 5.679299531e-17-9.275000000e-01*       
*        9.000000000e-01               0                               0        
GRID*                418               0 5.480294426e-17-8.950000000e-01*       
*        9.000000000e-01               0                               0        
GRID*                423               0 5.281289321e-17-8.625000000e-01*       
*        9.000000000e-01               0                               0        
GRID*                428               0 5.082284216e-17-8.300000000e-01*       
*        9.000000000e-01               0                               0        
GRID*                433               0 4.883279112e-17-7.975000000e-01*       
*        9.000000000e-01               0                               0        
GRID*                438               0 4.684274007e-17-7.650000000e-01*       
*        9.000000000e-01               0                               0        
GRID*                443               0 4.485268902e-17-7.325000000e-01*       
*        9.000000000e-01               0                               0        
GRID*                448               0 4.286263797e-17-7.000000000e-01*       
*        9.000000000e-01               0                               0        
GRID*                453               0 4.087258692e-17-6.675000000e-01*       
*        9.000000000e-01               0                               0        
GRID*                458               0 3.888253587e-17-6.350000000e-01*       
*        9.000000000e-01               0                               0        
GRID*                463               0 3.689248482e-17-6.025000000e-01*       
*        9.000000000e-01               0                               0        
GRID*                468               0 3.490243378e-17-5.700000000e-01*       
*        9.000000000e-01               0                               0        
GRID*                473               0 3.291238273e-17-5.375000000e-01*       
*        9.000000000e-01               0                               0        
GRID*                478               0 3.092233168e-17-5.050000000e-01*       
*        9.000000000e-01               0                               0        
GRID*                483               0 2.893228063e-17-4.725000000e-01*       
*        9.000000000e-01               0                               0        
GRID*                488               0 2.694222958e-17-4.400000000e-01*       
*        9.000000000e-01               0                               0        
GRID*                249               0 3.025000000e-02-2.000000000e+00*       
*        9.000000000e-01               0                               0        
GRID*                254               0 3.025000000e-02-1.967500000e+00*       
*        9.000000000e-01               0                               0        
GRID*                259               0 3.025000000e-02-1.935000000e+00*       
*        9.000000000e-01               0                               0        
GRID*                264               0 3.025000000e-02-1.902500000e+00*       
*        9.000000000e-01               0                               0        
GRID*                269               0 3.025000000e-02-1.870000000e+00*       
*        9.000000000e-01               0                               0        
GRID*                274               0 3.025000000e-02-1.837500000e+00*       
*        9.000000000e-01               0                               0        
GRID*                279               0 3.025000000e-02-1.805000000e+00*       
*        9.000000000e-01               0                               0        
GRID*                284               0 3.025000000e-02-1.772500000e+00*       
*        9.000000000e-01               0                               0        
GRID*                289               0 3.025000000e-02-1.740000000e+00*       
*        9.000000000e-01               0                               0        
GRID*                294               0 3.025000000e-02-1.707500000e+00*       
*        9.000000000e-01               0                               0        
GRID*                299               0 3.025000000e-02-1.675000000e+00*       
*        9.000000000e-01               0                               0        
GRID*                304               0 3.025000000e-02-1.642500000e+00*       
*        9.000000000e-01               0                               0        
GRID*                309               0 3.025000000e-02-1.610000000e+00*       
*        9.000000000e-01               0                               0        
GRID*                314               0 3.025000000e-02-1.577500000e+00*       
*        9.000000000e-01               0                               0        
GRID*                319               0 3.025000000e-02-1.545000000e+00*       
*        9.000000000e-01               0                               0        
GRID*                324               0 3.025000000e-02-1.512500000e+00*       
*        9.000000000e-01               0                               0        
GRID*                329               0 3.025000000e-02-1.480000000e+00*       
*        9.000000000e-01               0                               0        
GRID*                334               0 3.025000000e-02-1.447500000e+00*       
*        9.000000000e-01               0                               0        
GRID*                339               0 3.025000000e-02-1.415000000e+00*       
*        9.000000000e-01               0                               0        
GRID*                344               0 3.025000000e-02-1.382500000e+00*       
*        9.000000000e-01               0                               0        
GRID*                349               0 3.025000000e-02-1.350000000e+00*       
*        9.000000000e-01               0                               0        
GRID*                354               0 3.025000000e-02-1.317500000e+00*       
*        9.000000000e-01               0                               0        
GRID*                359               0 3.025000000e-02-1.285000000e+00*       
*        9.000000000e-01               0                               0        
GRID*                364               0 3.025000000e-02-1.252500000e+00*       
*        9.000000000e-01               0                               0        
GRID*                369               0 3.025000000e-02-1.220000000e+00*       
*        9.000000000e-01               0                               0        
GRID*                374               0 3.025000000e-02-1.187500000e+00*       
*        9.000000000e-01               0                               0        
GRID*                379               0 3.025000000e-02-1.155000000e+00*       
*        9.000000000e-01               0                               0        
GRID*                384               0 3.025000000e-02-1.122500000e+00*       
*        9.000000000e-01               0                               0        
GRID*                389               0 3.025000000e-02-1.090000000e+00*       
*        9.000000000e-01               0                               0        
GRID*                394               0 3.025000000e-02-1.057500000e+00*       
*        9.000000000e-01               0                               0        
GRID*                399               0 3.025000000e-02-1.025000000e+00*       
*        9.000000000e-01               0                               0        
GRID*                404               0 3.025000000e-02-9.925000000e-01*       
*        9.000000000e-01               0                               0        
GRID*                409               0 3.025000000e-02-9.600000000e-01*       
*        9.000000000e-01               0                               0        
GRID*                414               0 3.025000000e-02-9.275000000e-01*       
*        9.000000000e-01               0                               0        
GRID*                419               0 3.025000000e-02-8.950000000e-01*       
*        9.000000000e-01               0                               0        
GRID*                424               0 3.025000000e-02-8.625000000e-01*       
*        9.000000000e-01               0                               0        
GRID*                429               0 3.025000000e-02-8.300000000e-01*       
*        9.000000000e-01               0                               0        
GRID*                434               0 3.025000000e-02-7.975000000e-01*       
*        9.000000000e-01               0                               0        
GRID*                439               0 3.025000000e-02-7.650000000e-01*       
*        9.000000000e-01               0                               0        
GRID*                444               0 3.025000000e-02-7.325000000e-01*       
*        9.000000000e-01               0                               0        
GRID*                449               0 3.025000000e-02-7.000000000e-01*       
*        9.000000000e-01               0                               0        
GRID*                454               0 3.025000000e-02-6.675000000e-01*       
*        9.000000000e-01               0                               0        
GRID*                459               0 3.025000000e-02-6.350000000e-01*       
*        9.000000000e-01               0                               0        
GRID*                464               0 3.025000000e-02-6.025000000e-01*       
*        9.000000000e-01               0                               0        
GRID*                469               0 3.025000000e-02-5.700000000e-01*       
*        9.000000000e-01               0                               0        
GRID*                474               0 3.025000000e-02-5.375000000e-01*       
*        9.000000000e-01               0                               0        
GRID*                479               0 3.025000000e-02-5.050000000e-01*       
*        9.000000000e-01               0                               0        
GRID*                484               0 3.025000000e-02-4.725000000e-01*       
*        9.000000000e-01               0                               0        
GRID*                489               0 3.025000000e-02-4.400000000e-01*       
*        9.000000000e-01               0                               0        
GRID*                250               0 6.050000000e-02-2.000000000e+00*       
*        9.000000000e-01               0                               0        
GRID*                255               0 6.050000000e-02-1.967500000e+00*       
*        9.000000000e-01               0                               0        
GRID*                260               0 6.050000000e-02-1.935000000e+00*       
*        9.000000000e-01               0                               0        
GRID*                265               0 6.050000000e-02-1.902500000e+00*       
*        9.000000000e-01               0                               0        
GRID*                270               0 6.050000000e-02-1.870000000e+00*       
*        9.000000000e-01               0                               0        
GRID*                275               0 6.050000000e-02-1.837500000e+00*       
*        9.000000000e-01               0                               0        
GRID*                280               0 6.050000000e-02-1.805000000e+00*       
*        9.000000000e-01               0                               0        
GRID*                285               0 6.050000000e-02-1.772500000e+00*       
*        9.000000000e-01               0                               0        
GRID*                290               0 6.050000000e-02-1.740000000e+00*       
*        9.000000000e-01               0                               0        
GRID*                295               0 6.050000000e-02-1.707500000e+00*       
*        9.000000000e-01               0                               0        
GRID*                300               0 6.050000000e-02-1.675000000e+00*       
*        9.000000000e-01               0                               0        
GRID*                305               0 6.050000000e-02-1.642500000e+00*       
*        9.000000000e-01               0                               0        
GRID*                310               0 6.050000000e-02-1.610000000e+00*       
*        9.000000000e-01               0                               0        
GRID*                315               0 6.050000000e-02-1.577500000e+00*       
*        9.000000000e-01               0                               0        
GRID*                320               0 6.050000000e-02-1.545000000e+00*       
*        9.000000000e-01               0                               0        
GRID*                325               0 6.050000000e-02-1.512500000e+00*       
*        9.000000000e-01               0                               0        
GRID*                330               0 6.050000000e-02-1.480000000e+00*       
*        9.000000000e-01               0                               0        
GRID*                335               0 6.050000000e-02-1.447500000e+00*       
*        9.000000000e-01               0                               0        
GRID*                340               0 6.050000000e-02-1.415000000e+00*       
*        9.000000000e-01               0                               0        
GRID*                345               0 6.050000000e-02-1.382500000e+00*       
*        9.000000000e-01               0                               0        
GRID*                350               0 6.050000000e-02-1.350000000e+00*       
*        9.000000000e-01               0                               0        
GRID*                355               0 6.050000000e-02-1.317500000e+00*       
*        9.000000000e-01               0                               0        
GRID*                360               0 6.050000000e-02-1.285000000e+00*       
*        9.000000000e-01               0                               0        
GRID*                365               0 6.050000000e-02-1.252500000e+00*       
*        9.000000000e-01               0                               0        
GRID*                370               0 6.050000000e-02-1.220000000e+00*       
*        9.000000000e-01               0                               0        
GRID*                375               0 6.050000000e-02-1.187500000e+00*       
*        9.000000000e-01               0                               0        
GRID*                380               0 6.050000000e-02-1.155000000e+00*       
*        9.000000000e-01               0                               0        
GRID*                385               0 6.050000000e-02-1.122500000e+00*       
*        9.000000000e-01               0                               0        
GRID*                390               0 6.050000000e-02-1.090000000e+00*       
*        9.000000000e-01               0                               0        
GRID*                395               0 6.050000000e-02-1.057500000e+00*       
*        9.000000000e-01               0                               0        
GRID*                400               0 6.050000000e-02-1.025000000e+00*       
*        9.000000000e-01               0                               0        
GRID*                405               0 6.050000000e-02-9.925000000e-01*       
*        9.000000000e-01               0                               0        
GRID*                410               0 6.050000000e-02-9.600000000e-01*       
*        9.000000000e-01               0                               0        
GRID*                415               0 6.050000000e-02-9.275000000e-01*       
*        9.000000000e-01               0                               0        
GRID*                420               0 6.050000000e-02-8.950000000e-01*       
*        9.000000000e-01               0                               0        
GRID*                425               0 6.050000000e-02-8.625000000e-01*       
*        9.000000000e-01               0                               0        
GRID*                430               0 6.050000000e-02-8.300000000e-01*       
*        9.000000000e-01               0                               0        
GRID*                435               0 6.050000000e-02-7.975000000e-01*       
*        9.000000000e-01               0                               0        
GRID*                440               0 6.050000000e-02-7.650000000e-01*       
*        9.000000000e-01               0                               0        
GRID*                445               0 6.050000000e-02-7.325000000e-01*       
*        9.000000000e-01               0                               0        
GRID*                450               0 6.050000000e-02-7.000000000e-01*       
*        9.000000000e-01               0                               0        
GRID*                455               0 6.050000000e-02-6.675000000e-01*       
*        9.000000000e-01               0                               0        
GRID*                460               0 6.050000000e-02-6.350000000e-01*       
*        9.000000000e-01               0                               0        
GRID*                465               0 6.050000000e-02-6.025000000e-01*       
*        9.000000000e-01               0                               0        
GRID*                470               0 6.050000000e-02-5.700000000e-01*       
*        9.000000000e-01               0                               0        
GRID*                475               0 6.050000000e-02-5.375000000e-01*       
*        9.000000000e-01               0                               0        
GRID*                480               0 6.050000000e-02-5.050000000e-01*       
*        9.000000000e-01               0                               0        
GRID*                485               0 6.050000000e-02-4.725000000e-01*       
*        9.000000000e-01               0                               0        
GRID*                490               0 6.050000000e-02-4.400000000e-01*       
*        9.000000000e-01               0                               0        
CQUAD          1       1     246     256     258     248     251     257
             253     247     252
CQUAD          2       1     256     266     268     258     261     267
             263     257     262
CQUAD          3       1     266     276     278     268     271     277
             273     267     272
CQUAD          4       1     276     286     288     278     281     287
             283     277     282
CQUAD          5       1     286     296     298     288     291     297
             293     287     292
CQUAD          6       1     296     306     308     298     301     307
             303     297     302
CQUAD          7       1     306     316     318     308     311     317
             313     307     312
CQUAD          8       1     316     326     328     318     321     327
             323     317     322
CQUAD          9       1     326     336     338     328     331     337
             333     327     332
CQUAD         10       1     336     346     348     338     341     347
             343     337     342
CQUAD         11       1     346     356     358     348     351     357
             353     347     352
CQUAD         12       1     356     366     368     358     361     367
             363     357     362
CQUAD         13       1     366     376     378     368     371     377
             373     367     372
CQUAD         14       1     376     386     388     378     381     387
             383     377     382
CQUAD         15       1     386     396     398     388     391     397
             393     387     392
CQUAD         16       1     396     406     408     398     401     407
             403     397     402
CQUAD         17       1     406     416     418     408     411     417
             413     407     412
CQUAD         18       1     416     426     428     418     421     427
             423     417     422
CQUAD         19       1     426     436     438     428     431     437
             433     427     432
CQUAD         20       1     436     446     448     438     441     447
             443     437     442
CQUAD         21       1     446     456     458     448     451     457
             453     447     452
CQUAD         22       1     456     466     468     458     461     467
             463     457     462
CQUAD         23       1     466     476     478     468     471     477
             473     467     472
CQUAD         24       1     476     486     488     478     481     487
             483     477     482
CQUAD         25       1     248     258     260     250     253     259
             255     249     254
CQUAD         26       1     258     268     270     260     263     269
             265     259     264
CQUAD         27       1     268     278     280     270     273     279
             275     269     274
CQUAD         28       1     278     288     290     280     283     289
             285     279     284
CQUAD         29       1     288     298     300     290     293     299
             295     289     294
CQUAD         30       1     298     308     310     300     303     309
             305     299     304
CQUAD         31       1     308     318     320     310     313     319
             315     309     314
CQUAD         32       1     318     328     330     320     323     329
             325     319     324
CQUAD         33       1     328     338     340     330     333     339
             335     329     334
CQUAD         34       1     338     348     350     340     343     349
             345     339     344
CQUAD         35       1     348     358     360     350     353     359
             355     349     354
CQUAD         36       1     358     368     370     360     363     369
             365     359     364
CQUAD         37       1     368     378     380     370     373     379
             375     369     374
CQUAD         38       1     378     388     390     380     383     389
             385     379     384
CQUAD         39       1     388     398     400     390     393     399
             395     389     394
CQUAD         40       1     398     408     410     400     403     409
             405     399     404
CQUAD         41       1     408     418     420     410     413     419
             415     409     414
CQUAD         42       1     418     428     430     420     423     429
             425     419     424
CQUAD         43       1     428     438     440     430     433     439
             435     429     434
CQUAD         44       1     438     448     450     440     443     449
             445     439     444
CQUAD         45       1     448     458     460     450     453     459
             455     449     454
CQUAD         46       1     458     468     470     460     463     469
             465     459     464
CQUAD         47       1     468     478     480     470     473     479
             475     469     474
CQUAD         48       1     478     488     490     480     483     489
             485     479     484
SPC            1     486     1230.000000
SPC            1     487     1230.000000
SPC            1     488     1230.000000
SPC            1     489     1230.000000
SPC            1     490     1230.000000
$ END