DBRep_DrawableShape

CASCADE Topology V1, (c) Matra-Datavision
Locations 11
1
1.11022302462516e-16               1               0               0 
             -1 1.11022302462516e-16               0               0 
              0               0               1               0 
1
              1 2.44929359829471e-16               0               0 
-2.44929359829471e-16               1               0               0 
              0               0               1               0 
1
              1               0               0               0 
              0               1               0               0 
              0               0               1               0 
1
1.11022302462516e-16               1               0               0 
             -1 1.11022302462516e-16               0               0 
              0               0               1               0 
2  1 1 2 1 3 1 4 1 0
1
              1               0               0           -1.56 
              0               1               0               0 
              0               0               1               0 
2  1 1 6 1 2 1 3 1 4 1 0
2  2 1 3 1 4 1 0
2  1 1 6 1 0
2  1 -1 0
2  6 -1 1 -1 0
Curve2ds 40
1 0 0 0 -1 
1 1 0 0 -1 
1 1 0 0 -1 
1 0 0 0 -1 
1 0 0 1 0 
1 0 -1.5600000000000001 1 0 
1 1 0 0 -1 
1 0 0 0 -1 
1 0 0 1 0 
1 0 -1.5600000000000001 1 0 
1 1 0 0 -1 
1 0 0 0 -1 
1 0 0 1 0 
1 0 -1.5600000000000001 1 0 
1 1 0 0 -1 
1 0 0 0 -1 
1 0 0 1 0 
1 0 -1.5600000000000001 1 0 
1 1 0 0 -1 
1 0 0 0 -1 
1 0 0 1 0 
1 0 -1.5600000000000001 1 0 
1 1 0 0 -1 
1 0 0 0 -1 
1 0 0 1 0 
1 0 -1.5600000000000001 1 0 
1 1 0 0 -1 
1 0 0 0 -1 
1 0 0 1 0 
1 0 -1.5600000000000001 1 0 
1 1 0 0 -1 
1 0 0 0 -1 
1 0 0 1 0 
1 0 -1.5600000000000001 1 0 
1 1 0 0 -1 
1 0 0 0 -1 
1 0 0 1 0 
1 0 -1.5600000000000001 1 0 
1 0 0 1 0 
1 0 -1.5600000000000001 1 0 
Curves 20
1 2 -0.060499999999999776 0.90015246000000004 -1 0 0 
1 2 -0.048945528159684101 0.90168363290341014 -1 0 0 
7 0 0  3 4 2  0.060499999999999998 2 0.90015246000000004  0.056652489196846408 2.0000000000000009 0.90069227752254266  0.052800629497761944 1.9999999999999993 0.90120101243425677  0.048945528159684323 2 0.90168363290341014 
 0 4 1 4
1 2 -0.018695528159684102 0.90495100627262104 -1 0 0 
7 0 0  3 4 2  0.048945528159684323 2 0.90168363290341014  0.03888135079669177 1.9999999999999993 0.9029410857277308  0.028796228155522286 2.0000000000000009 0.9040314958123038  0.018695528159684324 2 0.90495100627262104 
 0 4 1 4
1 2 0.018695528159684532 0.90720854072861501 -1 0 0 
7 0 0  3 4 2  0.018695528159684324 2 0.90495100627262104  0.0062583579951715276 2 0.90606884013556699  -0.0062072645680476364 2 0.90696044060078063  -0.01869552815968431 2 0.90720854072861501 
 0 4 1 4
1 2 0.048945528159684532 0.90557192091346872 -1 0 0 
7 0 0  3 4 2  -0.01869552815968431 2 0.90720854072861501  -0.028791746743577658 2.0000000000000009 0.90734768018725598  -0.03896057984329146 1.9999999999999989 0.90725147281639507  -0.048945528159684309 2 0.90557192091346872 
 0 4 1 4
1 2 0.06050000000000022 0.90000000000000002 -1 0 0 
7 0 0  3 4 2  -0.048945528159684309 2 0.90557192091346872  -0.052636278509252836 1.9999999999999989 0.9043182237143198  -0.058953499921957975 2.0000000000000004 0.90453584392162212  -0.060499999999999998 2 0.90000000000000002 
 0 4 1 4
1 2 0.048945528159684545 0.89442807908653132 -1 0 0 
7 0 0  3 4 2  -0.060499999999999998 2 0.90000000000000002  -0.058953499921958051 2.0000000000000018 0.89546415607837804  -0.052636278509252774 1.9999999999999982 0.89568177628568013  -0.048945528159684323 2 0.89442807908653132 
 0 4 1 4
1 2 0.018695528159684546 0.89279145927138504 -1 0 0 
7 0 0  3 4 2  -0.048945528159684323 2 0.89442807908653132  -0.038960579843291404 1.9999999999999978 0.89274852718360409  -0.028791746743577755 2.0000000000000018 0.89265231981274495  -0.018695528159684324 2 0.89279145927138504 
 0 4 1 4
1 2 -0.018695528159684088 0.89504899372737901 -1 0 0 
7 0 0  3 4 2  -0.018695528159684324 2 0.89279145927138504  -0.0062072645680476502 1.9999999999999976 0.8930395593992192  0.0062583579951715198 2.0000000000000018 0.89393115986443294  0.01869552815968431 2 0.89504899372737901 
 0 4 1 4
1 2 -0.048945528159684101 0.89831636709658991 -1 0 0 
7 0 0  3 4 2  0.01869552815968431 2 0.89504899372737901  0.028796228155522262 2.0000000000000009 0.89596850418769602  0.038881350796691756 1.9999999999999996 0.89705891427226958  0.048945528159684323 2 0.89831636709658991 
 0 4 1 4
7 0 0  3 4 2  0.048945528159684323 2 0.89831636709658991  0.052687366752767084 2 0.89924147339302651  0.056914693412002233 2 0.89872096977942417  0.060499999999999998 2 0.90015246000000004 
 0 4 1 4
Polygon3D 0
PolygonOnTriangulations 0
Surfaces 11
6 1 -0 -0 
7 0 0  3 4 2  2 -0.060499999999999776 0.90015246000000004  2.0000000000000009 -0.056652489196846186 0.90069227752254266  1.9999999999999993 -0.052800629497761722 0.90120101243425677  2 -0.048945528159684101 0.90168363290341014 
 0 4 1 4
6 1 -0 -0 
7 0 0  3 4 2  2 -0.048945528159684101 0.89831636709658991  2 -0.052687366752766862 0.89924147339302651  2 -0.056914693412002011 0.89872096977942417  2 -0.060499999999999776 0.90015246000000004 
 0 4 1 4
6 1 -0 -0 
7 0 0  3 4 2  2 -0.048945528159684101 0.90168363290341014  1.9999999999999993 -0.038881350796691548 0.9029410857277308  2.0000000000000009 -0.028796228155522064 0.9040314958123038  2 -0.018695528159684102 0.90495100627262104 
 0 4 1 4
6 1 -0 -0 
7 0 0  3 4 2  2 -0.018695528159684102 0.90495100627262104  2 -0.0062583579951713056 0.90606884013556699  2 0.0062072645680478584 0.90696044060078063  2 0.018695528159684532 0.90720854072861501 
 0 4 1 4
6 1 -0 -0 
7 0 0  3 4 2  2 0.018695528159684532 0.90720854072861501  2.0000000000000009 0.02879174674357788 0.90734768018725598  1.9999999999999989 0.038960579843291682 0.90725147281639507  2 0.048945528159684532 0.90557192091346872 
 0 4 1 4
6 1 -0 -0 
7 0 0  3 4 2  2 0.048945528159684532 0.90557192091346872  1.9999999999999989 0.052636278509253058 0.9043182237143198  2.0000000000000004 0.058953499921958197 0.90453584392162212  2 0.06050000000000022 0.90000000000000002 
 0 4 1 4
6 1 -0 -0 
7 0 0  3 4 2  2 0.06050000000000022 0.90000000000000002  2.0000000000000018 0.058953499921958273 0.89546415607837804  1.9999999999999982 0.052636278509252996 0.89568177628568013  2 0.048945528159684545 0.89442807908653132 
 0 4 1 4
6 1 -0 -0 
7 0 0  3 4 2  2 0.048945528159684545 0.89442807908653132  1.9999999999999978 0.038960579843291626 0.89274852718360409  2.0000000000000018 0.028791746743577977 0.89265231981274495  2 0.018695528159684546 0.89279145927138504 
 0 4 1 4
6 1 -0 -0 
7 0 0  3 4 2  2 0.018695528159684546 0.89279145927138504  1.9999999999999976 0.0062072645680478723 0.8930395593992192  2.0000000000000018 -0.0062583579951712978 0.89393115986443294  2 -0.018695528159684088 0.89504899372737901 
 0 4 1 4
6 1 -0 -0 
7 0 0  3 4 2  2 -0.018695528159684088 0.89504899372737901  2.0000000000000009 -0.02879622815552204 0.89596850418769602  1.9999999999999996 -0.038881350796691534 0.89705891427226958  2 -0.048945528159684101 0.89831636709658991 
 0 4 1 4
1 -0.0015119400227422022 1.9999999999999996 0.89999881012206717 3.1972703417967612e-15 -1 9.0276399364603615e-15 0 -9.0276399364603615e-15 -1 1 3.1972703417967612e-15 -2.886380542526471e-29 
Triangulations 0

TShapes 55
Ve
1e-07
0.0605 2 0.90015246
0 0

0101101
*
Ve
1e-07
0.0489455281596843 2 0.90168363290341
0 0

0101101
*
Ve
1e-07
0.0186955281596843 2 0.904951006272621
0 0

0101101
*
Ve
1e-07
-0.0186955281596843 2 0.907208540728615
0 0

0101101
*
Ve
1e-07
-0.0489455281596843 2 0.905571920913469
0 0

0101101
*
Ve
1e-07
-0.0605 2 0.9
0 0

0101101
*
Ve
1e-07
-0.0489455281596843 2 0.894428079086531
0 0

0101101
*
Ve
1e-07
-0.0186955281596843 2 0.892791459271385
0 0

0101101
*
Ve
1e-07
0.0186955281596843 2 0.895048993727379
0 0

0101101
*
Ve
1e-07
0.0489455281596843 2 0.89831636709659
0 0

0101101
*
Ed
 1e-07 1 1 0
1  1 0 0 1.56
2  1 1 0 0 1.56
2  2 2 0 0 1.56
0

0101000
+55 1 -55 9 *
Ed
 1e-07 1 1 0
1  2 0 0 1.56
2  3 1 0 0 1.56
2  4 3 0 0 1.56
4 G1 1 0 3 0
0

0101000
+54 1 -54 9 *
Ed
 1e-07 1 1 0
1  3 0 0 1
2  5 1 10 0 1
2  6 1 11 0 1
0

0101000
+55 0 -54 0 *
Ed
 1e-07 1 1 0
1  4 0 0 1.56
2  7 3 0 0 1.56
2  8 4 0 0 1.56
4 G1 3 0 4 0
0

0101000
+53 1 -53 9 *
Ed
 1e-07 1 1 0
1  5 0 0 1
2  9 3 10 0 1
2  10 3 11 0 1
0

0101000
+54 0 -53 0 *
Ed
 1e-07 1 1 0
1  6 0 0 1.56
2  11 4 0 0 1.56
2  12 5 0 0 1.56
0

0101000
+52 1 -52 9 *
Ed
 1e-07 1 1 0
1  7 0 0 1
2  13 4 10 0 1
2  14 4 11 0 1
0

0101000
+53 0 -52 0 *
Ed
 1e-07 1 1 0
1  8 0 0 1.56
2  15 5 0 0 1.56
2  16 6 0 0 1.56
0

0101000
+51 1 -51 9 *
Ed
 1e-07 1 1 0
1  9 0 0 1
2  17 5 10 0 1
2  18 5 11 0 1
0

0101000
+52 0 -51 0 *
Ed
 1e-07 1 1 0
1  10 0 0 1.56
2  19 6 0 0 1.56
2  20 7 0 0 1.56
0

0101000
+50 1 -50 9 *
Ed
 1e-07 1 1 0
1  11 0 0 1
2  21 6 10 0 1
2  22 6 11 0 1
0

0101000
+51 0 -50 0 *
Ed
 1e-07 1 1 0
1  12 0 0 1.56
2  23 7 0 0 1.56
2  24 8 0 0 1.56
0

0101000
+49 1 -49 9 *
Ed
 1e-07 1 1 0
1  13 0 0 1
2  25 7 10 0 1
2  26 7 11 0 1
0

0101000
+50 0 -49 0 *
Ed
 1e-07 1 1 0
1  14 0 0 1.56
2  27 8 0 0 1.56
2  28 9 0 0 1.56
0

0101000
+48 1 -48 9 *
Ed
 1e-07 1 1 0
1  15 0 0 1
2  29 8 10 0 1
2  30 8 11 0 1
0

0101000
+49 0 -48 0 *
Ed
 1e-07 1 1 0
1  16 0 0 1.56
2  31 9 0 0 1.56
2  32 10 0 0 1.56
4 G1 9 0 10 0
0

0101000
+47 1 -47 9 *
Ed
 1e-07 1 1 0
1  17 0 0 1
2  33 9 10 0 1
2  34 9 11 0 1
0

0101000
+48 0 -47 0 *
Ed
 1e-07 1 1 0
1  18 0 0 1.56
2  35 10 0 0 1.56
2  36 2 0 0 1.56
0

0101000
+46 1 -46 9 *
Ed
 1e-07 1 1 0
1  19 0 0 1
2  37 10 10 0 1
2  38 10 11 0 1
0

0101000
+47 0 -46 0 *
Ed
 1e-07 1 1 0
1  20 0 0 1
2  39 2 10 0 1
2  40 2 11 0 1
0

0101000
+46 0 -55 0 *
Wi

0101100
+45 0 -44 0 -43 1 +43 9 *
Wi

0101100
+44 0 -42 0 -41 1 +41 9 *
Wi

0101100
+42 0 -40 0 -39 1 +39 9 *
Wi

0101100
+40 0 -38 0 -37 1 +37 9 *
Wi

0101100
+38 0 -36 0 -35 1 +35 9 *
Wi

0101100
+36 0 -34 0 -33 1 +33 9 *
Wi

0101100
+34 0 -32 0 -31 1 +31 9 *
Wi

0101100
+32 0 -30 0 -29 1 +29 9 *
Wi

0101100
+30 0 -28 0 -27 1 +27 9 *
Wi

0101100
+28 0 -45 0 -26 1 +26 9 *
Wi

0101100
+43 0 +41 0 +39 0 +37 0 +35 0 +33 0 +31 0 +29 0 +27 0 +26 0 
*
Fa
0  1e-07 1 0

0101000
+25 0 *
Fa
0  1e-07 3 0

0101000
+24 0 *
Fa
0  1e-07 4 0

0101000
+23 0 *
Fa
0  1e-07 5 0

0101000
+22 0 *
Fa
0  1e-07 6 0

0101000
+21 0 *
Fa
0  1e-07 7 0

0101000
+20 0 *
Fa
0  1e-07 8 0

0101000
+19 0 *
Fa
0  1e-07 9 0

0101000
+18 0 *
Fa
0  1e-07 10 0

0101000
+17 0 *
Fa
0  1e-07 2 0

0101000
+16 0 *
Fa
0  1e-07 11 0

0111000
+15 0 *
Sh

0101100
+14 0 +13 0 +12 0 +11 0 +10 0 +9 0 +8 0 +7 0 +6 0 +5 0 
+4 1 -4 9 *
So

0100000
-3 0 *
Co

1100000
-55 5 +55 7 +54 5 -54 7 +53 5 -53 7 +52 5 -52 7 +51 5 -51 7 
+50 5 -50 7 +49 5 -49 7 +48 5 -48 7 +47 5 -47 7 +46 5 -46 7 
-45 8 +44 8 +43 5 -43 7 +42 8 +41 5 -41 7 +40 8 +39 5 -39 7 
+38 8 +37 5 -37 7 +36 8 +35 5 -35 7 +34 8 +33 5 -33 7 +32 8 
+31 5 -31 7 +30 8 +29 5 -29 7 +28 8 +27 5 -27 7 +26 5 -26 7 
-25 8 -24 8 -23 8 -22 8 -21 8 -20 8 -19 8 -18 8 -17 8 -16 8 
-15 5 +15 7 -14 8 -13 8 -12 8 -11 8 -10 8 -9 8 -8 8 -7 8 
-6 8 -5 8 -4 5 +4 7 -3 8 +2 8 *

+1 0 