DBRep_DrawableShape

CASCADE Topology V1, (c) Matra-Datavision
Locations 3
1
0.707106781186548               0 0.707106781186547 0.081919105753579 
              0               1               0               0 
-0.707106781186547               0 0.707106781186548 0.297770216127766 
1
              1               0               0               0 
              0               1               0               0 
              0               0               1               0 
2  1 1 2 1 0
Curve2ds 49
7 0 0  8 107 16  2.623757821957414 0.013200000000000002  2.6237578241929862 0.012687187131321408  2.6247605198831234 0.012187625830857694  2.6266749005087187 0.011702791454078295  2.6294044493363073 0.01123430268164187  2.6328425334060399 0.010784000051772696  2.6368677955196604 0.010354024492637079  2.6413395462284859 0.0099468958547197697  2.6535306479479095 0.0089690029975015243  2.6619765876700074 0.0084100996492957707  2.6711951531649492 0.0078863425958871879  2.6810161942762991 0.0073945831563027829  2.6913334805346398 0.0069310201331786768  2.702110624668562 0.0064911863248559741  2.7133946816059069 0.0060699641876863653  2.7428497678328783 0.0050628671366170297  2.7613893271498156 0.0045051372011935377  2.7809741218261128 0.0039804244975047785  2.801726541485321 0.0034833262994426752  2.8238212458591754 0.0030111433888993736  2.8474489700287839 0.0025639582787683117  2.8727962335123518 0.0021447017696102086  2.9243928350305706 0.0014146455641121797  2.9512049429851652 0.0010836871184751954  2.9805609893753955 0.00077772399020852143  3.0125246496425651 0.00050958783294930538  3.0471457363543815 0.00029403336705470935  3.0844670109153784 0.00014781040663023847  3.1245274089612889 9.0802551750313721e-05  3.2072517852107945 0.00020457989469006342  3.2438533578964797 0.00035218423349108786  3.2773519955578285 0.00056586378820664698  3.307977154406895 0.00082656085440927331  3.3360147563545617 0.0011204393682509189  3.3618270653898668 0.0014386438820898201  3.3858641759504771 0.0017783229711630642  3.433811818150359 0.0025477057882273813  3.4573071258845167 0.0029808037145478534  3.4793103697208729 0.0034397222309340146  3.4999897019182815 0.0039233803835195414  3.5194988974681598 0.0044330670284804955  3.53795455693459 0.0049721838363736134  3.5554042756178825 0.0055458946442123363  3.582906001906514 0.0065780154402126853  3.5933849636703545 0.0070086744073665688  3.6033699091155831 0.0074592418426802252  3.6128942528153019 0.0079354757621416562  3.6219005231913628 0.0084423005905546016  3.6302546817563752 0.0089838370242424151  3.6377518175395447 0.0095634695776901368  3.6488568517366566 0.010646639535184015  3.6532395171913525 0.01115838683182864  3.6568089865292963 0.01170448949789373  3.6592700671010241 0.01227327644340722  3.6604531640767037 0.012854711687152904  3.6602966115183437 0.013439340948396154  3.658842770586324 0.014017582837772238  3.653374957119941 0.015201345950691388  3.6491869167772322 0.015785065691768633  3.643973915177205 0.01633270335821746  3.6379631371738572 0.016846760659611874  3.6313269891641529 0.017330159369750624  3.6241844427961238 0.017786349201951174  3.6165955443709512 0.018219425717338499  3.5967271486358201 0.019243734910031143  3.5838792022785211 0.019815777051839022  3.5701996965735856 0.020353058025111413  3.5558025291250996 0.020859019613494192  3.5407289521691161 0.021337506389984447  3.5249470611225129 0.021792432638399542  3.5083428689463934 0.022227481857050851  3.4787444618693941 0.022929452876207429  3.4664051132760481 0.023203131113737084  3.4536378911309367 0.023467900238976335  3.4403944476826194 0.023724272611088695  3.4266264163167937 0.023972309994826586  3.4122866980347393 0.024211662127511639  3.3973307349346822 0.024441580124804678  3.3551165273409072 0.025034588221972087  3.3238778114773151 0.025415902503745598  3.2888107353576772 0.025764082469248661  3.2504899853025306 0.026049720514764105  3.2093868186702039 0.026249813235617689  3.1659013596319636 0.026344852159507659  3.1203684955556108 0.026316266829294485  3.0203432044919074 0.025948542417958999  2.9733450370557351 0.025602671166294787  2.931718475083863 0.025162718566740985  2.8949258912913463 0.024664926151044379  2.8622774501577202 0.024134842125188405  2.8328313397947698 0.023578298547665633  2.8053223504032241 0.022984307316206709  2.7623820641485164 0.021892801113288646  2.7471521142563402 0.021467530669265929  2.7326372083515027 0.021023492933767141  2.7187434707630986 0.020556860410048526  2.7054551626515693 0.020063816595924575  2.692824155926838 0.019540766703969502  2.6809672542467129 0.018984565326068858  2.6608622150908428 0.017892571477351182  2.6520720899913144 0.017352417273370523  2.6439271755912901 0.01677074354340357  2.6366966582619344 0.016146333523674321  2.6306844153422007 0.015478145261956034  2.6262355584155124 0.0147651595869501  2.6237578254721585 0.014006239358694232  2.623757821957414 0.013200000000000002 
 0 9 0.041235122543522684 7 0.10575154806405442 7 0.20035578166027801 7 0.2849149602357578 7 0.36367816592396363 7 0.45061310450331127 7 0.50962697317877059 7 0.55363305555308839 7 0.60235474786255172 7 0.67393720589440687 7 0.72246463609477585 7 0.80514528279542219 7 0.89746172223480558 7 0.95303217448670952 7 1 9
7 0 0  8 107 16  6.2831853071795862 0.21040646328201021  6.2439434286458715 0.21040646325279577  6.2057150548819555 0.21039336093314714  6.1685228081559567 0.21036834277015626  6.1324168971741875 0.21033280098674309  6.0974845408390879 0.21028833155679544  6.0638593920071404 0.21023673218030917  6.0317309612468124 0.21018000025852793  5.9538263453262052 0.21002697221067512  5.9085529422318919 0.20992242379109374  5.8652941472267406 0.20981034895720455  5.8237956051783515 0.20969346800990302  5.7837651590104899 0.20957354651223914  5.7448426244132973 0.2094514164244218  5.706562470161975 0.20932703006570352  5.6122166807783511 0.20901261083542325  5.5574279735306966 0.20882317464601036  5.5031329971875644 0.20863286176842338  5.448615085310287 0.20844243374046639  5.3932456769028922 0.20825276586712718  5.3364718517341521 0.20806555188104411  5.2777969142136811 0.20788373760054163  5.1621926568003005 0.20755789822434725  5.1036234142918584 0.20740594938789492  5.0410081799664832 0.20726158697299021  4.9742725147385993 0.20713199916675423  4.9032365745926665 0.20702578391075807  4.8276114897408613 0.20695295395398511  4.7469351214464623 0.20692487041787455  4.5796439182895732 0.2069811325497046  4.5053322001510612 0.20705402921539692  4.4364806600836406 0.20715888729552431  4.3724585243478948 0.20728469076281067  4.3126519427606258 0.20742339849738509  4.2563375342985141 0.20756997846340486  4.2025856849025489 0.20772232724746134  4.0921524930939013 0.20805637619980219  4.0360756375766247 0.20823848319449187  3.981401372589779 0.20842418802383353  3.927637749083023 0.20861138950363323  3.8742532229481643 0.20879881823400823  3.8206740919782054 0.20898554428408403  3.7662872816801176 0.20917030713316748  3.6725435389974956 0.20947310178181419  3.6344775270829821 0.20959186550804607  3.5955883241599538 0.2097078780529246  3.5553762422961306 0.20982110305723245  3.5134569417010391 0.20993048037759962  3.4695191693218965 0.21003388991139307  3.423287319999115 0.21012814766559912  3.3381002415147978 0.21026935029436952  3.298212115341749 0.21032566841687964  3.2560293569601648 0.21037209455903574  3.2124030877200251 0.21040437924635005  3.167983612800072 0.21041993210100082  3.1233438817138617 0.21041782001784942  3.0790734315452259 0.21039874882351212  2.9879796815981505 0.21032769459757913  2.9427826348951167 0.21027348594763021  2.899972685809812 0.2102065298136791  2.8593076044108581 0.21013020950487729  2.8205490761592187 0.21004713370349556  2.7834306649576197 0.20995911859729305  2.7476265809199165 0.20986718273524643  2.6614379524971716 0.20963105668511672  2.6119292765100264 0.2094821329971194  2.5639351218845974 0.2093282575181161  2.5171409487807725 0.20917178407462342  2.4711862737619925 0.20901409563918327  2.4256542902667779 0.20885581118251845  2.3800426163224646 0.20869705008286951  2.3023087047918285 0.2084297635978318  2.2708234069589608 0.20832238820989302  2.2390878336618911 0.20821567923695172  2.206953392170719 0.20810978916669265  2.1742883153431189 0.20800500447344389  2.1409734170302919 0.20790177322751735  2.106899626912023 0.20780072750667639  2.0124498942099782 0.20753568316824941  1.9443306336970805 0.207360286772834  1.8700201292827372 0.207194426060408  1.7907977919743741 0.2070543147158895  1.7073080274895922 0.20695429829514281  1.6198234665744868 0.20690671835027599  1.5282828082511135 0.20692174567919594  1.3247307870772058 0.20710244514394668  1.2276915987550014 0.20727115899957418  1.1392235496334455 0.20748150293672155  1.0581239331636354 0.20771031204158014  0.98319556111996353 0.20794387642749854  0.91250655371239509 0.20817729750720193  0.84329478821721793 0.20841495581723518  0.72687959135189695 0.20881756295156248  0.68364425943457796 0.20896769835370191  0.64032076545513272 0.20911698337057913  0.59644454704284633 0.20926538648722556  0.55163795079605404 0.20941230832866636  0.50558019248563191 0.20955639295403691  0.45799318363573277 0.20969538763050968  0.36693292383270493 0.20993648708634177  0.32275002212542564 0.21004418293957342  0.27603698770951601 0.21014602699978005  0.22671786011513703 0.21023815894796424  0.1746856593323452 0.21031596086388019  0.11977154082190491 0.21037407713963388  0.061695696257593614 0.21040646323607953  0 0.21040646328201021 
 0 9 0.041235122543522684 7 0.10575154806405442 7 0.20035578166027801 7 0.2849149602357578 7 0.36367816592396363 7 0.45061310450331127 7 0.50962697317877059 7 0.55363305555308839 7 0.60235474786255172 7 0.67393720589440687 7 0.72246463609477585 7 0.80514528279542219 7 0.89746172223480558 7 0.95303217448670952 7 1 9
1 0 0.0066000000000000008 1 0 
2 0 0 1 0 -0 1 0.026400000000000003
1 9.4247779607693793 0.019800000000000002 -1 0 
1 6.2831853071795862 -0 0 1 
1 0 -0 0 1 
1 0 0.0066000000000000008 1 0 
2 0 0 1 0 -0 1 0.026400000000000003
1 0 0.0066000000000000008 1 0 
7 0 0  6 37 8  0 0.026268  0.03240390093114625 0.026268  0.064465294003524298 0.026200799772850863  0.095874909328635682 0.026069058984313567  0.12631907477311488 0.025877938473922304  0.15546255540294074 0.025635330398584826  0.19742667358632357 0.025204845432083667  0.21153276483238614 0.025044470387864174  0.22526273936353902 0.0248731938916706  0.23862267374125848 0.024691746292830521  0.25161890740278853 0.024500738707579989  0.27434591002015007 0.024140973533488746  0.28420784503690788 0.023975482674729754  0.29384875451947839 0.023804410367978982  0.30327307828234124 0.023627926716560999  0.31248478914639083 0.02344615200193248  0.32934254965210369 0.02309599527356887  0.33703836064071541 0.02292886201309581  0.34457707168828505 0.02275780518600316  0.35196031726243621 0.022582850538756308  0.35918912051490409 0.022404001280546013  0.37847434075761405 0.02190580457124669  0.3902224671873793 0.021578804904299614  0.40151528359312882 0.02124002287043017  0.41234783973689576 0.02088917701124374  0.42270461073862586 0.020525898241541437  0.44296152270467926 0.019752739523413467  0.45280675799677761 0.019341319800085369  0.46206853553877131 0.018914792634968723  0.47070086049910326 0.01847254485921548  0.4786403908972871 0.018014008023206653  0.49563231889744125 0.016886971024575276  0.50412856810618134 0.016195472686223893  0.5108374774628508 0.015473440779676887  0.51546900261237061 0.014728833807050812  0.51783482828099581 0.013968766363792373  0.51783483163237953 0.013200000000000002 
 0 7 0.22051503502305564 5 0.33679161734488838 5 0.42959723382456466 5 0.51057410208501597 5 0.65033319107446164 5 0.79781123267488852 5 1 7
7 0 0  6 37 8  1.5707963267948966 0.026400000000000007  1.5053339006713689 0.026400000000000007  1.4405635580093574 0.026366735079689129  1.3767278476245846 0.026301527200984089  1.3141230309829177 0.026207881469169796  1.2531487920515465 0.026091431270180019  1.1635146045931914 0.025889890736119647  1.1330294532367879 0.025815605017383916  1.102967662044432 0.025737259281531172  1.0732918619869631 0.025655448499094863  1.0439648141346165 0.02557071834591584  0.99179089874984205 0.02541400432526188  0.96882700048816783 0.025342889965267509  0.94603496625961647 0.02527046056710662  0.92339168040223552 0.025196939147973916  0.90087366020450832 0.025122533298311305  0.85889761023779132 0.024981908864356746  0.83941556139400486 0.024915857580483831  0.8199952075929221 0.024849409691282267  0.80062073847221982 0.024782691381098929  0.78127623508832311 0.02471582665753445  0.7285827820187345 0.024533492179466699  0.69527088955071992 0.024418008701402968  0.66191367966773951 0.024303074568949212  0.62842708162955985 0.024189333960240835  0.59473044746819881 0.024077511072366758  0.5248675860666433 0.023853331762004923  0.48866112152493807 0.023741266207531284  0.45201036870488881 0.023633187786435594  0.41481877224058777 0.023530250575309001  0.37699219370571108 0.02343381954117835  0.28556197612553913 0.023224364373717311  0.23064519265222141 0.023116928621613898  0.17433698052393351 0.023030214502018934  0.11699053611780144 0.022969691514966716  0.058828157621087764 0.022938774553346301  0 0.022938774509550418 
 0 7 0.22051503502305564 5 0.33679161734488838 5 0.42959723382456466 5 0.51057410208501597 5 0.65033319107446164 5 0.79781123267488852 5 1 7
1 6.2831853071795862 -0 0 1 
1 0 -0 0 1 
7 0 0  9 66 9  3.1540426852114817e-14 0.00013199955861243479  0.0043809155923502088 0.00013199931469684643  0.0087815955361598939 0.00013315062531101988  0.013201729368779761 0.00013547131662761114  0.017641009839400743 0.00013897923893542904  0.022099133793220618 0.00014369229051646048  0.026575800646175669 0.00014962844194459554  0.031070712360032861 0.0001568057608788714  0.035583574525969157 0.00016524243742494795  0.042237774802420372 0.00017951042234933063  0.044365335583915901 0.0001843447783462223  0.046496745843657074 0.00018946176694307573  0.048631975813445173 0.00019486328412064867  0.050770995377427477 0.00020055123361427551  0.052913774613813302 0.00020652752751097273  0.055060283918024359 0.0002127940868517081  0.0572104935011278 0.00021935284223950212  0.060407659502884598 0.00022952510412906928  0.061451516524222614 0.00023291240943172637  0.062497905981883171 0.00023637515049515501  0.063541396766829114 0.00023989343892383275  0.064589109920442908 0.00024349388605291209  0.065638843782520453 0.0002471685787544346  0.066683603879545597 0.00025089184217821491  0.067735260247370435 0.00025470786159280292  0.10183729296902659 0.0003806371287753719  0.13266029797432025 0.00056132448060303727  0.16134635851219059 0.00078715489749951273  0.18800769797130418 0.0010475949514233325  0.21277670386650194 0.0013342290673794307  0.23581052788154958 0.0016407338594760883  0.25729698137142876 0.0019630538346170905  0.27745752170755428 0.0022996335198167939  0.30131248725306531 0.0027401260934285417  0.3060161948617266 0.0028292130065071626  0.31065651289659968 0.0029193126095554689  0.31523744629612338 0.0030104613431822555  0.31976310308148942 0.0031027083927435387  0.32423768670901154 0.0031961163765070744  0.32866548571133625 0.0032907621456587485  0.33305086019326502 0.003386737722899047  0.33902848722367074 0.003520681547746022  0.34065340407037176 0.0035574139165108331  0.34227320868419991 0.003594354231427991  0.34388813496389048 0.0036315085258817386  0.34549841780487139 0.003668883163565321  0.34710429291417694 0.0037064848470890568  0.3487059966693824 0.0037443206272222093  0.35030376601752278 0.0037823979127969052  0.35329265143663835 0.0038542602280715712  0.35468405647361578 0.0038879721410793877  0.35607725591125927 0.0039219936831429436  0.35745275308727287 0.0039558306634432938  0.35885532275642618 0.0039906220837480078  0.36022093178326031 0.0040247447550498805  0.3616084012032843 0.0040596906612169192  0.36298807574872177 0.0040947150853408833  0.37396992467868378 0.004375683157602595  0.38326441410581724 0.0046269279982087625  0.39228195705049984 0.0048843117396358453  0.40104928896451181 0.0051485954057469818  0.40958336818736524 0.0054205480356219011  0.41789226166152577 0.005700934275188807  0.42597575834886542 0.0059905014460690277  0.43382573268531588 0.0062899660916457172  0.4414262914215713 0.0066000000000011449 
 0.78977791828403388 10 0.79887883074932231 8 0.8031448834674263 8 0.80521125275275796 8 0.87030188524070307 8 0.88657454336268948 8 0.8926767901584346 8 0.89801625610471147 8 0.93539251772865162 10
7 0 0  11 72 8  5.8417590440489358 0.006599999999997469  5.847531350564088 0.0063645415397175281  5.8534473281528792 0.0061349203682628363  5.8595001927773618 0.005910896604518082  5.8656851305507525 0.0056922196693628474  5.8719992841018787 0.0054786312788544164  5.8784417608053596 0.0052698683528070106  5.8850136616625983 0.0050656658387854443  5.8917181309359901 0.0048657594515224643  5.8985604279557089 0.0046698883277600852  5.9055480238356628 0.0044777975965065199  5.9140299840242161 0.004253886477475999  5.9153746938048419 0.0042186563324301193  5.9167249213103412 0.0041835488053677747  5.9180807339632802 0.0041485622826133179  5.9194422021777626 0.0041136951615254221  5.9208093993969326 0.0040789458510799561  5.9221824020286338 0.0040443127724580641  5.9235612894257539 0.004009794359612167  5.9249461439585707 0.003975389059809091  5.9263370511272901 0.0039410953341758696  5.930353565382096 0.0038428172660334024  5.9329956236178987 0.0037790862001259029  5.9356487224576995 0.0037159953764103193  5.938375839497894 0.0036520540777473798  5.9410105161368847 0.0035912430353164382  5.9437902448698878 0.0035278544878565299  5.9464956447482109 0.0034671885503030353  5.9492687829770148 0.0034058081474768187  5.9520466054964345 0.0033452496599863935  5.9548486529290399 0.0032850438060343262  5.9626126838776203 0.0031206676429797906  5.9676193462460754 0.003017368212764666  5.972694437008669 0.0029153491041344873  5.9778404705128034 0.0028145951917641332  5.9830599554671524 0.0027150992395555125  5.9883553879958384 0.0026168616906066251  5.9937292447133563 0.0025198904936693097  5.9991839758073091 0.0024242009661053525  6.0047219981297468 0.0023298156933412371  6.010345688311566 0.0022367644648125301  6.0181992587844029 0.0021107041644671093  6.0203535162797799 0.0020765168808487464  6.0225202712654209 0.0020425243449003474  6.0246996456557005 0.0020087286479027692  6.0268917603886312 0.0019751320228597008  6.029096735371434 0.0019417368443871734  6.0313146894250158 0.0019085456287022467  6.0335457402340129 0.0018755610337241671  6.0357900043018438 0.0018427858592870514  6.0380475969031275 0.0018102230474489197  6.0413122098818279 0.0017637237108633712  6.0423074516729685 0.0017496257777125379  6.0433138146763667 0.0017354490075831563  6.0442905616946518 0.0017217691251971701  6.0453255586326122 0.0017073400781555392  6.0463300859555602 0.0016934337236307329  6.0473520723171532 0.0016793523814158107  6.0483826086856425 0.00166524105912913  6.0494157824723516 0.0016511745820935175  6.0504562892952967 0.0016370917250443523  6.067198777128274 0.0014118362956881353  6.0842581931630946 0.0012011493037402759  6.1025598345484182 0.0009970649669650139  6.121999039455841 0.00080488270893619646  6.1424835786838221 0.00062924913932259417  6.163930804754437 0.00047429330710167529  6.1862657167061883 0.00034374367199335813  6.2094196727056206 0.0002410337037377121  6.2333294620096931 0.00016940301883830325  6.2579364272200744 0.00013200096439058343  6.2831853071796209 0.00013199955861243479 
 0.62040999623648529 12 0.66275197674831243 10 0.67069109809428951 10 0.68557695061800294 10 0.71162719253447804 10 0.72139603325317747 10 0.72566990106760443 10 0.78977791828403388 12
7 0 0  11 152 16  2.7001663937225611 0.0066000000000033116  2.7015802783294336 0.0065423263079366781  2.7030026597995271 0.0064850078199728276  2.7044335802163046 0.0064280350196809803  2.7058731003778118 0.0063713982496203005  2.7073212999422327 0.006315087711855594  2.7087782778300711 0.0062590934684658428  2.7102441526675491 0.0062034054421042225  2.7117190631668562 0.0061480134166389012  2.7132031684500415 0.0060929070378746156  2.7146966484344315 0.0060380758143255518  2.7176557900804186 0.0059306476308969161  2.7191213297628565 0.0058780183289712795  2.7205916745588183 0.0058257781815882481  2.7220891246106476 0.005773153293375799  2.723556476412341 0.0057221268989451346  2.7250831974670291 0.0056695706834943849  2.7265932699665427 0.005618183936803689  2.7281091063050553 0.0055671064992566244  2.7296380542684346 0.0055161296571952789  2.731172213646726 0.0054655051895045152  2.7446635030932267 0.0050248744951365909  2.7570582867285585 0.0046511946015832095  2.7699099530481361 0.0042921791923991072  2.7832441740332472 0.0039462971226554054  2.7970968545454742 0.0036124216034361931  2.8115107768609251 0.0032898367554258946  2.8265328197784596 0.0029782437379636856  2.8422117618843838 0.0026777664535732951  2.858596670355412 0.0023889568279667015  2.8757358684810659 0.0021127996655102696  2.8945174324362046 0.0018384319589423623  2.8953603699634778 0.0018261747718823775  2.8962042081740766 0.0018139609317353333  2.8970507470941222 0.0018017650703094493  2.8978995697357415 0.0017895934201047187  2.8987492842125531 0.0017774659755814654  2.8995997675945486 0.0017653845533356013  2.9004525627088213 0.0017533273573780283  2.9013090590090411 0.0017412751426080378  2.9021685685529057 0.0017292385564629796  2.9166124200161474 0.0015279398898243341  2.9309170645369602 0.0013429524073560229  2.9459570077557968 0.0011639629569145413  2.9617430452273354 0.00099277945271622112  2.9782847833359316 0.0008313272138836845  2.995590834061824 0.00068165890706085137  3.0136689971149977 0.00054596544375097144  3.0325264199147339 0.00042659301386954208  3.0521697223442454 0.0003260714369972357  3.072605069661186 0.00024715901281125244  3.0978193803466065 0.0001827371845459447  3.1018286334052747 0.00017343235665894855  3.1058659702710396 0.00016501469531085075  3.1099314279651153 0.00015750469192916505  3.1140250430317438 0.00015092321798219527  3.1181468514790711 0.00014529154133912023  3.1222968886944029 0.00014063134361434409  3.126475189445721 0.00013696473853846587  3.1306817879593059 0.00013431429139806138  3.1349167179410644 0.0001327030395863068  3.1411784315118272 0.00013189739308131404  3.1431830831649279 0.00013187378110404317  3.1451939706010248 0.00013208610201359306  3.1472110972215712 0.00013253680329030113  3.1492344663706033 0.00013322835674683617  3.1512640813387018 0.00013416325903144809  3.153299945392297 0.00013534403214372933  3.1553420617825156 0.00013677322396315352  3.1573904337250323 0.0001384534087905765  3.1594450643795251 0.00014038718790280265  3.1620050793005179 0.0001431075812822739  3.1625045689942053 0.00014365300115530929  3.1630044260236398 0.00014421348708356909  3.1635046504257258 0.00014478907650471376  3.1640052422470473 0.00014537980695232582  3.1645062015376499 0.00014598571605608818  3.1650075283419183 0.00014660684154157004  3.1655092226985486 0.00014724322123061727  3.1660112846495152 0.00014789489304241742  3.1665137142458146 0.00014856189499439293  3.1690119882298919 0.00015195242195922072  3.1710137158079306 0.00015490357990621817  3.17295583919622 0.00015800636787943745  3.1750128569547087 0.0001614917537438032  3.1768617099151015 0.00016492417418589866  3.178932589944452 0.00016887648959595936  3.1808092594146729 0.00017278909353990457  3.1827830650145188 0.00017704871682511225  3.1847098911530338 0.00018145999594665341  3.1866377042711718 0.00018608426139803073  3.2034305489251151 0.00022827418911721843  3.2178391104420232 0.00027757234408989245  3.2317930706978428 0.00033755563378600964  3.2453036903105801 0.00040709957635971886  3.2583830791426767 0.00048518977633931149  3.2710442882904647 0.00057091450995987376  3.2833014015809185 0.00066345986621203648  3.2951696225640275 0.00076210718365562786  3.3066653532034205 0.00086623252304751468  3.3178062606822141 0.00097530791583338235  3.3367151301601354 0.0011741012880938935  3.3446298674259141 0.0012618389404532001  3.3523643438622881 0.0013519487016678512  3.3599255896096007 0.0014442584189266626  3.367322997784207 0.0015386587587193307  3.374566823378728 0.0016350799787360842  3.3816664362485849 0.0017334650524901205  3.3886308026281697 0.0018337786813426243  3.3954707529320696 0.0019360450943184727  3.4021996769088201 0.002040360901809066  3.4187664109534426 0.0023064152347039802  3.4284568007227589 0.002470471864813834  3.4379067390132998 0.0026387561605057423  3.44712541064052 0.0028111186403774161  3.4561219079656769 0.0029874557659110915  3.4649051383496157 0.0031677088546211295  3.473483717109914 0.0033518628468686205  3.4818658460109462 0.0035399449263507103  3.4900591773873475 0.0037320229942646231  3.4980706640723636 0.003928203997138658  3.5098242610240074 0.0042288461639027469  3.513698187817639 0.0043301219965648586  3.5175289369332772 0.004432477627968918  3.5213172155387493 0.0045359334064650212  3.5250636717162052 0.0046405119502437699  3.5287688891043714 0.0047462380882259255  3.5324333813133264 0.0048531387986680795  3.5360575861399322 0.0049612431454762428  3.5396418595845702 0.0050705822122264913  3.5431864696423165 0.0051811890338989844  3.5484441499001167 0.0053490532725589809  3.5501868375157581 0.0054053336864705254  3.5519196743571313 0.0054619441325511253  3.5536426762013984 0.0055188890928448819  3.5553558527323705 0.0055761731647333678  3.5570592073291851 0.005633801058703208  3.5587527368481746 0.0056917775960811292  3.5604364314125529 0.0057501077067219084  3.5621102742092465 0.005808796426649384  3.5637742412768274 0.0058678488956652626  3.567082361229561 0.005986691814245171  3.568726014229469 0.0060464631716570238  3.5703653215896338 0.0061068212901318475  3.5719673749990761 0.0061665268126489536  3.5736327702179551 0.0062293814380609547  3.575176693033427 0.0062884562439649017  3.576798680704087 0.0063511983876196609  3.5783603932941332 0.0064124767400244309  3.5799268022965407 0.0064747010737278288  3.5814783783577111 0.0065371590828062391  3.583018944077685 0.0066000000000146653 
 0.087894111525701715 12 0.099467858686595648 10 0.11067992624871401 10 0.19757344985518038 10 0.20164658377423161 10 0.26579844299936034 10 0.27782691660406794 10 0.28346526360628305 10 0.28483080077088463 10 0.29025027639289291 10 0.33225121246346012 10 0.36375191451638639 10 0.41100296759577903 10 0.43462849413548471 10 0.44644125740533758 10 0.45825402067519033 12
7 0 0  6 37 8  0 0.00013200000000000017  0.032403900931141573 0.00013200000000000001  0.06446529400352663 0.00019920022714910391  0.09587490932863714 0.0003309410156865075  0.1263190747731166 0.0005220615260776904  0.1554625554029373 0.00076466960141514072  0.19742667358632496 0.0011951545679163469  0.21153276483238584 0.0013555296121358197  0.22526273936353727 0.001526806108329379  0.23862267374125709 0.0017082537071694637  0.25161890740278853 0.0018992612924200139  0.27434591002015007 0.0022590264665112631  0.28420784503690794 0.0024245173252702536  0.29384875451947851 0.0025955896320210181  0.30327307828234124 0.0027720732834390031  0.31248478914639077 0.0029538479980675179  0.32934254965210369 0.0033040047264311346  0.3370383606407153 0.0034711379869041856  0.34457707168828478 0.003642194813996837  0.35196031726243615 0.0038171494612436866  0.35918912051490431 0.0039959987194539892  0.37847434075760722 0.004494195428753134  0.39022246718737313 0.0048211950957001721  0.4015152835931281 0.0051599771295697894  0.41234783973689937 0.0055108229887563922  0.42270461073862925 0.0058741017584586904  0.44296152270467903 0.0066472604765865223  0.45280675799678133 0.0070586801999147943  0.46206853553877153 0.0074852073650312767  0.47070086049909948 0.0079274551407843424  0.47864039089728672 0.0083859919767933205  0.49563231889744203 0.0095130289754247772  0.50412856810618245 0.010204527313776404  0.51083747746284658 0.01092655922032216  0.51546900261237261 0.011671166192950074  0.51783482828099581 0.01243123363620724  0.51783483163237953 0.013199999999999998 
 0 7 0.22051503502308639 5 0.33679161734493512 5 0.42959723382462411 5 0.5105741020850878 5 0.65033319107446719 5 0.79781123267488763 5 1 7
7 0 0  6 37 8  4.7123889803846897 0.026400000000000007  4.7778514065082076 0.026400000000000007  4.8426217491702417 0.026366735079689126  4.9064574595549892 0.026301527200984103  4.9690622761966816 0.026207881469169775  5.0300365151280317 0.026091431270180036  5.1196707025863981 0.025889890736119636  5.1501558539427963 0.025815605017383919  5.1802176451351505 0.025737259281531182  5.2098934451926207 0.025655448499094874  5.2392204930449706 0.02557071834591584  5.2913944084297446 0.02541400432526188  5.3143583066914184 0.025342889965267509  5.3371503409199699 0.02527046056710662  5.3597936267773507 0.025196939147973916  5.3823116469750785 0.025122533298311305  5.4242876969417955 0.024981908864356746  5.4437697457855814 0.024915857580483831  5.4631900995866642 0.024849409691282267  5.4825645687073665 0.024782691381098936  5.5019090720912631 0.02471582665753445  5.554602525160834 0.024533492179466761  5.5879144176288458 0.024418008701403038  5.6212716275118426 0.024303074568949218  5.6547582255500375 0.024189333960240793  5.6884548597113991 0.024077511072366716  5.7583177211129417 0.023853331762004933  5.7945241856546614 0.02374126620753125  5.8311749384746987 0.023633187786435587  5.8683665349389855 0.023530250575309039  5.9061931134738721 0.023433819541178357  5.9976233310540508 0.023224364373717301  6.0525401145273765 0.023116928621613908  6.1088483266555977 0.023030214502018944  6.1661947710618437 0.022969691514966709  6.2243571495584691 0.022938774553346301  6.2831853071795862 0.022938774509550418 
 0 7 0.22051503502308639 5 0.33679161734493512 5 0.42959723382462411 5 0.5105741020850878 5 0.65033319107446719 5 0.79781123267488763 5 1 7
7 0 0  6 82 17  6.2831853071795862 0.026268000000000003  6.2654520350614895 0.026268000000000003  6.2477321259880911 0.026247873423170805  6.2300894660314334 0.026207680072138265  6.2125889184715293 0.026147797528757215  6.1952971474773557 0.026068956826192508  6.1594997503344837 0.02586554164620852  6.14105466525218 0.025737061503683514  6.1229664383820861 0.025587923519994744  6.1052542819342941 0.025419158460497356  6.087939121039569 0.02523178537084703  6.0594379601066528 0.024886071628438696  6.0480204403555726 0.024736882590295762  6.0367910348796849 0.024579507081264839  6.0257481487549427 0.024414084097808191  6.0148893443014702 0.024240672355671761  5.995450466889956 0.023910400747338151  5.9868115075258714 0.023756157247441415  5.9782927719634351 0.023596508502396894  5.9698927686835752 0.023431396150576558  5.9616102056760276 0.023260714756522406  5.9451196791154279 0.022904493744086162  5.9369173464150933 0.022718751674614322  5.9288345529162934 0.022526890250109743  5.9208704884120644 0.022328675701565364  5.913025862397288 0.022123816054403948  5.8947675048288337 0.021622916103273413  5.8844760754013983 0.021321328299674713  5.874405400139846 0.021005534394529915  5.8645570816660992 0.020673925039067873  5.8549546736545226 0.020324758610938281  5.8354871323761985 0.019553970778124891  5.825766235244453 0.019132202051311033  5.8163568971802793 0.01868218022335719  5.8072938001795151 0.018196340116320906  5.7987504075717977 0.017668385731728586  5.7843815596382706 0.016597278814976496  5.7780836023498177 0.016046622334486248  5.7725860807226734 0.015444487444549519  5.7683287079916505 0.014793145355786829  5.765759082248417 0.014094288973467341  5.7650528307868356 0.012677722072390736  5.7665369875565231 0.012030785149972098  5.769588796879674 0.011414626488921234  5.7739000853134597 0.010835713625672086  5.7790717804406988 0.010302087748252047  5.7919369526670881 0.0091864852919864362  5.8003898777517451 0.00860546919575143  5.8094949834851706 0.0080756923664649198  5.819001882612354 0.0075892151248170047  5.8288531930625345 0.0071360927020691555  5.8480739098753034 0.0063361045895061951  5.8572162794078002 0.0059870562887407164  5.8665974639023064 0.0056555652047734807  5.8761911032981935 0.0053398446646325303  5.8859944269271951 0.0050381855239364313  5.904256689455079 0.0045116482734822638  5.9126264790948992 0.0042831023070912218  5.9211365569009295 0.0040626315253855889  5.9297851984111851 0.0038498148720551109  5.9385732217530709 0.0036443125668625294  5.9554247192738403 0.0032698109349500997  5.963456215575456 0.0030993428988697227  5.971599546391662 0.002934267705057142  5.9798558149841661 0.0027744682447195627  5.988226360066558 0.0026198724285418228  6.0069554791639943 0.0022901104350362442  6.0173667100623156 0.002117306133133968  6.0279493771069355 0.0019519910255265411  6.0387058678793757 0.001794188880598746  6.0496380289350098 0.001643996490573173  6.0762252650875039 0.001303163238040522  6.0920592833263223 0.0011196821037729281  6.1082370656470033 0.00095182299723782992  6.1247474797433021 0.00080032223319851466  6.1415804158752563 0.00066596971265115953  6.1787029716749835 0.00041404410607476211  6.1991301747583547 0.00030273315872809779  6.2198963454732477 0.00021781053920472113  6.2408953637330669 0.00016065794111977966  6.2620250719842048 0.00013200000000000028  6.2831853071795862 0.00013200000000000017 
 0 7 0.073816223377891094 5 0.15531176523600171 5 0.21129763936444007 5 0.25723180793968198 5 0.30405525166998965 5 0.36792864444617757 5 0.43756300529359743 5 0.49768792189151329 5 0.55191045322469767 5 0.62433677375464613 5 0.68622835412735161 5 0.73695009204068751 5 0.7819332371788964 5 0.83622600477274156 5 0.9118708417412249 5 1 7
7 0 0  6 82 17  1.5707963267948966 0.026400000000000007  1.6066211189526671 0.026400000000000007  1.642418941798572 0.026390037832604917  1.6781230808226539 0.026370140567617772  1.7136647606040973 0.026340587228376219  1.7489674292122264 0.026301906603676067  1.822553063704718 0.026202950686084314  1.8607646673896303 0.026140846097496673  1.8986083279327832 0.026069396747036708  1.9361101305296271 0.02598949425782068  1.9732890586627665 0.025902085979272401  2.0354833563957384 0.025743659188260066  2.0606844141430005 0.025676021085698681  2.0857811638095112 0.025605528389642741  2.1107994805313459 0.02553243136482947  2.1357694054771339 0.025456962386825974  2.1812003318296016 0.025315646551505075  2.2016659141639057 0.025250506095878488  2.2221405139245394 0.025184032551819256  2.2426450230454829 0.025116339685645153  2.2632026043211377 0.025047537053321803  2.3048742884883553 0.024906571498787198  2.3259889254754325 0.024834378759386346  2.347213455376238 0.024761253794028704  2.3685789296164539 0.024687305254940298  2.3901187831870994 0.024612651969126226  2.4415439580005605 0.024434808909828184  2.4715619095727437 0.024331299380883072  2.5020980049981651 0.024226972654536074  2.533296651319862 0.024122094756689121  2.5652983600113015 0.024017169461251708  2.6342041296538596 0.023799403314382381  2.6709727941039398 0.02368770551554257  2.7093328280153841 0.023577029488956427  2.7498540674429037 0.023467977604592637  2.7929721763981825 0.023363062783405008  2.8788360360973471 0.023183818891256636  2.9223860550917022 0.023104016835412994  2.9693714859768154 0.023033223240348899  3.0196283998802129 0.022977688686341313  3.0731551771740175 0.022944113848662566  3.1815619372440676 0.022934885158093218  3.2310348491421945 0.022954274236433373  3.2783635579512347 0.022994214835620124  3.3232178123855789 0.023050136760246222  3.3650273574757983 0.023116270893543803  3.4533953069998367 0.023278687446302404  3.500237719982402 0.023383896632494017  3.5438475734856816 0.023494975945177167  3.5847666245934628 0.023608330486609774  3.6237318303511166 0.023723112839531227  3.6942806884437851 0.023941065976986069  3.7257885313487571 0.02404249264985793  3.756453161109722 0.024144094097597633  3.7864149324503149 0.024245355151218343  3.8158220339552043 0.024346023456173052  3.8686477466210225 0.024528051506780436  3.8921529522520095 0.024609492207323155  3.9154222275259283 0.024690205624208528  3.9385006456908811 0.024770035892524234  3.9614301019872076 0.024848846590519155  4.0044936603618977 0.02499539540255151  4.0246469563368192 0.025063364511246106  4.0447376699720614 0.025130323657436258  4.064788412849893 0.025196171325512943  4.0848195815369008 0.02526080278081658  4.1290244563357419 0.025400519309327962  4.1531975110310642 0.025474997751933442  4.1774008959748032 0.025547355043905096  4.2016633730181576 0.025617385688214631  4.2260100915586811 0.025684869044353697  4.2845316778429838 0.025839714713260981  4.3188341363057186 0.025924530654161736  4.3533935024225494 0.026003268191546802  4.3882367673869425 0.0260751967672785  4.4233943750917701 0.026139604224570828  4.5002659060025811 0.026261263339157251  4.5421575066373956 0.026315664605700617  4.5844265084617701 0.02635752098417837  4.6269546657430745 0.026385815588334149  4.6696410304950291 0.026400000000000007  4.7123889803846888 0.026400000000000007 
 0 7 0.073816223377891094 5 0.15531176523600171 5 0.21129763936444007 5 0.25723180793968198 5 0.30405525166998965 5 0.36792864444617757 5 0.43756300529359743 5 0.49768792189151329 5 0.55191045322469767 5 0.62433677375464613 5 0.68622835412735161 5 0.73695009204068751 5 0.7819332371788964 5 0.83622600477274156 5 0.9118708417412249 5 1 7
1 3.1415926535897931 0.019800000000000002 -1 0 
2 0 0 1 0 -0 1 0.0066000000000000008
1 0 0.0066000000000000008 1 0 
1 0 0.0066000000000000008 1 0 
2 0 0 -1 0 0 1 0.0066000000000000008
1 0 0.019800000000000002 1 0 
1 6.2831853071795862 -0 0 1 
1 0 -0 0 1 
1 0 0 1 0 
2 0 0 1 0 -0 1 0.026400000000000003
1 0 0.026400000000000003 1 0 
2 0 0 1 0 -0 1 0.026400000000000003
1 6.2831853071795862 -0 0 1 
1 0 -0 0 1 
1 6.2831853071795862 -0 0 1 
1 0 -0 0 1 
1 0 0 1 0 
2 0 0 1 0 -0 1 0.0066000000000000008
1 0 0.026400000000000003 1 0 
2 0 0 1 0 -0 1 0.0066000000000000008
1 0 0 1 0 
2 0 0 1 0 -0 1 0.023100000000000002
2 0 0 1 0 -0 1 0.023099999999999996
1 0 0.026400000000000003 1 0 
2 0 0 1 0 -0 1 0.023100000000000002
2 0 0 1 0 -0 1 0.023099999999999996
1 6.2831853071795862 -0 0 1 
1 0 -0 0 1 
Curves 20
7 0 0  8 107 16  0.41346799999999995 -3.4694469519536142e-18 0.26040646328201028  0.41346799994871858 -0.00051281286867859376 0.26040646325279582  0.41344499915371652 -0.0010123741691423075 0.26039336093314702  0.41340108599202174 -0.0014972085459217048 0.26036834277015608  0.41333839987994642 -0.0019656973183581304 0.26033280098674294  0.4132592730109288 -0.0024159999482273081 0.26028833155679543  0.41316637209337398 -0.0028459755073629279 0.26023673218030918  0.41306284008849492 -0.0032531041452802337 0.26018000025852783  0.41277970288577887 -0.0042309970024984791 0.26002697221067511  0.41258275378144182 -0.0047899003507042128 0.25992242379109387  0.41236670236105083 -0.0053136574041128147 0.25981034895720445  0.41213523134740876 -0.0058054168436972343 0.25969346800990284  0.41189063284884719 -0.00626897986682133 0.25957354651223907  0.41163361783725738 -0.0067088136751440154 0.25945141642442188  0.41136289671551357 -0.0071300358123136372 0.25932703006570357  0.41065168330838553 -0.0081371328633829728 0.25901261083542326  0.41020029083628351 -0.0086948627988064735 0.2588231746460104  0.40971935091305839 -0.0092195755024952232 0.25863286176842354  0.40920534810926629 -0.0097166737005573191 0.25844243374046644  0.40865335778914202 -0.010188856611100628 0.25825276586712714  0.40805789540665466 -0.010636041721231702 0.25806555188104408  0.4074135115194224 -0.011055298230389796 0.25788373760054162  0.40609090723754299 -0.01178535443588782 0.25755789822434727  0.40539933770506054 -0.012116312881524805 0.25740594938789463  0.40463732850632539 -0.01242227600979148 0.2572615869729904  0.40380248629294918 -0.012690412167050694 0.25713199916675417  0.40289321523462551 -0.012905966632945295 0.25702578391075781  0.40190889191451695 -0.013052189593369764 0.25695295395398526  0.40085022243320184 -0.013109197448249687 0.25692487041787454  0.39866702373165036 -0.012995420105309937 0.25698113254970456  0.39770229965379 -0.012847815766508931 0.25705402921539666  0.39682290064839371 -0.012634136211793334 0.25715888729552439  0.39602326201749943 -0.012373439145590727 0.25728469076281069  0.39529552582932254 -0.012079560631749107 0.25742339849738494  0.39462963262695938 -0.011761356117910165 0.2575699784634049  0.39401341304076287 -0.011421677028836936 0.2577223272474613  0.39279246837208376 -0.01065229421177262 0.25805637619980221  0.39219921991664786 -0.010219196285452158 0.25823848319449189  0.3916484569935747 -0.0097602777690659823 0.25842418802383343  0.39113530019615633 -0.0092766196164804516 0.25861138950363305  0.39065531838242895 -0.0087669329715195036 0.25879881823400813  0.39020511867314722 -0.0082278161636263961 0.2589855442840841  0.38978304377776446 -0.0076541053557876637 0.25917030713316747  0.38912315168332401 -0.0066219845597873181 0.25947310178181404  0.38887327002426719 -0.0061913255926334242 0.25959186550804608  0.38863653289971545 -0.0057407581573197782 0.25970787805292456  0.38841199199127607 -0.005264524237858355 0.25982110305723244  0.38820085126884546 -0.0047576994094454018 0.25993048037759958  0.38800603012614215 -0.0042161629757575762 0.26003388991139309  0.38783198781662159 -0.0036365304223098627 0.26012814766559911  0.38757505948309889 -0.0025533604648159884 0.26026935029436954  0.38747398564859942 -0.0020416131681714016 0.26032566841687965  0.38739198004996411 -0.0014955105021062763 0.26037209455903576  0.38733559513830723 -0.00092672355659275134 0.2604043792463499  0.38730850900308406 -0.00034528831284708365 0.26041993210100078  0.38731206294248488 0.00023934094839612796 0.26041782001784952  0.38734537105331202 0.00081758283777223241 0.26039874882351199  0.38747102255158256 0.0020013459506913875 0.26032769459757898  0.38756738580159267 0.0025850656917685501 0.26027348594763028  0.38768762633913217 0.003132703358217484 0.2602065298136792  0.38782675950910006 0.0036467606596119716 0.2601302095048772  0.3879810163930576 0.0041301593697506325 0.26004713370349547  0.38814779254869453 0.0045863492019510774 0.25995911859729304  0.38832581034823366 0.0050194257173384943 0.25986718273524645  0.38879418161468621 0.0060437349100311418 0.25963105668511677  0.38909895292439528 0.0066157770518389886 0.25948213299711925  0.38942574429827181 0.0071530580251114176 0.259328257518116  0.38977223434075192 0.0076590196134942307 0.25917178407462349  0.3901377281520127 0.0081375063899844623 0.25901409563918326  0.39052326689886446 0.0085924326383995196 0.25885581118251827  0.39093196361185939 0.0090274818570508543 0.25869705008286947  0.39166622561294001 0.0097294528762074273 0.25842976359783182  0.39197380964811973 0.010003131113737006 0.25832238820989289  0.39229358406762621 0.010267900238976358 0.25821567923695155  0.39262686986063794 0.010524272611088794 0.25810978916669258  0.39297500910861388 0.010772309994826599 0.25800500447344393  0.3933393266105808 0.011011662127511545 0.25790177322751739  0.39372108627713182 0.011241580124804683 0.25780072750667626  0.39480356566495678 0.01183458822197209 0.25753568316824937  0.3956096824208955 0.012215902503745492 0.25736028677283412  0.39652141257400997 0.012564082469248844 0.25719442606040782  0.39752517225494177 0.012849720514764061 0.2570543147158893  0.39860824950740026 0.013049813235617481 0.25695429829514277  0.39975796755516546 0.013144852159507824 0.25690671835027601  0.40096182941812963 0.013116266829294475 0.25692174567919596  0.40359630726415391 0.012748542417958997 0.25710244514394665  0.4048284024471972 0.012402671166296763 0.25727115899957409  0.40590957120504023 0.011962718566735185 0.25748150293672162  0.40685515988002119 0.01146492615105184 0.25771031204158001  0.40768578955957691 0.010934842125183518 0.25794387642749855  0.40842786694403188 0.010378298547667033 0.25817729750720181  0.40911445973931093 0.0097843073162067074 0.25841495581723517  0.41017418133702221 0.0086928011132886372 0.25881756295156239  0.41054725088645194 0.0082675306692658809 0.25896769835370181  0.41090027385935779 0.0078234929337671465 0.25911698337057898  0.41123580675788174 0.0073568604100485739 0.25926538648722558  0.41155445523303241 0.0068638165959245814 0.2594123083286663  0.41185523729266932 0.0063407667039694507 0.25955639295403682  0.4121357288137909 0.0057845653260688518 0.25969538763050964  0.41260858298339981 0.0046925714773511833 0.25993648708634165  0.41281415413453582 0.0041524172733705105 0.26004418293957327  0.41300355567389357 0.0035707435434035825 0.26014602699978001  0.41317075255256608 0.0029463335236743419 0.26023815894796426  0.41330910527476672 0.0022781452619560268 0.26031596086388009  0.4134111675193366 0.0015651595869500669 0.26037407713963379  0.41346799991937611 0.00080623935869422953 0.26040646323607958  0.41346799999999995 0 0.26040646328201028 
 0 9 0.041235122543522684 7 0.10575154806405442 7 0.20035578166027801 7 0.2849149602357578 7 0.36367816592396363 7 0.45061310450331127 7 0.50962697317877059 7 0.55363305555308839 7 0.60235474786255172 7 0.67393720589440687 7 0.72246463609477585 7 0.80514528279542219 7 0.89746172223480558 7 0.95303217448670952 7 1 9
2 0.40039999999999998 0.0066000000000000008 0.28334523779156068 0 -1 0 0 -0 -1 1 0 0 0.026400000000000003
1 0.40039999999999998 -0.013200000000000002 0.30974523779156066 0 1 0 
2 0.40039999999999998 -0.0066000000000000008 0.28334523779156068 0 1 0 0 -0 1 1 0 -0 0.026400000000000003
7 0 0  6 37 8  0.40039999999999992 0.013068000000000001 0.07640000000000001  0.4012554629845822 0.013068000000000001 0.07640000000000001  0.40210188320582668 0.013000799772850836 0.076366735079689121  0.402929482814254 0.012869058984313586 0.07630152720098414  0.40372852252356528 0.012677938473922302 0.07620788146916975  0.40448942225565176 0.012435330398584826 0.076091431270180032  0.40557878861387725 0.012004845432083669 0.075889890736119667  0.40594376410362104 0.011844470387864172 0.075815605017383922  0.40629774655065232 0.011673193891670595 0.075737259281531175  0.40664089779075491 0.011491746292830516 0.075655448499094877  0.40697340863318021 0.011300738707579991 0.075570718345915847  0.40755257368625175 0.010940973533488741 0.07541400432526188  0.40780304865106248 0.010775482674729752 0.075342889965267515  0.40804707314905192 0.010604410367978987 0.075270460567106637  0.40828478884155256 0.010427926716561 0.075196939147973929  0.40851632965725709 0.01024615200193248 0.075122533298311298  0.40893857332083439 0.0098959952735688701 0.074981908864356739  0.40913071598888351 0.0097288620130958105 0.074915857580483844  0.40931833117255617 0.0095578051860031547 0.074849409691282287  0.40950148671234432 0.0093828505387563103 0.074782691381098942  0.40968023691304117 0.0092040012805460151 0.074715826657534457  0.41015559709861255 0.0087058045712466881 0.074533492179466712  0.41044348449391732 0.008378804904299611 0.074418008701402985  0.41071861636045365 0.0080400228704301663 0.074303074568949232  0.41098104081247233 0.0076891770112437431 0.074189333960240827  0.41123056635257199 0.007325898241541437 0.074077511072366778  0.41171609280225269 0.0065527395234134646 0.073853331762004926  0.41195063162535983 0.0061413198000853679 0.07374126620753127  0.41216998651460629 0.0057147926349687232 0.073633187786435614  0.41237332541549493 0.0052725448592154806 0.073530250575309028  0.41255943658598798 0.0048140080232066517 0.07343381954117835  0.41295612127054404 0.0036869710245752757 0.073224364373717321  0.41315304290584626 0.0029954726862239109 0.073116928621613966  0.41330749100040615 0.0022734407796768503 0.073030214502018853  0.41341373030807171 0.001528833807050829 0.072969691514966781  0.41346799992312333 0.00076876636379237116 0.072938774553346297  0.41346799999999995 0 0.072938774509550414 
 0 7 0.22051503502305564 5 0.33679161734488838 5 0.42959723382456466 5 0.51057410208501597 5 0.65033319107446164 5 0.79781123267488852 5 1 7
1 0.413468 -3.2007368742515171e-18 0.050000000000000003 0 0 1 
7 0 0  6 37 8  0.40039999999999992 -0.013068000000000001 0.07640000000000001  0.40125546298458203 -0.013068000000000001 0.07640000000000001  0.40210188320582668 -0.013000799772850897 0.076366735079689094  0.40292948281425411 -0.012869058984313494 0.076301527200984182  0.40372852252356534 -0.012677938473922311 0.076207881469169722  0.40448942225565165 -0.012435330398584861 0.076091431270180046  0.40557878861387731 -0.012004845432083655 0.075889890736119639  0.40594376410362104 -0.011844470387864183 0.075815605017383936  0.40629774655065232 -0.011673193891670623 0.075737259281531188  0.4066408977907548 -0.011491746292830536 0.075655448499094877  0.40697340863318021 -0.011300738707579987 0.075570718345915847  0.40755257368625175 -0.010940973533488741 0.07541400432526188  0.40780304865106248 -0.010775482674729749 0.075342889965267515  0.40804707314905192 -0.01060441036797898 0.075270460567106637  0.40828478884155256 -0.010427926716560997 0.075196939147973929  0.40851632965725709 -0.010246152001932485 0.075122533298311298  0.40893857332083439 -0.0098959952735688684 0.074981908864356739  0.40913071598888351 -0.0097288620130958157 0.074915857580483844  0.40931833117255617 -0.0095578051860031616 0.074849409691282287  0.40950148671234432 -0.0093828505387563137 0.074782691381098942  0.40968023691304117 -0.0092040012805460134 0.074715826657534457  0.41015559709861232 -0.0087058045712468685 0.074533492179466768  0.4104434844939171 -0.0083788049042998261 0.074418008701403054  0.41071861636045354 -0.0080400228704302131 0.074303074568949232  0.41098104081247239 -0.007689177011243613 0.074189333960240786  0.41123056635257216 -0.0073258982415413095 0.074077511072366722  0.41171609280225269 -0.0065527395234134785 0.073853331762004926  0.41195063162535983 -0.0061413198000852195 0.073741266207531228  0.41216998651460629 -0.0057147926349687206 0.073633187786435614  0.41237332541549487 -0.0052725448592156436 0.07353025057530907  0.41255943658598798 -0.0048140080232066803 0.073433819541178363  0.4129561212705441 -0.0036869710245752245 0.073224364373717307  0.41315304290584637 -0.0029954726862236325 0.07311692862161398  0.41330749100040587 -0.0022734407796777684 0.073030214502018867  0.41341373030807188 -0.0015288338070499671 0.072969691514966781  0.41346799992312333 -0.00076876636379276213 0.072938774553346297  0.41346799999999995 -3.4694469519536142e-18 0.072938774509550414 
 0 7 0.22051503502308639 5 0.33679161734493512 5 0.42959723382462411 5 0.5105741020850878 5 0.65033319107446719 5 0.79781123267488763 5 1 7
7 0 0  6 82 17  0.40039999999999992 0.013068000000000001 0.07640000000000001  0.39993184161608225 0.013068000000000001 0.07640000000000001  0.39946403596464308 0.013047873423170819 0.076390037832604923  0.39899853488603737 0.013007680072138261 0.076370140567617775  0.39853731336387233 0.012947797528757186 0.076340587228376236  0.39808235995866187 0.012868956826192504 0.07630190660367607  0.39714250376921351 0.01266554164620852 0.07620295068608432  0.39665940073743294 0.012537061503683535 0.076140846097496676  0.39618707155082405 0.012387923519994746 0.076069396747036722  0.3957261915582822 0.012219158460497336 0.075989494257820686  0.39527741495002489 0.012031785370847032 0.075902085979272407  0.39454185201397807 0.011686071628438694 0.075743659188260065  0.39424808569573039 0.011536882590295764 0.075676021085698694  0.39396008967238832 0.011379507081264837 0.07560552838964274  0.39367783118369987 0.01121408409780819 0.075532431364829483  0.39340124773673296 0.011040672355671759 0.075456962386825963  0.39290790193657016 0.010710400747338153 0.075315646551505092  0.39268932050965794 0.010556157247441416 0.07525050609587848  0.39247445551552279 0.010396508502396888 0.075184032551819255  0.3922632622479682 0.010231396150576557 0.07511633968564517  0.39205569860421613 0.010060714756522407 0.075047537053321831  0.39164380268422 0.0097044937440861536 0.074906571498787225  0.39143963784813907 0.0095187516746143407 0.074834378759386325  0.39123915651556856 0.009326890250109748 0.074761253794028704  0.39104232373196374 0.009128675701565352 0.074687305254940314  0.39084913963208917 0.0089238160544039512 0.07461265196912624  0.39040112652574105 0.0084229161032734149 0.07443480890982819  0.39014989852782728 0.008121328299674711 0.074331299380883079  0.38990532410533696 0.0078055343945299142 0.074226972654536053  0.38966739150578533 0.0074739250390678724 0.074122094756689128  0.38943660501824229 0.0071247586109382775 0.074017169461251711  0.38897107799993169 0.0063539707781248896 0.073799403314382381  0.38874000655255297 0.0059322020513110311 0.073687705515542587  0.38851759164054589 0.0054821802233571883 0.073577029488956378  0.3883045979616439 0.0049963401163209045 0.073467977604592685  0.38810493035386334 0.004468385731728584 0.073363062783405  0.38777061219572823 0.0033972788149764944 0.073183818891256636  0.38762474231889588 0.002846622334486083 0.073104016835413038  0.38749803562263019 0.00224448744454981 0.07303322324034886  0.38740032021035037 0.0015931453557866682 0.072977688686341344  0.38734137312682854 0.00089428897346733975 0.072944113848662562  0.38732517223999369 -0.00052227792760926298 0.072934885158093224  0.38735921975302195 -0.0011692148500279012 0.072954274236433372  0.3874291916978933 -0.0017853735110787651 0.072994214835620144  0.3875283266241869 -0.0023642863743279161 0.073050136760246229  0.38764777805975464 -0.0028979122517479527 0.073116270893543792  0.38794606745682531 -0.0040135147080135637 0.073278687446302407  0.38814287443001988 -0.0045945308042485717 0.07338389663249402  0.38835606991586707 -0.0051243076335350819 0.073494975945177177  0.38858002304068889 -0.005610784875182997 0.07360833048660978  0.38881342237599315 -0.0060639072979308444 0.07372311283953123  0.38927165650057211 -0.0068638954104938065 0.073941065976986076  0.38949068356811978 -0.0072129437112592801 0.074042492649857947  0.38971657162374562 -0.0075444347952265218 0.074144094097597632  0.38994874872839563 -0.0078601553353674757 0.074245355151218356  0.39018719665602797 -0.0081618144760635721 0.074346023456173055  0.39063363711177884 -0.008688351726517737 0.074528051506780449  0.39083905478115472 -0.008916897692908779 0.074609492207323144  0.39104873997264167 -0.0091373684746144119 0.074690205624208528  0.39126267370017631 -0.009350185127944893 0.074770035892524248  0.39148089611141151 -0.0095556874331374723 0.074848846590519172  0.3919009452108651 -0.0099301890650499002 0.074995395402551512  0.39210179707659626 -0.010100657101130278 0.075063364511246108  0.39230610343362388 -0.010265732294942861 0.075130323657436257  0.39251390186980079 -0.010425531755280439 0.075196171325512942  0.39272523373841078 -0.010580127571458179 0.07526080278081658  0.39319953201194169 -0.010909889564963757 0.075400519309327951  0.3934641259720732 -0.011082693866866033 0.075474997751933434  0.39373401025436866 -0.011248008974473459 0.075547355043905098  0.39400924856926794 -0.011405811119401256 0.075617385688214633  0.39428988412184457 -0.011556003509426829 0.075684869044353689  0.39497449400240198 -0.011896836761959481 0.075839714713260994  0.39538388730755697 -0.012080317896227077 0.075924530654161729  0.39580377963625329 -0.012248177002762171 0.076003268191546833  0.39623381237720695 -0.012399677766801488 0.076075196767278516  0.3966736081988676 -0.012534030287348842 0.076139604224570834  0.3976460631275906 -0.012785955893925241 0.076261263339157268  0.3981827390166322 -0.012897266841271902 0.076315664605700592  0.39872962194013351 -0.012982189460795282 0.076357520984178376  0.39928354533429095 -0.013039342058880223 0.076385815588334169  0.39984136979084184 -0.013068000000000001 0.07640000000000001  0.40039999999999992 -0.013068000000000001 0.07640000000000001 
 0 7 0.073816223377891094 5 0.15531176523600171 5 0.21129763936444007 5 0.25723180793968198 5 0.30405525166998965 5 0.36792864444617757 5 0.43756300529359743 5 0.49768792189151329 5 0.55191045322469767 5 0.62433677375464613 5 0.68622835412735161 5 0.73695009204068751 5 0.7819332371788964 5 0.83622600477274156 5 0.9118708417412249 5 1 7
2 0.40039999999999998 0.0066000000000000008 0.28334523779156068 0 -1 0 0 -0 -1 1 0 0 0.0066000000000000008
2 0.40039999999999998 -0.0066 0.28334523779156068 0 -1 0 0 -0 -1 1 0 0 0.0066000000000000008
1 0.40039999999999998 -0.013200000000000002 0.07640000000000001 0 1 0 
2 0.40039999999999998 -0.013200000000000002 0.050000000000000003 0 1 0 0 -0 1 1 0 -0 0.026400000000000003
2 0.40039999999999998 0.013200000000000002 0.050000000000000003 0 1 0 0 -0 1 1 0 -0 0.026400000000000003
1 0.40039999999999998 0.013200000000000002 0.2569452377915607 0 -1 0 
1 0.40039999999999998 0.013200000000000002 0.27674523779156068 0 -1 0 
2 0.40039999999999998 0.013200000000000002 0.28334523779156068 0 -1 0 0 -0 -1 1 0 0 0.0066000000000000008
2 0.40039999999999998 -0.013200000000000002 0.28334523779156068 0 -1 0 0 -0 -1 1 0 0 0.0066000000000000008
2 0.40039999999999998 -0.013200000000000002 0.050000000000000003 0 1 0 0 -0 1 1 0 -0 0.023100000000000002
2 0.40039999999999998 0.013200000000000002 0.050000000000000003 0 1 0 0 -0 1 1 0 -0 0.023100000000000002
1 0.40039999999999998 -0.013200000000000002 0.073099999999999998 0 1 0 
Polygon3D 0
PolygonOnTriangulations 0
Surfaces 15
2 0.40039999999999998 -0.013200000000000002 0.28334523779156068 0 1 0 0 -0 1 1 0 -0 0.026400000000000003
2 0.40039999999999998 0 0.050000000000000003 0 0 1 1 0 -0 -0 1 0 0.013068000000000001
2 0.40039999999999998 0.013200000000000002 0.28334523779156068 0 -1 0 0 -0 -1 1 0 0 0.026400000000000003
1 0.40039999999999998 0.0066000000000000008 0.28334523779156068 0 -1 0 0 -0 -1 1 0 0 
2 0.40039999999999998 -0.013200000000000002 0.28334523779156068 0 1 0 0 -0 1 1 0 -0 0.026400000000000003
1 0.40039999999999998 -0.0066000000000000008 0.28334523779156068 0 1 0 0 -0 1 1 0 -0 
2 0.40039999999999998 -0.013200000000000002 0.050000000000000003 0 1 0 0 -0 1 1 0 -0 0.026400000000000003
2 0.40039999999999998 0.013200000000000002 0.28334523779156068 0 -1 0 0 -0 -1 1 0 0 0.0066000000000000008
1 0.40039999999999998 -0.013200000000000002 0.050000000000000003 0 1 0 0 -0 1 1 0 -0 
1 0.40039999999999998 0.013200000000000002 0.050000000000000003 0 1 0 0 -0 1 1 0 -0 
1 0.40039999999999998 0.013200000000000002 0.28334523779156068 0 -1 0 0 -0 -1 1 0 0 
1 0.40039999999999998 -0.013200000000000002 0.28334523779156068 0 -1 0 0 -0 -1 1 0 0 
2 0.40039999999999998 -0.013200000000000002 0.050000000000000003 0 1 0 0 -0 1 1 0 -0 0.023100000000000002
1 0.40039999999999998 -0.013200000000000002 0.050000000000000003 0 1 0 0 -0 1 1 0 -0 
1 0.40039999999999998 0.013200000000000002 0.050000000000000003 0 1 0 0 -0 1 1 0 -0 
Triangulations 0

TShapes 91
Ve
1.00013334617615e-07
0.389121141984334 -0.00659999999998868 0.259475856514148
0 0

0101101
*
Ve
1.00024960620533e-07
0.389121142653701 0.00660000000000195 0.259475856240211
0 0

0101101
*
Ve
1.00000000360823e-07
0.4004 0.0066 0.309745237791561
0 0

0101101
*
Ve
1e-07
0.4004 -0.0066 0.309745237791561
0 0

0101101
*
Ve
2.00001e-07
0.4004 0.0130680000000005 0.0764
0 0

0101101
*
Ve
2.00001e-07
0.413468 -3.20073687425152e-18 0.0729387745095509
0 0

0101101
*
Ve
2.00001e-07
0.413468 -3.20073687425152e-18 0.260406463282011
0 0

0101101
*
Ve
1.0006049597174e-07
0.411678858058097 0.00659999999999913 0.259475856482036
0 0

0101101
*
Ve
1.0000676850248e-07
0.400400000000001 0.0130680004413876 0.256945237798329
0 0

0101101
*
Ve
1.00020206387096e-07
0.411678857270436 -0.00659999999999744 0.259475856199106
0 0

0101101
*
Ve
2.00001e-07
0.4004 -0.0130680000000005 0.0764
0 0

0101101
*
Ve
1e-07
0.4004 0.0066 0.256945237791561
0 0

0101101
*
Ve
2.00001e-07
0.4004 0.0066 0.276745237791561
0 0

0101101
*
Ve
2.00001e-07
0.4004 -0.0066 0.276745237791561
0 0

0101101
*
Ve
1e-07
0.4004 0.0132 0.0764
0 0

0101101
*
Ve
1e-07
0.4004 -0.0132 0.0764
0 0

0101101
*
Ve
1e-07
0.4004 0.0132 0.276745237791561
0 0

0101101
*
Ve
1e-07
0.4004 -0.0132 0.276745237791561
0 0

0101101
*
Ve
1e-07
0.4004 -0.0132 0.0731
0 0

0101101
*
Ve
1e-07
0.4004 0.0132 0.0731
0 0

0101101
*
Ed
 1e-07 1 1 0
1  1 0 0.45825402067519 0.620409996236485
2  1 1 0 0.45825402067519 0.620409996236485
2  2 2 0 0.45825402067519 0.620409996236485
0

0101000
+91 0 -90 0 *
Ed
 1e-07 1 1 0
1  2 0 3.14159265358979 5.84175904404897
2  3 3 0 3.14159265358979 5.84175904404897
2  4 4 0 3.14159265358979 5.84175904404897
2  5 1 0 3.14159265358979 5.84175904404897
0

0101000
+89 0 -90 0 *
Ed
 1e-07 1 1 0
1  3 0 0.0066 0.0198
3  6 7CN 1 0 0.0066 0.0198
0

0101000
+88 0 -89 0 *
Ed
 1e-07 1 1 0
1  4 0 3.58301894407788 6.28318530717959
2  8 5 0 3.58301894407788 6.28318530717959
2  9 6 0 3.58301894407788 6.28318530717959
2  10 1 0 3.58301894407788 6.28318530717959
0

0101000
+91 0 -88 0 *
Ed
 1e-07 1 1 0
1  5 0 0 1
2  11 7 0 0 1
2  12 2 0 0 1
0

0101000
+87 0 -86 0 *
Ed
 1e-07 1 1 0
1  6 0 0.0229387745095509 0.210406463282011
3  13 14CN 2 0 0.0229387745095509 0.210406463282011
0

0101000
+86 0 -85 0 *
Ed
 1e-07 1 1 0
1  1 0 0.935392517728651 1
2  1 1 0 0.935392517728651 1
2  2 2 0 0.935392517728651 1
0

0101000
+84 0 -85 0 *
Ed
 1e-07 1 1 0
1  1 0 0.789777918284034 0.935392517728651
2  1 1 0 0.789777918284034 0.935392517728651
2  2 2 0 0.789777918284034 0.935392517728651
2  15 3 0 0.789777918284034 0.935392517728651
0

0101000
+83 0 -84 0 *
Ed
 1e-07 1 1 0
1  1 0 0.620409996236485 0.789777918284034
2  1 1 0 0.620409996236485 0.789777918284034
2  2 2 0 0.620409996236485 0.789777918284034
2  16 3 0 0.620409996236485 0.789777918284034
0

0101000
+90 0 -83 0 *
Ed
 1e-07 1 1 0
1  1 0 0.0878941115257017 0.45825402067519
2  1 1 0 0.0878941115257017 0.45825402067519
2  2 2 0 0.0878941115257017 0.45825402067519
2  17 5 0 0.0878941115257017 0.45825402067519
0

0101000
+82 0 -91 0 *
Ed
 1e-07 1 1 0
1  1 0 0 0.0878941115257017
2  1 1 0 0 0.0878941115257017
2  2 2 0 0 0.0878941115257017
0

0101000
+85 0 -82 0 *
Ed
 1e-07 1 1 0
1  7 0 0 1
2  18 7 0 0 1
2  19 2 0 0 1
0

0101000
+81 0 -86 0 *
Ed
 1e-07 1 1 0
1  8 0 0 1
2  20 7 0 0 1
2  21 2 0 0 1
0

0101000
+87 0 -81 0 *
Ed
 1e-07 1 1 0
1  2 0 0 0.441426291421584
2  3 3 0 0 0.441426291421584
2  4 4 0 0 0.441426291421584
0

0101000
+80 0 -84 0 *
Ed
 1e-07 1 1 0
1  2 0 5.84175904404897 6.28318530717959
2  3 3 0 5.84175904404897 6.28318530717959
2  4 4 0 5.84175904404897 6.28318530717959
0

0101000
+90 0 -80 0 *
Ed
 1e-07 1 1 0
1  2 0 0.441426291421584 3.14159265358979
2  3 3 0 0.441426291421584 3.14159265358979
2  4 4 0 0.441426291421584 3.14159265358979
2  22 1 0 0.441426291421584 3.14159265358979
0

0101000
+84 0 -89 0 *
Ed
 1e-07 1 1 0
1  9 0 0 6.28318530717959
2  23 4 0 0 6.28318530717959
2  24 8 0 0 6.28318530717959
0

0101000
+79 0 -79 0 *
Ed
 1e-07 1 1 0
1  4 0 0 2.70016639372251
2  8 5 0 0 2.70016639372251
2  9 6 0 0 2.70016639372251
2  25 1 0 0 2.70016639372251
0

0101000
+88 0 -82 0 *
Ed
 1e-07 1 1 0
1  4 0 2.70016639372251 3.58301894407788
2  8 5 0 2.70016639372251 3.58301894407788
2  9 6 0 2.70016639372251 3.58301894407788
0

0101000
+82 0 -91 0 *
Ed
 1e-07 1 1 0
1  10 0 0 6.28318530717959
2  26 6 0 0 6.28318530717959
2  27 8 0 0 6.28318530717959
0

0101000
+78 0 -78 0 *
Ed
 1e-07 1 1 0
1  11 0 0.0262680000000005 0.0264
3  28 29CN 7 0 0.0262680000000005 0.0264
0

0101000
+87 0 -77 0 *
Ed
 1e-07 1 1 0
1  11 0 0 0.000131999999999546
3  28 29CN 7 0 0 0.000131999999999546
0

0101000
+76 0 -81 0 *
Ed
 1e-07 1 1 0
1  12 0 0 6.28318530717959
2  30 7 0 0 6.28318530717959
2  31 9 0 0 6.28318530717959
0

0101000
+76 0 -76 0 *
Ed
 1e-07 1 1 0
1  13 0 0 6.28318530717959
2  32 7 0 0 6.28318530717959
2  33 10 0 0 6.28318530717959
0

0101000
+77 0 -77 0 *
Ed
 1e-07 1 1 0
1  14 0 0.000131999558612431 0.0066
3  34 35CN 3 0 0.000131999558612431 0.0066
0

0101000
+83 0 -80 0 *
Ed
 1e-07 1 1 0
1  15 0 0 0.0066
3  36 37CN 8 0 0 0.0066
0

0101000
+75 0 -79 0 *
Ed
 1e-07 1 1 0
1  16 0 0 6.28318530717959
2  38 8 0 0 6.28318530717959
2  39 11 0 0 6.28318530717959
0

0101000
+75 0 -75 0 *
Ed
 1e-07 1 1 0
1  15 0 0.0198 0.0264
3  36 37CN 8 0 0.0198 0.0264
0

0101000
+78 0 -74 0 *
Ed
 1e-07 1 1 0
1  17 0 0 6.28318530717959
2  40 8 0 0 6.28318530717959
2  41 12 0 0 6.28318530717959
0

0101000
+74 0 -74 0 *
Ed
 1e-07 1 1 0
1  18 0 0 6.28318530717959
2  42 13 0 0 6.28318530717959
2  43 14 0 0 6.28318530717959
2  44 9 0 0 6.28318530717959
0

0101000
+73 0 -73 0 *
Ed
 1e-07 1 1 0
1  19 0 0 6.28318530717959
2  45 13 0 0 6.28318530717959
2  46 15 0 0 6.28318530717959
2  47 10 0 0 6.28318530717959
0

0101000
+72 0 -72 0 *
Ed
 1e-07 1 1 0
1  20 0 0 0.0264
3  48 49CN 13 0 0 0.0264
0

0101000
-72 0 +73 0 *
Wi

0101100
-71 0 +70 0 +69 0 +68 0 *
Wi

0101100
-67 0 -66 0 +65 0 +64 0 +63 0 +71 0 +62 0 +61 0 +66 0 +60 0 
+59 0 *
Wi

0101100
+58 0 +57 0 +56 0 +70 0 *
Wi

0101100
-55 0 *
Wi

0101100
-69 0 +56 0 -65 0 -61 0 +54 0 *
Wi

0101100
+54 0 +68 0 +53 0 *
Wi

0101100
+52 0 *
Wi

0101100
+51 0 -59 0 +50 0 +49 0 -50 0 -60 0 +67 0 -51 0 -48 0 *
Wi

0101100
-58 0 +64 0 -47 0 *
Wi

0101100
+47 0 +63 0 -57 0 *
Wi

0101100
-53 0 +62 0 *
Wi

0101100
-55 0 +46 0 +45 0 -46 0 *
Wi

0101100
+44 0 +52 0 -44 0 -43 0 *
Wi

0101100
+49 0 *
Wi

0101100
-42 0 *
Wi

0101100
+48 0 *
Wi

0101100
-41 0 *
Wi

0101100
-45 0 *
Wi

0101100
+43 0 *
Wi

0101100
+40 0 +42 0 -40 0 -41 0 *
Fa
0  1e-07 1 0

0111000
+39 0 *
Fa
0  1e-07 2 0

0101000
+38 0 *
Fa
0  1e-07 4 0

0111000
+37 0 +36 0 *
Fa
0  1e-07 1 0

0111000
+35 0 *
Fa
0  1e-07 6 0

0111000
+34 0 +33 0 *
Fa
0  1e-07 7 0

0101000
+32 0 *
Fa
0  1e-07 3 0

0101000
+31 0 *
Fa
0  1e-07 3 0

0101000
+30 0 *
Fa
0  1e-07 5 0

0101000
+29 0 *
Fa
0  1e-07 8 0

0111000
+28 0 *
Fa
0  1e-07 8 0

0111000
+27 0 *
Fa
0  1e-07 9 0

0101000
+26 0 +25 0 *
Fa
0  1e-07 10 0

0101000
+24 0 +23 0 *
Fa
0  1e-07 11 0

0101000
-22 0 *
Fa
0  1e-07 12 0

0101000
+21 0 *
Fa
0  1e-07 13 0

0101000
+20 0 *
Sh

0101100
+19 0 +18 0 -17 0 +16 0 -15 0 +14 0 -13 0 -12 0 -11 0 +10 0 
+9 0 -8 0 +7 0 -6 0 +5 0 -4 0 *
So

0100000
+3 0 *
Co

1100000
-91 3 +90 3 +89 3 +88 3 -87 3 +86 3 +85 3 +84 3 +83 3 +82 3 
+81 3 -80 3 +79 3 -78 3 -77 3 +76 3 +75 3 -74 3 +73 3 -72 3 
-71 3 +70 3 +69 3 +68 3 -67 3 -66 3 +65 3 +64 3 +63 3 +62 3 
+61 3 +60 3 +59 3 -58 3 -57 3 -56 3 +55 3 +54 3 -53 3 -52 3 
+51 3 +50 3 +49 3 -48 3 +47 3 +46 3 +45 3 +44 3 -43 3 +42 3 
-41 3 -40 3 +39 3 +38 3 -37 3 -36 3 +35 3 -34 3 -33 3 +32 3 
-31 3 -30 3 -29 3 +28 3 +27 3 -26 3 -25 3 +24 3 +23 3 +22 3 
+21 3 -20 3 +19 3 +18 3 -17 3 +16 3 -15 3 +14 3 -13 3 -12 3 
-11 3 +10 3 +9 3 -8 3 +7 3 -6 3 +5 3 -4 3 +3 3 +2 3 
*

+1 0 