DBRep_DrawableShape

CASCADE Topology V1, (c) Matra-Datavision
Locations 6
1
0.866025403784439            -0.5               0 0.117567359695562 
            0.5 0.866025403784439               0 -0.117567359695562 
              0               0               1               0 
1
1.11022302462516e-16              -1               0               0 
              1 1.11022302462516e-16               0               0 
              0               0               1               0 
1
              1               0               0               0 
              0               1               0               0 
              0               0               1               0 
2  1 1 2 1 3 1 0
2  2 1 3 1 0
2  1 -1 0
Curve2ds 36
1 0 0 1 0 
2 0 0 1 0 -0 1 0.026400000000000003
2 0 0 1 0 -0 1 0.018957056733575506
7 0 0  10 74 9  4.7123889803846897 0.96255074788468764  4.8251832041875033 0.96255074788468764  4.9379766266574734 0.95270714574144222  5.0458236990962178 0.93302498228877084  5.1437507880618796 0.9042568838049192  5.2288371082395315 0.86805002762412187  5.3027009032666683 0.82597231470572297  5.3659145955462009 0.77915728402149398  5.4200448808478541 0.72860212909381517  5.4662144943824211 0.67504444396462671  5.574193960945629 0.52115002622627093  5.6217585978884017 0.41585411348086154  5.6537562379671726 0.30638887414966121  5.6741822856711224 0.1944653460027439  5.6845252331113443 0.081163746011952753  5.6859421434346586 -0.032598518507256813  5.6782138752168976 -0.14603360894329853  5.6606817553256406 -0.25823498607104511  5.6312305964082974 -0.36804203900080973  5.569072878489143 -0.51293197862515805  5.5499052351360731 -0.55182411803169873  5.5283198531344855 -0.589985461255499  5.5040796245318528 -0.62729161731117522  5.4769117106152425 -0.66359612329349871  5.4465063062440695 -0.69872605924516984  5.4125201316483977 -0.73247547604877294  5.3745943742531734 -0.76459768043805032  5.3324013855071444 -0.79480144560677501  5.2449094503935116 -0.8472241856127074  5.2006584045298654 -0.86996934526447267  5.1528472949559383 -0.89077696744394586  5.1014204863805093 -0.9094078369542784  5.0464236528641759 -0.92560753632480763  4.9880893161197797 -0.93911650577644346  4.9269057942419803 -0.94969392949785347  4.8636183848394055 -0.95715243431939334  4.799144201310467 -0.96138854547821173  4.6211380060797342 -0.96412000304278556  4.5070812043122714 -0.95592658450732415  4.3972507572907489 -0.93769919180340366  4.2968934624805115 -0.91009209102776367  4.2095448122126982 -0.874730001683929  4.1336303187999874 -0.83327033977548126  4.0686331427423283 -0.78687086357967928  4.0129731393972179 -0.73658144104047096  3.9654970115731172 -0.68316857890376437  3.8645470552018062 -0.54338937484285088  3.8199476390409415 -0.45389846284346813  3.7876882454931549 -0.36088149546510523  3.7650102750951193 -0.26559433375787195  3.7504291888180887 -0.16887014894905406  3.743083204937284 -0.071357634624473573  3.7425635755262192 0.02637634636046755  3.7490338621197083 0.12378524563581754  3.7631380698854331 0.2202384066471704  3.7978959160029837 0.36217068003834307  3.811748529988173 0.40902351860346176  3.8280464576572735 0.45530867700292765  3.8470143974366997 0.50090132330563697  3.8689324385749289 0.54565467272762669  3.8941394322673055 0.5893944221345766  3.9230410231663191 0.63190957486698207  3.9561151335329932 0.67293909092906634  3.9938898544797743 0.71215815865889021  4.0798118674203003 0.78618633148807282  4.1279598093920509 0.82099535756568964  4.181774114000655 0.85320585833360385  4.2417203874094414 0.88235153346031436  4.3080518772039795 0.90790184575234889  4.380838435955229 0.9292537075925793  4.4594803160478476 0.94577881777158834  4.5423720364966611 0.95695960780934897  4.6273802477481443 0.96255074788468753  4.7123889803846888 0.96255074788468753 
 0 11 0.78539816339741164 9 2.1598449493428822 9 2.6752624940724337 9 3.1262528457108267 9 3.9154859610780179 9 5.0993356341288125 9 5.6912604706542078 9 6.2831853071795862 11
1 6.2831853071795862 -0 0 1 
1 0 -0 0 1 
7 0 0  6 82 17  6.2831853071795862 0.026267999999999989  6.265452035061454 0.026267999999999989  6.2477321259881125 0.026247873423170708  6.2300894660314761 0.026207680072138386  6.2125889184715364 0.026147797528757368  6.1952971474773166 0.026068956826192272  6.1594997503344731 0.025865541646208443  6.1410546652521658 0.025737061503683406  6.1229664383820896 0.025587923519994758  6.1052542819343083 0.025419158460497453  6.0879391210395717 0.025231785370847044  6.0594379601066528 0.024886071628438672  6.0480204403555753 0.024736882590295776  6.0367910348796867 0.024579507081264856  6.0257481487549436 0.024414084097808191  6.0148893443014693 0.024240672355671729  5.9954504668899533 0.02391040074733812  5.9868115075258714 0.023756157247441404  5.978292771963436 0.023596508502396907  5.9698927686835779 0.023431396150576586  5.9616102056760276 0.02326071475652243  5.9451196791154217 0.022904493744086013  5.9369173464150613 0.022718751674613544  5.9288345529162756 0.022526890250109344  5.9208704884120742 0.022328675701565603  5.9130258623972942 0.022123816054404093  5.8947675048288284 0.021622916103273271  5.8844760754014009 0.021321328299674747  5.8744054001398496 0.021005534394529957  5.8645570816661028 0.020673925039067967  5.8549546736545324 0.020324758610938607  5.8354871323761976 0.019553970778124846  5.8257662352444592 0.019132202051311331  5.8163568971802659 0.018682180223356333  5.8072938001795338 0.018196340116322159  5.7987504075717888 0.017668385731727888  5.7843815596382653 0.01659727881497608  5.7780836023498292 0.016046622334487552  5.7725860807226637 0.015444487444547494  5.768328707991655 0.014793145355788597  5.7657590822484162 0.014094288973466661  5.7650528307868356 0.012677722072391163  5.7665369875565284 0.012030785149971357  5.7695887968796704 0.011414626488921361  5.7739000853134534 0.010835713625672943  5.779071780440705 0.010302087748251493  5.7919369526670703 0.0091864852919879472  5.8003898777517495 0.0086054691957500734  5.8094949834852079 0.0080756923664640125  5.8190018826123033 0.0075892151248189875  5.8288531930625513 0.0071360927020684651  5.848073909875299 0.0063361045895063339  5.8572162794077967 0.0059870562887408109  5.8665974639023091 0.0056555652047734391  5.8761911032981962 0.0053398446646324566  5.8859944269271933 0.005038185523936479  5.9042566894551145 0.0045116482734812412  5.9126264790948833 0.0042831023070917188  5.9211365569008985 0.0040626315253863904  5.9297851984111896 0.0038498148720548762  5.9385732217531144 0.0036443125668615302  5.9554247192738403 0.0032698109349501158  5.9634562155754622 0.0030993428988696412  5.97159954639167 0.0029342677050570106  5.9798558149841696 0.0027744682447194886  5.9882263600665553 0.0026198724285418488  6.0069554791639925 0.0022901104350362593  6.0173667100623147 0.0021173061331339672  6.0279493771069355 0.0019519910255265188  6.0387058678793766 0.0017941888805987185  6.0496380289350098 0.0016439964905731552  6.0762252650874871 0.0013031632380407106  6.092059283326333 0.0011196821037728687  6.1082370656470237 0.00095182299723763737  6.1247474797432977 0.00080032223319848321  6.1415804158752216 0.00066596971265138309  6.1787029716749737 0.00041404410607481481  6.1991301747583378 0.00030273315872807709  6.2198963454732663 0.00021781053920467855  6.2408953637330944 0.0001606579411197615  6.2620250719841799 0.00013199999999998814  6.2831853071795862 0.00013199999999998803 
 0 7 0.073816223377523943 5 0.15531176523545837 5 0.21129763936373464 5 0.25723180793885797 5 0.30405525166906355 5 0.36792864444509177 5 0.43756300529227554 5 0.49768792189010758 5 0.55191045322323229 5 0.62433677375300722 5 0.68622835412563454 5 0.73695009203912343 5 0.78193323717768637 5 0.83622600477192344 5 0.91187084174088273 5 1 7
7 0 0  6 82 17  1.5707963267948966 0.026400000000000007  1.6066211189527395 0.026400000000000007  1.6424189417985298 0.026390037832604879  1.678123080822566 0.026370140567617831  1.7136647606040836 0.026340587228376299  1.7489674292123067 0.02630190660367596  1.8225530637047405 0.026202950686084286  1.8607646673896561 0.026140846097496617  1.8986083279327757 0.026069396747036722  1.9361101305295974 0.025989494257820742  1.9732890586627612 0.025902085979272415  2.0354833563957393 0.025743659188260066  2.0606844141429961 0.025676021085698695  2.0857811638095058 0.025605528389642748  2.1107994805313433 0.02553243136482948  2.1357694054771366 0.025456962386825963  2.1812003318296038 0.025315646551505071  2.2016659141639052 0.025250506095878488  2.2221405139245358 0.025184032551819269  2.2426450230454775 0.025116339685645167  2.2632026043211337 0.025047537053321817  2.3048742884883713 0.024906571498787139  2.3259889254755142 0.024834378759386069  2.3472134553762811 0.024761253794028559  2.3685789296164295 0.024687305254940378  2.3901187831870838 0.024612651969126282  2.4415439580005738 0.024434808909828135  2.4715619095727344 0.0243312993808831  2.5020980049981594 0.024226972654536095  2.5332966513198567 0.024122094756689152  2.5652983600112704 0.024017169461251802  2.6342041296538623 0.023799403314382371  2.6709727941039221 0.023687705515542643  2.709332828015441 0.023577029488956253  2.7498540674428069 0.023467977604592873  2.7929721763982376 0.023363062783404893  2.878836036097379 0.02318381889125657  2.9223860550916108 0.023104016835413129  2.9693714859769553 0.023033223240348778  3.0196283998800819 0.022977688686341369  3.0731551771740682 0.022944113848662559  3.1815619372440338 0.022934885158093221  3.2310348491422496 0.022954274236433425  3.2783635579512236 0.022994214835620076  3.3232178123855127 0.023050136760246143  3.3650273574758418 0.023116270893543883  3.4533953069997159 0.023278687446302185  3.5002377199824997 0.023383896632494093  3.5438475734857686 0.02349497594517759  3.5847666245932892 0.023608330486609194  3.6237318303511765 0.023723112839531411  3.6942806884437722 0.023941065976986031  3.7257885313487531 0.024042492649857892  3.7564531611097247 0.02414409409759764  3.7864149324503149 0.024245355151218364  3.8158220339551985 0.024346023456173028  3.8686477466211238 0.024528051506780783  3.8921529522519567 0.024609492207322978  3.9154222275258399 0.024690205624208234  3.9385006456909024 0.024770035892524304  3.9614301019873204 0.024848846590519544  4.0044936603618959 0.024995395402551496  4.0246469563368281 0.025063364511246137  4.0447376699720756 0.025130323657436306  4.0647884128499001 0.025196171325512971  4.0848195815368955 0.025260802780816567  4.1290244563357374 0.025400519309327945  4.1531975110310633 0.025474997751933431  4.1774008959748059 0.025547355043905106  4.2016633730181603 0.025617385688214641  4.2260100915586811 0.0256848690443537  4.2845316778429492 0.025839714713260891  4.3188341363057399 0.025924530654161757  4.3533935024225903 0.026003268191546889  4.3882367673869327 0.026075196767278503  4.4233943750916973 0.026139604224570706  4.5002659060025598 0.026261263339157223  4.5421575066373645 0.026315664605700621  4.5844265084618065 0.026357520984178383  4.6269546657431269 0.026385815588334149  4.6696410304949794 0.026400000000000007  4.7123889803846888 0.026400000000000007 
 0 7 0.073816223377523943 5 0.15531176523545837 5 0.21129763936373464 5 0.25723180793885797 5 0.30405525166906355 5 0.36792864444509177 5 0.43756300529227554 5 0.49768792189010758 5 0.55191045322323229 5 0.62433677375300722 5 0.68622835412563454 5 0.73695009203912343 5 0.78193323717768637 5 0.83622600477192344 5 0.91187084174088273 5 1 7
7 0 0  6 37 8  0 0.00013199999999998803  0.032403900931160225 0.00013199999999998787  0.064465294003508533 0.00019920022714913277  0.09587490932864165 0.00033094101568645015  0.12631907477310872 0.00052206152607761386  0.15546255540294521 0.00076466960141521  0.19742667358632385 0.001195154567916323  0.21153276483238581 0.0013555296121358091  0.22526273936353811 0.0015268061083293781  0.23862267374125767 0.0017082537071694585  0.25161890740278831 0.0018992612924199972  0.27434591002014957 0.002259026466511244  0.28420784503690671 0.0024245173252702202  0.29384875451947695 0.00259558963202098  0.30327307828234024 0.0027720732834389714  0.31248478914639061 0.0029538479980675005  0.32934254965210369 0.0033040047264311181  0.3370383606407148 0.0034711379869041613  0.34457707168828416 0.0036421948139968093  0.35196031726243565 0.0038171494612436623  0.35918912051490409 0.0039959987194539727  0.37847434075761871 0.0044941954287534176  0.39022246718737796 0.0048211950957003369  0.40151528359312377 0.0051599771295696524  0.41234783973689487 0.00551082298875621  0.42270461073863269 0.0058741017584588084  0.44296152270466216 0.0066472604765858674  0.45280675799678205 0.0070586801999147422  0.46206853553877997 0.0074852073650316436  0.47070086049910187 0.0079274551407845228  0.47864039089728316 0.0083859919767930741  0.49563231889745474 0.0095130289754256064  0.50412856810615414 0.010204527313773602  0.51083747746287234 0.010926559220326391  0.51546900261236217 0.011671166192946459  0.51783482828099581 0.012431233636208659  0.51783483163237953 0.013199999999999984 
 0 7 0.22051503502307102 5 0.33679161734494334 5 0.42959723382463511 5 0.5105741020850636 5 0.65033319107452781 5 0.79781123267485754 5 1 7
7 0 0  6 37 8  4.7123889803846897 0.026400000000000007  4.7778514065082458 0.026400000000000007  4.8426217491702079 0.026366735079689032  4.9064574595549937 0.026301527200984248  4.9690622761966665 0.02620788146916974  5.0300365151280486 0.026091431270179998  5.1196707025863946 0.025889890736119647  5.1501558539427963 0.025815605017383919  5.1802176451351514 0.025737259281531175  5.2098934451926207 0.02565544849909487  5.2392204930449688 0.02557071834591584  5.2913944084297428 0.02541400432526188  5.3143583066914148 0.025342889965267512  5.3371503409199681 0.025270460567106634  5.3597936267773489 0.025196939147973926  5.3823116469750767 0.025122533298311305  5.4242876969417955 0.024981908864356746  5.4437697457855796 0.024915857580483831  5.4631900995866625 0.02484940969128227  5.4825645687073665 0.024782691381098936  5.5019090720912631 0.02471582665753445  5.5546025251608659 0.024533492179466654  5.5879144176288618 0.024418008701402986  5.6212716275118302 0.02430307456894926  5.6547582255500251 0.024189333960240842  5.6884548597114106 0.024077511072366678  5.758317721112884 0.023853331762005117  5.7945241856546597 0.023741266207531236  5.8311749384747316 0.023633187786435497  5.8683665349389997 0.023530250575309022  5.9061931134738535 0.023433819541178399  5.9976233310541192 0.023224364373717145  6.052540114527174 0.023116928621614238  6.1088483266558979 0.023030214502018653  6.1661947710615808 0.02296969151496682  6.2243571495585783 0.022938774553346301  6.2831853071795862 0.022938774509550418 
 0 7 0.22051503502307102 5 0.33679161734494334 5 0.42959723382463511 5 0.5105741020850636 5 0.65033319107452781 5 0.79781123267485754 5 1 7
7 0 0  6 37 8  0 0.026267999999999993  0.032403900931157137 0.026267999999999993  0.064465294003518844 0.026200799772850662  0.09587490932863045 0.026069058984313848  0.12631907477310975 0.02587793847392221  0.15546255540294784 0.025635330398584746  0.19742667358631924 0.025204845432083706  0.21153276483238559 0.025044470387864157  0.2252627393635411 0.024873193891670559  0.23862267374125889 0.024691746292830514  0.25161890740278542 0.02450073870758003  0.27434591002014946 0.024140973533488739  0.28420784503690666 0.023975482674729764  0.29384875451947712 0.023804410367979003  0.30327307828234035 0.023627926716561009  0.31248478914639061 0.023446152001932476  0.32934254965210347 0.02309599527356886  0.33703836064071502 0.022928862013095807  0.34457707168828439 0.022757805186003163  0.35196031726243576 0.022582850538756308  0.35918912051490404 0.022404001280545999  0.37847434075761438 0.021905804571246662  0.39022246718737968 0.021578804904299628  0.40151528359312882 0.021240022870430156  0.41234783973689498 0.02088917701124372  0.4227046107386247 0.020525898241541472  0.44296152270467287 0.019752739523413696  0.45280675799678205 0.019341319800085261  0.46206853553877764 0.018914792634968394  0.47070086049910137 0.018472544859215442  0.47864039089727922 0.018014008023207163  0.4956323188974483 0.016886971024574794  0.50412856810616979 0.016195472686224881  0.51083747746285624 0.015473440779675721  0.51546900261236894 0.014728833807052043  0.51783482828099581 0.013968766363791751  0.51783483163237953 0.01319999999999999 
 0 7 0.2205150350231907 5 0.33679161734510071 5 0.4295972338248048 5 0.51057410208524401 5 0.65033319107468079 5 0.79781123267505005 5 1 7
7 0 0  6 37 8  1.5707963267948966 0.026400000000000007  1.5053339006713469 0.026400000000000007  1.4405635580093505 0.026366735079689091  1.3767278476246256 0.026301527200984155  1.3141230309829133 0.026207881469169796  1.2531487920515312 0.026091431270179984  1.1635146045932014 0.025889890736119667  1.1330294532367895 0.025815605017383919  1.102967662044428 0.025737259281531161  1.0732918619869627 0.02565544849909487  1.0439648141346236 0.025570718345915858  0.99179089874984305 0.02541400432526188  0.96882700048817061 0.025342889965267512  0.94603496625961958 0.025270460567106637  0.92339168040223774 0.025196939147973926  0.9008736602045091 0.025122533298311305  0.85889761023779165 0.024981908864356746  0.8394155613940063 0.024915857580483831  0.81999520759292432 0.024849409691282267  0.80062073847222137 0.024782691381098936  0.78127623508832345 0.02471582665753445  0.72858278201873328 0.024533492179466692  0.69527088955072225 0.024418008701402979  0.66191367966773973 0.024303074568949212  0.62842708162955863 0.024189333960240839  0.59473044746820292 0.024077511072366772  0.52486758606666528 0.023853331762004992  0.4886611215249273 0.023741266207531243  0.45201036870486133 0.023633187786435517  0.41481877224058766 0.023530250575309015  0.37699219370575371 0.023433819541178447  0.28556197612550133 0.023224364373717225  0.23064519265230146 0.023116928621614047  0.17433698052384236 0.023030214502018843  0.11699053611789785 0.022969691514966747  0.058828157621041141 0.022938774553346301  0 0.022938774509550418 
 0 7 0.2205150350231907 5 0.33679161734510071 5 0.4295972338248048 5 0.51057410208524401 5 0.65033319107468079 5 0.79781123267505005 5 1 7
1 0 0.026400000000000003 1 0 
2 0 0 1 0 -0 1 0.026400000000000003
1 6.2831853071795862 -6.2831853071795862 0 1 
1 0 -6.2831853071795862 0 1 
1 0 -1.5707963267948966 1 0 
1 0 1.5707963267948966 1 0 
2 0 0 1 0 -0 1 0.018957056733575485
7 0 0  10 74 9  1.5707963267948966 0.96255074788468664  1.4580021029920829 0.96255074788468664  1.345208680628275 0.9527071457441707  1.2373616066251998 0.93302498208504403  1.1394345215812791 0.90425688454706687  1.0543481958738994 0.86805002736218739  0.98048440656566527 0.82597231521504  0.91727071056084242 0.77915728373773163  0.86314042653611978 0.72860212909472466  0.8169708127971661 0.67504444396462615  0.70899134623395754 0.5211500262262706  0.66142670971021289 0.41585411348393109  0.62942906771058915 0.30638887415307181  0.6090030265841051 0.19446534598409926  0.59866006877564359 0.081163745973753976  0.59724316882784478 -0.032598518494523887  0.60497143015891197 -0.14603360893784156  0.62250355225842213 -0.25823498607138617  0.65195471077128997 -0.36804203900080945  0.71411242869044433 -0.5129319786251576  0.73328007203663803 -0.55182411803162768  0.75486545404258776 -0.58998546125608253  0.77910568264343671 -0.62729161731067506  0.80627359656005448 -0.66359612329228601  0.83667900093898129 -0.69872605924513986  0.87066517553737577 -0.73247547604972796  0.90859093292293325 -0.76459768043790899  0.95078392167244363 -0.79480144560677546  1.0382758567860777 -0.84722418561270751  1.0825269026479405 -0.8699693452641899  1.1303380122204987 -0.89077696744394586  1.1817648207838072 -0.9094078369529448  1.2367616542935342 -0.92560753632298876  1.295095991047674 -0.93911650577626171  1.3562795129377969 -0.94969392949870224  1.4195669223394609 -0.95715243431882724  1.4840411058691194 -0.96138854547821051  1.6620473010998518 -0.96412000304278456  1.7761041028588807 -0.95592658447094436  1.8859345501259668 -0.93769919196347473  1.9862918440194335 -0.91009209069306962  2.0736404958297499 -0.87473000217869412  2.1495549867395312 -0.83327033977548126  2.2145521649799775 -0.78687086391437333  2.2702121678848926 -0.73658144104592793  2.3176882956064682 -0.6831685789037637  2.4186382519777783 -0.54338937484285033  2.4632376681129795 -0.45389846284299057  2.4954970617231083 -0.36088149546699527  2.5181750320480205 -0.26559433375959995  2.5327561183148646 -0.16887014895360153  2.5401021021956693 -0.071357634625837815  2.5406217315655342 0.026376346366163261  2.5341514450756852 0.12378524563445339  2.5200472372941509 0.22023840664717084  2.4852893911766012 0.36217068003834346  2.4714367771911165 0.40902351860381564  2.4551388495223994 0.45530867700213185  2.4361709097391513 0.50090132330556114  2.4142528685970319 0.54565467272803103  2.3890458749051198 0.58939442213366722  2.360144284009003 0.63190957486549648  2.3270701736438899 0.67293909092949045  2.2892954526998075 0.71215815865888932  2.2033734397592815 0.78618633148807127  2.1552254978040697 0.82099535757187403  2.1014111931601294 0.85320585832701001  2.0414649197628023 0.88235153347268347  1.9751334299035079 0.90790184575780586  1.9023468711078748 0.92925370759185166  1.8237049910826499 0.94577881778777739  1.7408132706594426 0.95695960780498301  1.6558050594314409 0.96255074788468664  1.5707963267948966 0.96255074788468664 
 0 11 0.78539816339744972 9 2.1598449493429861 9 2.6752624940725638 9 3.12625284571094 9 3.9154859610780979 9 5.0993356341288356 9 5.6912604706542043 9 6.2831853071795862 11
1 6.2831853071795862 -0 0 1 
1 0 -0 0 1 
7 0 0  7 194 33  0 0.44442135961392781  0.043263313738768593 0.44454643193586818  0.084972308660238013 0.44467501371110929  0.1253449377845654 0.44480533483024026  0.16463846647747665 0.44493631544502016  0.20314709160788544 0.44506746271989606  0.24121907653092658 0.44519874564931106  0.32134713078600485 0.44547591532354253  0.36293263903559786 0.44562026334936461  0.40458566001538504 0.44576366219077446  0.44672235598381332 0.44590599181985729  0.48968398031149302 0.44604657131892234  0.53376147515700612 0.44618396536976579  0.61890704691256926 0.44643113265988482  0.65924410347760254 0.4465410154623613  0.70127958907575816 0.44664687184769319  0.74577202638815876 0.44674787844473246  0.79326629767434775 0.44684097569356407  0.84421419606012738 0.44692090525673012  0.9396642067981924 0.44702423360383609  0.98342146798675112 0.44705809369777427  1.0287853786120638 0.44707573601925654  1.0745927789328269 0.44707412516948036  1.11982208937993 0.44705342619233646  1.1632876464557971 0.44701700730767185  1.2580830304608619 0.44690902611676042  1.3089158498383859 0.44682663658305166  1.356327063465731 0.44673147175865319  1.4007674433569979 0.44662870377470154  1.4427866774957063 0.44652129364002974  1.4831539351434155 0.44640995706368375  1.5680714122735284 0.44616090331104424  1.6118872608037058 0.44602332708544751  1.6546421133570282 0.44588270932010826  1.6966239642958467 0.44574041553797183  1.7381687652027762 0.4455970977689771  1.7796824161736637 0.44545289253836756  1.8586486870380672 0.44517989121997631  1.8956597006985159 0.44505246858730529  1.9331098939481792 0.44492518835270284  1.9713144531846223 0.44479810901295119  2.0105399997107569 0.4446717072357585  2.0510194969050515 0.44454698189397968  2.1444396008485764 0.44427641500533477  2.196708245006016 0.44413631948000593  2.2526910013020172 0.44399969175323356  2.3143102252404053 0.44386770023365069  2.3828203281616029 0.44374861408683719  2.4591536736797317 0.44365779498400876  2.6247558170379208 0.4435794996961685  2.7004998762617709 0.44359164242656279  2.7721299064434013 0.44364566628443253  2.839429502925614 0.44373204458783366  2.9018592690842167 0.4438399157236072  2.958403865544232 0.44395706274366259  3.0661149978016704 0.44420608712690945  3.1214268978151836 0.44435381501363036  3.1735503243638243 0.44450695273307  3.2230144622109655 0.44466181445565045  3.2704733307297071 0.44481696128249926  3.3168137129672801 0.44497298599839347  3.3927229639641858 0.44523279210673788  3.4218346864630993 0.44533345823700693  3.4507887837905105 0.44543402930348208  3.4796928143291974 0.44553433752813565  3.5086446807405562 0.44563418747028827  3.5377432759920557 0.4457333494850812  3.5914560432402647 0.44591303400122273  3.6159432723237153 0.44599369839313802  3.6406824733532703 0.44607359613192105  3.6657709544444552 0.44615264155651208  3.6912895699989279 0.44623061893962018  3.7173106155933264 0.44630718785677975  3.7655488502715473 0.44644268006569338  3.7875478328899281 0.44650216638534485  3.8100265029482019 0.4465603459627564  3.833084782157699 0.44661704928810292  3.8568065061633905 0.44667194777762248  3.8812672489911342 0.44672456265790139  3.9267527028727147 0.44681402438778378  3.9475386978035809 0.44685202470580881  3.9689426566219876 0.44688794028568235  3.9910093256950208 0.44692136399177362  4.0137834027346102 0.44695181149289959  4.0373072661097664 0.44697871668385475  4.0777764239155259 0.44701652076989007  4.0943107092525386 0.44702978877103344  4.1111501412539333 0.44704095032602226  4.1282320406382809 0.44704978359982167  4.1454997287423589 0.44705612487549201  4.1628997885048751 0.44705986772297207  4.1844677019867005 0.44706121815306404  4.1885578353650272 0.44706132909845492  4.1926485509080793 0.44706129466740679  4.1967386628347407 0.44706111480778227  4.2008269742598552 0.44706078975193353  4.2049122771942384 0.44706032001670293  4.2319604086089999 0.44705625317372238  4.2546478239770238 0.44704826369660655  4.2769846115022405 0.44703596987010119  4.2989025607543594 0.44701969869466229  4.3203262336904462 0.44699987686313769  4.3411629603260788 0.44697703535072852  4.3858588846881679 0.44692103443593745  4.4095762057494774 0.44688645665410559  4.4325043505530255 0.44684876027116271  4.4547052327098582 0.44680850539758304  4.4762457114291454 0.44676613206714205  4.497200176467846 0.44672195966145101  4.5430909530373063 0.44661925697839927  4.5677807780095359 0.44655978995119688  4.5917956643075764 0.44649834919048581  4.6152094204811016 0.44643536299605013  4.6381045241459731 0.44637111502841975  4.6605800388112728 0.446305735307437  4.7097083232321983 0.44615833800363636  4.7361751431913826 0.44607590015216914  4.7622327542472993 0.44599228089073428  4.7879534825276862 0.44590777996869707  4.8134169548120083 0.44582259107861766  4.8387178367188612 0.44573679928439386  4.8941108774537314 0.44554725370239456  4.9240998761273884 0.44544352165961676  4.9540828086233173 0.44533934419753674  4.9841801764161344 0.44523490304186975  5.014502986885943 0.44513040991599695  5.04516499945818 0.44502611668938358  5.1230411936883504 0.44476646786203361  5.1697635989498192 0.44461534277175696  5.2180831713216964 0.44446562446134097  5.269103168958936 0.44431658475731989  5.3236028230219157 0.444170403138401  5.3821920626439823 0.44403232656278052  5.4838316188742615 0.44383679947734439  5.5261884337254434 0.44376467261648245  5.5717680793211759 0.44369976965377755  5.6201050589979564 0.44364695278719929  5.6708980739341204 0.44361052271104573  5.7239605296083784 0.44359422948165289  5.7877340383590345 0.44360232777323105  5.7962297964750062 0.44360395347785503  5.8046984156535952 0.44360611747567763  5.8131304581667633 0.4436088101795686  5.8215173929189863 0.44361201885851237  5.829851595447245 0.44361572763760743  5.8467635078783502 0.44362429086090699  5.8553360609914495 0.44362918931121786  5.8638370703959213 0.44363459143891582  5.8722608642712517 0.44364047519207855  5.8806030358408341 0.44364681787694554  5.8888604433719651 0.44365359615791722  5.905747610371141 0.44366845608952615  5.914365244854797 0.443676595239404  5.9228821919027297 0.44368517527648371  5.9312974269672907 0.44369416934195538  5.939610822677257 0.44370355194890593  5.9478231488378315 0.44371329898231765  5.9646867327075546 0.44373426946467626  5.9733214568234363 0.44374554879995409  5.9818423126138685 0.44375719774550532  5.9902517257845052 0.44376919051730151  5.9985524799110879 0.44378150350668311  6.0067477164394365 0.44379411528035961  6.0235932105959202 0.4438209476618758  6.032225947655161 0.44383521529619507  6.0407434395564019 0.44384978525433821  6.049149950492712 0.44386463546002958  6.0574497151569906 0.4438797459897485  6.0656469387419829 0.44389509907272834  6.0822654302082189 0.44392706856690228  6.0906760963361402 0.44394370874535433  6.0989825616941573 0.44396058133630401  6.1071893889883295 0.44397766968675162  6.1153009372606508 0.44399495878070733  6.1233213618890456 0.44401243523919132  6.1399649519017654 0.44404946847270976  6.1485701593493527 0.44406906095004889  6.1570754183696597 0.4440888490804375  6.1654856195680168 0.44410881859295032  6.173805362715548 0.4441289566175502  6.1820389567491878 0.44414925168508806  6.1970781549803968 0.44418696662340879  6.2039072437634308 0.44420434428351818  6.2106801087964625 0.44422182052639847  6.2173990547980713 0.44423938960322973  6.2240662685297181 0.44425704619760509  6.2306838187957414 0.44427478542553017  6.2439543403028592 0.44431077510044631  6.2506053973156526 0.44432902862658913  6.25720889636046 0.44434735866341868  6.2637668096515773 0.44436576076635859  6.2702810127388915 0.44438423079668909  6.2767532845078744 0.44440276492154751  6.2831853071795862 0.44442135961392781 
 0 8 0.049645210613650362 6 0.10447917570095132 6 0.15239654008602016 6 0.18778135674308979 6 0.2361672050178919 6 0.29102379265282086 6 0.33930733767789573 6 0.39859640248070666 6 0.45409354559803783 6 0.52118703042832126 6 0.56359241579169417 6 0.59877668737441692 6 0.62740968609083425 6 0.65030547758544877 6 0.66552233895877566 6 0.66908148696095671 6 0.68911129398196203 6 0.7135552246515704 6 0.74395671227964577 6 0.78089549277304537 6 0.8249740114968741 6 0.89116437621618505 6 0.93136347363339989 6 0.93755585536869313 6 0.94401944346198863 6 0.95091466172865335 6 0.95835189590155268 6 0.96639476877526087 6 0.9748555080087602 6 0.98414500066142785 6 0.99199433585913055 6 1 8
7 0 0  7 194 33  3.3916917770594814 0.024517219976655038  3.4108335465636683 0.024234537484685924  3.4288389014698382 0.023937296038221458  3.4458065413278125 0.023628142638881383  3.4618508117269542 0.023308344860138931  3.4770940032441549 0.022977890788972121  3.4916600929562986 0.022635338174165815  3.5211440261095035 0.021882078201037953  3.535766108468795 0.021472419834167193  3.5497047455849815 0.021045271879435532  3.5630384855438435 0.020597195294281969  3.5757748742933364 0.020124783394196703  3.5878585130774714 0.019624917911553661  3.6090512280543967 0.018631878545933313  3.6182413461840022 0.018150597985053273  3.6269150470078091 0.01763920420215084  3.6350298189229835 0.017087975761646553  3.642377562653778 0.016489383710581305  3.6486054289663827 0.015837670396231029  3.6565998917535376 0.014603980015351462  3.6591957232733137 0.014034721237182496  3.6605328306795775 0.013441344155369909  3.660410657693185 0.012841041191067737  3.6588400278098114 0.012249747609299585  3.6560447288172679 0.011684849203387599  3.6476799577288972 0.010461131500938189  3.6412492351977499 0.0098120425419345025  3.6337213220293938 0.0092158277542691829  3.625442913670216 0.0086666973214087912  3.6166151297741798 0.0081570494102661227  3.6072714355396798 0.0076770600866234509  3.5858322744347229 0.0066905934874691474  3.5736803223944587 0.0061958140820821284  3.5608813407031086 0.0057278241523569945  3.547484835828667 0.0052835828399398132  3.5334795076968208 0.0048598067152568333  3.5187863408406632 0.0044532331654767521  3.4895594838953201 0.0037156274730570866  3.4753406252275569 0.0033844855023133819  3.460473771727596 0.0030646504357692709  3.4448457956792282 0.0027548900198824072  3.4283458312316526 0.00245524468207493  3.4108705544413218 0.0021668931579027434  3.3695647721422626 0.0015549597806851932  3.3458168654335778 0.0012475389952047967  3.3198490903150115 0.00095424743055227978  3.2906664765474547 0.00067733903748629423  3.2575821051765743 0.00043324615863080552  3.2201080826583874 0.00024895928898015099  3.1383013863647555 9.0465326155225273e-05  3.1006799093511348 0.00011543524608541261  3.0652358869237544 0.00022373269076045324  3.0322792803600995 0.0003983463111489806  3.0021732154408229 0.00062057620438194037  2.9753933893136897 0.0008674029723004039  2.9251694673042166 0.0014014651722647968  2.8999856506961819 0.001724744975376272  2.8768937002340809 0.0020686481875352492  2.8556237015499115 0.0024271125584653225  2.8358480667532109 0.0027980981028151064  2.8171880954090094 0.0031845795069998764  2.7878742784420547 0.0038573573684118822  2.7769378057009684 0.0041250494321828151  2.7663765517504415 0.0044003353258044433  2.7561630673964204 0.0046837051378670561  2.746280312219437 0.0049757488285933427  2.7367189069894922 0.0052772129738711208  2.7198040929916858 0.005847798768954084  2.7123667011578974 0.0061131896800815993  2.705140168897207 0.0063863830719987314  2.6981178307676843 0.006668389527928721  2.6913059477891506 0.0069601192711607907  2.6847212576645059 0.0072624240512230345  2.6732349402295883 0.0078314406231294233  2.6682539749315723 0.0080940121107055535  2.6634383176478935 0.0083653054851159335  2.6587952845175775 0.008646557154527168  2.6543451011233121 0.0089388435509199799  2.6501191843369645 0.009243136738069006  2.6429912833443541 0.0098140211250648968  2.6399852206213974 0.010076639682065952  2.6371629720785941 0.010348755267214795  2.6345522451018195 0.01063092569869439  2.6321862644780269 0.010923678503329672  2.6301043184928097 0.011227462383735605  2.6271878925190224 0.011752042653290036  2.6261671378747109 0.011966872692838968  2.6253104187628482 0.012186115956360596  2.6246335778813106 0.012408882177728755  2.6241481727412848 0.012634336685429768  2.6238617254505128 0.012861673415549705  2.6237583830982003 0.013143512939564962  2.6237498937282129 0.013196963059078417  2.6237525285497223 0.013250421466991747  2.6237662913145838 0.013303871207522565  2.6237911653633583 0.013357295185416312  2.623827113625314 0.013410676165946267  2.6241383833756715 0.013764069013325771  2.6247500516445457 0.014060324881369466  2.6256919210912608 0.01435158655902528  2.6269410337009198 0.014636742108782016  2.6284675655825995 0.014914634049451743  2.6302337567744294 0.015183947929984938  2.6345836638921227 0.015759365423734583  2.637281412524819 0.016063123810784348  2.640239003044083 0.016355028468194002  2.6434179254741834 0.016635825710688015  2.6467884733556262 0.016906360017174698  2.6503299733344376 0.017167578283964747  2.658634086424795 0.017735141108521986  2.663488890602268 0.01803731220805762  2.6685594413572207 0.018327951058612062  2.67381874810251 0.018608003521715575  2.6792508109281448 0.018878511174784594  2.6848526159389077 0.019140664847493102  2.6976632860017746 0.019705926198262277  2.7049470318659026 0.020005201570552727  2.7124689400798232 0.020294482532799897  2.7202178331492837 0.020574556211161488  2.728192230425555 0.020846236263009917  2.7364027943406475 0.021110400539774008  2.7549842720165958 0.021675452809992675  2.7654377489109052 0.021972714116247325  2.7762565368126966 0.022260941269520614  2.7874644598788914 0.022540876226709163  2.7990902910247928 0.022812953847951466  2.8111702060127763 0.023077381443949305  2.8426410010952132 0.023719896590369275  2.862223198504072 0.024079549535655283  2.8830801631630645 0.024425176702812669  2.9057178998100208 0.024759443867011979  2.9305505671445666 0.025078464887428004  2.9579024427838863 0.025373048000641746  3.0063214005366841 0.025783492320740207  3.0267050763362966 0.025933154512692246  3.0488702870500584 0.026066141297179907  3.072588437773295 0.026173252642248995  3.0976731431549283 0.026246725599351959  3.1239612922052626 0.026279659493041684  3.1555245846804483 0.026263296926645259  3.1597287562385961 0.026260011908632603  3.1639184977472707 0.02625563832304038  3.1680887804437945 0.026250194535275172  3.1722350480868462 0.026243704917691346  3.1763532169564641 0.026236199849591114  3.1847051084780653 0.026218860007210024  3.1889360767982309 0.026208935772849943  3.1931288303903513 0.026197983946541641  3.1972802809578487 0.0261860466255723  3.2013880023317496 0.026173167072118895  3.205450230470686 0.026159389713248164  3.2137496553032423 0.026129153624394004  3.2179803337197628 0.026112575951828199  3.2221567403673852 0.026095080749403931  3.2262781914979461 0.02607671892557711  3.2303444779582007 0.026057538671074916  3.2343558651898188 0.026037585458895784  3.242581389092936 0.025994592758101905  3.2467865255888477 0.025971433867508473  3.2509294173699534 0.025947477897772003  3.2550111748953561 0.025922773122898528  3.2590331044304222 0.025897363565657243  3.2629967080467872 0.02587128899758051  3.2711288172062232 0.025815706280087114  3.2752876067263648 0.025786092139611499  3.2793821313656659 0.02575578720679211  3.2834144637885161 0.025724831977105917  3.287386670140807 0.025693262752251828  3.2913008100499317 0.025661111640150638  3.2992175116380023 0.025594002281512089  3.3032140429050085 0.025558985821317222  3.3071508719227043 0.025523389895760772  3.3110302400578355 0.025487244030827371  3.3148542885469969 0.025450574557086009  3.3186250584966315 0.025413404609690014  3.3264282522272852 0.025334415675568905  3.3304501039054393 0.025292498705538204  3.3344125901010435 0.025250029877486146  3.3383181069662435 0.025207033087751098  3.3421689026217694 0.025163529469808498  3.3459670771569434 0.025119537394270964  3.3528811093400761 0.0250375009763515  3.3560114564467938 0.024999592221917673  3.3591068007124156 0.024961355832128579  3.3621682575908163 0.024922800560724025  3.3651968812271607 0.024883934288641774  3.3681936644579054 0.024844764024017561  3.3741844821155809 0.024765041725276639  3.3771772757515128 0.024724477835928488  3.3801389076538184 0.024683610799523022  3.3830703143413858 0.024642446538176314  3.3859723809167654 0.024600990330738155  3.3888459410661724 0.024559246812792004  3.3916917770594814 0.024517219976655038 
 0 8 0.049645210613650362 6 0.10447917570095132 6 0.15239654008602016 6 0.18778135674308979 6 0.2361672050178919 6 0.29102379265282086 6 0.33930733767789573 6 0.39859640248070666 6 0.45409354559803783 6 0.52118703042832126 6 0.56359241579169417 6 0.59877668737441692 6 0.62740968609083425 6 0.65030547758544877 6 0.66552233895877566 6 0.66908148696095671 6 0.68911129398196203 6 0.7135552246515704 6 0.74395671227964577 6 0.78089549277304537 6 0.8249740114968741 6 0.89116437621618505 6 0.93136347363339989 6 0.93755585536869313 6 0.94401944346198863 6 0.95091466172865335 6 0.95835189590155268 6 0.96639476877526087 6 0.9748555080087602 6 0.98414500066142785 6 0.99199433585913055 6 1 8
1 6.2831853071795862 -0 0 1 
1 0 -0 0 1 
1 0 0 1 0 
2 0 0 1 0 -0 1 0.026400000000000003
1 0 0.026400000000000003 1 0 
2 0 0 1 0 -0 1 0.026400000000000003
2 0 0 1 0 -0 1 0.0066000000000000008
1 0 0.01319999999999999 1 0 
2 0 0 1 0 -0 1 0.0066000000000000008
1 0 0.039599999999999969 1 0 
1 6.2831853071795862 -0 0 1 
1 0 -0 0 1 
Curves 17
2 0.27816735969556172 0.14739999999999998 0.43000000000000005 0 1 0 0 -0 1 1 0 -0 0.026400000000000003
2 0.27816735969556172 0.14739999999999998 0.43000000000000005 0 1 0 0 -0 1 1 0 -0 0.018957056733575506
1 0.27816735969556172 0.14739999999999998 0.45640000000000003 0 1 0 
7 0 0  6 82 17  0.27816735969556167 0.17366799999999996 0.45639999999999997  0.277699201311643 0.17366799999999996 0.45639999999999997  0.27723139566020538 0.1736478734231707 0.45639003783260507  0.27676589458160034 0.17360768007213837 0.45637014056761799  0.27630467305943429 0.17354779752875729 0.45634058722837628  0.27584971965422267 0.17346895682619223 0.45630190660367598  0.27490986346477503 0.17326554164620842 0.45620295068608435  0.27442676043299447 0.17313706150368338 0.45614084609749672  0.27395443124638597 0.17298792351999473 0.45606939674703684  0.27349355125384434 0.17281915846049745 0.45598949425782082  0.2730447746455868 0.17263178537084703 0.45590208597927245  0.27230921170953998 0.17228607162843859 0.45574365918826015  0.27201544539129219 0.17213688259029572 0.45567602108569871  0.27172744936795012 0.17197950708126483 0.4556055283896428  0.27144519087926161 0.17181408409780816 0.45553243136482952  0.27116860743229476 0.17164067235567171 0.45545696238682604  0.2706752616321319 0.17131040074733814 0.4553156465515053  0.27045668020521968 0.17115615724744138 0.45525050609587853  0.27024181521108459 0.17099650850239689 0.45518403255181927  0.27003062194353 0.17083139615057655 0.45511633968564524  0.26982305829977798 0.17066071475652242 0.45504753705332185  0.26941116237978174 0.17030449374408596 0.45490657149878722  0.26920699754370009 0.17011875167461354 0.45483437875938604  0.26900651621112998 0.16992689025010929 0.45476125379402865  0.26880968342752576 0.16972867570156555 0.4546873052549405  0.26861649932765114 0.16952381605440406 0.45461265196912642  0.26816848622130274 0.16902291610327325 0.45443480890982824  0.26791725822338913 0.16872132829967476 0.45433129938088307  0.26767268380089887 0.16840553439452996 0.4542269726545361  0.26743475120134713 0.16807392503906793 0.4541220947566893  0.26720396471380431 0.16772475861093861 0.45401716946125187  0.26673843769549349 0.16695397077812482 0.45379940331438245  0.26650736624811494 0.16653220205131139 0.45368770551554277  0.2662849513361073 0.16608218022335619 0.45357702948895617  0.26607195765720626 0.16559634011632218 0.45346797760459295  0.26587229004942492 0.16506838573172786 0.45336306278340499  0.26553797189128991 0.16399727881497606 0.45318381889125664  0.26539210201445795 0.16344662233448742 0.45310401683541324  0.26526539531819177 0.1628444874445476 0.45303322324034884  0.26516767990591228 0.16219314535578849 0.45297768868634147  0.26510873282239034 0.16149428897346663 0.45294411384866262  0.26509253193555538 0.16007772207239113 0.45293488515809321  0.26512657944858381 0.15943078514997133 0.45295427423643342  0.26519655139345494 0.15881462648892139 0.45299421483562013  0.26529568631974859 0.1582357136256729 0.45305013676024625  0.26541513775531655 0.15770208774825148 0.45311627089354389  0.26571342715238666 0.15658648529198793 0.45327868744630223  0.26591023412558185 0.15600546919575004 0.45338389663249457  0.26612342961142971 0.15547569236646402 0.45349497594517701  0.26634738273624953 0.15498921512481897 0.45360833048660965  0.26658078207155533 0.15453609270206842 0.45372311283953143  0.26703901619613385 0.15373610458950629 0.45394106597698597  0.26725804326368147 0.15338705628874086 0.45404249264985808  0.26748393131930753 0.1530555652047734 0.45414409409759776  0.26771610842395749 0.15273984466463236 0.45424535515121839  0.26795455635158977 0.15243818552393645 0.45434602345617309  0.26840099680734159 0.15191164827348125 0.45452805150678088  0.26860641447671618 0.15168310230709162 0.45460949220732322  0.26881609966820269 0.15146263152538633 0.45469020562420831  0.26903003339573822 0.15124981487205488 0.45477003589252435  0.26924825580697437 0.15104431256686149 0.45484884659051961  0.26966830490642685 0.15066981093495005 0.45499539540255163  0.26986915677215817 0.1504993428988696 0.45506336451124613  0.2700734631291859 0.15033426770505701 0.45513032365743628  0.2702812615653627 0.15017446824471947 0.45519617132551299  0.27049259343397247 0.15001987242854184 0.45526080278081671  0.27096689170750343 0.14969011043503624 0.45540051930932807  0.271231485667635 0.14951730613313394 0.45547499775193351  0.27150136994993052 0.14935199102552651 0.45554735504390514  0.27177660826482969 0.14919418888059868 0.45561738568821469  0.27205724381740637 0.14904399649057312 0.45568486904435374  0.27274185369796339 0.14870316323804067 0.45583971471326085  0.27315124700311905 0.14851968210377278 0.45592453065416189  0.27357113933181565 0.14835182299723759 0.45600326819154707  0.2740011720727687 0.14820032223319846 0.45607519676727865  0.27444096789442857 0.14806596971265137 0.45613960422457073  0.27541342282315201 0.14781404410607479 0.45626126333915723  0.27595009871219361 0.14770273315872806 0.45631566460570072  0.27649698163569586 0.14761781053920461 0.45635752098417853  0.27705090502985347 0.14756065794111975 0.4563858155883343  0.27760872948640297 0.14753199999999997 0.45639999999999997  0.27816735969556167 0.14753199999999997 0.45639999999999997 
 0 7 0.073816223377523943 5 0.15531176523545837 5 0.21129763936373464 5 0.25723180793885797 5 0.30405525166906355 5 0.36792864444509177 5 0.43756300529227554 5 0.49768792189010758 5 0.55191045322323229 5 0.62433677375300722 5 0.68622835412563454 5 0.73695009203912343 5 0.78193323717768637 5 0.83622600477192344 5 0.91187084174088273 5 1 7
7 0 0  6 37 8  0.27816735969556167 0.14753199999999997 0.45640000000000003  0.27902282268014428 0.14753199999999997 0.45640000000000003  0.27986924290138804 0.14759920022714901 0.45636673507968922  0.2806968425098158 0.14773094101568654 0.45630152720098432  0.28149588221912697 0.14792206152607754 0.45620788146916974  0.28225678195121362 0.14816466960141519 0.45609143127018009  0.28334614830943905 0.1485951545679163 0.4558898907361198  0.28371112379918279 0.14875552961213576 0.455815605017384  0.28406510624621406 0.14892680610832934 0.45573725928153119  0.28440825748631665 0.1491082537071694 0.45565544849909495  0.28474076832874196 0.14929926129241997 0.45557071834591589  0.28531993338181344 0.14965902646651122 0.45541400432526191  0.28557040834662412 0.14982451732527022 0.45534288996526756  0.28581443284461355 0.14999558963202095 0.45527046056710674  0.2860521485371143 0.15017207328343893 0.45519693914797399  0.28628368935281878 0.15035384799806747 0.45512253329831137  0.28670593301639608 0.15070400472643108 0.45498190886435691  0.2868980756844452 0.15087113798690413 0.45491585758048392  0.28708569086811797 0.15104219481399681 0.45484940969128224  0.28726884640790606 0.15121714946124362 0.45478269138109889  0.28744759660860292 0.15139599871945394 0.45471582665753446  0.28792295679417435 0.1518941954287534 0.45453349217946676  0.28821084418947901 0.15222119509570028 0.45441800870140309  0.28848597605601517 0.15255997712956962 0.45430307456894931  0.28874840050803408 0.15291082298875622 0.45418933396024092  0.28899792604813396 0.15327410175845876 0.45407751107236671  0.28948345249781399 0.15404726047658585 0.45385333176200521  0.28971799132092169 0.15445868019991477 0.45374126620753136  0.28993734621016826 0.15488520736503161 0.45363318778643552  0.29014068511105656 0.15532745514078447 0.45353025057530899  0.29032679628154967 0.15578599197679302 0.45343381954117851  0.29072348096610617 0.15691302897542558 0.45322436437371727  0.29092040260140728 0.15760452731377358 0.45311692862161429  0.29107485069596839 0.15832655922032637 0.45303021450201864  0.29118109000363335 0.15907116619294639 0.45296969151496697  0.29123535961868507 0.15983123363620863 0.4529387745533463  0.29123535969556169 0.16059999999999997 0.45293877450955045 
 0 7 0.22051503502307102 5 0.33679161734494334 5 0.42959723382463511 5 0.5105741020850636 5 0.65033319107452781 5 0.79781123267485754 5 1 7
7 0 0  6 37 8  0.27816735969556167 0.17366799999999996 0.45640000000000003  0.27902282268014422 0.17366799999999996 0.45640000000000003  0.27986924290138837 0.17360079977285073 0.45636673507968922  0.28069684250981547 0.17346905898431364 0.45630152720098432  0.28149588221912702 0.17327793847392226 0.4562078814691698  0.28225678195121368 0.17303533039858471 0.45609143127018009  0.28334614830943894 0.17260484543208368 0.4558898907361198  0.28371112379918273 0.17244447038786415 0.455815605017384  0.28406510624621412 0.17227319389167053 0.45573725928153119  0.28440825748631665 0.1720917462928305 0.45565544849909495  0.2847407683287419 0.17190073870758002 0.45557071834591589  0.28531993338181344 0.17154097353348871 0.45541400432526191  0.28557040834662417 0.17137548267472971 0.45534288996526756  0.28581443284461355 0.17120441036797898 0.45527046056710674  0.2860521485371143 0.171027926716561 0.45519693914797399  0.28628368935281878 0.17084615200193246 0.45512253329831137  0.28670593301639608 0.17049599527356885 0.45498190886435691  0.2868980756844452 0.17032886201309574 0.45491585758048392  0.28708569086811797 0.17015780518600312 0.45484940969128224  0.28726884640790606 0.16998285053875628 0.45478269138109889  0.28744759660860292 0.16980400128054596 0.45471582665753446  0.28792295679417429 0.16930580457124664 0.45453349217946681  0.28821084418947907 0.16897880490429959 0.45441800870140309  0.28848597605601534 0.16864002287043012 0.45430307456894931  0.28874840050803413 0.16828917701124371 0.45418933396024092  0.28899792604813374 0.16792589824154144 0.45407751107236677  0.28948345249781432 0.16715273952341361 0.45385333176200504  0.28971799132092174 0.16674131980008525 0.4537412662075313  0.28993734621016815 0.16631479263496832 0.45363318778643552  0.29014068511105662 0.1658725448592154 0.45353025057530899  0.29032679628154962 0.16541400802320716 0.45343381954117862  0.29072348096610601 0.16428697102457479 0.45322436437371738  0.29092040260140745 0.16359547268622479 0.45311692862161412  0.29107485069596845 0.16287344077967578 0.45303021450201886  0.29118109000363324 0.16212883380705198 0.45296969151496691  0.29123535961868507 0.16136876636379172 0.4529387745533463  0.29123535969556169 0.16059999999999997 0.45293877450955045 
 0 7 0.2205150350231907 5 0.33679161734510071 5 0.4295972338248048 5 0.51057410208524401 5 0.65033319107468079 5 0.79781123267505005 5 1 7
2 0.27816735969556172 0.17379999999999998 0.43000000000000005 0 1 0 0 -0 1 1 0 -0 0.026400000000000003
2 0.27816735969556172 0.16059999999999997 0.43000000000000005 -2.4492935982947064e-16 -1 0 1 -2.4492935982947064e-16 0 0 0 1 0.023100000000000002
2 0.27816735969556172 0.17379999999999998 0.43000000000000005 0 1 0 0 -0 1 1 0 -0 0.018957056733575485
1 0.29123535969556175 0.16059999999999994 0.43000000000000005 0 0 1 
7 0 0  7 194 33  0.28948457967221675 0.16713399999999992 0.87442135961392786  0.28920189718024769 0.16762362043850068 0.87454643193586834  0.28890465573378332 0.16808137961483355 0.87467501371110945  0.28859550233444303 0.16851010719144893 0.87480533483024026  0.28827570455570062 0.16891304879766306 0.87493631544502015  0.28794525048453401 0.16929359445126843 0.87506746271989599  0.28760269786972753 0.16965508579747546 0.87519874564931111  0.28684943789659961 0.17038244122130833 0.87547591532354241  0.28643977952972888 0.17074053537071832 0.87562026334936482  0.28601263157499723 0.17107951396052032 0.87576366219077428  0.28556455498984373 0.17140154826743165 0.8759059918198574  0.28509214308975844 0.17170705224227009 0.87604657131892261  0.28459227760711542 0.17199498316051404 0.87618396536976562  0.28359923824149513 0.17249691422112834 0.87643113265988482  0.28311795768061476 0.17271324371928978 0.87654101546236174  0.28260656389771283 0.17291631700373192 0.8766468718476933  0.28205533545720846 0.17310525936977225 0.87674787844473256  0.28145674340614268 0.17327545106942702 0.87684097569356434  0.28080503009179275 0.17341913119298208 0.87692090525673005  0.27957133971091319 0.17360316099111225 0.87702423360383608  0.27900208093274431 0.17366274275873453 0.87705809369777443  0.27840870385093164 0.17369331766973012 0.87707573601925659  0.27780840088662945 0.17369052333271698 0.87707412516948047  0.27721710730486132 0.17365459449425405 0.87705342619233639  0.27665220889894937 0.1735904098411051 0.87701700730767196  0.27542849119649998 0.17339778083965404 0.87690902611676058  0.27477940223749614 0.1732493407480859 0.87682663658305138  0.27418318744983095 0.17307485756313487 0.87673147175865351  0.27363405701697058 0.17288195732190609 0.87662870377470181  0.27312440910582786 0.17267510591966026 0.8765212936400294  0.27264441978218518 0.17245496677142982 0.87640995706368385  0.27165795318303082 0.17194671361588282 0.87616090331104446  0.27116317377764387 0.17165687144236255 0.87602332708544739  0.27069518384791874 0.17134956610452809 0.87588270932010837  0.27025094253550158 0.17102570410888698 0.87574041553797211  0.26982716641081861 0.17068477921498079 0.87559709776897687  0.26942059286103853 0.17032460424662221 0.87545289253836767  0.26868298716861883 0.16960292571630434 0.87517989121997641  0.26835184519787519 0.16924978941746066 0.87505246858730479  0.26803201013133104 0.16887842706878137 0.87492518835270305  0.26772224971544423 0.16848578356633176 0.87479810901295152  0.26742260437763671 0.16806878202159964 0.87467170723575827  0.26713425285346443 0.16762448822962411 0.87454698189397972  0.26652231947624688 0.16656811511133446 0.87427641500533493  0.26621489869076664 0.16595681550427102 0.87413631948000581  0.26592160712611385 0.16528465376312829 0.873999691753234  0.26564469873304808 0.16452495877870668 0.87386770023365035  0.26540060585419262 0.16365853521693435 0.87374861408683746  0.26521631898454184 0.16267186426929819 0.87365779498400875  0.26505782502171699 0.16051358716967931 0.87357949969616855  0.26508279494164722 0.15951928782673802 0.87359164242656318  0.26519109238632227 0.15858365507450062 0.87364566628443241  0.26536570600671072 0.15771673817935364 0.87373204458783349  0.26558793589994362 0.15692867446698283 0.87383991572360731  0.26583476266786216 0.15623128027267677 0.87395706274366258  0.26636882486782659 0.15492896377073176 0.87420608712690928  0.2666921046709379 0.15428031401966738 0.8743538150136303  0.26703600788309706 0.1536898336678722 0.87450695273307033  0.26739447225402718 0.15314979349277433 0.8746618144556505  0.26776545779837685 0.15265110798244336 0.87481696128249908  0.26815193920256158 0.15218374069151447 0.87497298599839357  0.26882471706397365 0.15145476989642231 0.87523279210673799  0.26909240912774451 0.15118413585783635 0.87533345823700714  0.26936769502136615 0.15092404994975483 0.87543402930348202  0.26965106483342882 0.15067372998720902 0.87553433752813548  0.2699431085241551 0.15043266060483054 0.87563418747028832  0.2702445726694328 0.15020051752241356 0.8757333494850813  0.27081515846451581 0.14979171273987038 0.87591303400122311  0.27108054937564346 0.14961269126883137 0.87599369839313801  0.27135374276756047 0.14943943434705531 0.87607359613192115  0.27163574922349032 0.14927172836466807 0.87615264155651207  0.27192747896672242 0.14910967070111716 0.87623061893962029  0.27222978374678475 0.1489536012740626 0.87630718785677963  0.27279880031869119 0.14868231614879671 0.87644268006569348  0.27306137180626733 0.14856504030179113 0.87650216638534495  0.27333266518067773 0.1484519964401714 0.87656034596275656  0.2736139168500889 0.14834332068259279 0.87661704928810291  0.27390620324648168 0.14823944876978404 0.8766719477776227  0.27421049643363077 0.14814106946088584 0.87672456265790122  0.27478138082062664 0.14797551878440826 0.87681402438778377  0.27504399937762775 0.14790584746893673 0.87685202470580903  0.27531611496277664 0.14784056710686128 0.8768879402856824  0.27559828539425618 0.14778028990737099 0.87692136399177378  0.27589103819889138 0.14772575115137024 0.87695181149289969  0.2761948220792973 0.14767782317749195 0.87697871668385463  0.27671940234885178 0.14761074954214656 0.87701652076989034  0.27693423238840065 0.14758729421351588 0.87702978877103366  0.27715347565192233 0.14756762274123261 0.87704095032602258  0.27737624187329046 0.14755209018332058 0.87704978359982178  0.27760169638099153 0.1475409544477721 0.877056124875492  0.27782903311111146 0.14753438344350603 0.87705986772297229  0.27811087263512679 0.14753201286937667 0.87706121815306426  0.2781643227546402 0.14753181813722316 0.87706132909845513  0.27821778116255352 0.14753187857725519 0.8770612946674069  0.27827123090308431 0.14753219427376552 0.87706111480778226  0.27832465488097807 0.14753276485294978 0.87706078975193336  0.27837803586150806 0.14753358948290643 0.87706032001670298  0.27873142870888751 0.14754073010236737 0.87705625317372227  0.27902768457693117 0.14755476318318075 0.87704826369660671  0.27931894625458703 0.14757637679021493 0.87703596987010146  0.27960410180434375 0.1476050596535991 0.87701969869466223  0.27988199374501349 0.1476401485438279 0.87699987686313752  0.28015130762554669 0.14768079825613525 0.87697703535072857  0.28072672511929631 0.14778105572444503 0.87692103443593761  0.28103048350634613 0.14784331948867493 0.87688645665410558  0.28132238816375582 0.14791169805394011 0.87684876027116254  0.28160318540624973 0.14798533827285465 0.87680850539758304  0.28187371971273639 0.14806358530043193 0.87676613206714205  0.28213493797952649 0.14814598921025238 0.87672195966145083  0.28270250080408377 0.14833967279662921 0.87661925697839949  0.28300467190361933 0.14845321067969958 0.87655978995119688  0.2832953107541738 0.14857214393190815 0.87649834919048608  0.28357536321727739 0.14869588629031419 0.87643536299605007  0.28384587087034646 0.14882410110607111 0.8763711150284198  0.28410802454305484 0.14895675589352778 0.87630573530743727  0.28467328589382396 0.14926114777535276 0.87615833800363674  0.28497256126611448 0.14943487792607518 0.8760759001521693  0.28526184222836165 0.14961500470022074 0.87599228089073444  0.28554191590672318 0.14980132404856522 0.87590777996869718  0.28581359595857159 0.14999385923505087 0.87582259107861782  0.28607776023533571 0.15019292956790101 0.87573679928439419  0.28664281250555435 0.1506453815171612 0.8755472537023945  0.28694007381180908 0.15090113576449329 0.8754435216596167  0.28722830096508239 0.15116711012165571 0.87533934419753689  0.28750823592227087 0.15144400143832262 0.87523490304186979  0.28778031354351319 0.15173263974057224 0.87513040991599689  0.28804474113951112 0.15203405280654114 0.87502611668938379  0.28868725628593106 0.15282326716105657 0.8747664678620336  0.2890469092312169 0.1533177759811914 0.87461534277175679  0.28939253639837453 0.15384787485456533 0.87446562446134102  0.2897268035625738 0.15442696450195975 0.8743165847573201  0.29004582458298961 0.15506653807871248 0.87417040313840111  0.29034040769620351 0.155775853098852 0.8740323265627804  0.29075085201630196 0.15703907082574609 0.87383679947734438  0.29090051420825408 0.15757244364486203 0.87376467261648227  0.29103350099274156 0.15815426123651627 0.87369976965377749  0.29114061233781063 0.15877862400432416 0.87364695278719928  0.29121408529491377 0.15944036406209552 0.87361052271104589  0.29124701918860346 0.1601345621206309 0.87359422948165311  0.29123065662220698 0.16096779368870331 0.87360232777323099  0.29122737160419437 0.16107877329770237 0.87360395347785502  0.29122299801860213 0.16118936342149537 0.87360611747567751  0.29121755423083689 0.16129942825778817 0.8736088101795686  0.29121106461325308 0.16140884470056985 0.87361201885851258  0.29120355954515287 0.16151750234011253 0.87361572763760775  0.2911862197027717 0.16173782592749958 0.8736242908609072  0.29117629546841162 0.16184941745117082 0.87362918931121791  0.29116534364210339 0.16195997639736534 0.87363459143891586  0.29115340632113407 0.16206941894678115 0.87364047519207866  0.29114052676768065 0.16217767909743377 0.87364681787694554  0.29112674940880995 0.16228470866465639 0.87365359615791716  0.29109651331995579 0.1625033089909203 0.87366845608952626  0.29107993564738993 0.16261470336842493 0.87367659523940422  0.29106244044496565 0.16272462831104767 0.87368517527648371  0.29104407862113885 0.16283306453469981 0.87369416934195543  0.2910248983666367 0.16294000557377014 0.87370355194890614  0.29100494515445746 0.16304545778112464 0.87371329898231787  0.29096195245366369 0.1632615966836988 0.87373426946467625  0.29093879356307023 0.16337203920171298 0.87374554879995403  0.29091483759333375 0.16348079155110232 0.87375719774550553  0.29089013281846027 0.16358788275187597 0.87376919051730162  0.29086472326121898 0.16369334717509901 0.87378150350668327  0.29083864869314224 0.16379722454289267 0.87379411528035977  0.29078306597564885 0.16401022882459312 0.87382094766187601  0.2907534518351732 0.16411909122617593 0.87383521529619534  0.29072314690235374 0.16422620231183563 0.87384978525433821  0.29069219167266758 0.16433161717491632 0.87386463546002957  0.29066062244781354 0.16443539082345326 0.87387974598974849  0.2906284713357124 0.16453757818017264 0.87389509907272822  0.29056136197707383 0.16474411954844492 0.87392706856690217  0.29052634551687895 0.16484830871990877 0.87394370874535432  0.29049074959132248 0.16495086413461699 0.87396058133630394  0.29045460372638904 0.16505184570876694 0.87397766968675161  0.29041793425264772 0.16515131073701922 0.87399495878070732  0.29038076430525178 0.16524931389249803 0.87401243523919159  0.29030177537113067 0.16545196215230634 0.87404946847270981  0.29025985840109997 0.16555631694714515 0.8740690609500491  0.29021738957304788 0.16565903984193822 0.8740888490804376  0.29017439278331281 0.16576019514797632 0.87410881859295031  0.29013088916537022 0.1658598432572104 0.8741289566175503  0.29008689708983271 0.16595804064225156 0.87414925168508795  0.29000486067191317 0.1661366322111211 0.87418696662340889  0.2899669519174794 0.16621742622571664 0.87420434428351812  0.28992871552769028 0.16629725357923628 0.87422182052639852  0.28989016025628578 0.16637614432125494 0.87423938960322978  0.28985129398420356 0.1664541268718441 0.87425704619760514  0.28981212371957932 0.16653122802157164 0.87427478542553039  0.28973240142083834 0.16668523635043805 0.87431077510044619  0.28969183753149025 0.16676210915500439 0.87432902862658912  0.28965097049508476 0.1668381180301029 0.87434735866341862  0.28960980623373805 0.16691328829109681 0.87436576076635875  0.28956835002629988 0.16698764388381049 0.87438423079668925  0.28952660650835366 0.16706120738452931 0.87440276492154756  0.28948457967221675 0.16713399999999992 0.87442135961392786 
 0 8 0.049645210613650362 6 0.10447917570095132 6 0.15239654008602016 6 0.18778135674308979 6 0.2361672050178919 6 0.29102379265282086 6 0.33930733767789573 6 0.39859640248070666 6 0.45409354559803783 6 0.52118703042832126 6 0.56359241579169417 6 0.59877668737441692 6 0.62740968609083425 6 0.65030547758544877 6 0.66552233895877566 6 0.66908148696095671 6 0.68911129398196203 6 0.7135552246515704 6 0.74395671227964577 6 0.78089549277304537 6 0.8249740114968741 6 0.89116437621618505 6 0.93136347363339989 6 0.93755585536869313 6 0.94401944346198863 6 0.95091466172865335 6 0.95835189590155268 6 0.96639476877526087 6 0.9748555080087602 6 0.98414500066142785 6 0.99199433585913055 6 1 8
1 0.26496735969556173 0.16059999999999997 0.9264 1 0 0 
2 0.26496735969556173 0.16059999999999997 0.90000000000000002 1 0 0 -0 0 1 0 -1 0 0.026400000000000003
2 0.29136735969556171 0.16059999999999997 0.90000000000000002 1 0 0 -0 0 1 0 -1 0 0.026400000000000003
2 0.26496735969556173 0.16059999999999997 0.90000000000000002 1 0 0 -0 0 1 0 -1 0 0.0066000000000000008
2 0.29136735969556171 0.16059999999999997 0.90000000000000002 1 0 0 -0 0 1 0 -1 0 0.0066000000000000008
1 0.25176735969556174 0.16059999999999997 0.90660000000000007 1 0 0 
Polygon3D 0
PolygonOnTriangulations 0
Surfaces 9
2 0.27816735969556172 0.14739999999999998 0.43000000000000005 0 1 0 0 -0 1 1 0 -0 0.026400000000000003
1 0.27816735969556172 0.14739999999999998 0.43000000000000005 0 1 0 0 -0 1 1 0 -0 
4 0.27816735969556172 0.16059999999999997 0.43000000000000005 0 0 1 1 0 -0 -0 1 0 0.023100000000000002
2 0.27816735969556172 0.16059999999999997 0.43000000000000005 0 0 1 1 0 -0 -0 1 0 0.013068000000000001
1 0.27816735969556172 0.17379999999999998 0.43000000000000005 0 1 0 0 -0 1 1 0 -0 
2 0.26496735969556173 0.16059999999999997 0.90000000000000002 1 0 0 -0 0 1 0 -1 0 0.026400000000000003
1 0.26496735969556173 0.16059999999999997 0.90000000000000002 1 0 0 -0 0 1 0 -1 0 
1 0.29136735969556171 0.16059999999999997 0.90000000000000002 1 0 0 -0 0 1 0 -1 0 
2 0.25176735969556174 0.16059999999999997 0.90000000000000002 1 0 0 -0 0 1 0 -1 0 0.0066000000000000008
Triangulations 0

TShapes 63
Ve
1e-07
0.278167359695562 0.1606 0.9
0 0

0101101
*
Ve
1e-07
0.278167359695562 0.1474 0.4564
0 0

0101101
*
Ve
1e-07
0.278167359695562 0.1474 0.448957056733576
0 0

0101101
*
Ve
2.00001e-07
0.278167359695562 0.173668 0.4564
0 0

0101101
*
Ve
1e-07
0.278167359695562 0.1738 0.4564
0 0

0101101
*
Ve
2.00001e-07
0.278167359695562 0.147532 0.4564
0 0

0101101
*
Ve
2.00001e-07
0.291235359695562 0.1606 0.452938774509552
0 0

0101101
*
Ve
1e-07
0.278167359695562 0.1606 0.4531
0 0

0101101
*
Ve
1e-07
0.278167359695562 0.1606 0.4069
0 0

0101101
*
Ve
1e-07
0.278167359695562 0.1738 0.448957056733576
0 0

0101101
*
Ve
2.00001e-07
0.289484579672217 0.167134 0.874421359613925
0 0

0101101
*
Ve
1e-07
0.291367359695562 0.1606 0.9264
0 0

0101101
*
Ve
1e-07
0.264967359695562 0.1606 0.9264
0 0

0101101
*
Ve
2.00001e-07
0.264967359695562 0.1606 0.9066
0 0

0101101
*
Ve
2.00001e-07
0.291367359695562 0.1606 0.9066
0 0

0101101
*
Ed
 1e-07 1 1 0
1  1 0 0 6.28318530717959
2  1 1 0 0 6.28318530717959
2  2 2 0 0 6.28318530717959
0

0101000
+62 0 -62 0 *
Ed
 1e-07 1 1 0
1  2 0 0 6.28318530717959
2  3 2 0 0 6.28318530717959
2  4 3 0 0 6.28318530717959
0

0101000
+61 0 -61 0 *
Ed
 1e-07 1 1 0
1  3 0 0.0262680000000004 0.0264
3  5 6CN 1 0 0.0262680000000004 0.0264
0

0101000
+60 0 -59 0 *
Ed
 1e-07 1 1 0
1  4 0 0 1
2  7 1 0 0 1
2  8 4 0 0 1
0

0101000
+60 0 -58 0 *
Ed
 1e-07 1 1 0
1  3 0 0 0.000131999999999549
3  5 6CN 1 0 0 0.000131999999999549
0

0101000
+62 0 -58 0 *
Ed
 1e-07 1 1 0
1  5 0 0 1
2  9 1 0 0 1
2  10 4 0 0 1
0

0101000
+58 0 -57 0 *
Ed
 1e-07 1 1 0
1  6 0 0 1
2  11 1 0 0 1
2  12 4 0 0 1
0

0101000
+60 0 -57 0 *
Ed
 1e-07 1 1 0
1  7 0 0 6.28318530717959
2  13 1 0 0 6.28318530717959
2  14 5 0 0 6.28318530717959
0

0101000
+59 0 -59 0 *
Ed
 1e-07 1 1 0
1  8 0 4.71238898038469 7.85398163397448
3  15 16CN 3 0 4.71238898038469 7.85398163397448
0

0101000
-56 0 +55 0 *
Ed
 1e-07 1 1 1
2  17 3 0 0 6.28318530717959
0

0101000
+55 0 -55 0 *
Ed
 1e-07 1 1 1
2  18 3 0 0 6.28318530717959
0

0101000
+56 0 -56 0 *
Ed
 1e-07 1 1 0
1  9 0 0 6.28318530717959
2  19 5 0 0 6.28318530717959
2  20 3 0 0 6.28318530717959
0

0101000
+54 0 -54 0 *
Ed
 1e-07 1 1 0
1  10 0 0.0229387745095521 0.444421359613925
3  21 22CN 4 0 0.0229387745095521 0.444421359613925
0

0101000
+57 0 -53 6 *
Ed
 1e-07 1 1 0
1  11 0 0 1
2  23 4 1 0 1
2  24 6 0 0 1
0

0101000
+53 0 -53 0 *
Ed
 1e-07 1 1 0
1  12 0 0 0.0264
3  25 26CN 6 0 0 0.0264
0

0101000
-52 0 +51 0 *
Ed
 1e-07 1 1 0
1  13 0 0 6.28318530717959
2  27 6 0 0 6.28318530717959
2  28 7 0 0 6.28318530717959
0

0101000
+51 0 -51 0 *
Ed
 1e-07 1 1 0
1  14 0 0 6.28318530717959
2  29 6 0 0 6.28318530717959
2  30 8 0 0 6.28318530717959
0

0101000
+52 0 -52 0 *
Ed
 1e-07 1 1 0
1  15 0 0 6.28318530717959
2  31 7 0 0 6.28318530717959
2  32 9 0 0 6.28318530717959
0

0101000
+50 0 -50 0 *
Ed
 1e-07 1 1 0
1  16 0 0 6.28318530717959
2  33 8 0 0 6.28318530717959
2  34 9 0 0 6.28318530717959
0

0101000
+49 0 -49 0 *
Ed
 1e-07 1 1 0
1  17 0 0.0132 0.0396
3  35 36CN 9 0 0.0132 0.0396
0

0101000
+50 0 -49 0 *
Wi

0101100
+48 0 *
Wi

0101100
-47 0 *
Wi

0101100
+46 0 -45 0 +44 0 +48 0 -44 0 -43 0 +42 0 -46 0 -41 0 *
Wi

0101100
+40 0 +39 0 -40 0 -38 0 *
Wi

0101100
-37 0 *
Wi

0101100
+47 0 *
Wi

0101100
+45 1 -42 1 -36 1 -35 0 +36 1 +43 1 *
Wi

0101100
+41 0 *
Wi

0101100
-37 0 *
Wi

0101100
+34 0 +33 0 -34 0 -32 0 *
Wi

0101100
+35 0 *
Wi

0101100
+33 0 *
Wi

0101100
-31 0 *
Wi

0101100
+32 0 *
Wi

0101100
-30 0 *
Wi

0101100
-30 0 +29 0 +31 0 -29 0 *
Fa
0  1e-07 2 0

0111000
+28 0 +27 0 *
Fa
0  1e-07 1 0

0111000
+26 0 *
Fa
0  1e-07 3 0

0111000
+25 0 +24 0 +23 0 *
Fa
0  1e-07 4 1

0111000
+22 0 *
Fa
0  1e-07 5 0

0111000
+21 0 +20 0 *
Fa
0  1e-07 6 0

0101000
+19 0 +18 0 *
Fa
0  1e-07 7 0

0111000
+17 0 +16 0 *
Fa
0  1e-07 8 0

0111000
+15 0 +14 0 *
Fa
0  1e-07 9 0

0111000
+13 0 *
Sh

0101100
-12 1 +11 1 -10 1 +9 0 +8 1 +7 0 -6 0 +5 0 -4 0 *
So

0100000
+3 0 *
Co

1100000
+63 0 -62 4 +61 4 +60 4 -59 4 +58 4 +57 4 +56 4 -55 4 +54 4 
+53 5 -52 5 +51 5 +50 5 -49 5 -48 4 +47 4 +46 4 -45 4 +44 4 
-43 4 +42 4 -41 4 -40 4 -39 4 +38 4 +37 4 -36 4 -35 5 +34 5 
+33 5 -32 5 +31 5 -30 5 -29 5 -28 4 -27 4 +26 4 -25 4 -24 4 
-23 4 +22 5 +21 4 +20 4 +19 5 +18 5 -17 5 -16 5 +15 5 +14 5 
-13 5 -12 4 +11 4 -10 4 +9 5 +8 4 +7 5 -6 5 +5 5 -4 5 
+3 5 +2 5 *

+1 0 