DBRep_DrawableShape

CASCADE Topology V1, (c) Matra-Datavision
Locations 20
1
1.11022302462516e-16              -1               0               0 
              1 1.11022302462516e-16               0               0 
              0               0               1               0 
1
              1               0               0               0 
              0               1               0               0 
              0               0               1               0 
2  1 1 2 1 0
1
1.11022302462516e-16              -1               0               0 
              1 1.11022302462516e-16               0               0 
              0               0               1               0 
2  4 1 2 1 0
1
1.11022302462516e-16              -1               0               0 
              1 1.11022302462516e-16               0               0 
              0               0               1               0 
2  6 1 2 1 0
2  6 1 1 1 2 1 0
2  6 -1 0
2  6 1 1 1 6 -1 0
2  1 1 6 -1 0
2  6 1 1 1 4 1 1 -1 6 -1 0
2  1 -1 6 -1 0
2  4 1 6 -1 0
2  6 1 1 1 4 1 6 -1 0
2  6 1 1 1 0
2  6 1 1 1 4 1 2 1 0
2  6 1 1 1 4 -1 1 -1 6 -1 0
2  4 -1 1 -1 6 -1 0
2  6 1 1 1 4 1 0
Curve2ds 350
1 0.040000000000000036 0 0 -1 
1 0.44 0 0 1 
1 0 -0.019800000000000005 1 0 
1 0 0.079199999999999993 1 0 
1 0 0 0 -1 
1 0.44 0 0 1 
1 0 0 1 0 
1 0 0.44 1 0 
1 0 0.11880000000000002 1 0 
1 0.040000000000000036 0 0 1 
2 0 0 1 0 -0 1 0.23999999999999999
1 0 0.040000000000000008 1 0 
8 0.2500991234696861 4.462289856915004
1 1.5707963267948966 0.040000000000000008 1 0 
2 0 0 1.1102230246251565e-16 1 -1 1.1102230246251565e-16 0.23999999999999999
2 0 0.059400000000000008 1.1102230246251565e-16 -1 1 1.1102230246251565e-16 0.23999999999999999
2 0 0 1.1102230246251565e-16 -1 1 1.1102230246251565e-16 0.23999999999999999
1 0.44 0 0 1 
1 0.040000000000000036 0 0 -1 
2 0 0.059400000000000008 1.1102230246251565e-16 -1 1 1.1102230246251565e-16 0.23999999999999999
2 0 0 1.1102230246251565e-16 -1 1 1.1102230246251565e-16 0.23999999999999999
1 0.36080000000000001 0.099000000000000005 1 0 
1 0.040000000000000036 0 0 1 
1 0 0 1 0 
1 0.040000000000000036 0 0 1 
1 0.36080000000000001 0.019800000000000005 0 1 
1 0.040000000000000036 0 0 -1 
1 0.36080000000000001 0.019800000000000005 1 0 
1 0.040000000000000036 0 0 1 
1 0 0 0 1 
1 0.36080000000000001 0.019800000000000005 1 0 
1 0 0 1 0 
1 0 0 1 0 
2 0.020000000000000018 0.039599999999999969 1 0 -0 1 0.01319999999999999
1 0 0 1 0 
1 0 0.11880000000000002 1 0 
1 0 0 0 1 
2 0 0 1 0 -0 1 0.23999999999999999
1 0 0 1 0 
8 0.2500991234696861 4.462289856915004
1 1.5707963267948966 0 1 0 
2 0 0 1.1102230246251565e-16 1 -1 1.1102230246251565e-16 0.23999999999999999
2 0 0.059400000000000008 1.1102230246251565e-16 -1 1 1.1102230246251565e-16 0.23999999999999999
2 0 0 1.1102230246251565e-16 -1 1 1.1102230246251565e-16 0.23999999999999999
1 0.44 0 0 1 
1 0 0 0 -1 
2 0 0.059400000000000008 1.1102230246251565e-16 -1 1 1.1102230246251565e-16 0.23999999999999999
2 0 0 1.1102230246251565e-16 -1 1 1.1102230246251565e-16 0.23999999999999999
1 0.36080000000000001 0.099000000000000005 1 0 
1 0 0 0 1 
1 0 0 1 0 
1 0 0 0 1 
1 0.36080000000000001 0.019800000000000005 0 1 
1 0 0 0 -1 
8 -4.0000000001150227e-07 0.040000399999999992
1 0 0.23253309441883752 1 0 
8 -4.0000000001150227e-07 0.040000399999999992
1 6.0330861837098988 0 0 1 
1 4.4622898569150022 0 0 1 
1 2.8914935301201052 0 0 1 
8 -4.0000000001150227e-07 0.040000399999999992
1 0 0.23253309441883752 1 0 
8 -4.0000000001150227e-07 0.040000399999999992
1 0.25009912346968771 0 0 1 
1 4.962488103854378 0 0 1 
1 3.3916917770594806 0 0 1 
1 0 0.44 1 0 
1 0 -0.11880000000000002 1 0 
8 1.8208954502645827 2.891493530120107
1 -1.5707963267948961 0.040000000000000008 1 0 
2 0 0 1.1102230246251565e-16 -1 1 1.1102230246251565e-16 0.23999999999999999
8 0.2500991234696861 1.3206972033252107
1 4.7123889803846897 0.040000000000000008 1 0 
2 0 0 1.1102230246251565e-16 -1 1 1.1102230246251565e-16 0.23999999999999999
2 0 0 1.1102230246251565e-16 -1 1 1.1102230246251565e-16 0.23999999999999999
2 0 0.059400000000000008 -1 -2.2204460492503131e-16 2.2204460492503131e-16 -1 0.23999999999999999
2 0 0.059400000000000008 1 0 -0 1 0.23999999999999999
2 0 0 1 0 -0 1 0.23999999999999999
8 0 0.2500991234696861
1 1.5707963267948963 0.040000000000000008 1 0 
2 0 0 1.1102230246251565e-16 1 -1 1.1102230246251565e-16 0.23999999999999999
8 0 0.2500991234696861
1 4.7123889803846897 0.040000000000000008 1 0 
2 0 0 1.1102230246251565e-16 -1 1 1.1102230246251565e-16 0.23999999999999999
2 0 0 1.1102230246251565e-16 -1 1 1.1102230246251565e-16 0.23999999999999999
2 0 0.059400000000000008 -1 -2.2204460492503131e-16 2.2204460492503131e-16 -1 0.23999999999999999
2 0 0.059400000000000008 1 0 -0 1 0.23999999999999999
2 0 0 1 0 -0 1 0.23999999999999999
8 6.0330861837099006 6.2831853071795862
1 -4.7123889803846897 0.040000000000000008 1 0 
2 0 0 1.1102230246251565e-16 1 -1 1.1102230246251565e-16 0.23999999999999999
8 6.0330861837099006 6.2831853071795862
1 -1.5707963267948966 0.040000000000000008 1 0 
2 0 0 1.1102230246251565e-16 -1 1 1.1102230246251565e-16 0.23999999999999999
8 3.3916917770594788 4.462289856915004
1 -1.5707963267948961 0.040000000000000008 1 0 
2 0 0 1.1102230246251565e-16 -1 1 1.1102230246251565e-16 0.23999999999999999
8 4.9624881038543762 6.0330861837099006
1 -4.7123889803846897 0.040000000000000008 1 0 
2 0 0 1.1102230246251565e-16 1 -1 1.1102230246251565e-16 0.23999999999999999
8 4.9624881038543762 6.0330861837099006
1 -1.5707963267948966 0.040000000000000008 1 0 
2 0 0 1.1102230246251565e-16 -1 1 1.1102230246251565e-16 0.23999999999999999
2 0 0.059400000000000008 1.1102230246251565e-16 1 -1 1.1102230246251565e-16 0.23999999999999999
2 0 0 1.1102230246251565e-16 1 -1 1.1102230246251565e-16 0.23999999999999999
8 4.462289856915004 4.7123889803846897
1 -1.5707963267948966 0.040000000000000008 1 0 
2 0 0 1.1102230246251565e-16 -1 1 1.1102230246251565e-16 0.23999999999999999
2 0 0.059400000000000008 1.1102230246251565e-16 1 -1 1.1102230246251565e-16 0.23999999999999999
2 0 0 1.1102230246251565e-16 1 -1 1.1102230246251565e-16 0.23999999999999999
8 4.7123889803846897 4.9624881038543762
1 -1.5707963267948966 0.040000000000000008 1 0 
2 0 0 1.1102230246251565e-16 -1 1 1.1102230246251565e-16 0.23999999999999999
2 0 0 -1 -2.2204460492503131e-16 2.2204460492503131e-16 -1 0.20000000000000001
1 0 0 1 0 
1 0 -0.099000000000000005 1 0 
1 0 0.079199999999999993 1 0 
1 0 0 1 0 
1 0 -0.079200000000000007 1 0 
2 0.020000000000000018 0.039599999999999969 1 0 -0 1 0.01319999999999999
1 0 0.079200000000000007 1 0 
1 6.2831853071795862 -0 0 1 
1 0 -0 0 1 
1 0 0.020642943266424508 1 0 
7 0 0  10 56 7  4.7123889803846888 0.60824557891020914  4.767077088895145 0.60824557891020914  4.8217648284867538 0.60347305878032553  4.8755317676723795 0.59392861837683275  4.9274486641643307 0.57973942466808237  4.9767120848426005 0.5611666615676667  5.0227387886850918 0.53856664013310362  5.0651835711975748 0.51234154958945211  5.1038851807653796 0.48290149958726181  5.1387858292331492 0.45064517405425164  5.2243793088259363 0.35523918451785363  5.2672838831286564 0.287063593126683  5.2987424673454369 0.21345774983028551  5.3195828857511511 0.13626876401918936  5.3305243046124815 0.057000980286744607  5.3319201638281815 -0.02301091570045628  5.3237644592751163 -0.10248008536428763  5.3056977852540488 -0.18006385560516974  5.2770172229425576 -0.25419290951735807  5.2073284285388963 -0.37470840015564078  5.1711940826971787 -0.42339721985321005  5.1285722786933547 -0.46836423055044635  5.0792756158130938 -0.50876466619629357  5.0233360874262871 -0.54369412372761872  4.9610363005020188 -0.57217074966174553  4.8933713783186246 -0.59325027400686847  4.8222442261425709 -0.60624968242121224  4.7498440143152019 -0.61092701958587736  4.6245298540384585 -0.6047671374693675  4.5712697612635171 -0.59751632835941726  4.5193249067482508 -0.5857085971459568  4.4695337718245955 -0.56951609859389318  4.4225805241997787 -0.54922563571113237  4.3789338090196299 -0.52519832847926107  4.3388526027886156 -0.4978250930456623  4.3024423665591591 -0.46749599588518781  4.2697232320342167 -0.43458703921084574  4.1970412805945738 -0.34675300539450371  4.1616367978872946 -0.28904689733732047  4.1342949929577113 -0.22753506630020942  4.1145727180881293 -0.16330749647144099  4.1020565007028278 -0.097308388491411643  4.0964785467015945 -0.030375325173996742  4.0977468977824225 0.03669860928863132  4.1059535375439209 0.10310870097485003  4.1213590728119822 0.16799434222377291  4.1672158237664627 0.29278452698621871  4.1976668328825326 0.35268938723856991  4.2359643144009169 0.4091379577293992  4.2824862254201435 0.46107149108865997  4.3375866344431415 0.50726882176240906  4.4012627976480871 0.54642520775814774  4.4731103320373222 0.57703143256003386  4.5508880004053935 0.59784040694921714  4.6316385701622202 0.60824557891020925  4.7123889803846897 0.60824557891020925 
 0 11 0.78539816339743884 9 2.1598449493429386 9 3.1906800388020828 9 3.9638063558964278 9 5.1234958315380092 9 6.2831853071795862 11
8 1.8208954502645827 2.891493530120107
1 -1.5707963267948961 0 1 0 
2 0 0 1.1102230246251565e-16 -1 1 1.1102230246251565e-16 0.23999999999999999
8 0.2500991234696861 1.3206972033252107
1 4.7123889803846897 0 1 0 
2 0 0 1.1102230246251565e-16 -1 1 1.1102230246251565e-16 0.23999999999999999
2 0 0 1.1102230246251565e-16 -1 1 1.1102230246251565e-16 0.23999999999999999
2 0 0.059400000000000008 -1 -2.2204460492503131e-16 2.2204460492503131e-16 -1 0.23999999999999999
2 0 0.059400000000000008 1 0 -0 1 0.23999999999999999
2 0 0 1 0 -0 1 0.23999999999999999
8 0 0.2500991234696861
1 1.5707963267948963 0 1 0 
2 0 0 1.1102230246251565e-16 1 -1 1.1102230246251565e-16 0.23999999999999999
8 0 0.2500991234696861
1 4.7123889803846897 0 1 0 
2 0 0 1.1102230246251565e-16 -1 1 1.1102230246251565e-16 0.23999999999999999
2 0 0 1.1102230246251565e-16 -1 1 1.1102230246251565e-16 0.23999999999999999
2 0 0.059400000000000008 -1 -2.2204460492503131e-16 2.2204460492503131e-16 -1 0.23999999999999999
2 0 0.059400000000000008 1 0 -0 1 0.23999999999999999
2 0 0 1 0 -0 1 0.23999999999999999
8 6.0330861837099006 6.2831853071795862
1 -4.7123889803846897 0 1 0 
2 0 0 1.1102230246251565e-16 1 -1 1.1102230246251565e-16 0.23999999999999999
8 6.0330861837099006 6.2831853071795862
1 -1.5707963267948966 0 1 0 
2 0 0 1.1102230246251565e-16 -1 1 1.1102230246251565e-16 0.23999999999999999
8 3.3916917770594788 4.462289856915004
1 -1.5707963267948961 0 1 0 
2 0 0 1.1102230246251565e-16 -1 1 1.1102230246251565e-16 0.23999999999999999
8 4.9624881038543762 6.0330861837099006
1 -4.7123889803846897 0 1 0 
2 0 0 1.1102230246251565e-16 1 -1 1.1102230246251565e-16 0.23999999999999999
8 4.9624881038543762 6.0330861837099006
1 -1.5707963267948966 0 1 0 
2 0 0 1.1102230246251565e-16 -1 1 1.1102230246251565e-16 0.23999999999999999
2 0 0.059400000000000008 1.1102230246251565e-16 1 -1 1.1102230246251565e-16 0.23999999999999999
2 0 0 1.1102230246251565e-16 1 -1 1.1102230246251565e-16 0.23999999999999999
8 4.462289856915004 4.7123889803846897
1 -1.5707963267948966 0 1 0 
2 0 0 1.1102230246251565e-16 -1 1 1.1102230246251565e-16 0.23999999999999999
2 0 0.059400000000000008 1.1102230246251565e-16 1 -1 1.1102230246251565e-16 0.23999999999999999
2 0 0 1.1102230246251565e-16 1 -1 1.1102230246251565e-16 0.23999999999999999
8 4.7123889803846897 4.9624881038543762
1 -1.5707963267948966 0 1 0 
2 0 0 1.1102230246251565e-16 -1 1 1.1102230246251565e-16 0.23999999999999999
2 0 0 -1 -2.2204460492503131e-16 2.2204460492503131e-16 -1 0.19595917942265426
1 0 -0.20135792079033096 1 0 
8 -4.0000000001150227e-07 0.040000399999999992
1 0 0.23253309441883752 1 0 
8 -4.0000000001150227e-07 0.040000399999999992
1 0.25009912346968771 0 0 1 
1 1.8208954502645842 0 0 1 
1 4.9624881038543771 0 0 1 
8 -4.0000000001150227e-07 0.040000399999999992
1 0 0.23253309441883752 1 0 
8 -4.0000000001150227e-07 0.040000399999999992
1 6.0330861837098988 0 0 1 
1 1.3206972033252087 0 0 1 
1 4.4622898569150014 0 0 1 
1 0 0.11880000000000002 1 0 
1 0.040000000000000036 0 0 1 
1 0.44 0 0 1 
1 0.040000000000000036 0 0 -1 
1 0.36080000000000001 0.099000000000000005 1 0 
1 0.040000000000000036 0 0 1 
1 0 0 1 0 
1 0.040000000000000036 0 0 1 
1 0.36080000000000001 0.019800000000000005 0 1 
1 0.040000000000000036 0 0 -1 
1 0.040000000000000036 0 0 -1 
1 0.44 0 0 1 
1 0.36080000000000001 0.019800000000000005 1 0 
1 0.040000000000000036 0 0 1 
1 0 0.11880000000000002 1 0 
1 0.040000000000000036 0 0 1 
1 0.44 0 0 1 
1 0.040000000000000036 0 0 -1 
1 0.36080000000000001 0.099000000000000005 1 0 
1 0.040000000000000036 0 0 1 
1 0 0 1 0 
1 0.040000000000000036 0 0 1 
1 0.36080000000000001 0.019800000000000005 0 1 
1 0.040000000000000036 0 0 -1 
1 0.040000000000000036 0 0 -1 
1 0.44 0 0 1 
1 0.36080000000000001 0.019800000000000005 1 0 
1 0.040000000000000036 0 0 1 
8 -4.0000000001150227e-07 0.040000399999999992
1 0 0.23253309441883752 1 0 
8 -4.0000000001150227e-07 0.040000399999999992
1 6.0330861837098988 0 0 1 
1 4.4622898569150022 0 0 1 
1 2.8914935301201057 0 0 1 
8 -4.0000000001150227e-07 0.040000399999999992
1 0 0.23253309441883752 1 0 
8 -4.0000000001150227e-07 0.040000399999999992
1 0.25009912346968771 0 0 1 
1 1.8208954502645842 0 0 1 
1 4.9624881038543771 0 0 1 
8 -4.0000000001150227e-07 0.040000399999999992
1 0 0.23253309441883752 1 0 
8 -4.0000000001150227e-07 0.040000399999999992
1 6.0330861837098988 0 0 1 
1 1.3206972033252087 0 0 1 
1 4.4622898569150022 0 0 1 
8 -4.0000000001150227e-07 0.040000399999999992
1 0 0.23253309441883752 1 0 
8 -4.0000000001150227e-07 0.040000399999999992
1 0.25009912346968771 0 0 1 
1 4.962488103854378 0 0 1 
1 3.391691777059481 0 0 1 
1 0.040000000000000036 0 0 1 
1 0 0.11880000000000002 1 0 
1 0.040000000000000036 0 0 -1 
1 0.44 0 0 1 
1 0.040000000000000036 0 0 1 
1 0 0.079200000000000007 1 0 
1 0.36080000000000001 0.099000000000000005 1 0 
1 0.040000000000000036 0 0 1 
1 0 0 1 0 
1 0.040000000000000036 0 0 -1 
1 0 0 0 1 
1 0.36080000000000001 0.019800000000000005 0 1 
1 0.040000000000000036 0 0 1 
1 0 0 1 0 
1 0.36080000000000001 0.019800000000000005 1 0 
1 6.2831853071795862 -6.2831853071795862 0 1 
1 0 -6.2831853071795862 0 1 
1 0 0.058557056733575502 1 0 
7 0 0  10 56 7  1.5707963267948966 0.60824557891020914  1.5161082182844414 0.60824557891020914  1.4614204786880789 0.60347305878032553  1.4076535395043748 0.59392861837683275  1.355736643001046 0.57973942466808237  1.3064732223167286 0.5611666615676667  1.2604465184862725 0.53856664013310362  1.2180017359848567 0.51234154958945211  1.1793001264102334 0.48290149958726181  1.1443994779464366 0.45064517405425164  1.0588059983536495 0.35523918451785363  1.0159014240336326 0.287063593126683  0.98444283987269043 0.21345774983028551  0.96360242138471219 0.13626876401918936  0.95266100257867947 0.057000980286744607  0.95126514342482549 -0.02301091570045628  0.95942084788948701 -0.10248008536428763  0.97748752193188648 -0.18006385560516974  1.0061680842370282 -0.25419290951735807  1.0758568786406892 -0.37470840015564078  1.1119912244414631 -0.42339721985321005  1.154613028510812 -0.46836423055044635  1.2039096910797524 -0.50876466619629357  1.2598492194756545 -0.54369412372761872  1.3221490065712715 -0.57217074966174553  1.3898139287260165 -0.59325027400686847  1.4609410810630095 -0.60624968242121224  1.5333412928643844 -0.61092701958587736  1.6586554531411282 -0.6047671374693675  1.711915545912094 -0.59751632835941726  1.7638604004290872 -0.5857085971459568  1.8136515353424634 -0.56951609859389318  1.8606047829586412 -0.54922563571113237  1.9042514981448526 -0.52519832847926107  1.9443327043860694 -0.4978250930456623  1.9807429406157446 -0.46749599588518781  2.0134620751453678 -0.43458703921084574  2.086144026585012 -0.34675300539450371  2.121548509287186 -0.28904689733732047  2.1488903142238707 -0.22753506630020942  2.168612589090571 -0.16330749647144099  2.181128806471154 -0.097308388491411643  2.1867067604761661 -0.030375325173996742  2.1854384093984178 0.03669860928863132  2.1772317696307004 0.10310870097485003  2.1618262343676031 0.16799434222377291  2.1159694834131231 0.29278452698621871  2.0855184745942097 0.35268938723856991  2.0472209920990281 0.4091379577293992  2.0006990844849497 0.46107149108865997  1.945598672144115 0.50726882176240906  1.8819225106562953 0.54642520775814774  1.8100749745208304 0.57703143256003386  1.7322973070658918 0.59784040694921714  1.6515467370173655 0.60824557891020925  1.5707963267948966 0.60824557891020925 
 0 11 0.78539816339744972 9 2.1598449493429883 9 3.190680038802137 9 3.9638063558965029 9 5.1234958315380457 9 6.2831853071795862 11
1 6.2831853071795862 -0 0 1 
1 0 -0 0 1 
1 6.2831853071795862 -6.2831853071795862 0 1 
1 0 -6.2831853071795862 0 1 
1 0 -1.5707963267948966 1 0 
1 0 1.5707963267948966 1 0 
1 0 0.11880000000000002 1 0 
1 0 0 0 1 
1 0.44 0 0 1 
1 0 0 0 -1 
1 0.36080000000000001 0.099000000000000005 1 0 
1 0 0 0 1 
1 0 0 1 0 
1 0 0 0 1 
1 0.36080000000000001 0.019800000000000005 0 1 
1 0 0 0 -1 
1 0 0 0 -1 
1 0.44 0 0 1 
1 0 0 0 1 
1 0.36080000000000001 0.019800000000000005 1 0 
1 0 0.11880000000000002 1 0 
1 0 0 0 1 
1 0.44 0 0 1 
1 0 0 0 -1 
1 0.36080000000000001 0.099000000000000005 1 0 
1 0 0 0 1 
1 0 0 1 0 
1 0 0 0 1 
1 0.36080000000000001 0.019800000000000005 0 1 
1 0 0 0 -1 
1 0 0 0 -1 
1 0.44 0 0 1 
1 0 0 0 1 
1 0.36080000000000001 0.019800000000000005 1 0 
1 0 0 0 1 
1 0 0.11880000000000002 1 0 
1 0 0 0 -1 
1 0.44 0 0 1 
1 0 0 0 1 
1 0 0.079200000000000007 1 0 
1 0.36080000000000001 0.099000000000000005 1 0 
1 0 0 0 1 
1 0 0 1 0 
1 0 0 0 -1 
1 0 0 0 1 
1 0.36080000000000001 0.019800000000000005 0 1 
1 0 0 0 1 
1 0 0 1 0 
1 0.36080000000000001 0.019800000000000005 1 0 
1 0 0.44 1 0 
1 0 -0.11880000000000002 1 0 
1 0 0 1 0 
1 0 0.44 1 0 
1 0 0.44 1 0 
1 0 -0.11880000000000002 1 0 
1 0 -0.099000000000000005 1 0 
1 0 0.079199999999999993 1 0 
1 0 0 1 0 
1 0 -0.079200000000000007 1 0 
2 0.020000000000000018 0.039599999999999969 1 0 -0 1 0.01319999999999999
1 0 0.079200000000000007 1 0 
1 0 0 1 0 
1 0 0 1 0 
1 0 -0.019800000000000005 1 0 
1 0 0.079199999999999993 1 0 
2 0.020000000000000018 0.039599999999999969 1 0 -0 1 0.01319999999999999
1 0 0 1 0 
1 0 -0.099000000000000005 1 0 
1 0 0.079199999999999993 1 0 
1 0 0 1 0 
1 0 -0.079200000000000007 1 0 
2 0.020000000000000018 0.039599999999999969 1 0 -0 1 0.01319999999999999
1 0 0.079200000000000007 1 0 
1 0 0 1 0 
1 0 0.44 1 0 
1 0 0 1 0 
1 0 0 1 0 
1 0 -0.019800000000000005 1 0 
1 0 0.079199999999999993 1 0 
2 0.020000000000000018 0.039599999999999969 1 0 -0 1 0.01319999999999999
1 0 0 1 0 
1 0 0 1 0 
1 0 0.44 1 0 
1 0 -0.11880000000000002 1 0 
1 0 0.44 1 0 
1 0 -0.079200000000000007 1 0 
1 0 0.079199999999999993 1 0 
1 0 -0.099000000000000005 1 0 
1 0 -0.079200000000000007 1 0 
1 0 0 1 0 
1 0 0.079200000000000007 1 0 
2 0 0 1 0 -0 1 0.013200000000000002
2 0.020000000000000018 0.039599999999999969 1 0 -0 1 0.01319999999999999
1 0 0 1 0 
1 0 0 1 0 
1 0 0 1 0 
1 0 0.079199999999999993 1 0 
1 0 -0.019800000000000005 1 0 
1 0 0 1 0 
2 0 0 1 0 -0 1 0.013200000000000002
2 0.020000000000000018 0.039599999999999969 1 0 -0 1 0.01319999999999999
1 0 0.058557056733575502 1 0 
7 0 0  10 56 7  1.5707963267948966 0.60824557891020914  1.5161082182844414 0.60824557891020914  1.4614204786880789 0.60347305878032553  1.4076535395043748 0.59392861837683275  1.355736643001046 0.57973942466808237  1.3064732223167286 0.5611666615676667  1.2604465184862725 0.53856664013310362  1.2180017359848567 0.51234154958945211  1.1793001264102334 0.48290149958726181  1.1443994779464366 0.45064517405425164  1.0588059983536495 0.35523918451785363  1.0159014240336326 0.287063593126683  0.98444283987269043 0.21345774983028551  0.96360242138471219 0.13626876401918936  0.95266100257867947 0.057000980286744607  0.95126514342482549 -0.02301091570045628  0.95942084788948701 -0.10248008536428763  0.97748752193188648 -0.18006385560516974  1.0061680842370282 -0.25419290951735807  1.0758568786406892 -0.37470840015564078  1.1119912244414631 -0.42339721985321005  1.154613028510812 -0.46836423055044635  1.2039096910797524 -0.50876466619629357  1.2598492194756545 -0.54369412372761872  1.3221490065712715 -0.57217074966174553  1.3898139287260165 -0.59325027400686847  1.4609410810630095 -0.60624968242121224  1.5333412928643844 -0.61092701958587736  1.6586554531411282 -0.6047671374693675  1.711915545912094 -0.59751632835941726  1.7638604004290872 -0.5857085971459568  1.8136515353424634 -0.56951609859389318  1.8606047829586412 -0.54922563571113237  1.9042514981448526 -0.52519832847926107  1.9443327043860694 -0.4978250930456623  1.9807429406157446 -0.46749599588518781  2.0134620751453678 -0.43458703921084574  2.086144026585012 -0.34675300539450371  2.121548509287186 -0.28904689733732047  2.1488903142238707 -0.22753506630020942  2.168612589090571 -0.16330749647144099  2.181128806471154 -0.097308388491411643  2.1867067604761661 -0.030375325173996742  2.1854384093984178 0.03669860928863132  2.1772317696307004 0.10310870097485003  2.1618262343676031 0.16799434222377291  2.1159694834131231 0.29278452698621871  2.0855184745942097 0.35268938723856991  2.0472209920990281 0.4091379577293992  2.0006990844849497 0.46107149108865997  1.945598672144115 0.50726882176240906  1.8819225106562953 0.54642520775814774  1.8100749745208304 0.57703143256003386  1.7322973070658918 0.59784040694921714  1.6515467370173655 0.60824557891020925  1.5707963267948966 0.60824557891020925 
 0 11 0.78539816339744972 9 2.1598449493429883 9 3.190680038802137 9 3.9638063558965029 9 5.1234958315380457 9 6.2831853071795862 11
1 6.2831853071795862 -0 0 1 
1 0 -0 0 1 
1 6.2831853071795862 -0 0 1 
1 0 -0 0 1 
1 0 0.020642943266424508 1 0 
7 0 0  10 56 7  4.7123889803846888 0.60824557891020914  4.767077088895145 0.60824557891020914  4.8217648284867538 0.60347305878032553  4.8755317676723795 0.59392861837683275  4.9274486641643307 0.57973942466808237  4.9767120848426005 0.5611666615676667  5.0227387886850918 0.53856664013310362  5.0651835711975748 0.51234154958945211  5.1038851807653796 0.48290149958726181  5.1387858292331492 0.45064517405425164  5.2243793088259363 0.35523918451785363  5.2672838831286564 0.287063593126683  5.2987424673454369 0.21345774983028551  5.3195828857511511 0.13626876401918936  5.3305243046124815 0.057000980286744607  5.3319201638281815 -0.02301091570045628  5.3237644592751163 -0.10248008536428763  5.3056977852540488 -0.18006385560516974  5.2770172229425576 -0.25419290951735807  5.2073284285388963 -0.37470840015564078  5.1711940826971787 -0.42339721985321005  5.1285722786933547 -0.46836423055044635  5.0792756158130938 -0.50876466619629357  5.0233360874262871 -0.54369412372761872  4.9610363005020188 -0.57217074966174553  4.8933713783186246 -0.59325027400686847  4.8222442261425709 -0.60624968242121224  4.7498440143152019 -0.61092701958587736  4.6245298540384585 -0.6047671374693675  4.5712697612635171 -0.59751632835941726  4.5193249067482508 -0.5857085971459568  4.4695337718245955 -0.56951609859389318  4.4225805241997787 -0.54922563571113237  4.3789338090196299 -0.52519832847926107  4.3388526027886156 -0.4978250930456623  4.3024423665591591 -0.46749599588518781  4.2697232320342167 -0.43458703921084574  4.1970412805945738 -0.34675300539450371  4.1616367978872946 -0.28904689733732047  4.1342949929577113 -0.22753506630020942  4.1145727180881293 -0.16330749647144099  4.1020565007028278 -0.097308388491411643  4.0964785467015945 -0.030375325173996742  4.0977468977824225 0.03669860928863132  4.1059535375439209 0.10310870097485003  4.1213590728119822 0.16799434222377291  4.1672158237664627 0.29278452698621871  4.1976668328825326 0.35268938723856991  4.2359643144009169 0.4091379577293992  4.2824862254201435 0.46107149108865997  4.3375866344431415 0.50726882176240906  4.4012627976480871 0.54642520775814774  4.4731103320373222 0.57703143256003386  4.5508880004053935 0.59784040694921714  4.6316385701622202 0.60824557891020925  4.7123889803846897 0.60824557891020925 
 0 11 0.78539816339743884 9 2.1598449493429386 9 3.1906800388020828 9 3.9638063558964278 9 5.1234958315380092 9 6.2831853071795862 11
1 0 0.058557056733575502 1 0 
7 0 0  10 56 7  1.5707963267948966 0.60824557891020914  1.5161082182844414 0.60824557891020914  1.4614204786880789 0.60347305878032553  1.4076535395043748 0.59392861837683275  1.355736643001046 0.57973942466808237  1.3064732223167286 0.5611666615676667  1.2604465184862725 0.53856664013310362  1.2180017359848567 0.51234154958945211  1.1793001264102334 0.48290149958726181  1.1443994779464366 0.45064517405425164  1.0588059983536495 0.35523918451785363  1.0159014240336326 0.287063593126683  0.98444283987269043 0.21345774983028551  0.96360242138471219 0.13626876401918936  0.95266100257867947 0.057000980286744607  0.95126514342482549 -0.02301091570045628  0.95942084788948701 -0.10248008536428763  0.97748752193188648 -0.18006385560516974  1.0061680842370282 -0.25419290951735807  1.0758568786406892 -0.37470840015564078  1.1119912244414631 -0.42339721985321005  1.154613028510812 -0.46836423055044635  1.2039096910797524 -0.50876466619629357  1.2598492194756545 -0.54369412372761872  1.3221490065712715 -0.57217074966174553  1.3898139287260165 -0.59325027400686847  1.4609410810630095 -0.60624968242121224  1.5333412928643844 -0.61092701958587736  1.6586554531411282 -0.6047671374693675  1.711915545912094 -0.59751632835941726  1.7638604004290872 -0.5857085971459568  1.8136515353424634 -0.56951609859389318  1.8606047829586412 -0.54922563571113237  1.9042514981448526 -0.52519832847926107  1.9443327043860694 -0.4978250930456623  1.9807429406157446 -0.46749599588518781  2.0134620751453678 -0.43458703921084574  2.086144026585012 -0.34675300539450371  2.121548509287186 -0.28904689733732047  2.1488903142238707 -0.22753506630020942  2.168612589090571 -0.16330749647144099  2.181128806471154 -0.097308388491411643  2.1867067604761661 -0.030375325173996742  2.1854384093984178 0.03669860928863132  2.1772317696307004 0.10310870097485003  2.1618262343676031 0.16799434222377291  2.1159694834131231 0.29278452698621871  2.0855184745942097 0.35268938723856991  2.0472209920990281 0.4091379577293992  2.0006990844849497 0.46107149108865997  1.945598672144115 0.50726882176240906  1.8819225106562953 0.54642520775814774  1.8100749745208304 0.57703143256003386  1.7322973070658918 0.59784040694921714  1.6515467370173655 0.60824557891020925  1.5707963267948966 0.60824557891020925 
 0 11 0.78539816339744972 9 2.1598449493429883 9 3.190680038802137 9 3.9638063558965029 9 5.1234958315380457 9 6.2831853071795862 11
1 6.2831853071795862 -0 0 1 
1 0 -0 0 1 
1 6.2831853071795862 -0 0 1 
1 0 -0 0 1 
1 0 0.020642943266424508 1 0 
7 0 0  10 56 7  4.7123889803846888 0.60824557891020914  4.767077088895145 0.60824557891020914  4.8217648284867538 0.60347305878032553  4.8755317676723795 0.59392861837683275  4.9274486641643307 0.57973942466808237  4.9767120848426005 0.5611666615676667  5.0227387886850918 0.53856664013310362  5.0651835711975748 0.51234154958945211  5.1038851807653796 0.48290149958726181  5.1387858292331492 0.45064517405425164  5.2243793088259363 0.35523918451785363  5.2672838831286564 0.287063593126683  5.2987424673454369 0.21345774983028551  5.3195828857511511 0.13626876401918936  5.3305243046124815 0.057000980286744607  5.3319201638281815 -0.02301091570045628  5.3237644592751163 -0.10248008536428763  5.3056977852540488 -0.18006385560516974  5.2770172229425576 -0.25419290951735807  5.2073284285388963 -0.37470840015564078  5.1711940826971787 -0.42339721985321005  5.1285722786933547 -0.46836423055044635  5.0792756158130938 -0.50876466619629357  5.0233360874262871 -0.54369412372761872  4.9610363005020188 -0.57217074966174553  4.8933713783186246 -0.59325027400686847  4.8222442261425709 -0.60624968242121224  4.7498440143152019 -0.61092701958587736  4.6245298540384585 -0.6047671374693675  4.5712697612635171 -0.59751632835941726  4.5193249067482508 -0.5857085971459568  4.4695337718245955 -0.56951609859389318  4.4225805241997787 -0.54922563571113237  4.3789338090196299 -0.52519832847926107  4.3388526027886156 -0.4978250930456623  4.3024423665591591 -0.46749599588518781  4.2697232320342167 -0.43458703921084574  4.1970412805945738 -0.34675300539450371  4.1616367978872946 -0.28904689733732047  4.1342949929577113 -0.22753506630020942  4.1145727180881293 -0.16330749647144099  4.1020565007028278 -0.097308388491411643  4.0964785467015945 -0.030375325173996742  4.0977468977824225 0.03669860928863132  4.1059535375439209 0.10310870097485003  4.1213590728119822 0.16799434222377291  4.1672158237664627 0.29278452698621871  4.1976668328825326 0.35268938723856991  4.2359643144009169 0.4091379577293992  4.2824862254201435 0.46107149108865997  4.3375866344431415 0.50726882176240906  4.4012627976480871 0.54642520775814774  4.4731103320373222 0.57703143256003386  4.5508880004053935 0.59784040694921714  4.6316385701622202 0.60824557891020925  4.7123889803846897 0.60824557891020925 
 0 11 0.78539816339743884 9 2.1598449493429386 9 3.1906800388020828 9 3.9638063558964278 9 5.1234958315380092 9 6.2831853071795862 11
1 0 0.058557056733575502 1 0 
7 0 0  10 56 7  1.5707963267948966 0.60824557891020914  1.5161082182844414 0.60824557891020914  1.4614204786880789 0.60347305878032553  1.4076535395043748 0.59392861837683275  1.355736643001046 0.57973942466808237  1.3064732223167286 0.5611666615676667  1.2604465184862725 0.53856664013310362  1.2180017359848567 0.51234154958945211  1.1793001264102334 0.48290149958726181  1.1443994779464366 0.45064517405425164  1.0588059983536495 0.35523918451785363  1.0159014240336326 0.287063593126683  0.98444283987269043 0.21345774983028551  0.96360242138471219 0.13626876401918936  0.95266100257867947 0.057000980286744607  0.95126514342482549 -0.02301091570045628  0.95942084788948701 -0.10248008536428763  0.97748752193188648 -0.18006385560516974  1.0061680842370282 -0.25419290951735807  1.0758568786406892 -0.37470840015564078  1.1119912244414631 -0.42339721985321005  1.154613028510812 -0.46836423055044635  1.2039096910797524 -0.50876466619629357  1.2598492194756545 -0.54369412372761872  1.3221490065712715 -0.57217074966174553  1.3898139287260165 -0.59325027400686847  1.4609410810630095 -0.60624968242121224  1.5333412928643844 -0.61092701958587736  1.6586554531411282 -0.6047671374693675  1.711915545912094 -0.59751632835941726  1.7638604004290872 -0.5857085971459568  1.8136515353424634 -0.56951609859389318  1.8606047829586412 -0.54922563571113237  1.9042514981448526 -0.52519832847926107  1.9443327043860694 -0.4978250930456623  1.9807429406157446 -0.46749599588518781  2.0134620751453678 -0.43458703921084574  2.086144026585012 -0.34675300539450371  2.121548509287186 -0.28904689733732047  2.1488903142238707 -0.22753506630020942  2.168612589090571 -0.16330749647144099  2.181128806471154 -0.097308388491411643  2.1867067604761661 -0.030375325173996742  2.1854384093984178 0.03669860928863132  2.1772317696307004 0.10310870097485003  2.1618262343676031 0.16799434222377291  2.1159694834131231 0.29278452698621871  2.0855184745942097 0.35268938723856991  2.0472209920990281 0.4091379577293992  2.0006990844849497 0.46107149108865997  1.945598672144115 0.50726882176240906  1.8819225106562953 0.54642520775814774  1.8100749745208304 0.57703143256003386  1.7322973070658918 0.59784040694921714  1.6515467370173655 0.60824557891020925  1.5707963267948966 0.60824557891020925 
 0 11 0.78539816339744972 9 2.1598449493429883 9 3.190680038802137 9 3.9638063558965029 9 5.1234958315380457 9 6.2831853071795862 11
1 6.2831853071795862 -0 0 1 
1 0 -0 0 1 
1 0 0.020642943266424508 1 0 
7 0 0  10 56 7  4.7123889803846888 0.60824557891020914  4.767077088895145 0.60824557891020914  4.8217648284867538 0.60347305878032553  4.8755317676723795 0.59392861837683275  4.9274486641643307 0.57973942466808237  4.9767120848426005 0.5611666615676667  5.0227387886850918 0.53856664013310362  5.0651835711975748 0.51234154958945211  5.1038851807653796 0.48290149958726181  5.1387858292331492 0.45064517405425164  5.2243793088259363 0.35523918451785363  5.2672838831286564 0.287063593126683  5.2987424673454369 0.21345774983028551  5.3195828857511511 0.13626876401918936  5.3305243046124815 0.057000980286744607  5.3319201638281815 -0.02301091570045628  5.3237644592751163 -0.10248008536428763  5.3056977852540488 -0.18006385560516974  5.2770172229425576 -0.25419290951735807  5.2073284285388963 -0.37470840015564078  5.1711940826971787 -0.42339721985321005  5.1285722786933547 -0.46836423055044635  5.0792756158130938 -0.50876466619629357  5.0233360874262871 -0.54369412372761872  4.9610363005020188 -0.57217074966174553  4.8933713783186246 -0.59325027400686847  4.8222442261425709 -0.60624968242121224  4.7498440143152019 -0.61092701958587736  4.6245298540384585 -0.6047671374693675  4.5712697612635171 -0.59751632835941726  4.5193249067482508 -0.5857085971459568  4.4695337718245955 -0.56951609859389318  4.4225805241997787 -0.54922563571113237  4.3789338090196299 -0.52519832847926107  4.3388526027886156 -0.4978250930456623  4.3024423665591591 -0.46749599588518781  4.2697232320342167 -0.43458703921084574  4.1970412805945738 -0.34675300539450371  4.1616367978872946 -0.28904689733732047  4.1342949929577113 -0.22753506630020942  4.1145727180881293 -0.16330749647144099  4.1020565007028278 -0.097308388491411643  4.0964785467015945 -0.030375325173996742  4.0977468977824225 0.03669860928863132  4.1059535375439209 0.10310870097485003  4.1213590728119822 0.16799434222377291  4.1672158237664627 0.29278452698621871  4.1976668328825326 0.35268938723856991  4.2359643144009169 0.4091379577293992  4.2824862254201435 0.46107149108865997  4.3375866344431415 0.50726882176240906  4.4012627976480871 0.54642520775814774  4.4731103320373222 0.57703143256003386  4.5508880004053935 0.59784040694921714  4.6316385701622202 0.60824557891020925  4.7123889803846897 0.60824557891020925 
 0 11 0.78539816339743884 9 2.1598449493429386 9 3.1906800388020828 9 3.9638063558964278 9 5.1234958315380092 9 6.2831853071795862 11
1 6.2831853071795862 -6.2831853071795862 0 1 
1 0 -6.2831853071795862 0 1 
1 0 -1.5707963267948966 1 0 
1 0 1.5707963267948966 1 0 
1 6.2831853071795862 -6.2831853071795862 0 1 
1 0 -6.2831853071795862 0 1 
1 0 -1.5707963267948966 1 0 
1 0 1.5707963267948966 1 0 
1 6.2831853071795862 -6.2831853071795862 0 1 
1 0 -6.2831853071795862 0 1 
1 0 -1.5707963267948966 1 0 
1 0 1.5707963267948966 1 0 
Curves 122
1 0.44 -0.059400000000000008 0.40000000000000002 0 1 0 
1 0.44 -0.039600000000000003 0.35999999999999999 0 0 1 
1 0.44 -0.059400000000000008 0.35999999999999999 -0 1 0 
1 0.44 -0.059400000000000008 0.35999999999999999 0 0 1 
1 0 0.059400000000000008 0.40000000000000002 1 0 -0 
2 0 0 0.40000000000000002 0 0 1 1 0 -0 -0 1 0 0.23999999999999999
1 0.44 -0.059400000000000008 0.40000000000000002 0 1 0 
1 0.36080000000000001 0.039600000000000003 0.40000000000000002 1 0 -0 
1 0 -0.059400000000000008 0.40000000000000002 1 0 -0 
1 0.36080000000000001 -0.039600000000000003 0.40000000000000002 -0 1 0 
1 0.36080000000000001 -0.039600000000000003 0.40000000000000002 1 0 -0 
1 0.36080000000000001 -0.039600000000000003 0.35999999999999999 1 0 -0 
1 0.36080000000000001 -0.039600000000000003 0.35999999999999999 0 0 1 
2 0.40039999999999998 -0.039600000000000003 0.38 0 1 0 0 -0 1 1 0 -0 0.013200000000000002
1 0 0.059400000000000008 0.35999999999999999 1 0 -0 
2 0 0 0.35999999999999999 0 0 1 1 0 -0 -0 1 0 0.23999999999999999
1 0.44 -0.059400000000000008 0.35999999999999999 -0 1 0 
1 0.36080000000000001 0.039600000000000003 0.35999999999999999 1 0 -0 
1 0 -0.059400000000000008 0.35999999999999999 1 0 -0 
1 0.36080000000000001 -0.039600000000000003 0.35999999999999999 -0 1 0 
1 0.23253309441883752 -0.059400000000000008 0.35999999999999999 0 0 1 
1 0.23253309441883752 0.059400000000000008 0.35999999999999999 0 0 1 
1 0.44 0.059400000000000008 0.35999999999999999 0 0 1 
2 0 0 0.40000000000000002 0 0 1 1 0 -0 -0 1 0 0.23999999999999999
2 0 0 0.40000000000000002 0 0 1 1 0 -0 -0 1 0 0.23999999999999999
2 0 0 0.40000000000000002 0 0 1 1 0 -0 -0 1 0 0.20000000000000001
1 0.44 0.039600000000000003 0.35999999999999999 0 0 1 
1 0.36080000000000001 0.039600000000000003 0.35999999999999999 0 0 1 
2 0.40039999999999998 0.039600000000000003 0.38 0 1 0 0 -0 1 1 0 -0 0.013200000000000002
1 0.40039999999999998 -0.039600000000000003 0.39319999999999999 0 1 0 
2 0.40039999999999998 -0.018957056733575495 0.38 0 1 0 0 -0 1 1 0 -0 0.013200000000000002
2 0 0 0.35999999999999999 0 0 1 1 0 -0 -0 1 0 0.23999999999999999
2 0 0 0.35999999999999999 0 0 1 1 0 -0 -0 1 0 0.23999999999999999
2 0 0 0.35999999999999999 0 0 1 1 0 -0 -0 1 0 0.19595917942265426
1 0.23253309441883752 0.059400000000000008 0.35999999999999999 0 0 1 
1 0.23253309441883752 -0.059400000000000008 0.35999999999999999 0 0 1 
1 0 0.059400000000000008 0.40000000000000002 1 0 -0 
1 0.44 -0.059400000000000008 0.40000000000000002 0 1 0 
1 0.36080000000000001 0.039600000000000003 0.40000000000000002 1 0 -0 
1 0 -0.059400000000000008 0.40000000000000002 1 0 -0 
1 0.36080000000000001 -0.039600000000000003 0.40000000000000002 -0 1 0 
1 0.44 -0.059400000000000008 0.40000000000000002 0 1 0 
1 0.36080000000000001 -0.039600000000000003 0.40000000000000002 1 0 -0 
1 0 0.059400000000000008 0.40000000000000002 1 0 -0 
1 0.44 -0.059400000000000008 0.40000000000000002 0 1 0 
1 0.36080000000000001 0.039600000000000003 0.40000000000000002 1 0 -0 
1 0 -0.059400000000000008 0.40000000000000002 1 0 -0 
1 0.36080000000000001 -0.039600000000000003 0.40000000000000002 -0 1 0 
1 0.44 -0.059400000000000008 0.40000000000000002 0 1 0 
1 0.36080000000000001 -0.039600000000000003 0.40000000000000002 1 0 -0 
1 0.23253309441883752 -0.059400000000000008 0.35999999999999999 0 0 1 
1 0.23253309441883752 0.059400000000000008 0.35999999999999999 0 0 1 
1 0.23253309441883752 -0.059400000000000008 0.35999999999999999 0 0 1 
1 0.23253309441883752 0.059400000000000008 0.35999999999999999 0 0 1 
1 0 0.059400000000000008 0.40000000000000002 1 0 -0 
1 0.44 -0.059400000000000008 0.40000000000000002 0 1 0 
1 0.36080000000000001 0.039600000000000003 0.40000000000000002 1 0 -0 
1 0 -0.059400000000000008 0.40000000000000002 1 0 -0 
1 0.36080000000000001 -0.039600000000000003 0.40000000000000002 -0 1 0 
1 0.36080000000000001 -0.039600000000000003 0.40000000000000002 1 0 -0 
2 0 0 0.40000000000000002 -2.4492935982947064e-16 -1 0 1 -2.4492935982947064e-16 0 0 0 1 0.20000000000000001
2 0.40039999999999998 0.018957056733575495 0.38 0 1 0 0 -0 1 1 0 -0 0.013200000000000002
1 0.40039999999999998 -0.039600000000000003 0.39319999999999999 0 1 0 
2 0.40039999999999998 0 0.38 -2.4492935982947064e-16 -1 0 1 -2.4492935982947064e-16 0 0 0 1 0.023100000000000002
1 0 0.059400000000000008 0.35999999999999999 1 0 -0 
1 0.44 -0.059400000000000008 0.35999999999999999 -0 1 0 
1 0.36080000000000001 0.039600000000000003 0.35999999999999999 1 0 -0 
1 0 -0.059400000000000008 0.35999999999999999 1 0 -0 
1 0.36080000000000001 -0.039600000000000003 0.35999999999999999 -0 1 0 
1 0.44 -0.059400000000000008 0.35999999999999999 -0 1 0 
1 0.36080000000000001 -0.039600000000000003 0.35999999999999999 1 0 -0 
1 0 0.059400000000000008 0.35999999999999999 1 0 -0 
1 0.44 -0.059400000000000008 0.35999999999999999 -0 1 0 
1 0.36080000000000001 0.039600000000000003 0.35999999999999999 1 0 -0 
1 0 -0.059400000000000008 0.35999999999999999 1 0 -0 
1 0.36080000000000001 -0.039600000000000003 0.35999999999999999 -0 1 0 
1 0.44 -0.059400000000000008 0.35999999999999999 -0 1 0 
1 0.36080000000000001 -0.039600000000000003 0.35999999999999999 1 0 -0 
1 0 0.059400000000000008 0.35999999999999999 1 0 -0 
1 0.44 -0.059400000000000008 0.35999999999999999 -0 1 0 
1 0.36080000000000001 0.039600000000000003 0.35999999999999999 1 0 -0 
1 0 -0.059400000000000008 0.35999999999999999 1 0 -0 
1 0.36080000000000001 -0.039600000000000003 0.35999999999999999 -0 1 0 
1 0.36080000000000001 -0.039600000000000003 0.35999999999999999 1 0 -0 
1 0.44 0.059400000000000008 0.35999999999999999 0 0 1 
1 0.44 -0.059400000000000008 0.35999999999999999 0 0 1 
1 0.44 0.059400000000000008 0.35999999999999999 0 0 1 
1 0.44 0.039600000000000003 0.35999999999999999 0 0 1 
1 0.36080000000000001 0.039600000000000003 0.35999999999999999 0 0 1 
2 0.40039999999999998 0.039600000000000003 0.38 0 1 0 0 -0 1 1 0 -0 0.013200000000000002
1 0.36080000000000001 -0.039600000000000003 0.35999999999999999 0 0 1 
1 0.44 -0.039600000000000003 0.35999999999999999 0 0 1 
2 0.40039999999999998 -0.039600000000000003 0.38 0 1 0 0 -0 1 1 0 -0 0.013200000000000002
1 0.44 0.039600000000000003 0.35999999999999999 0 0 1 
1 0.36080000000000001 0.039600000000000003 0.35999999999999999 0 0 1 
2 0.40039999999999998 0.039600000000000003 0.38 0 1 0 0 -0 1 1 0 -0 0.013200000000000002
1 0.44 -0.059400000000000008 0.35999999999999999 0 0 1 
1 0.36080000000000001 -0.039600000000000003 0.35999999999999999 0 0 1 
1 0.44 -0.039600000000000003 0.35999999999999999 0 0 1 
2 0.40039999999999998 -0.039600000000000003 0.38 0 1 0 0 -0 1 1 0 -0 0.013200000000000002
1 0.44 -0.059400000000000008 0.35999999999999999 0 0 1 
1 0.44 0.059400000000000008 0.35999999999999999 0 0 1 
1 0.44 0.039600000000000003 0.35999999999999999 0 0 1 
1 0.36080000000000001 0.039600000000000003 0.35999999999999999 0 0 1 
2 0.40039999999999998 0.039600000000000003 0.38 0 1 0 0 -0 1 1 0 -0 0.013200000000000002
1 0.36080000000000001 -0.039600000000000003 0.35999999999999999 0 0 1 
1 0.44 -0.039600000000000003 0.35999999999999999 0 0 1 
2 0.40039999999999998 -0.039600000000000003 0.38 0 1 0 0 -0 1 1 0 -0 0.013200000000000002
2 0.40039999999999998 0.018957056733575495 0.38 0 1 0 0 -0 1 1 0 -0 0.013200000000000002
1 0.40039999999999998 -0.039600000000000003 0.39319999999999999 0 1 0 
1 0.40039999999999998 -0.039600000000000003 0.39319999999999999 0 1 0 
2 0.40039999999999998 -0.018957056733575495 0.38 0 1 0 0 -0 1 1 0 -0 0.013200000000000002
2 0.40039999999999998 0.018957056733575495 0.38 0 1 0 0 -0 1 1 0 -0 0.013200000000000002
1 0.40039999999999998 -0.039600000000000003 0.39319999999999999 0 1 0 
1 0.40039999999999998 -0.039600000000000003 0.39319999999999999 0 1 0 
2 0.40039999999999998 -0.018957056733575495 0.38 0 1 0 0 -0 1 1 0 -0 0.013200000000000002
2 0.40039999999999998 0.018957056733575495 0.38 0 1 0 0 -0 1 1 0 -0 0.013200000000000002
1 0.40039999999999998 -0.039600000000000003 0.39319999999999999 0 1 0 
2 0.40039999999999998 -0.018957056733575495 0.38 0 1 0 0 -0 1 1 0 -0 0.013200000000000002
2 0.40039999999999998 0 0.38 -2.4492935982947064e-16 -1 0 1 -2.4492935982947064e-16 0 0 0 1 0.023100000000000002
2 0.40039999999999998 0 0.38 -2.4492935982947064e-16 -1 0 1 -2.4492935982947064e-16 0 0 0 1 0.023100000000000002
2 0.40039999999999998 0 0.38 -2.4492935982947064e-16 -1 0 1 -2.4492935982947064e-16 0 0 0 1 0.023100000000000002
Polygon3D 0
PolygonOnTriangulations 0
Surfaces 62
1 0.44 -0.059400000000000008 0.35999999999999999 1 0 -0 0 0 1 0 -1 0 
1 0 -0.059400000000000008 0.40000000000000002 0 0 1 1 0 -0 -0 1 0 
1 0.36080000000000001 -0.039600000000000003 0.35999999999999999 -0 1 0 0 0 1 1 0 -0 
1 0 -0.059400000000000008 0.35999999999999999 0 0 1 1 0 -0 -0 1 0 
1 0 -0.059400000000000008 0.35999999999999999 -0 1 0 0 0 1 1 0 -0 
1 0 0.059400000000000008 0.35999999999999999 -0 1 0 0 0 1 1 0 -0 
1 0 0 0.40000000000000002 0 0 1 1 0 -0 -0 1 0 
2 0 0 0.35999999999999999 0 0 1 1 0 -0 -0 1 0 0.23999999999999999
2 0 0 0.35999999999999999 0 0 1 1 0 -0 -0 1 0 0.23999999999999999
1 0 0 0.40000000000000002 0 0 1 1 0 -0 -0 1 0 
1 0 0 0.40000000000000002 0 0 1 1 0 -0 -0 1 0 
1 0.44 -0.059400000000000008 0.35999999999999999 1 0 -0 0 0 1 0 -1 0 
1 0.36080000000000001 0.039600000000000003 0.35999999999999999 -0 1 0 0 0 1 1 0 -0 
1 0.36080000000000001 -0.039600000000000003 0.35999999999999999 1 0 -0 0 0 1 0 -1 0 
2 0.40039999999999998 -0.039600000000000003 0.38 0 1 0 0 -0 1 1 0 -0 0.013200000000000002
1 0 0 0.35999999999999999 0 0 1 1 0 -0 -0 1 0 
1 0 0 0.35999999999999999 0 0 1 1 0 -0 -0 1 0 
1 0 0 0.35999999999999999 0 0 1 1 0 -0 -0 1 0 
2 0 0 0.35999999999999999 0 0 1 1 0 -0 -0 1 0 0.23999999999999999
2 0 0 0.35999999999999999 0 0 1 1 0 -0 -0 1 0 0.23999999999999999
1 0 -0.059400000000000008 0.40000000000000002 0 0 1 1 0 -0 -0 1 0 
1 0 -0.059400000000000008 0.40000000000000002 0 0 1 1 0 -0 -0 1 0 
1 0 -0.059400000000000008 0.40000000000000002 0 0 1 1 0 -0 -0 1 0 
4 0 0 0.40000000000000002 0 0 1 1 0 -0 -0 1 0 0.20000000000000001
2 0.40039999999999998 -0.039600000000000003 0.38 0 1 0 0 -0 1 1 0 -0 0.013200000000000002
4 0.40039999999999998 0 0.38 0 0 1 1 0 -0 -0 1 0 0.023100000000000002
1 0 -0.059400000000000008 0.35999999999999999 0 0 1 1 0 -0 -0 1 0 
1 0 -0.059400000000000008 0.35999999999999999 0 0 1 1 0 -0 -0 1 0 
1 0 -0.059400000000000008 0.35999999999999999 0 0 1 1 0 -0 -0 1 0 
1 0 0.059400000000000008 0.35999999999999999 -0 1 0 0 0 1 1 0 -0 
1 0 -0.059400000000000008 0.35999999999999999 -0 1 0 0 0 1 1 0 -0 
1 0 0.059400000000000008 0.35999999999999999 -0 1 0 0 0 1 1 0 -0 
1 0.44 -0.059400000000000008 0.35999999999999999 1 0 -0 0 0 1 0 -1 0 
1 0.36080000000000001 0.039600000000000003 0.35999999999999999 -0 1 0 0 0 1 1 0 -0 
1 0.36080000000000001 -0.039600000000000003 0.35999999999999999 1 0 -0 0 0 1 0 -1 0 
1 0.44 -0.059400000000000008 0.35999999999999999 1 0 -0 0 0 1 0 -1 0 
1 0.36080000000000001 -0.039600000000000003 0.35999999999999999 -0 1 0 0 0 1 1 0 -0 
1 0.44 -0.059400000000000008 0.35999999999999999 1 0 -0 0 0 1 0 -1 0 
1 0.36080000000000001 0.039600000000000003 0.35999999999999999 -0 1 0 0 0 1 1 0 -0 
1 0 -0.059400000000000008 0.35999999999999999 -0 1 0 0 0 1 1 0 -0 
1 0.36080000000000001 -0.039600000000000003 0.35999999999999999 1 0 -0 0 0 1 0 -1 0 
1 0.44 -0.059400000000000008 0.35999999999999999 1 0 -0 0 0 1 0 -1 0 
1 0.36080000000000001 -0.039600000000000003 0.35999999999999999 -0 1 0 0 0 1 1 0 -0 
1 0 -0.059400000000000008 0.35999999999999999 -0 1 0 0 0 1 1 0 -0 
1 0 0.059400000000000008 0.35999999999999999 -0 1 0 0 0 1 1 0 -0 
1 0.44 -0.059400000000000008 0.35999999999999999 1 0 -0 0 0 1 0 -1 0 
1 0.36080000000000001 0.039600000000000003 0.35999999999999999 -0 1 0 0 0 1 1 0 -0 
1 0.36080000000000001 -0.039600000000000003 0.40000000000000002 0 0 1 1 0 -0 -0 1 0 
1 0.36080000000000001 -0.039600000000000003 0.35999999999999999 1 0 -0 0 0 1 0 -1 0 
1 0.36080000000000001 -0.039600000000000003 0.35999999999999999 -0 1 0 0 0 1 1 0 -0 
1 0.36080000000000001 -0.039600000000000003 0.35999999999999999 0 0 1 1 0 -0 -0 1 0 
2 0.40039999999999998 -0.039600000000000003 0.38 0 1 0 0 -0 1 1 0 -0 0.013200000000000002
2 0.40039999999999998 -0.039600000000000003 0.38 0 1 0 0 -0 1 1 0 -0 0.013200000000000002
2 0.40039999999999998 -0.039600000000000003 0.38 0 1 0 0 -0 1 1 0 -0 0.013200000000000002
2 0.40039999999999998 -0.039600000000000003 0.38 0 1 0 0 -0 1 1 0 -0 0.013200000000000002
1 0.44 -0.039600000000000003 0.35999999999999999 1 0 -0 0 0 1 0 -1 0 
2 0.40039999999999998 -0.039600000000000003 0.38 0 1 0 0 -0 1 1 0 -0 0.013200000000000002
1 0.40039999999999998 0.039600000000000003 0.38 0 1 0 0 -0 1 1 0 -0 
1 0.40039999999999998 -0.039600000000000003 0.38 0 1 0 0 -0 1 1 0 -0 
4 0.40039999999999998 0 0.38 0 0 1 1 0 -0 -0 1 0 0.023100000000000002
4 0.40039999999999998 0 0.38 0 0 1 1 0 -0 -0 1 0 0.023100000000000002
4 0.40039999999999998 0 0.38 0 0 1 1 0 -0 -0 1 0 0.023100000000000002
Triangulations 0

TShapes 380
Ve
1e-07
0.0594000000000001 0.44 0.4
0 0

0101101
*
Ve
1e-07
0.0396000000000001 0.44 0.4
0 0

0101101
*
Ve
1e-07
0.0396000000000001 0.44 0.36
0 0

0101101
*
Ve
1e-07
0.0594000000000001 0.44 0.36
0 0

0101101
*
Ve
1.00000000357353e-07
-0.0593999999999996 0.232533094418838 0.4
0 0

0101101
*
Ve
1e-07
-0.0594 0.44 0.4
0 0

0101101
*
Ve
1e-07
8.54283989500767e-17 0.24 0.4
0 0

0101101
*
Ve
1e-07
-0.0396 0.44 0.4
0 0

0101101
*
Ve
1.00000000423273e-07
0.0593999999999996 0.232533094418838 0.4
0 0

0101101
*
Ve
1e-07
-0.0396 0.3608 0.4
0 0

0101101
*
Ve
1e-07
0.0396 0.3608 0.4
0 0

0101101
*
Ve
1e-07
0.0396 0.3608 0.36
0 0

0101101
*
Ve
1e-07
0.0396 0.4004 0.3932
0 0

0101101
*
Ve
1.00000000357353e-07
-0.0593999999999996 0.232533094418838 0.36
0 0

0101101
*
Ve
1e-07
-0.0594 0.44 0.36
0 0

0101101
*
Ve
1e-07
8.54283989500767e-17 0.24 0.36
0 0

0101101
*
Ve
1e-07
-0.0396 0.44 0.36
0 0

0101101
*
Ve
1.00000000423273e-07
0.0593999999999996 0.232533094418838 0.36
0 0

0101101
*
Ve
1e-07
-0.0396 0.3608 0.36
0 0

0101101
*
Ve
1.00000000423273e-07
-0.232533094418838 0.0593999999999996 0.4
0 0

0101101
*
Ve
1.00000000357353e-07
0.232533094418838 0.0593999999999996 0.4
0 0

0101101
*
Ve
1e-07
-0.24 1.1207375154108e-16 0.4
0 0

0101101
*
Ve
1e-07
0.24 -5.87830463590729e-17 0.4
0 0

0101101
*
Ve
1.00000000357353e-07
-0.232533094418838 -0.0593999999999996 0.4
0 0

0101101
*
Ve
1.00000000423273e-07
0.232533094418838 -0.0593999999999996 0.4
0 0

0101101
*
Ve
1.00000000423273e-07
0.232533094418838 -0.0593999999999996 0.4
0 0

0101101
*
Ve
1.00000000357353e-07
0.232533094418838 0.0593999999999996 0.4
0 0

0101101
*
Ve
1e-07
0.24 -5.87830463590729e-17 0.4
0 0

0101101
*
Ve
2.00001e-07
0.199999999999994 -4.89858719658926e-17 0.40000005
0 0

0101101
*
Ve
1e-07
-0.0396 0.4004 0.3932
0 0

0101101
*
Ve
2.00001e-07
0.0189570567335737 0.4004 0.3932
0 0

0101101
*
Ve
1.00000000423273e-07
-0.232533094418838 0.0593999999999996 0.36
0 0

0101101
*
Ve
1.00000000357353e-07
0.232533094418838 0.0593999999999996 0.36
0 0

0101101
*
Ve
1e-07
-0.24 1.1207375154108e-16 0.36
0 0

0101101
*
Ve
1e-07
0.24 -5.87830463590729e-17 0.36
0 0

0101101
*
Ve
1.00000000357353e-07
-0.232533094418838 -0.0593999999999996 0.36
0 0

0101101
*
Ve
1.00000000423273e-07
0.232533094418838 -0.0593999999999996 0.36
0 0

0101101
*
Ve
1.00000000423273e-07
0.232533094418838 -0.0593999999999996 0.36
0 0

0101101
*
Ve
1.00000000357353e-07
0.232533094418838 0.0593999999999996 0.36
0 0

0101101
*
Ve
1e-07
0.24 -5.87830463590729e-17 0.36
0 0

0101101
*
Ve
2.00001e-07
0.195959179422654 -4.79961563686991e-17 0.36
0 0

0101101
*
Ve
1e-07
-0.44 -0.0593999999999999 0.4
0 0

0101101
*
Ve
1e-07
-0.44 -0.0395999999999999 0.4
0 0

0101101
*
Ve
1e-07
-0.3608 -0.0395999999999999 0.4
0 0

0101101
*
Ve
1e-07
-0.44 0.0594000000000001 0.4
0 0

0101101
*
Ve
1e-07
-0.3608 0.0396000000000001 0.4
0 0

0101101
*
Ve
1e-07
-0.44 0.0396000000000001 0.4
0 0

0101101
*
Ve
1e-07
0.44 0.0594 0.4
0 0

0101101
*
Ve
1e-07
0.44 0.0396 0.4
0 0

0101101
*
Ve
1e-07
0.3608 0.0396 0.4
0 0

0101101
*
Ve
1e-07
0.44 -0.0594 0.4
0 0

0101101
*
Ve
1e-07
0.3608 -0.0396 0.4
0 0

0101101
*
Ve
1e-07
0.44 -0.0396 0.4
0 0

0101101
*
Ve
1e-07
0.44 0.0594 0.4
0 0

0101101
*
Ve
1e-07
0.44 0.0396 0.4
0 0

0101101
*
Ve
1e-07
0.3608 0.0396 0.4
0 0

0101101
*
Ve
1e-07
0.44 -0.0594 0.4
0 0

0101101
*
Ve
1e-07
0.3608 -0.0396 0.4
0 0

0101101
*
Ve
1e-07
0.44 -0.0396 0.4
0 0

0101101
*
Ve
2.00001e-07
-0.0189570567335736 0.4004 0.3932
0 0

0101101
*
Ve
1e-07
4.44533299059913e-17 0.4004 0.4031
0 0

0101101
*
Ve
1e-07
4.44533299059913e-17 0.4004 0.3569
0 0

0101101
*
Ve
1e-07
-0.44 -0.0593999999999999 0.36
0 0

0101101
*
Ve
1e-07
-0.44 -0.0395999999999999 0.36
0 0

0101101
*
Ve
1e-07
-0.3608 -0.0395999999999999 0.36
0 0

0101101
*
Ve
1e-07
-0.44 0.0594000000000001 0.36
0 0

0101101
*
Ve
1e-07
-0.3608 0.0396000000000001 0.36
0 0

0101101
*
Ve
1e-07
-0.44 0.0396000000000001 0.36
0 0

0101101
*
Ve
1e-07
0.44 0.0594 0.36
0 0

0101101
*
Ve
1e-07
0.44 0.0396 0.36
0 0

0101101
*
Ve
1e-07
0.3608 0.0396 0.36
0 0

0101101
*
Ve
1e-07
0.44 -0.0594 0.36
0 0

0101101
*
Ve
1e-07
0.3608 -0.0396 0.36
0 0

0101101
*
Ve
1e-07
0.44 -0.0396 0.36
0 0

0101101
*
Ve
1e-07
0.44 0.0594 0.36
0 0

0101101
*
Ve
1e-07
0.44 0.0396 0.36
0 0

0101101
*
Ve
1e-07
0.3608 0.0396 0.36
0 0

0101101
*
Ve
1e-07
0.44 -0.0594 0.36
0 0

0101101
*
Ve
1e-07
0.3608 -0.0396 0.36
0 0

0101101
*
Ve
1e-07
0.44 -0.0396 0.36
0 0

0101101
*
Ve
1e-07
-0.4004 -0.0395999999999999 0.3932
0 0

0101101
*
Ve
1e-07
-0.4004 0.0396000000000001 0.3932
0 0

0101101
*
Ve
1e-07
0.4004 0.0396 0.3932
0 0

0101101
*
Ve
1e-07
0.4004 -0.0396 0.3932
0 0

0101101
*
Ve
1e-07
0.4004 0.0396 0.3932
0 0

0101101
*
Ve
1e-07
0.4004 -0.0396 0.3932
0 0

0101101
*
Ve
2.00001e-07
-0.4004 -0.0189570567335735 0.3932
0 0

0101101
*
Ve
2.00001e-07
-0.4004 0.0189570567335737 0.3932
0 0

0101101
*
Ve
2.00001e-07
0.4004 0.0189570567335736 0.3932
0 0

0101101
*
Ve
2.00001e-07
0.4004 -0.0189570567335736 0.3932
0 0

0101101
*
Ve
2.00001e-07
0.4004 0.0189570567335736 0.3932
0 0

0101101
*
Ve
2.00001e-07
0.4004 -0.0189570567335736 0.3932
0 0

0101101
*
Ve
1e-07
-0.4004 8.89066598119825e-17 0.4031
0 0

0101101
*
Ve
1e-07
-0.4004 8.89066598119825e-17 0.3569
0 0

0101101
*
Ve
1e-07
0.4004 0 0.4031
0 0

0101101
*
Ve
1e-07
0.4004 0 0.3569
0 0

0101101
*
Ve
1e-07
0.4004 0 0.4031
0 0

0101101
*
Ve
1e-07
0.4004 0 0.3569
0 0

0101101
*
Ed
 1e-07 1 1 0
1  1 0 0 0.0198
2  1 1 0 0 0.0198
2  2 2 0 0 0.0198
0

0101000
+380 9 -379 9 *
Ed
 1e-07 1 1 0
1  2 0 0 0.04
2  3 1 0 0 0.04
2  4 3 0 0 0.04
0

0101000
-379 9 +378 9 *
Ed
 1e-07 1 1 0
1  3 0 0 0.0198
2  5 1 0 0 0.0198
2  6 4 0 0 0.0198
0

0101000
+377 9 -378 9 *
Ed
 1e-07 1 1 0
1  4 0 0 0.04
2  7 1 0 0 0.04
2  8 5 0 0 0.04
0

0101000
-380 9 +377 9 *
Ed
 1e-07 1 1 0
1  5 0 0.232533094418838 0.44
2  9 2 0 0.232533094418838 0.44
2  10 6 0 0.232533094418838 0.44
0

0101000
+376 9 -375 9 *
Ed
 1e-07 1 1 0
1  6 0 1.5707963267949 1.82089545026458
2  11 7 0 1.5707963267949 1.82089545026458
2  12 8 0 1.5707963267949 1.82089545026458
2  13 9 9 1.5707963267949 1.82089545026458
2  14 10 9 1.5707963267949 1.82089545026458
2  15 2 10 1.5707963267949 1.82089545026458
2  16 11 10 1.5707963267949 1.82089545026458
0

0101000
+374 11 -376 11 *
Ed
 1e-07 1 1 0
1  7 0 0.099 0.1188
2  17 2 0 0.099 0.1188
2  18 12 0 0.099 0.1188
0

0101000
+373 9 -375 9 *
Ed
 1e-07 1 1 0
1  6 0 1.32069720332521 1.5707963267949
2  11 7 0 1.32069720332521 1.5707963267949
2  12 8 0 1.32069720332521 1.5707963267949
2  13 9 9 1.32069720332521 1.5707963267949
2  14 10 9 1.32069720332521 1.5707963267949
2  19 2 10 1.32069720332521 1.5707963267949
2  20 11 10 1.32069720332521 1.5707963267949
0

0101000
+372 11 -374 11 *
Ed
 1e-07 1 1 0
1  8 0 0 0.0792
2  21 2 0 0 0.0792
2  22 13 0 0 0.0792
0

0101000
-373 9 +371 9 *
Ed
 1e-07 1 1 0
1  9 0 0.232533094418838 0.44
2  23 2 0 0.232533094418838 0.44
2  24 5 0 0.232533094418838 0.44
0

0101000
+372 9 -380 9 *
Ed
 1e-07 1 1 0
1  10 0 0 0.0792
2  25 2 0 0 0.0792
2  26 14 0 0 0.0792
0

0101000
-371 9 +370 9 *
Ed
 1e-07 1 1 0
1  11 0 0 0.0792
2  27 2 0 0 0.0792
2  28 3 0 0 0.0792
0

0101000
-379 9 +370 9 *
Ed
 1e-07 1 1 0
1  12 0 0 0.0792
2  29 3 0 0 0.0792
2  30 4 0 0 0.0792
0

0101000
-378 9 +369 9 *
Ed
 1e-07 1 1 0
1  13 0 0 0.04
2  31 3 0 0 0.04
2  32 14 0 0 0.04
0

0101000
-370 9 +369 9 *
Ed
 1e-07 1 1 0
1  14 0 0 6.28318530717959
2  33 3 0 0 6.28318530717959
2  34 15 0 0 6.28318530717959
0

0101000
+368 9 -368 9 *
Ed
 1e-07 1 1 0
1  15 0 0.232533094418838 0.44
2  35 4 0 0.232533094418838 0.44
2  36 6 0 0.232533094418838 0.44
0

0101000
+367 9 -366 9 *
Ed
 1e-07 1 1 0
1  16 0 1.5707963267949 1.82089545026458
2  37 16 0 1.5707963267949 1.82089545026458
2  38 8 0 1.5707963267949 1.82089545026458
2  39 9 9 1.5707963267949 1.82089545026458
2  40 17 9 1.5707963267949 1.82089545026458
2  41 4 10 1.5707963267949 1.82089545026458
2  42 18 10 1.5707963267949 1.82089545026458
0

0101000
+365 11 -367 11 *
Ed
 1e-07 1 1 0
1  17 0 0.099 0.1188
2  43 4 0 0.099 0.1188
2  44 12 0 0.099 0.1188
0

0101000
+364 9 -366 9 *
Ed
 1e-07 1 1 0
1  16 0 1.32069720332521 1.5707963267949
2  37 16 0 1.32069720332521 1.5707963267949
2  38 8 0 1.32069720332521 1.5707963267949
2  39 9 9 1.32069720332521 1.5707963267949
2  40 17 9 1.32069720332521 1.5707963267949
2  45 4 10 1.32069720332521 1.5707963267949
2  46 18 10 1.32069720332521 1.5707963267949
0

0101000
+363 11 -365 11 *
Ed
 1e-07 1 1 0
1  18 0 0 0.0792
2  47 4 0 0 0.0792
2  48 13 0 0 0.0792
0

0101000
-364 9 +362 9 *
Ed
 1e-07 1 1 0
1  19 0 0.232533094418838 0.44
2  49 4 0 0.232533094418838 0.44
2  50 5 0 0.232533094418838 0.44
0

0101000
+363 9 -377 9 *
Ed
 1e-07 1 1 0
1  20 0 0 0.0792
2  51 4 0 0 0.0792
2  52 14 0 0 0.0792
0

0101000
-362 9 +369 9 *
Ed
 1e-07 1 1 0
1  21 0 0 0.04
2  53 5 0 0 0.04
2  54 19 0 0 0.04
2  55 20 12 0 0.04
2  56 9 13 0 0.04
0

0101000
+363 9 -372 9 *
Ed
 1e-07 1 1 0
1  22 0 0 0.04
2  57 6 0 0 0.04
2  58 19 0 0 0.04
2  59 20 12 0 0.04
2  60 9 13 0 0.04
0

0101000
+367 9 -376 9 *
Ed
 1e-07 1 1 0
1  23 0 0 0.04
2  61 6 0 0 0.04
2  62 12 0 0 0.04
0

0101000
-375 9 +366 9 *
Ed
 1e-07 1 1 0
1  6 0 1.82089545026458 2.89149353012011
2  11 7 0 1.82089545026458 2.89149353012011
2  12 8 0 1.82089545026458 2.89149353012011
2  13 9 9 1.82089545026458 2.89149353012011
2  14 10 9 1.82089545026458 2.89149353012011
2  63 19 10 1.82089545026458 2.89149353012011
2  64 11 10 1.82089545026458 2.89149353012011
0

0101000
+376 11 -361 14 *
Ed
 1e-07 1 1 0
1  6 0 0.250099123469686 1.32069720332521
2  11 7 0 0.250099123469686 1.32069720332521
2  12 8 0 0.250099123469686 1.32069720332521
2  13 9 9 0.250099123469686 1.32069720332521
2  14 10 9 0.250099123469686 1.32069720332521
2  65 19 10 0.250099123469686 1.32069720332521
2  66 11 10 0.250099123469686 1.32069720332521
0

0101000
+360 0 -372 11 *
Ed
 1e-07 1 1 0
1  6 0 2.89149353012011 3.14159265358979
2  11 7 0 2.89149353012011 3.14159265358979
2  12 8 0 2.89149353012011 3.14159265358979
2  13 9 9 2.89149353012011 3.14159265358979
2  14 10 9 2.89149353012011 3.14159265358979
2  67 11 10 2.89149353012011 3.14159265358979
2  68 21 15 2.89149353012011 3.14159265358979
0

0101000
+361 14 -359 14 *
Ed
 1e-07 1 1 0
1  24 0 0 0.250099123469686
2  69 22 0 0 0.250099123469686
2  70 7 0 0 0.250099123469686
2  71 9 9 0 0.250099123469686
2  72 10 9 0 0.250099123469686
2  73 19 10 0 0.250099123469686
2  74 11 10 0 0.250099123469686
0

0101000
+358 0 -360 0 *
Ed
 1e-07 1 1 0
1  6 0 3.14159265358979 3.39169177705948
2  11 7 0 3.14159265358979 3.39169177705948
2  12 8 0 3.14159265358979 3.39169177705948
2  13 9 9 3.14159265358979 3.39169177705948
2  14 10 9 3.14159265358979 3.39169177705948
2  75 11 10 3.14159265358979 3.39169177705948
2  76 21 15 3.14159265358979 3.39169177705948
0

0101000
+359 14 -357 14 *
Ed
 1e-07 1 1 0
1  25 0 6.0330861837099 6.28318530717959
2  77 22 0 6.0330861837099 6.28318530717959
2  78 7 0 6.0330861837099 6.28318530717959
2  79 9 9 6.0330861837099 6.28318530717959
2  80 10 9 6.0330861837099 6.28318530717959
2  81 19 10 6.0330861837099 6.28318530717959
2  82 11 10 6.0330861837099 6.28318530717959
0

0101000
+356 0 -358 0 *
Ed
 1e-07 1 1 0
1  6 0 3.39169177705948 4.462289856915
2  11 7 0 3.39169177705948 4.462289856915
2  12 8 0 3.39169177705948 4.462289856915
2  13 9 9 3.39169177705948 4.462289856915
2  14 10 9 3.39169177705948 4.462289856915
2  83 19 10 3.39169177705948 4.462289856915
2  84 11 10 3.39169177705948 4.462289856915
0

0101000
+357 14 -355 9 *
Ed
 1e-07 1 1 0
1  6 0 4.96248810385438 6.0330861837099
2  11 7 0 4.96248810385438 6.0330861837099
2  12 8 0 4.96248810385438 6.0330861837099
2  85 9 9 4.96248810385438 6.0330861837099
2  86 10 9 4.96248810385438 6.0330861837099
2  87 19 10 4.96248810385438 6.0330861837099
2  88 11 10 4.96248810385438 6.0330861837099
0

0101000
+354 9 -356 0 *
Ed
 1e-07 1 1 0
1  6 0 4.462289856915 4.71238898038469
2  11 7 0 4.462289856915 4.71238898038469
2  12 8 0 4.462289856915 4.71238898038469
2  89 23 9 4.462289856915 4.71238898038469
2  90 10 9 4.462289856915 4.71238898038469
2  91 19 10 4.462289856915 4.71238898038469
2  92 11 10 4.462289856915 4.71238898038469
0

0101000
+355 9 -353 9 *
Ed
 1e-07 1 1 0
1  6 0 4.71238898038469 4.96248810385438
2  11 7 0 4.71238898038469 4.96248810385438
2  12 8 0 4.71238898038469 4.96248810385438
2  93 23 9 4.71238898038469 4.96248810385438
2  94 10 9 4.71238898038469 4.96248810385438
2  95 19 10 4.71238898038469 4.96248810385438
2  96 11 10 4.71238898038469 4.96248810385438
0

0101000
+353 9 -354 9 *
Ed
 1e-07 1 1 0
1  26 0 0 6.28318530717959
2  97 11 16 0 6.28318530717959
2  98 24 0 0 6.28318530717959
0

0101000
+352 0 -352 0 *
Ed
 1e-07 1 1 0
1  27 0 0 0.04
2  99 12 0 0 0.04
2  100 13 0 0 0.04
0

0101000
-373 9 +364 9 *
Ed
 1e-07 1 1 0
1  28 0 0 0.04
2  101 13 0 0 0.04
2  102 14 0 0 0.04
0

0101000
-371 9 +362 9 *
Ed
 1e-07 1 1 0
1  29 0 0 6.28318530717959
2  103 13 0 0 6.28318530717959
2  104 25 0 0 6.28318530717959
0

0101000
+351 9 -351 9 *
Ed
 1e-07 1 1 0
1  30 0 0 0.0206429432664264
3  105 106CN 15 0 0 0.0206429432664264
0

0101000
+368 9 -350 9 *
Ed
 1e-07 1 1 0
1  31 0 0 6.28318530717959
2  107 15 0 0 6.28318530717959
2  108 26 0 0 6.28318530717959
0

0101000
+350 9 -350 9 *
Ed
 1e-07 1 1 0
1  16 0 1.82089545026458 2.89149353012011
2  37 16 0 1.82089545026458 2.89149353012011
2  38 8 0 1.82089545026458 2.89149353012011
2  39 9 9 1.82089545026458 2.89149353012011
2  40 17 9 1.82089545026458 2.89149353012011
2  109 19 10 1.82089545026458 2.89149353012011
2  110 18 10 1.82089545026458 2.89149353012011
0

0101000
+367 11 -349 14 *
Ed
 1e-07 1 1 0
1  16 0 0.250099123469686 1.32069720332521
2  37 16 0 0.250099123469686 1.32069720332521
2  38 8 0 0.250099123469686 1.32069720332521
2  39 9 9 0.250099123469686 1.32069720332521
2  40 17 9 0.250099123469686 1.32069720332521
2  111 19 10 0.250099123469686 1.32069720332521
2  112 18 10 0.250099123469686 1.32069720332521
0

0101000
+348 0 -363 11 *
Ed
 1e-07 1 1 0
1  16 0 2.89149353012011 3.14159265358979
2  37 16 0 2.89149353012011 3.14159265358979
2  38 8 0 2.89149353012011 3.14159265358979
2  39 9 9 2.89149353012011 3.14159265358979
2  40 17 9 2.89149353012011 3.14159265358979
2  113 18 10 2.89149353012011 3.14159265358979
2  114 27 15 2.89149353012011 3.14159265358979
0

0101000
+349 14 -347 14 *
Ed
 1e-07 1 1 0
1  32 0 0 0.250099123469686
2  115 28 0 0 0.250099123469686
2  116 16 0 0 0.250099123469686
2  117 9 9 0 0.250099123469686
2  118 17 9 0 0.250099123469686
2  119 19 10 0 0.250099123469686
2  120 18 10 0 0.250099123469686
0

0101000
+346 0 -348 0 *
Ed
 1e-07 1 1 0
1  16 0 3.14159265358979 3.39169177705948
2  37 16 0 3.14159265358979 3.39169177705948
2  38 8 0 3.14159265358979 3.39169177705948
2  39 9 9 3.14159265358979 3.39169177705948
2  40 17 9 3.14159265358979 3.39169177705948
2  121 18 10 3.14159265358979 3.39169177705948
2  122 27 15 3.14159265358979 3.39169177705948
0

0101000
+347 14 -345 14 *
Ed
 1e-07 1 1 0
1  33 0 6.0330861837099 6.28318530717959
2  123 28 0 6.0330861837099 6.28318530717959
2  124 16 0 6.0330861837099 6.28318530717959
2  125 9 9 6.0330861837099 6.28318530717959
2  126 17 9 6.0330861837099 6.28318530717959
2  127 19 10 6.0330861837099 6.28318530717959
2  128 18 10 6.0330861837099 6.28318530717959
0

0101000
+344 0 -346 0 *
Ed
 1e-07 1 1 0
1  16 0 3.39169177705948 4.462289856915
2  37 16 0 3.39169177705948 4.462289856915
2  38 8 0 3.39169177705948 4.462289856915
2  39 9 9 3.39169177705948 4.462289856915
2  40 17 9 3.39169177705948 4.462289856915
2  129 19 10 3.39169177705948 4.462289856915
2  130 18 10 3.39169177705948 4.462289856915
0

0101000
+345 14 -343 9 *
Ed
 1e-07 1 1 0
1  16 0 4.96248810385438 6.0330861837099
2  37 16 0 4.96248810385438 6.0330861837099
2  38 8 0 4.96248810385438 6.0330861837099
2  131 9 9 4.96248810385438 6.0330861837099
2  132 17 9 4.96248810385438 6.0330861837099
2  133 19 10 4.96248810385438 6.0330861837099
2  134 18 10 4.96248810385438 6.0330861837099
0

0101000
+342 9 -344 0 *
Ed
 1e-07 1 1 0
1  16 0 4.462289856915 4.71238898038469
2  37 16 0 4.462289856915 4.71238898038469
2  38 8 0 4.462289856915 4.71238898038469
2  135 29 9 4.462289856915 4.71238898038469
2  136 17 9 4.462289856915 4.71238898038469
2  137 19 10 4.462289856915 4.71238898038469
2  138 18 10 4.462289856915 4.71238898038469
0

0101000
+343 9 -341 9 *
Ed
 1e-07 1 1 0
1  16 0 4.71238898038469 4.96248810385438
2  37 16 0 4.71238898038469 4.96248810385438
2  38 8 0 4.71238898038469 4.96248810385438
2  139 29 9 4.71238898038469 4.96248810385438
2  140 17 9 4.71238898038469 4.96248810385438
2  141 19 10 4.71238898038469 4.96248810385438
2  142 18 10 4.71238898038469 4.96248810385438
0

0101000
+341 9 -342 9 *
Ed
 1e-07 1 1 0
1  34 0 0 6.28318530717959
2  143 18 16 0 6.28318530717959
2  144 24 0 0 6.28318530717959
0

0101000
+340 0 -340 0 *
Ed
 1e-07 1 1 0
1  35 0 0 0.04
2  145 30 0 0 0.04
2  146 8 0 0 0.04
2  147 9 9 0 0.04
2  148 19 10 0 0.04
0

0101000
+348 0 -360 0 *
Ed
 1e-07 1 1 0
1  36 0 0 0.04
2  149 31 0 0 0.04
2  150 20 0 0 0.04
2  151 19 18 0 0.04
2  152 9 19 0 0.04
0

0101000
+349 13 -361 13 *
Ed
 1e-07 1 1 0
1  37 0 0.232533094418838 0.44
2  153 21 0 0.232533094418838 0.44
2  154 32 0 0.232533094418838 0.44
0

0101000
+357 13 -339 13 *
Ed
 1e-07 1 1 0
1  38 0 0.099 0.1188
2  155 21 0 0.099 0.1188
2  156 33 0 0.099 0.1188
0

0101000
+338 13 -339 13 *
Ed
 1e-07 1 1 0
1  39 0 0 0.0792
2  157 21 0 0 0.0792
2  158 34 0 0 0.0792
0

0101000
-338 13 +337 13 *
Ed
 1e-07 1 1 0
1  40 0 0.232533094418838 0.44
2  159 21 0 0.232533094418838 0.44
2  160 31 0 0.232533094418838 0.44
0

0101000
+361 13 -336 13 *
Ed
 1e-07 1 1 0
1  41 0 0 0.0792
2  161 21 0 0 0.0792
2  162 35 0 0 0.0792
0

0101000
-337 13 +335 13 *
Ed
 1e-07 1 1 0
1  42 0 0 0.0198
2  163 36 0 0 0.0198
2  164 21 0 0 0.0198
0

0101000
+336 13 -334 13 *
Ed
 1e-07 1 1 0
1  43 0 0 0.0792
2  165 21 0 0 0.0792
2  166 37 0 0 0.0792
0

0101000
-334 13 +335 13 *
Ed
 1e-07 1 1 0
1  44 0 0.232533094418838 0.44
2  167 22 0 0.232533094418838 0.44
2  168 30 0 0.232533094418838 0.44
0

0101000
+360 0 -333 0 *
Ed
 1e-07 1 1 0
1  45 0 0.099 0.1188
2  169 22 0 0.099 0.1188
2  170 38 0 0.099 0.1188
0

0101000
+332 0 -333 0 *
Ed
 1e-07 1 1 0
1  46 0 0 0.0792
2  171 22 0 0 0.0792
2  172 39 0 0 0.0792
0

0101000
-332 0 +331 0 *
Ed
 1e-07 1 1 0
1  47 0 0.232533094418838 0.44
2  173 22 0 0.232533094418838 0.44
2  174 40 0 0.232533094418838 0.44
0

0101000
+356 0 -330 0 *
Ed
 1e-07 1 1 0
1  48 0 0 0.0792
2  175 22 0 0 0.0792
2  176 41 0 0 0.0792
0

0101000
-331 0 +329 0 *
Ed
 1e-07 1 1 0
1  49 0 0 0.0198
2  177 42 0 0 0.0198
2  178 22 0 0 0.0198
0

0101000
+330 0 -328 0 *
Ed
 1e-07 1 1 0
1  50 0 0 0.0792
2  179 22 0 0 0.0792
2  180 43 0 0 0.0792
0

0101000
-328 0 +329 0 *
Ed
 1e-07 1 1 0
1  51 0 0 0.04
2  181 44 0 0 0.04
2  182 9 0 0 0.04
2  183 8 6 0 0.04
2  184 19 16 0 0.04
0

0101000
+343 0 -355 0 *
Ed
 1e-07 1 1 0
1  52 0 0 0.04
2  185 32 0 0 0.04
2  186 20 0 0 0.04
2  187 19 18 0 0.04
2  188 9 19 0 0.04
0

0101000
+345 13 -357 13 *
Ed
 1e-07 1 1 0
1  53 0 0 0.04
2  189 40 0 0 0.04
2  190 8 0 0 0.04
2  191 9 9 0 0.04
2  192 19 10 0 0.04
0

0101000
+344 0 -356 0 *
Ed
 1e-07 1 1 0
1  54 0 0 0.04
2  193 45 0 0 0.04
2  194 9 0 0 0.04
2  195 8 6 0 0.04
2  196 19 16 0 0.04
0

0101000
+342 0 -354 0 *
Ed
 1e-07 1 1 0
1  55 0 0.232533094418838 0.44
2  197 45 0 0.232533094418838 0.44
2  198 23 0 0.232533094418838 0.44
0

0101000
+354 0 -327 0 *
Ed
 1e-07 1 1 0
1  56 0 0.099 0.1188
2  199 46 0 0.099 0.1188
2  200 23 0 0.099 0.1188
0

0101000
+326 0 -327 0 *
Ed
 1e-07 1 1 0
1  57 0 0 0.0792
2  201 47 0 0 0.0792
2  202 48 0 0 0.0792
2  203 23 0 0 0.0792
0

0101000
-326 0 +325 0 *
Ed
 1e-07 1 1 0
1  58 0 0.232533094418838 0.44
2  204 44 0 0.232533094418838 0.44
2  205 23 0 0.232533094418838 0.44
0

0101000
+355 0 -324 0 *
Ed
 1e-07 1 1 0
1  59 0 0 0.0792
2  206 49 0 0 0.0792
2  207 48 0 0 0.0792
2  208 23 0 0 0.0792
0

0101000
-325 0 +323 0 *
Ed
 1e-07 1 1 0
1  56 0 0 0.0198
2  199 46 0 0 0.0198
2  200 23 0 0 0.0198
0

0101000
+324 0 -322 0 *
Ed
 1e-07 1 1 0
1  60 0 0 0.0792
2  209 50 0 0 0.0792
2  210 48 0 0 0.0792
2  211 23 0 0 0.0792
0

0101000
-322 0 +323 0 *
Ed
 1e-07 1 1 0
1  61 0 6.08182738638925 6.28318555717958
3  212 213CN 24 0 6.08182738638925 6.28318555717958
0

0101000
+340 0 -352 0 *
Ed
 1e-07 1 1 0
1  62 0 0 6.28318530717959
2  214 25 0 0 6.28318530717959
2  215 26 0 0 6.28318530717959
0

0101000
+321 9 -321 9 *
Ed
 1e-07 1 1 0
1  63 0 0.0585570567335736 0.0792
3  216 217CN 25 0 0.0585570567335736 0.0792
0

0101000
+321 9 -351 9 *
Ed
 1e-07 1 1 0
1  64 0 4.71238898038469 7.85398163397448
3  218 219CN 26 0 4.71238898038469 7.85398163397448
0

0101000
-320 9 +319 9 *
Ed
 1e-07 1 1 1
2  220 26 0 0 6.28318530717959
0

0101000
+319 9 -319 9 *
Ed
 1e-07 1 1 1
2  221 26 0 0 6.28318530717959
0

0101000
+320 9 -320 9 *
Ed
 1e-07 1 1 0
1  65 0 0.232533094418838 0.44
2  222 27 0 0.232533094418838 0.44
2  223 32 0 0.232533094418838 0.44
0

0101000
+345 13 -318 13 *
Ed
 1e-07 1 1 0
1  66 0 0.099 0.1188
2  224 27 0 0.099 0.1188
2  225 33 0 0.099 0.1188
0

0101000
+317 13 -318 13 *
Ed
 1e-07 1 1 0
1  67 0 0 0.0792
2  226 27 0 0 0.0792
2  227 34 0 0 0.0792
0

0101000
-317 13 +316 13 *
Ed
 1e-07 1 1 0
1  68 0 0.232533094418838 0.44
2  228 27 0 0.232533094418838 0.44
2  229 31 0 0.232533094418838 0.44
0

0101000
+349 13 -315 13 *
Ed
 1e-07 1 1 0
1  69 0 0 0.0792
2  230 27 0 0 0.0792
2  231 35 0 0 0.0792
0

0101000
-316 13 +314 13 *
Ed
 1e-07 1 1 0
1  70 0 0 0.0198
2  232 36 0 0 0.0198
2  233 27 0 0 0.0198
0

0101000
+315 13 -313 13 *
Ed
 1e-07 1 1 0
1  71 0 0 0.0792
2  234 37 0 0 0.0792
2  235 27 0 0 0.0792
0

0101000
-313 13 +314 13 *
Ed
 1e-07 1 1 0
1  72 0 0.232533094418838 0.44
2  236 28 0 0.232533094418838 0.44
2  237 30 0 0.232533094418838 0.44
0

0101000
+348 0 -312 0 *
Ed
 1e-07 1 1 0
1  73 0 0.099 0.1188
2  238 28 0 0.099 0.1188
2  239 38 0 0.099 0.1188
0

0101000
+311 0 -312 0 *
Ed
 1e-07 1 1 0
1  74 0 0 0.0792
2  240 28 0 0 0.0792
2  241 39 0 0 0.0792
0

0101000
-311 0 +310 0 *
Ed
 1e-07 1 1 0
1  75 0 0.232533094418838 0.44
2  242 28 0 0.232533094418838 0.44
2  243 40 0 0.232533094418838 0.44
0

0101000
+344 0 -309 0 *
Ed
 1e-07 1 1 0
1  76 0 0 0.0792
2  244 28 0 0 0.0792
2  245 41 0 0 0.0792
0

0101000
-310 0 +308 0 *
Ed
 1e-07 1 1 0
1  77 0 0 0.0198
2  246 42 0 0 0.0198
2  247 28 0 0 0.0198
0

0101000
+309 0 -307 0 *
Ed
 1e-07 1 1 0
1  78 0 0 0.0792
2  248 43 0 0 0.0792
2  249 28 0 0 0.0792
0

0101000
-307 0 +308 0 *
Ed
 1e-07 1 1 0
1  79 0 0.232533094418838 0.44
2  250 45 0 0.232533094418838 0.44
2  251 29 0 0.232533094418838 0.44
0

0101000
+342 0 -306 0 *
Ed
 1e-07 1 1 0
1  80 0 0.099 0.1188
2  252 46 0 0.099 0.1188
2  253 29 0 0.099 0.1188
0

0101000
+305 0 -306 0 *
Ed
 1e-07 1 1 0
1  81 0 0 0.0792
2  254 47 0 0 0.0792
2  255 51 0 0 0.0792
2  256 29 0 0 0.0792
0

0101000
-305 0 +304 0 *
Ed
 1e-07 1 1 0
1  82 0 0.232533094418838 0.44
2  257 44 0 0.232533094418838 0.44
2  258 29 0 0.232533094418838 0.44
0

0101000
+343 0 -303 0 *
Ed
 1e-07 1 1 0
1  83 0 0 0.0792
2  259 49 0 0 0.0792
2  260 51 0 0 0.0792
2  261 29 0 0 0.0792
0

0101000
-304 0 +302 0 *
Ed
 1e-07 1 1 0
1  80 0 0 0.0198
2  252 46 0 0 0.0198
2  253 29 0 0 0.0198
0

0101000
+303 0 -301 0 *
Ed
 1e-07 1 1 0
1  84 0 0 0.0792
2  262 50 0 0 0.0792
2  263 51 0 0 0.0792
2  264 29 0 0 0.0792
0

0101000
-301 0 +302 0 *
Ed
 1e-07 1 1 0
1  85 0 0 0.04
2  265 30 0 0 0.04
2  266 38 0 0 0.04
0

0101000
-333 0 +312 0 *
Ed
 1e-07 1 1 0
1  86 0 0 0.04
2  267 36 0 0 0.04
2  268 31 0 0 0.04
0

0101000
-336 13 +315 13 *
Ed
 1e-07 1 1 0
1  87 0 0 0.04
2  269 32 0 0 0.04
2  270 33 0 0 0.04
0

0101000
-339 13 +318 13 *
Ed
 1e-07 1 1 0
1  88 0 0 0.04
2  271 33 0 0 0.04
2  272 34 0 0 0.04
0

0101000
-338 13 +317 13 *
Ed
 1e-07 1 1 0
1  89 0 0 0.04
2  273 34 0 0 0.04
2  274 35 0 0 0.04
0

0101000
-337 13 +316 13 *
Ed
 1e-07 1 1 0
1  90 0 0 6.28318530717959
2  275 34 0 0 6.28318530717959
2  276 52 0 0 6.28318530717959
0

0101000
+300 13 -300 13 *
Ed
 1e-07 1 1 0
1  91 0 0 0.04
2  277 37 0 0 0.04
2  278 35 0 0 0.04
0

0101000
-335 13 +314 13 *
Ed
 1e-07 1 1 0
1  92 0 0 0.04
2  279 36 0 0 0.04
2  280 37 0 0 0.04
0

0101000
-334 13 +313 13 *
Ed
 1e-07 1 1 0
1  93 0 0 6.28318530717959
2  281 37 0 0 6.28318530717959
2  282 53 0 0 6.28318530717959
0

0101000
+299 13 -299 13 *
Ed
 1e-07 1 1 0
1  94 0 0 0.04
2  283 38 0 0 0.04
2  284 39 0 0 0.04
0

0101000
-332 0 +311 0 *
Ed
 1e-07 1 1 0
1  95 0 0 0.04
2  285 39 0 0 0.04
2  286 41 0 0 0.04
0

0101000
-331 0 +310 0 *
Ed
 1e-07 1 1 0
1  96 0 0 6.28318530717959
2  287 39 0 0 6.28318530717959
2  288 54 0 0 6.28318530717959
0

0101000
+298 0 -298 0 *
Ed
 1e-07 1 1 0
1  97 0 0 0.04
2  289 42 0 0 0.04
2  290 40 0 0 0.04
0

0101000
-330 0 +309 0 *
Ed
 1e-07 1 1 0
1  98 0 0 0.04
2  291 43 0 0 0.04
2  292 41 0 0 0.04
0

0101000
-329 0 +308 0 *
Ed
 1e-07 1 1 0
1  99 0 0 0.04
2  293 42 0 0 0.04
2  294 43 0 0 0.04
0

0101000
-328 0 +307 0 *
Ed
 1e-07 1 1 0
1  100 0 0 6.28318530717959
2  295 43 0 0 6.28318530717959
2  296 55 0 0 6.28318530717959
0

0101000
+297 0 -297 0 *
Ed
 1e-07 1 1 0
1  101 0 0 0.04
2  297 46 0 0 0.04
2  298 44 0 0 0.04
0

0101000
-324 0 +303 0 *
Ed
 1e-07 1 1 0
1  102 0 0 0.04
2  299 46 0 0 0.04
2  300 45 0 0 0.04
0

0101000
-327 0 +306 0 *
Ed
 1e-07 1 1 0
1  103 0 0 0.04
2  301 56 0 0 0.04
2  302 47 0 0 0.04
2  303 46 0 0 0.04
0

0101000
-326 0 +305 0 *
Ed
 1e-07 1 1 0
1  104 0 0 0.04
2  304 49 0 0 0.04
2  305 47 0 0 0.04
0

0101000
-325 0 +304 0 *
Ed
 1e-07 1 1 0
1  105 0 0 6.28318530717959
2  306 57 0 0 6.28318530717959
2  307 58 0 0 6.28318530717959
2  308 47 0 0 6.28318530717959
0

0101000
+296 0 -296 0 *
Ed
 1e-07 1 1 0
1  106 0 0 0.04
2  309 49 0 0 0.04
2  310 50 0 0 0.04
0

0101000
-323 0 +302 0 *
Ed
 1e-07 1 1 0
1  107 0 0 0.04
2  311 56 0 0 0.04
2  312 50 0 0 0.04
2  313 46 0 0 0.04
0

0101000
-322 0 +301 0 *
Ed
 1e-07 1 1 0
1  108 0 0 6.28318530717959
2  314 57 0 0 6.28318530717959
2  315 59 0 0 6.28318530717959
2  316 50 0 0 6.28318530717959
0

0101000
+295 0 -295 0 *
Ed
 1e-07 1 1 0
1  109 0 0 6.28318530717959
2  317 52 0 0 6.28318530717959
2  318 60 0 0 6.28318530717959
0

0101000
+294 13 -294 13 *
Ed
 1e-07 1 1 0
1  110 0 0.0585570567335736 0.0792
3  319 320CN 52 0 0.0585570567335736 0.0792
0

0101000
+294 13 -300 13 *
Ed
 1e-07 1 1 0
1  111 0 0 0.0206429432664264
3  321 322CN 53 0 0 0.0206429432664264
0

0101000
+299 13 -293 13 *
Ed
 1e-07 1 1 0
1  112 0 0 6.28318530717959
2  323 53 0 0 6.28318530717959
2  324 60 0 0 6.28318530717959
0

0101000
+293 13 -293 13 *
Ed
 1e-07 1 1 0
1  113 0 0 6.28318530717959
2  325 54 0 0 6.28318530717959
2  326 61 0 0 6.28318530717959
0

0101000
+292 0 -292 0 *
Ed
 1e-07 1 1 0
1  114 0 0.0585570567335736 0.0792
3  327 328CN 54 0 0.0585570567335736 0.0792
0

0101000
+292 0 -298 0 *
Ed
 1e-07 1 1 0
1  115 0 0 0.0206429432664264
3  329 330CN 55 0 0 0.0206429432664264
0

0101000
+297 0 -291 0 *
Ed
 1e-07 1 1 0
1  116 0 0 6.28318530717959
2  331 55 0 0 6.28318530717959
2  332 61 0 0 6.28318530717959
0

0101000
+291 0 -291 0 *
Ed
 1e-07 1 1 0
1  117 0 0 6.28318530717959
2  333 57 0 0 6.28318530717959
2  334 62 0 0 6.28318530717959
0

0101000
+290 0 -290 0 *
Ed
 1e-07 1 1 0
1  118 0 0.0585570567335736 0.0792
3  335 336CN 57 0 0.0585570567335736 0.0792
0

0101000
+290 0 -296 0 *
Ed
 1e-07 1 1 0
1  118 0 0 0.0206429432664264
3  335 336CN 57 0 0 0.0206429432664264
0

0101000
+295 0 -289 0 *
Ed
 1e-07 1 1 0
1  119 0 0 6.28318530717959
2  337 57 0 0 6.28318530717959
2  338 62 0 0 6.28318530717959
0

0101000
+289 0 -289 0 *
Ed
 1e-07 1 1 0
1  120 0 4.71238898038469 7.85398163397448
3  339 340CN 60 0 4.71238898038469 7.85398163397448
0

0101000
-288 13 +287 13 *
Ed
 1e-07 1 1 1
2  341 60 0 0 6.28318530717959
0

0101000
+287 13 -287 13 *
Ed
 1e-07 1 1 1
2  342 60 0 0 6.28318530717959
0

0101000
+288 13 -288 13 *
Ed
 1e-07 1 1 0
1  121 0 4.71238898038469 7.85398163397448
3  343 344CN 61 0 4.71238898038469 7.85398163397448
0

0101000
-286 0 +285 0 *
Ed
 1e-07 1 1 1
2  345 61 0 0 6.28318530717959
0

0101000
+285 0 -285 0 *
Ed
 1e-07 1 1 1
2  346 61 0 0 6.28318530717959
0

0101000
+286 0 -286 0 *
Ed
 1e-07 1 1 0
1  122 0 4.71238898038469 7.85398163397448
3  347 348CN 62 0 4.71238898038469 7.85398163397448
0

0101000
-284 0 +283 0 *
Ed
 1e-07 1 1 1
2  349 62 0 0 6.28318530717959
0

0101000
+283 0 -283 0 *
Ed
 1e-07 1 1 1
2  350 62 0 0 6.28318530717959
0

0101000
+284 0 -284 0 *
Wi

0101100
-282 0 +281 0 +280 0 -279 0 *
Wi

0101100
-278 16 -277 6 +276 16 -275 6 +274 16 +273 16 +272 16 +282 16 -271 16 *
Wi

0101100
-270 0 -281 0 +269 0 +271 0 *
Wi

0101100
-268 0 *
Wi

0101100
-267 16 -266 6 +265 16 -264 6 +263 16 +262 16 +261 16 +280 16 -270 16 *
Wi

0101100
-262 16 +260 16 -279 16 +273 16 *
Wi

0101100
-267 16 +259 16 -258 16 +278 16 *
Wi

0101100
+277 6 +275 6 +257 6 +256 6 +255 6 +254 6 +253 6 +252 6 +251 6 +250 6 
+249 6 +248 6 *
Wi

0101100
-247 0 *
Wi

0101100
-276 0 +258 0 +265 0 -246 0 *
Wi

0101100
-263 0 -246 0 +245 0 +274 0 *
Wi

0101100
-244 0 *
Wi

0101100
-269 0 -272 0 +261 0 +245 0 *
Wi

0101100
+243 0 +268 0 -243 0 -242 0 *
Wi

0101100
+266 6 +264 6 +241 6 +240 6 +239 6 +238 6 +237 6 +236 6 +235 6 +234 6 
+233 6 +232 6 *
Wi

0101100
-231 0 *
Wi

0101100
-256 6 +260 16 +240 6 -230 6 *
Wi

0101100
-257 6 -259 16 +229 20 +241 6 *
Wi

0101100
-228 20 -253 6 +227 20 -255 6 +226 20 +225 20 +224 20 +223 20 -222 20 *
Wi

0101100
-221 6 -254 6 +220 6 -252 6 +219 6 +218 6 +217 6 +216 6 -215 6 *
Wi

0101100
-251 6 +214 0 +235 6 -213 20 *
Wi

0101100
-250 6 +212 6 +234 6 -211 0 *
Wi

0101100
-210 0 -248 6 +209 0 -249 6 +208 0 +207 0 +206 0 +205 0 -204 0 *
Wi

0101100
-247 0 +203 0 +231 0 -203 0 *
Wi

0101100
+202 0 -201 0 -244 0 +201 0 *
Wi

0101100
+200 0 +199 0 -200 0 -198 0 *
Wi

0101100
+242 0 *
Wi

0101100
-202 0 *
Wi

0101100
-197 20 -237 6 +196 20 -239 6 +195 20 +194 20 +193 20 +192 20 -191 20 *
Wi

0101100
-190 6 -238 6 +189 6 -236 6 +188 6 +187 6 +186 6 +185 6 -184 6 *
Wi

0101100
-183 0 -232 6 +182 0 -233 6 +181 0 +180 0 +179 0 +178 0 -177 0 *
Wi

0101100
-190 6 +230 6 -176 6 +221 6 *
Wi

0101100
-194 20 +229 20 -175 20 +225 20 *
Wi

0101100
-197 20 +213 20 -174 20 +228 20 *
Wi

0101100
-227 0 +174 0 +196 0 -173 0 *
Wi

0101100
-195 0 -173 0 +172 0 +226 0 *
Wi

0101100
-171 0 *
Wi

0101100
-170 0 -224 0 +193 0 +172 0 *
Wi

0101100
-223 0 +169 0 +192 0 -175 0 *
Wi

0101100
-191 0 -169 0 +170 0 +222 0 *
Wi

0101100
-168 0 *
Wi

0101100
-220 0 +176 0 +189 0 -167 0 *
Wi

0101100
-188 0 -167 0 +166 0 +219 0 *
Wi

0101100
-165 0 *
Wi

0101100
-187 6 +212 6 -164 6 +218 6 *
Wi

0101100
-163 0 -217 0 +186 0 +166 0 *
Wi

0101100
-216 0 +162 0 +185 0 -164 0 *
Wi

0101100
-184 0 -162 0 +163 0 +215 0 *
Wi

0101100
-161 0 *
Wi

0101100
-180 0 +214 0 -160 0 +207 0 *
Wi

0101100
-183 0 +211 0 -159 0 +210 0 *
Wi

0101100
-209 0 +159 0 +182 0 -158 0 *
Wi

0101100
-181 0 -158 0 +157 0 +208 0 *
Wi

0101100
-156 0 *
Wi

0101100
-155 0 -206 0 +179 0 +157 0 *
Wi

0101100
-205 0 +154 0 +178 0 -160 0 *
Wi

0101100
-177 0 -154 0 +155 0 +204 0 *
Wi

0101100
-153 0 *
Wi

0101100
+152 0 -151 0 -171 0 +151 0 *
Wi

0101100
+150 0 +168 0 -150 0 -149 0 *
Wi

0101100
+148 0 -147 0 -165 0 +147 0 *
Wi

0101100
+146 0 +161 0 -146 0 -145 0 *
Wi

0101100
+144 0 -143 0 -156 0 +143 0 *
Wi

0101100
+142 0 +153 0 -142 0 -141 0 *
Wi

0101100
+140 0 +139 0 -140 0 -138 0 *
Wi

0101100
+149 0 *
Wi

0101100
-152 0 *
Wi

0101100
+137 0 +136 0 -137 0 -135 0 *
Wi

0101100
+145 0 *
Wi

0101100
-148 0 *
Wi

0101100
+134 0 +133 0 -134 0 -132 0 *
Wi

0101100
+141 0 *
Wi

0101100
-144 0 *
Fa
0  1e-07 1 0

0111000
+131 0 *
Fa
0  1e-07 2 16

0101000
+130 0 *
Fa
0  1e-07 3 0

0101000
+129 0 +128 0 *
Fa
0  1e-07 4 16

0101000
+127 0 *
Fa
0  1e-07 5 16

0101000
+126 0 *
Fa
0  1e-07 6 16

0101000
+125 0 *
Fa
0  1e-07 11 16

0111000
+124 0 +123 0 *
Fa
0  1e-07 12 0

0101000
+122 0 *
Fa
0  1e-07 13 0

0101000
+121 0 +120 0 *
Fa
0  1e-07 14 0

0101000
+119 0 *
Fa
0  1e-07 15 0

0101000
+118 0 *
Fa
0  1e-07 18 16

0111000
+117 0 +116 0 *
Fa
0  1e-07 19 16

0101000
+115 0 *
Fa
0  1e-07 19 16

0101000
+114 0 *
Fa
0  1e-07 21 20

0101000
+113 0 *
Fa
0  1e-07 22 6

0101000
+112 0 *
Fa
0  1e-07 19 16

0101000
+111 0 *
Fa
0  1e-07 19 16

0101000
+110 0 *
Fa
0  1e-07 23 0

0101000
+109 0 *
Fa
0  1e-07 24 0

0111000
+108 0 *
Fa
0  1e-07 25 0

0101000
+107 0 *
Fa
0  1e-07 26 0

0101000
+106 0 +105 0 +104 0 *
Fa
0  1e-07 27 20

0101000
+103 0 *
Fa
0  1e-07 28 6

0101000
+102 0 *
Fa
0  1e-07 29 0

0101000
+101 0 *
Fa
0  1e-07 30 6

0101000
+100 0 *
Fa
0  1e-07 31 20

0101000
+99 0 *
Fa
0  1e-07 32 20

0101000
+98 0 *
Fa
0  1e-07 33 0

0101000
+97 0 *
Fa
0  1e-07 34 0

0101000
+96 0 +95 0 *
Fa
0  1e-07 35 0

0101000
+94 0 *
Fa
0  1e-07 36 0

0101000
+93 0 *
Fa
0  1e-07 37 0

0101000
+92 0 +91 0 *
Fa
0  1e-07 38 0

0101000
+90 0 *
Fa
0  1e-07 39 0

0101000
+89 0 +88 0 *
Fa
0  1e-07 40 6

0101000
+87 0 *
Fa
0  1e-07 41 0

0101000
+86 0 *
Fa
0  1e-07 42 0

0101000
+85 0 *
Fa
0  1e-07 43 0

0101000
+84 0 +83 0 *
Fa
0  1e-07 44 0

0101000
+82 0 *
Fa
0  1e-07 45 0

0101000
+81 0 *
Fa
0  1e-07 46 0

0111000
+80 0 *
Fa
0  1e-07 47 0

0101000
+79 0 +78 0 *
Fa
0  1e-07 49 0

0101000
+77 0 *
Fa
0  1e-07 46 0

0101000
+76 0 *
Fa
0  1e-07 50 0

0101000
+75 0 +74 0 *
Fa
0  1e-07 52 0

0101000
+73 0 *
Fa
0  1e-07 53 0

0101000
+72 0 *
Fa
0  1e-07 54 0

0101000
+71 0 *
Fa
0  1e-07 55 0

0101000
+70 0 *
Fa
0  1e-07 57 0

0101000
+69 0 *
Fa
0  1e-07 57 0

0101000
+68 0 *
Fa
0  1e-07 60 0

0101000
+67 0 +66 0 +65 0 *
Fa
0  1e-07 61 0

0101000
+64 0 +63 0 +62 0 *
Fa
0  1e-07 62 0

0101000
+61 0 +60 0 +59 0 *
Sh

0101100
+58 16 +57 0 +56 16 -55 0 -54 0 +53 0 +52 0 +51 16 -50 16 +49 16 
+48 16 -47 0 +46 0 +45 0 +44 0 +43 0 +42 0 +41 0 +40 0 -39 0 
+38 16 +37 16 -36 0 -35 0 -34 0 +33 0 -32 0 +31 0 +30 20 -29 20 
+28 20 +27 20 +26 20 +25 6 -24 6 -23 0 +22 6 +21 6 +20 6 -19 0 
+18 0 +17 0 -16 0 +15 0 +14 0 +13 0 +12 20 +11 20 +10 6 +9 6 
+8 0 +7 0 +6 20 +5 6 +4 0 *
So

0100000
+3 0 *
Co

1100000
-380 3 +379 3 +378 3 +377 3 -376 3 +375 3 -374 3 +373 3 -372 3 +371 3 
+370 3 -369 3 -368 3 +367 3 -366 3 +365 3 -364 3 +363 3 -362 3 -361 5 
+360 7 -359 5 +358 7 -357 5 +356 7 -355 2 +354 2 -353 2 -352 2 +351 3 
-350 3 +349 5 -348 7 +347 5 -346 7 +345 5 -344 7 +343 2 -342 2 +341 2 
+340 2 +339 5 +338 5 +337 5 -336 5 +335 5 -334 5 +333 7 +332 7 +331 7 
-330 7 +329 7 -328 7 +327 2 +326 2 +325 2 -324 2 +323 2 -322 2 +321 3 
-320 3 +319 3 -318 5 -317 5 -316 5 +315 5 -314 5 +313 5 -312 7 -311 7 
-310 7 +309 7 -308 7 +307 7 -306 2 -305 2 -304 2 +303 2 -302 2 +301 2 
+300 5 -299 5 +298 7 -297 7 +296 2 -295 2 +294 5 -293 5 +292 7 -291 7 
+290 2 -289 2 -288 5 +287 5 -286 7 +285 7 -284 2 +283 2 -282 8 +281 8 
+280 8 -279 8 -278 8 -277 7 +276 8 -275 7 +274 8 +273 8 +272 8 -271 8 
-270 8 +269 8 -268 8 +267 8 +266 7 -265 8 +264 7 -263 8 -262 8 -261 8 
-260 8 +259 8 -258 8 +257 7 +256 7 +255 7 +254 7 +253 7 +252 7 +251 7 
+250 7 +249 7 +248 7 -247 2 -246 8 -245 8 +244 8 +243 8 -242 8 -241 7 
-240 7 -239 7 -238 7 -237 7 -236 7 -235 7 -234 7 -233 7 -232 7 +231 2 
-230 7 +229 17 -228 17 +227 17 +226 17 +225 17 +224 17 +223 17 -222 17 -221 7 
+220 7 +219 7 +218 7 +217 7 +216 7 -215 7 +214 2 -213 17 +212 7 -211 2 
-210 2 +209 2 +208 2 +207 2 +206 2 +205 2 -204 2 -203 2 +202 8 -201 8 
+200 8 +199 8 -198 8 +197 17 -196 17 -195 17 -194 17 -193 17 -192 17 +191 17 
+190 7 -189 7 -188 7 -187 7 -186 7 -185 7 +184 7 +183 2 -182 2 -181 2 
-180 2 -179 2 -178 2 +177 2 -176 7 +175 17 -174 17 -173 17 -172 17 +171 17 
-170 17 +169 17 -168 17 -167 7 -166 7 +165 7 +164 7 -163 7 +162 7 -161 7 
+160 2 -159 2 -158 2 -157 2 +156 2 -155 2 +154 2 -153 2 +152 17 -151 17 
+150 17 -149 17 +148 7 -147 7 +146 7 -145 7 +144 2 -143 2 +142 2 -141 2 
+140 17 +139 17 -138 17 +137 7 +136 7 -135 7 +134 2 +133 2 -132 2 +131 8 
+130 2 +129 8 +128 8 -127 2 -126 2 +125 2 +124 2 +123 2 +122 8 -121 8 
-120 8 +119 8 +118 8 -117 2 -116 2 +115 2 +114 2 +113 2 +112 2 +111 2 
+110 2 +109 2 -108 2 +107 8 +106 8 +105 8 +104 8 -103 2 -102 2 -101 2 
+100 2 -99 2 +98 2 +97 17 -96 17 -95 17 +94 17 +93 17 +92 17 +91 17 
+90 7 -89 7 -88 7 -87 2 +86 7 +85 7 +84 7 +83 7 -82 2 +81 2 
+80 2 -79 2 -78 2 +77 2 +76 2 +75 2 +74 2 +73 17 +72 17 +71 7 
+70 7 +69 2 +68 2 +67 17 +66 17 +65 17 +64 7 +63 7 +62 7 +61 2 
+60 2 +59 2 +58 8 +57 2 +56 8 -55 2 -54 2 +53 2 +52 2 +51 8 
-50 8 +49 8 +48 8 -47 2 +46 2 +45 2 +44 2 +43 2 +42 2 +41 2 
+40 2 -39 2 +38 8 +37 8 -36 2 -35 2 -34 2 +33 2 -32 2 +31 2 
+30 17 -29 17 +28 17 +27 17 +26 17 +25 7 -24 7 -23 2 +22 7 +21 7 
+20 7 -19 2 +18 2 +17 2 -16 2 +15 2 +14 2 +13 2 +12 17 +11 17 
+10 7 +9 7 +8 2 +7 2 +6 17 +5 7 +4 2 +3 2 +2 2 *

+1 0 