DBRep_DrawableShape

CASCADE Topology V1, (c) Matra-Datavision
Locations 3
1
0.707106781186548               0 -0.707106781186547 0.385975021663794 
              0               1               0               0 
0.707106781186547               0 0.707106781186548 -0.171826132037982 
1
              1               0               0               0 
              0               1               0               0 
              0               0               1               0 
2  1 1 2 1 0
Curve2ds 53
1 0 0 1 0 
2 0 0 1 0 -0 1 0.026400000000000003
2 0 0 1 0 -0 1 0.018957056733575495
7 0 0  10 74 9  4.7123889803846897 0.9625507478846872  4.8251832041875033 0.9625507478846872  4.9379766268830281 0.95270714572143333  5.0458236986596603 0.93302498217963148  5.1437507889932021 0.90425688418326899  5.2288371083559468 0.86805002704204526  5.302700903150253 0.8259723148366902  5.365914594673086 0.77915728406514972  5.4200448809569934 0.7286021290710778  5.4662144943824211 0.67504444396462648  5.574193960945629 0.52115002622627093  5.6217585977719864 0.41585411348034995  5.6537562365992926 0.30638887416898797  5.6741822819458321 0.19446534598364451  5.6845252350904047 0.081163746027414163  5.6859421423869208 -0.032598518537270138  5.6782138743437827 -0.14603360892942874  5.6606817553183646 -0.2582349860711588  5.6312305964082965 -0.36804203900080945  5.5690728784891421 -0.5129319786251576  5.5499052351383353 -0.55182411803205222  5.5283198531395774 -0.58998546125512763  5.5040796245313697 -0.62729161731037186  5.4769117106055401 -0.66359612329213435  5.4465063062317007 -0.69872605924303277  5.4125201316424549 -0.73247547604691621  5.3745943742543059 -0.76459768043783816  5.3324013855071435 -0.79480144560677568  5.244909450393509 -0.84722418561270785  5.2006584045298636 -0.86996934526518044  5.1528472949491473 -0.8907769674434155  5.101420486382449 -0.90940783695473348  5.0464236528738793 -0.925607536327132  4.9880893161217212 -0.93911650577868699  4.9269057942351893 -0.94969392949849019  4.8636183848394055 -0.95715243431939334  4.799144201310467 -0.9613885454782114  4.6211380060797342 -0.96412000304278511  4.5070812043231854 -0.95592658452096657  4.3972507567377761 -0.93769919178157579  4.2968934607924893 -0.91009209171170369  4.2095448119798675 -0.8747300015820656  4.1336303181014955 -0.83327034045942128  4.0686331421602517 -0.78687086358695524  4.0129731392371468 -0.73658144107594126  3.9654970115731176 -0.68316857890376403  3.8645470552018066 -0.54338937484285044  3.8199476390234794 -0.45389846284221746  3.7876882455069789 -0.3608814954681378  3.7650102750019867 -0.26559433375359731  3.7504291887598811 -0.16887014895178254  3.7430832049489253 -0.071357634630385289  3.7425635754920221 0.026376346366578218  3.7490338621371704 0.12378524563513556  3.7631380698854349 0.22023840664717098  3.7978959160029846 0.36217068003834352  3.8117485299901532 0.40902351860303759  3.8280464576485729 0.45530867700356425  3.8470143974363973 0.50090132330603099  3.8689324385834176 0.54565467272742452  3.8941394322673659 0.58939442213475857  3.9230410231588912 0.63190957486751242  3.9561151335366711 0.67293909092878268  3.9938898544797743 0.71215815865888843  4.0798118674203003 0.7861863314880706  4.127959809362947 0.82099535757442044  4.1817741140712315 0.85320585832159845  4.2417203871766107 0.88235153350397011  4.3080518771457719 0.90790184575780586  4.3808384360716444 0.92925370755983749  4.459480315897963 0.94577881779218842  4.5423720365315861 0.95695960780316436  4.6273802477481443 0.9625507478846872  4.7123889803846888 0.9625507478846872 
 0 11 0.78539816339745372 9 2.159844949342999 9 2.6752624940725767 9 3.1262528457109537 9 3.915485961078117 9 5.0993356341288649 9 5.6912604706542353 9 6.2831853071795862 11
1 6.2831853071795862 -0 0 1 
1 0 -0 0 1 
1 0 0.026400000000000003 1 0 
2 0 0 1 0 -0 1 0.026400000000000003
7 0 0  8 107 16  3.659427485222174 0.013200000000000002  3.6594274825253215 0.012581375429070094  3.6579684572728484 0.011986325552392988  3.6552449343780791 0.011415646339697685  3.6514377451987419 0.010870321311903929  3.646724571631256 0.010351592270811151  3.6412886743203718 0.0098610135343746939  3.6353258049841108 0.009400489677569358  3.6200469018061119 0.0083581387461742623  3.60999641098033 0.0077830348521149917  3.5991377798140345 0.007244354695716047  3.5876371560995017 0.0067387407444401944  3.5755899051157867 0.0062621599532793025  3.563013989944829 0.0058099748286274799  3.5498337129718447 0.0053770339369073163  3.5142415952318262 0.004309638938913605  3.4915819617660686 0.003720130547332604  3.4675421072779953 0.0031682202447791651  3.4416525786203813 0.0026448284707218483  3.4134733225356064 0.0021491941694672715  3.3826304342185236 0.0016872739963110354  3.3488017835107455 0.0012713809645155838  3.2938084770767548 0.00075052931426578462  3.2745046214864875 0.00059019256438383049  3.2539463238277611 0.00044526415692683731  3.2322491604936996 0.00032133630307566458  3.2095160836090133 0.00022358341335269142  3.1858374210300067 0.00015676209762181662  3.1612908763445717 0.00012521116508845879  3.0820303345869835 0.00014910081104515019  3.03359454585717 0.00034087019882390326  2.990316494687828 0.00064592343228150417  2.9517666878900233 0.0010250737309530418  2.9173920330055534 0.0014491413022594507  2.8864475516499297 0.0019036748352454218  2.8579344213720472 0.0023881971692151904  2.8102245984515579 0.0033306744993922221  2.7909457737280108 0.003756272242546284  2.772711430072087 0.0042026583830701075  2.7553867936025491 0.0046715932904443543  2.7388911808268763 0.00516586886872123  2.7232039843872631 0.0056888885510197546  2.70837401962235 0.0062442123968479033  2.6850669908382057 0.0072391035463950119  2.6761300631767644 0.0076569140277282666  2.66763010852898 0.0080943344807933963  2.6595652492262172 0.008556408435987102  2.6520067508825798 0.0090474266685054462  2.6450892581395755 0.0095709890967102772  2.6390075856354418 0.010130089119917416  2.6308478666137658 0.01110701192433979  2.6280309883488773 0.01151262022312282  2.6257541740028567 0.011937179358753366  2.6241447190047911 0.01237477320129186  2.6232804693301923 0.012820100129329593  2.6231945465996778 0.013268162918770499  2.6238767985606111 0.013713983815126616  2.6271106036655567 0.014730037387443908  2.6301316140578175 0.015277306118036483  2.6341146853305326 0.015795404238440093  2.6388784200242057 0.016285693447781642  2.6442733060716006 0.016749682502198691  2.6501786359203345 0.017189086942791715  2.6565033827242428 0.017605909936309838  2.6731881518498266 0.01859545794249394  2.6841490769593586 0.019152305068412392  2.6958733981221141 0.019675523455526388  2.7082285755250992 0.020168233074899004  2.7211463162250142 0.020634087072995782  2.7346271841609537 0.021077123710218859  2.7487534443071526 0.021501619184434776  2.7869410007450073 0.022549256962465587  2.8110864230123505 0.023122483134056664  2.8367441267741293 0.023659629679501207  2.8646019329180414 0.024169965311768338  2.8952440986175758 0.024652721741380838  2.9291337732115528 0.02509676482991478  2.9666530329235616 0.025484000672290435  3.0493414540568673 0.026087991914156828  3.0952183651526655 0.026311012010422914  3.1433708700548109 0.026402169631796896  3.1918983165000636 0.026342029738671658  3.2390883795593357 0.026136089510088445  3.282867203641179 0.025807327811821955  3.3211910622351124 0.025414617750852939  3.3682103511059371 0.024854916580589647  3.3852584951520854 0.024627924621372966  3.4015012742115762 0.024389206264783702  3.4170017618567035 0.024140205790788152  3.4318291499279012 0.023881747696498  3.4460575722778906 0.023614002410633265  3.4597646748877624 0.023336405144274819  3.4921698102773098 0.022630719110607239  3.5101631255972632 0.022195378213172846  3.5272214783980007 0.021739505796966013  3.5434733388479827 0.021260148378522935  3.5589736381360182 0.020753739246517546  3.5737066021519697 0.020216485762519103  3.5875818279131613 0.019644803095542809  3.6119811497507803 0.018487688942453246  3.6229176356028487 0.017899134685569352  3.6331171108422406 0.017262906290076471  3.6423170809584553 0.016573293473402848  3.6501254288997007 0.01582581723578938  3.6560396685901839 0.015016767333523088  3.6594274811125569 0.014142695634383489  3.6594274852221735 0.013200000000000002 
 0 9 0.041828972708712234 7 0.10182436185100964 7 0.19457425767505848 7 0.23941096544084778 7 0.33476649544428905 7 0.40666644298187393 7 0.45583280464220505 7 0.4871039311389333 7 0.52831448448454033 7 0.58991859364457488 7 0.68560258419331988 7 0.78082024204128742 7 0.83940215294575715 7 0.92392750994971407 7 1 9
7 0 0  8 107 16  6.2831853071795862 0.022938774509550421  6.2358464205152222 0.022938774544792873  6.1903113424195197 0.022957841874887155  6.1464802332885222 0.022993430455387039  6.1043168443270028 0.02304291201919062  6.0638444711305981 0.023103591248334065  6.0251464808801929 0.023172718710870736  5.9883714131485251 0.023247501562836097  5.9040745480530612 0.023436428860906414  5.85660021320317 0.0235585436494519  5.8110722746306829 0.023687601462805755  5.7672148331349131 0.023820813074192242  5.7247074800863071 0.023956440866488377  5.6831560667142673 0.024093737780484594  5.6420502280495954 0.024232839293106299  5.5367941042733291 0.024593776472632816  5.4748684436821575 0.024810551448868904  5.4128694243253452 0.025025965701991785  5.3493556169818497 0.025241037320666338  5.2832503437813365 0.025454305678952297  5.2137138651434194 0.025661029801783315  5.1400422460322179 0.025853114039701728  5.0235200918078666 0.026098932996616024  4.9830885785476848 0.026175693762439139  4.9404956416818298 0.026245859661427725  4.8959739663629698 0.026306403923646218  4.8496910604856174 0.026354521186308631  4.8017492546861202 0.026387627493778477  4.7521857023426612 0.026403360297568828  4.5920555170519872 0.0263915355046512  4.4940822986841562 0.026296619213207823  4.4049770109439708 0.026145995897182396  4.3236123893660166 0.025963967421802365  4.2488369751452613 0.025766859470814554  4.1792614412079647 0.025563323687766867  4.1128204971168101 0.025354328690665492  3.9961069078875866 0.024969065699215448  3.9470616844339679 0.024801305196014232  3.8986257093577135 0.024632533630726611  3.8503302506900767 0.024463451670173896  3.8017406997034455 0.02429474644684855  3.7524506134847231 0.02412747808568173  3.7020854244200163 0.02396343474749886  3.614914910905382 0.023697427863695282  3.5791054492901262 0.023592991765430137  3.542342776870504 0.023491595926957601  3.5042067088840585 0.023393538170256023  3.4643665598378255 0.02329999913452541  3.422547659056014 0.023213055113923117  3.3784993526178262 0.023135670705202331  3.3023670703268801 0.023030965902586638  3.2709506163112949 0.022994555259001986  3.2382524342299348 0.022964911498493851  3.204698084541604 0.022943848673430182  3.170640710567679 0.022932517937334539  3.1363978802342092 0.022931408092456758  3.1022859425610787 0.022940351472131786  3.0243273827749402 0.022982498469691418  2.9821729351050754 0.02302178453260691  2.9419887403931129 0.02307331631734057  2.9036131705990105 0.023134420238523565  2.8669038423516908 0.02320284526152876  2.8317196871168648 0.023276776500138568  2.7979040343191492 0.023354843305102586  2.7164833823586529 0.023557622079582008  2.6695901642716011 0.02368815725717302  2.6243603595991805 0.023824377588714921  2.5805285070508965 0.023963904968411057  2.5377867799617642 0.024105282335082193  2.4957651017250075 0.024247877693512016  2.4539969742995975 0.024391742794367365  2.3464406534118938 0.024763703516385273  2.2832141545752713 0.024983754818643015  2.2194031949634025 0.025201131312131718  2.1532437812480594 0.02541791803337164  2.0834094559188614 0.025631887514202679  2.0090030151857379 0.025836285473449488  1.9291876289104364 0.026019485181745631  1.7572961710759045 0.026310035292829995  1.6637273769272727 0.026420380209909767  1.5670499532615803 0.026467413827863696  1.4698723042980466 0.026437393369934382  1.3745602427817278 0.026332431396136616  1.2840013953080271 0.026170959268696507  1.2022649770826754 0.025986333834946272  1.0999426589664512 0.025729139202431632  1.062211593615511 0.02562641843678929  1.0255920998915005 0.025520277882273165  0.98994053484208344 0.025411726417695936  0.95509788697688647 0.025301460167226612  0.92088387284366113 0.025189885904134141  0.88708856034247696 0.025077153373832015  0.8049424853537358 0.024798773043832753  0.75734878210805046 0.02463375138409828  0.71007455457055768 0.024468579916978213  0.66261745396109772 0.024303602381875209  0.61454126262195863 0.024139453112206062  0.56545589859140788 0.02397739848802043  0.51501479931848915 0.023819624626669096  0.41605328532019936 0.023534333916337163  0.36697132893519069 0.02340284762231953  0.3151130304743292 0.023277059828556233  0.26007597292018952 0.023160925033247168  0.20150496218653544 0.023060320005329198  0.1390246634643921 0.02298305024860714  0.072137713068831461 0.022938774563254886  0 0.022938774509550421 
 0 9 0.041828972708712234 7 0.10182436185100964 7 0.19457425767505848 7 0.23941096544084778 7 0.33476649544428905 7 0.40666644298187393 7 0.45583280464220505 7 0.4871039311389333 7 0.52831448448454033 7 0.58991859364457488 7 0.68560258419331988 7 0.78082024204128742 7 0.83940215294575715 7 0.92392750994971407 7 1 9
1 6.2831853071795862 -6.2831853071795862 0 1 
1 0 -6.2831853071795862 0 1 
1 0 -1.5707963267948966 1 0 
1 0 1.5707963267948966 1 0 
2 0 0 1 0 -0 1 0.018957056733575495
7 0 0  10 74 9  1.5707963267948966 0.9625507478846872  1.4580021029920827 0.9625507478846872  1.3452086805482395 0.95270714572143333  1.2373616071781726 0.93302498217963148  1.1394345200824318 0.90425688418326899  1.0543481986387633 0.86805002704204526  0.98048440538696013 0.8259723148366902  0.91727071119385073 0.77915728406514972  0.86314042643061839 0.7286021290710778  0.81697081279716555 0.67504444396462648  0.70899134623395699 0.52115002622627082  0.66142670975568763 0.41585411348216894  0.62942906759417383 0.30638887416898797  0.60900302703521447 0.19446534598364451  0.59866006817901507 0.081163745998310333  0.5972431690315716 -0.032598518537270138  0.60497142996246112 -0.1460336089367047  0.62250355228752596 -0.25823498606933981  0.65195471077128941 -0.36804203900080945  0.71411242869044367 -0.5129319786251576  0.73328007203670875 -0.55182411803205222  0.75486545404327743 -0.58998546125512763  0.77910568264448243 -0.62729161731037186  0.80627359656086317 -0.66359612329213435  0.83667900093926906 -0.69872605924303277  0.87066517553732259 -0.73247547604691621  0.90859093292286219 -0.76459768043783816  0.95078392167244341 -0.79480144560677568  1.0382758567860777 -0.84722418561270785  1.0825269026472328 -0.86996934526518044  1.1303380122220903 -0.8907769674434155  1.1817648207869904 -0.90940783695473348  1.2367616542966668 -0.925607536327132  1.2950959910498567 -0.93911650577868699  1.3562795129384337 -0.94969392949849019  1.419566922338612 -0.95715243431939334  1.4840411058691194 -0.9613885454782114  1.6620473010998518 -0.96412000304278511  1.7761041029061744 -0.95592658452096657  1.8859345499949995 -0.93769919178157579  1.9862918452126905 -0.91009209171170369  2.0736404946655966 -0.8747300015820656  2.1495549888641108 -0.83327034045942128  2.214552164732595 -0.78687086358695524  2.2702121679612901 -0.73658144107594126  2.3176882956064686 -0.68316857890376403  2.4186382519777796 -0.54338937484285044  2.4632376681282588 -0.45389846284221746  2.495497061736478 -0.3608814954681378  2.5181750320349239 -0.26559433375359731  2.5327561183148646 -0.16887014895178254  2.5401021022422356 -0.071357634630385289  2.5406217316110089 0.026376346366578218  2.5341514450611333 0.12378524563513556  2.5200472372941514 0.22023840664717098  2.4852893911766016 0.36217068003834352  2.4714367771889956 0.40902351860303759  2.4551388495254765 0.45530867700356425  2.4361709097379687 0.50090132330603099  2.4142528685927873 0.54565467272742452  2.3890458749076666 0.58939442213475857  2.3601442840162181 0.63190957486751242  2.3270701736433255 0.67293909092878268  2.2892954526998111 0.71215815865888843  2.203373439759285 0.7861863314880706  2.1552254977895187 0.82099535757442044  2.1014111932056041 0.85320585832159845  2.0414649197744437 0.88235153350397011  1.9751334299326118 0.90790184575780586  1.9023468711486202 0.92925370755983749  1.8237049910655514 0.94577881779218842  1.7408132706681738 0.95695960780316436  1.6558050594314409 0.9625507478846872  1.5707963267948966 0.9625507478846872 
 0 11 0.78539816339744795 9 2.1598449493429825 9 2.6752624940725553 9 3.1262528457109333 9 3.9154859610780952 9 5.0993356341288489 9 5.6912604706542211 9 6.2831853071795862 11
1 6.2831853071795862 -0 0 1 
1 0 -0 0 1 
7 0 0  7 38 7  0 0.21040646328201035  0.024921996635984926 0.21040646328201035  0.049820580365672336 0.21040106900082547  0.074656765241380652 0.21039029741190524  0.099389714928254616 0.21037425968728063  0.12397529489095105 0.21035316012129263  0.14836462458032451 0.21032729505432105  0.19875166637265104 0.21026416356136601  0.22470740431686839 0.21022609226577685  0.25037761216806315 0.21018323378127263  0.27576772304189945 0.21013599705615299  0.30087951915878908 0.21008480414075384  0.32570981654827308 0.21003009021271071  0.37825916406837079 0.20990634403545436  0.40592244991981935 0.20983630497292657  0.43327476680589666 0.20976271746705416  0.46035176695015068 0.20968606290582864  0.48718990418775643 0.209606774358605  0.51382734285174481 0.20952523792188735  0.57130505515157393 0.2093440970407551  0.60209177936379032 0.20924376737740782  0.63272746153113679 0.20914136098385469  0.66327243509033962 0.20903737661140348  0.69378882718881696 0.20893226510165072  0.72434444119390229 0.20882643863424483  0.79666173883194913 0.20857614332183025  0.83845063425425936 0.20843164136922132  0.88060987990840955 0.20828762030579745  0.92333246082416642 0.20814505026159552  0.96679255408296683 0.20800513307132285  1.0111535561350122 0.20786938097185961  1.1207548138543684 0.20755634250854255  1.1889252835942705 0.20737971327375407  1.2601832617508482 0.20722077419155463  1.3341010561823246 0.20708968060539237  1.4104895398248709 0.20699533073509599  1.4893240483023178 0.20694523789802868  1.570796326794897 0.20694523779156071 
 0 8 0.10477940441532037 6 0.21872247605165995 6 0.34878090269863193 6 0.5010548000007069 6 0.70780430072081335 6 1 8
7 0 0  7 38 7  5.7653504755472076 0.013200000000000002  5.7653504755472076 0.013525680652039049  5.7657632905261833 0.013851055146752365  5.766587508477345 0.014175284367054893  5.767816644267624 0.014497506208713309  5.7694388007895814 0.01481683268944216  5.7714363301133345 0.01513234705800001  5.776340109481592 0.015781032273025832  5.7793109556029423 0.016113384150008875  5.7826752957799057 0.016439950445209552  5.786410660129917 0.016760528253189414  5.7904942812476339 0.01707490344489471  5.7949025293421181 0.017382836260454313  5.8049840080747268 0.018027858785958528  5.8107541428529412 0.018363310472336896  5.8168948879066491 0.018690582875225733  5.8233843781893153 0.019009878350747467  5.8302048479158932 0.019321415817577153  5.8373427310688228 0.019625425877485676  5.8535066601897432 0.020269549182752061  5.8626485317904367 0.020607025060694801  5.8721992624997696 0.020934908821165173  5.8821490753969119 0.021253483115338263  5.8924943959878471 0.021562983897410012  5.9032387173466701 0.021863606327896939  5.9295387961504549 0.022551843071989347  5.9454149380406411 0.022931424006479108  5.9620590274463661 0.023295059830038899  5.9795158417177001 0.023642692734078506  5.9978337666608184 0.023973523380424782  6.0170609575021903 0.024286040517644009  6.0657627979894571 0.024990519218054799  6.0970229749734663 0.025374010151476487  6.1306566868575221 0.025707647516281962  6.1663510454508268 0.025976190928125076  6.2038334859466779 0.026166803349810058  6.2428565293257599 0.02626799978491319  6.2831853071795862 0.026268000000000003 
 0 8 0.10477940441532037 6 0.21872247605165995 6 0.34878090269863193 6 0.5010548000007069 6 0.70780430072081335 6 1 8
7 0 0  10 29 4  5.7653504755472031 0.0066000000000000008  5.7653504755472031 0.006971149694133919  5.7658609623249504 0.0073418811887364654  5.7668806689907797 0.0077114652650038806  5.7684031658573076 0.0080777461557772767  5.770398534135893 0.0084410318775098858  5.7729018577374518 0.0088011292391456664  5.7757832159986719 0.0091505565814031797  5.7791032735622139 0.0094967865322246325  5.7828054833038571 0.0098359531299025381  5.7889096789540675 0.010335131496489985  5.7910361693342374 0.010499912820446641  5.7932505290375245 0.010662996078349366  5.7955527854104734 0.010824522981675716  5.7979370769519125 0.010984280895100718  5.8003987894326805 0.011142148379194815  5.8029386453263818 0.011298333506651423  5.8055575192711784 0.011453031864173558  5.8082495131790264 0.011605993492875187  5.8137796578317706 0.011908707228683073  5.8166175468531085 0.012058441375765786  5.8195265049785565 0.012206569502794942  5.8225049104331763 0.012353108842585198  5.8255512684235233 0.012498077110720372  5.8286642121228702 0.012641492456215531  5.831842503645472 0.01278337341218296  5.8350850350800014 0.012923738846523957  5.8383908295529441 0.013062607912625701  5.8417590421934866 0.013200000000000146 
 0 11 0.17058271941632802 9 0.25587407912451055 9 0.34116543883272038 11
7 0 0  8 44 7  1.570796326794897 0.20694523779156068  1.6951887086021677 0.20694523795411665  1.8102663254681675 0.20705963007481656  1.9184831810618002 0.20725841993788691  2.0210408346979842 0.20751519064659854  2.1189774876221694 0.20780818203339893  2.2132309890260378 0.20811979092274963  2.3047574754997475 0.20843709749534711  2.4421301068316632 0.2089125594850858  2.4885448384524462 0.2090730635881724  2.5352652039313481 0.20923233388563922  2.5828487312292716 0.2093901838381283  2.6317565165013668 0.20954561661646701  2.6823745390368821 0.20969649650100511  2.7350460294121448 0.20983936566776276  2.8262572622802189 0.2100547536688509  2.8643436708950434 0.21013672691931876  2.9042671348717368 0.21021277878763686  2.9459680096554584 0.21028022048040354  2.9894305836198036 0.21033623048557884  3.0346851415677025 0.21037787743665487  3.0818154960793689 0.21040215709138738  3.1791208564971218 0.21040985009584967  3.2256561099852696 0.21039380991811252  3.2706367115725632 0.21036017389923722  3.3140598261526941 0.21031144697013435  3.3558638070337534 0.21025034940015713  3.3959234487578214 0.21017978508299798  3.4340375048186478 0.21010281669359201  3.5240956501754326 0.20990154334222649  3.5758335627089477 0.20976717065943126  3.6254508458205787 0.2096243139802007  3.6732737568692717 0.20947646103283374  3.7196713057216981 0.20932579939701768  3.7650911266774703 0.20917334782449704  3.810086089228121 0.20901922244476387  3.9504464465443352 0.20853470804194937  4.0453925856104256 0.20820170104264293  4.1428756983999033 0.20787301655915413  4.2440882324595233 0.20756143796885121  4.3502388606679734 0.20728584357549487  4.462513460427985 0.2070703867721779  4.5822794246144962 0.20694523796158784  4.7123889803846897 0.20694523779156068 
 0 9 0.26721733196027342 7 0.40517248075929813 7 0.49571414254219692 7 0.58439986090919316 7 0.71836974195590608 7 1 9
7 0 0  8 44 7  0 0.026268000000000003  0.061574228994598114 0.026267999671604116  0.11853675316506478 0.026036914639365982  0.17101362521344027 0.025635243921983044  0.21916176531020792 0.025099555078841804  0.26312845368250226 0.024460035293383763  0.30309390363012545 0.023735896104896292  0.33929179278964144 0.022940916713999043  0.38884400438734074 0.021622802698039754  0.40473777463337268 0.021155269620109787  0.41984525773700826 0.020664692601489811  0.43425485945137815 0.020146098997033943  0.44795753107582431 0.019594519632084924  0.4608506364970168 0.019005401926021209  0.47273981950579308 0.018374768926424933  0.4902951595692287 0.017255690341034684  0.49687100431717618 0.016781690770368063  0.50287977102765091 0.016278044981480531  0.50813663708611845 0.015745554224218337  0.51245614145874918 0.015184892653225073  0.51564715795631511 0.014596607604772764  0.51750529217265462 0.01398112905586324  0.51809401564699298 0.012709614321813353  0.51686637316986683 0.01210116013866719  0.51429495315057094 0.011514911983680751  0.5105517246733815 0.01095256013918605  0.50581409762999918 0.010416044398673479  0.50027315769610003 0.0099076218214459132  0.49414148607703962 0.0094299567455812094  0.4778703929255117 0.008315937880043785  0.46680112649711525 0.0076900857679783304  0.45474332700893838 0.0071053484276608399  0.4418995237870425 0.0065578900732761805  0.42838373998426138 0.0060432183146690655  0.41421763633451497 0.0055562787292380107  0.39932327188931205 0.0050917931195941868  0.3502751833538178 0.0037052637616827354  0.31343553417617193 0.0028558169757806158  0.27266046487604401 0.0020820888645513751  0.22760648338787121 0.0013972493135773405  0.17801794484977471 0.00082014914781918175  0.12368683044944977 0.00038481965403642989  0.064404230106244992 0.00013200034348922693  0 0.00013200000000000017 
 0 9 0.26721733196027342 7 0.40517248075929813 7 0.49571414254219692 7 0.58439986090919316 7 0.71836974195590608 7 1 9
7 0 0  11 92 10  0.44142626203141683 0.013200000000004168  0.44416347293732128 0.013088346870021901  0.44686926051043313 0.012975345193291998  0.44954299341133125 0.012860962726106732  0.45218392436442961 0.012745167674788007  0.45479119020677172 0.012627928740967237  0.45736381239569751 0.012509215159951848  0.45990069752755924 0.012388996732227969  0.46240063765420986 0.012267243848122911  0.46486231041852738 0.01214392750562532  0.46728427926477417 0.012019019321335256  0.47070655700448166 0.011837135627745859  0.47174022350385036 0.011781469718946364  0.47276586396650921 0.011725491483399259  0.47378334436202679 0.011669198619234348  0.47479252654136056 0.011612588847446812  0.47579326823048701 0.011555659911922674  0.4767854229848798 0.011498409579417807  0.47776884017842991 0.011440835639477044  0.4787433650406866 0.011382935904295314  0.47970883869658165 0.011324708208538014  0.48156159129668397 0.011211252472230412  0.48244935412777873 0.011156105048772409  0.48333418033511905 0.011100326736173439  0.48419355870547326 0.011045340414222499  0.48506622736352834 0.010988692070358493  0.48593102150863904 0.010931669421717577  0.48677780654807895 0.010874900129403448  0.4876286785357396 0.010816993851473843  0.48846722543162807 0.010758938800636747  0.48929941826354034 0.010700354799866682  0.49321420128637833 0.010419958516479389  0.49619367635861561 0.010192206960243092  0.49904486221545796 0.0099581471801775123  0.50175062622314626 0.0097178524756484884  0.5042938013224707 0.0094713915244714533  0.50665712684211806 0.0092188283486544995  0.50882317811861721 0.0089602223212298399  0.51077428490107135 0.0086956282141490739  0.51249243840719039 0.008425096287241942  0.51395918678546948 0.0081486724182623805  0.51560414306715519 0.0077605454699976144  0.51601480253559129 0.0076539086312210182  0.51638617676179344 0.0075462529736468895  0.51671780032882786 0.0074381062494936626  0.5170084527915324 0.0073291061669099157  0.51725671308676024 0.0072189181062942897  0.517461644415943 0.0071079470264858585  0.51762265322984535 0.0069967509911514573  0.51773864339470643 0.0068847472828537813  0.51780766406826639 0.0067704856094413781  0.51790514844678559 0.0062618093674710667  0.51740503897435242 0.0058741730251740598  0.51636782186602459 0.0054948708525085462  0.51483198308552436 0.0051242611947259877  0.51283620746859127 0.0047627300873131911  0.51041988705351005 0.0044106946122482562  0.50762361080150897 0.0040686068307009236  0.50448964228610627 0.0037369582921839952  0.50106238952207149 0.0034162851201564592  0.49738886869627064 0.0031071736740729719  0.4930354477115102 0.0027731534270925787  0.49254866885040743 0.002736230762565055  0.49205892238843174 0.0026995000498205839  0.49156630688663816 0.0026629625581790382  0.49107092167112537 0.002626619570943625  0.4905728668454547 0.0025904723855896599  0.49007224330177018 0.0025545223139545659  0.48956915273455798 0.0025187706824345473  0.48906369765718533 0.0024832188321881441  0.48855598141753698 0.0024478681193414627  0.48626155196235626 0.0022897012006353784  0.48445350533074816 0.0021693575757737449  0.48254470665415283 0.0020462002364922682  0.48073634094907902 0.0019340817489137407  0.47867092437809333 0.0018080341342283646  0.47681768657639623 0.0017005788499773189  0.47473225751309656 0.0015806888465021984  0.47272391835576855 0.0014697863321089244  0.47064288640467566 0.0013573443544743213  0.46853999576790339 0.0012468082009377335  0.46427257090284413 0.0010281197299579156  0.46210894644548062 0.00092003078797945725  0.45991638732835116 0.00081317553994460906  0.45769579484136008 0.00070753190733655318  0.45544799393214253 0.00060307733646003056  0.45317373274891987 0.000499788805940398  0.45087368212845463 0.00039764283794759133  0.44854843509320064 0.00029661551314317034  0.44619850635071301 0.00019668248935044992  0.44382433171734942 9.7819023949541047e-05  0.44142626731725565 9.3761803876546423e-16 
 0.34607095047609143 12 0.38419792770610589 10 0.40087848024423911 10 0.41651649824873782 10 0.47515906576561129 10 0.49715002858443497 10 0.57411839845034163 10 0.58373944468358252 10 0.61741310649993619 10 0.65108676831629342 12
7 0 0  7 44 8  4.7123889803846897 0.20694523779156068  4.7930978792808707 0.20694523789703106  4.8712500313743128 0.20699439639746917  4.9470168596736119 0.20708711001655095  5.0203622941860839 0.20721609766622986  5.091089060507886 0.20737267874382243  5.1587648898675518 0.20754689850591126  5.2699575616933831 0.20786274892102546  5.3162604286406916 0.20800426980271006  5.3615773718486741 0.20815034142537817  5.4060941042913901 0.20829924677740008  5.4500084665374597 0.20844963609573286  5.4935402370516657 0.208600427719207  5.5668329609249136 0.20885410200635043  5.5966186510279865 0.2089571346822662  5.6263780335188525 0.20905941503582467  5.6561740173362169 0.20916055884500478  5.6860643085052809 0.2092601445037155  5.7161048203297637 0.20935770505442755  5.7721863541150524 0.20953386711102495  5.7981753284967912 0.20961317044544606  5.8243575987193834 0.209690311457043  5.8507684549655412 0.20976493007032218  5.8774416775098119 0.20983662372146944  5.9044103286179803 0.20990494617849675  5.9556346476210109 0.21002590829390991  5.97983597216672 0.2100794941690857  6.0043041249428057 0.21012975262854225  6.0290371923484694 0.2101762826703478  6.0540376121180257 0.21021869358745374  6.0793110451159782 0.21025660490613504  6.1283202188916084 0.21031997345155037  6.1520162924725383 0.21034620428749107  6.175904235243765 0.21036797762322995  6.1999405743744163 0.21038501086194364  6.2240863111995539 0.21039710098159833  6.248305635585818 0.21040412549754128  6.2740817482310458 0.21040616336830961  6.2755989212429677 0.2104062633315909  6.2771161463290683 0.21040634330857641  6.2786334104809933 0.21040640329449678  6.2801507006858177 0.21040644328617178  6.281668003926038 0.21040646328201024  6.2831853071795862 0.21040646328201024 
 0 8 0.28956111867715961 6 0.50521869889639603 6 0.65368047540970797 6 0.78047298590803926 6 0.89161170054884076 6 0.9936205761004685 6 1 8
7 0 0  7 44 8  6.2831853071795862 0.00013200000000000017  6.2432344022259771 0.00013200021307149297  6.2045491213026454 0.00023130920022772233  6.1673652315157845 0.00041861548651500488  6.1319312296807649 0.0006827685977015336  6.0985203619142681 0.001011225011047329  6.0674460259599332 0.0013890086970303685  6.017945095604885 0.0020984953935821878  5.9978568665193137 0.0024239143255333747  5.9787599479330913 0.00276925952992663  5.960599328058473 0.0031328115731168527  5.9433199295431836 0.003513688701576458  5.9268713885677533 0.0039118804852423311  5.9004336875007635 0.0046151367719457813  5.8900431074514801 0.004910177044373837  5.8800314806268741 0.0052136851887935138  5.8703961918256109 0.0055258551409596767  5.8611411065210524 0.0058469145703171762  5.852275800359009 0.0061771297874332609  5.8365887339736711 0.0068069121881748481  5.8296564312036461 0.0071039655506980864  5.8230267793585 0.0074081900582746449  5.8167125503458239 0.0077197987898714807  5.8107303043483665 0.008038994214256882  5.805100305204701 0.0083659638201098018  5.7952412087826985 0.0089944394655426651  5.790920801813157 0.009294373103802241  5.786908073503426 0.0096004338845353011  5.7832247287087188 0.0099124137595591709  5.7798918079703148 0.010230126799490331  5.7769301769685741 0.010553396584353659  5.7720029067895124 0.011183692862273664  5.7699749623902763 0.011489930803573181  5.7682992920386011 0.011799907508894992  5.7669927017728773 0.012112803836648279  5.7660670125779108 0.012427828131024967  5.7655293785533166 0.012744212940178056  5.7653734261728271 0.013081036182743777  5.7653657764433905 0.01310086185416366  5.7653596562766438 0.013120688504247146  5.7653550659599206 0.013140515888496964  5.7653520056848198 0.013160343762331075  5.7653504755472076 0.013180171881082628  5.7653504755472076 0.0132 
 0 8 0.28956111867715961 6 0.50521869889639603 6 0.65368047540970797 6 0.78047298590803926 6 0.89161170054884076 6 0.9936205761004685 6 1 8
7 0 0  12 24 3  5.8417590424706551 9.7057778480902357e-16  5.8361451300464227 0.00022899599333167233  5.8307016097242013 0.00046200781503102917  5.8254300472326577 0.00069929294500070682  5.8203484006226063 0.00093987355739955092  5.8154106587171555 0.0011877824990733643  5.810756754130125 0.0014331819202197948  5.8061507977545261 0.0016936447182160919  5.801913371309638 0.0019473810480121756  5.7977773542515934 0.0022132038973268209  5.7939062073128298 0.0024811155464306012  5.7902647670239507 0.0027540468517568348  5.7834828877790736 0.0033086588582554332  5.7803422679085648 0.0035903019585043247  5.77746014943774 0.0038768014902356598  5.7748625782341785 0.004166036527855535  5.7725402493634839 0.0044607356502479661  5.7705115987919271 0.004760206882999476  5.7688069693536042 0.0050621704005166203  5.7674348132003965 0.0053665792566562663  5.7663937425738618 0.0056736771148730462  5.7656986939035333 0.0059814006938840869  5.7653504755472023 0.0062907424590803824  5.7653504755472023 0.0065999999999999956 
 0.65885937079714529 13 0.82942968539850603 11 1 13
1 6.2831853071795862 -0 0 1 
1 0 -0 0 1 
1 0 0 1 0 
2 0 0 1 0 -0 1 0.026400000000000003
1 0 0.013200000000000002 1 0 
2 0 0 1 0 -0 1 0.026400000000000003
1 0 0.019800000000000002 1 0 
1 6.2831853071795862 -0 0 1 
1 0 -0 0 1 
1 0 0.026400000000000003 1 0 
2 0 0 1 0 -0 1 0.026400000000000003
1 0 0.0066000000000000008 1 0 
1 0 0 1 0 
2 0 0 1 0 -0 1 0.026400000000000003
2 0 0 1 0 -0 1 0.0066000000000000008
1 0 0.0066000000000000008 1 0 
2 0 0 1 0 -0 1 0.0066000000000000008
1 0 0.019800000000000002 1 0 
1 0 0.026400000000000003 1 0 
2 0 0 1 0 -0 1 0.0066000000000000008
2 0 0 1 0 -0 1 0.0065999999999999948
1 0 0 1 0 
2 0 0 1 0 -0 1 0.0066000000000000008
2 0 0 1 0 -0 1 0.0065999999999999948
1 6.2831853071795862 -0 0 1 
1 0 -0 0 1 
Curves 22
2 0.40039999999999998 -0.013200000000000002 0.38 0 1 0 0 -0 1 1 0 -0 0.026400000000000003
2 0.40039999999999998 -0.013200000000000002 0.38 0 1 0 0 -0 1 1 0 -0 0.018957056733575495
1 0.40039999999999998 -0.013200000000000002 0.40639999999999998 0 1 0 
2 0.40039999999999998 0.013200000000000002 0.38 0 1 0 0 -0 1 1 0 -0 0.026400000000000003
7 0 0  8 107 16  0.38733199999999984 -3.4694469519536142e-18 0.35706122549044966  0.3873320000618623 -0.00061862457092990656 0.35706122545520719  0.38736546813270845 -0.0012136744476070125 0.35704215812511275  0.3874279429999597 -0.0017843536603023157 0.35700656954461296  0.38751543029187946 -0.0023296786880960718 0.35695708798080944  0.38762406440987635 -0.0028484077291888519 0.35689640875166601  0.38774983247959655 -0.0033389864656253087 0.35682728128912927  0.38788836032080476 -0.0037995103224306428 0.35675249843716383  0.38824474244890272 -0.0048418612538257385 0.35656357113909359  0.38848031608732519 -0.0054169651478850325 0.35644145635054825  0.38873632785448292 -0.0059556453042839477 0.35631239853719426  0.38900921638566793 -0.0064612592555597795 0.35617918692580769  0.38929696186477936 -0.0069378400467206914 0.3560435591335116  0.38959931640710299 -0.0073900251713725452 0.35590626221951543  0.38991831540839522 -0.0078229660630926862 0.35576716070689368  0.3907858593413458 -0.0088903610610863975 0.35540622352736717  0.3913435936686292 -0.0094798694526674488 0.3551894485511311  0.39194092012347476 -0.010031779755220736 0.35497403429800811  0.39259022020310963 -0.010555171529278163 0.35475896267933366  0.39330370023066596 -0.011050805830532834 0.35454569432104788  0.39409228828596488 -0.011512726003688894 0.35433897019821653  0.39496544808272432 -0.011928619035484417 0.35414688596029825  0.39639630932875541 -0.012449470685734218 0.35390106700338403  0.39690021243013551 -0.012609807435616169 0.35382430623756084  0.39743861630583144 -0.012754735843073165 0.35375414033857239  0.39800855055632151 -0.012878663696924336 0.35369359607635381  0.3986071877987325 -0.012976416586647313 0.35364547881369146  0.39923184366683911 -0.013043237902378189 0.35361237250622157  0.39987997681106424 -0.013074788834911545 0.35359663970243127  0.40197242170168596 -0.013050899188954851 0.35360846449534883  0.40325061070736473 -0.012859129801176079 0.35370338078679187  0.40438601383261474 -0.012554076567718562 0.35385400410281864  0.40538918755124892 -0.01217492626904686 0.35403603257819616  0.40627614485436525 -0.011750858697740629 0.35423314052918664  0.40706796251068511 -0.011296325164754551 0.35443667631223263  0.40779145899430141 -0.010811802830784811 0.35464567130933455  0.40899063026601151 -0.0098693255006077792 0.35503093430078458  0.40947131468912229 -0.0094437277574537255 0.35519869480398564  0.40992235192628718 -0.008997341616929895 0.3553674663692733  0.41034751282881338 -0.0085284067095556405 0.35553654832982612  0.41074914949220154 -0.0080341311312787673 0.35570525355315147  0.4111281190321216 -0.0075111114489802488 0.35587252191431817  0.41148365143865417 -0.0069557876031520966 0.35603656525250105  0.41203848589127473 -0.0059608964536049898 0.3563025721363049  0.41225006428918881 -0.0055430859722717237 0.35640700823456978  0.41245027126366823 -0.0051056655192066071 0.35650840407304246  0.41263927970927672 -0.0046435915640129109 0.35660646182974398  0.41281555774466344 -0.0041525733314945563 0.3567000008654746  0.4129761641431085 -0.0036290109032897119 0.35678694488607682  0.41311684230296075 -0.003069910880082584 0.35686432929479767  0.41330510065784576 -0.0020929880756602104 0.35696903409741354  0.41336994366069651 -0.0016873797768771509 0.35700544474099805  0.41342223376000908 -0.0012628206412466376 0.35703508850150611  0.41345913552867625 -0.00082522679870817119 0.35705615132656987  0.4134789393844383 -0.0003798998706704163 0.35706748206266542  0.41348091765247597 6.8162918770520251e-05 0.35706859190754314  0.4134652834251562 0.00051398381512661765 0.35705964852786826  0.41339103999696042 0.0015300373874439046 0.35701750153030865  0.41332163242071124 0.0020773061180365256 0.35697821546739306  0.41322997098786823 0.002595404238440081 0.35692668368265951  0.41312004693259335 0.0030856934477815905 0.35686557976147654  0.41299512867217758 0.00354968250219868 0.35679715473847123  0.41285786421751131 0.0039890869427917598 0.35672322349986141  0.41271025854736981 0.0044059099363098356 0.35664515669489744  0.41231923226521044 0.0053954579424939347 0.35644237792041794  0.41206096277756732 0.0059523050684124057 0.35631184274282707  0.4117829800376922 0.0064755234555263783 0.35617562241128509  0.4114880834404831 0.0069682330748989758 0.35603609503158895  0.41117765910202075 0.0074340870729957785 0.35589471766491781  0.4108514952925077 0.0078771237102188817 0.35575212230648806  0.41050736342175581 0.0083016191844347709 0.35560825720563272  0.40957033906349011 0.0093492569624655814 0.35523629648361471  0.40897186478319947 0.009922483134055261 0.35501624518135688  0.40832991802173507 0.010459629679506232 0.35479886868786881  0.40762650503140296 0.010969965311760513 0.35458208196662766  0.40684538991180152 0.011452721741386998 0.35436811248579786  0.40597301102099653 0.011896764829912679 0.35416371452655032  0.40499821298032013 0.012284000672290433 0.35398051481825438  0.40283466092278974 0.012887991914156826 0.35368996470717001  0.40162745782625381 0.013111012010422795 0.35357961979009012  0.40035397580566884 0.013202169631797102 0.35353258617213662  0.39906857506725685 0.013142029738671566 0.35356260663006522  0.39782312283260934 0.012936089510088443 0.35366756860386361  0.39667692762385998 0.012607327811821953 0.3538290407313035  0.39568183913400951 0.012214617750852938 0.3540136661650537  0.39446746706745428 0.011654916580589645 0.35427086079756837  0.39402916809902633 0.011427924621372964 0.35437358156321069  0.39361356280841658 0.011189206264783702 0.35447972211772688  0.39321887636073732 0.010940205790788155 0.35458827358230421  0.39284317495730592 0.010681747696498 0.35469853983277344  0.39248441997807537 0.010414002410633267 0.35481011409586577  0.39214051934656741 0.010136405144274826 0.35492284662616796  0.3913315835830552 0.0094307191106072445 0.35520122695616724  0.3908860099384911 0.0089953782131728457 0.3553662486159016  0.39046688393055973 0.0085395057969660133 0.35553142008302191  0.39007066250887668 0.0080601483785229314 0.35569639761812488  0.38969568818464617 0.0075537392465175488 0.35586054688779389  0.38934201324406448 0.0070164857625191037 0.35602260151197945  0.38901139081621378 0.0064448030955428174 0.35618037537333086  0.38843387176795763 0.0052876889424532444 0.35646566608366287  0.38817679475183103 0.0046991346855692886 0.35659715237768042  0.38793867295685908 0.0040629062900765832 0.35672294017144379  0.38772532187592429 0.0033732934734028294 0.35683907496675288  0.3875453832187481 0.0026258172357892578 0.35693967999467086  0.38740971084180048 0.0018167673335231769 0.35701694975139275  0.38733200009426949 0.00094269563438348575 0.35706122543674518  0.38733199999999984 0 0.35706122549044966 
 0 9 0.041828972708712234 7 0.10182436185100964 7 0.19457425767505848 7 0.23941096544084778 7 0.33476649544428905 7 0.40666644298187393 7 0.45583280464220505 7 0.4871039311389333 7 0.52831448448454033 7 0.58991859364457488 7 0.68560258419331988 7 0.78082024204128742 7 0.83940215294575715 7 0.92392750994971407 7 1 9
2 0.40039999999999998 0 0.38 -2.4492935982947064e-16 -1 0 1 -2.4492935982947064e-16 0 0 0 1 0.023100000000000002
2 0.40039999999999998 0.013200000000000002 0.38 0 1 0 0 -0 1 1 0 -0 0.018957056733575495
1 0.38733199999999995 -3.2007368742515295e-18 0.38 0 0 -1 
7 0 0  7 38 7  0.38733199999999984 0 0.16959353671798974  0.38733199999999984 0.00032568065203905113 0.16959353671798974  0.38734146970956934 0.00065105514675236665 0.16959893099917453  0.38736037581241761 0.00097528436705489384 0.16960970258809471  0.38738858472212401 0.0012975062087133096 0.1696257403127194  0.38742585130683488 0.0016168326894421613 0.16964683987870741  0.38747180761395977 0.0019323470580000087 0.16967270494567899  0.387584830832918 0.0025810322730258259 0.16973583643863405  0.38765340146022559 0.0029133841500088705 0.1697739077342231  0.38773119632029268 0.0032399504452095469 0.16981676621872735  0.3878177622331403 0.0035605282531894151 0.16986400294384696  0.38791264237961004 0.0038749034448947138 0.16991519585924619  0.38801535868566689 0.0041828362604543097 0.16996990978728935  0.38825099242461525 0.00482785878595853 0.17009365596454559  0.38838627075007837 0.0051633104723368909 0.17016369502707343  0.38853072926398202 0.0054905828752257321 0.17023728253294587  0.38868395618778895 0.0058098783507474685 0.17031393709417131  0.38884563074293627 0.0061214158175771543 0.170393225641395  0.3890155260102392 0.0064254258774856755 0.17047476207811268  0.38940189958037941 0.0070695491827520622 0.17065590295924496  0.38962141524466704 0.0074070250606948053 0.17075623262259229  0.38985184644181681 0.0077349088211651762 0.17085863901614529  0.3900930973104198 0.0080534831153382599 0.17096262338859652  0.39034521418085977 0.0083629838974099997 0.17106773489834931  0.39060841128817569 0.0086636063278969361 0.17117356136575521  0.39125604961930044 0.0093518430719893384 0.1714238566781697  0.39164954573223015 0.0097314240064792588 0.17156835863077863  0.39206480223203805 0.010095059830038788 0.17171237969420258  0.39250323121853115 0.010442692734078388 0.17185494973840451  0.39296633997636965 0.010773523380424926 0.17199486692867713  0.39345560912027455 0.011086040517644004 0.17213061902814042  0.39470264758187301 0.011790519218054799 0.17244365749145749  0.39550918217035624 0.012174010151477033 0.17262028672624596  0.3963837320660723 0.012507647516280534 0.17277922580844526  0.39731840435074167 0.012776190928126525 0.17291031939460783  0.39830511178857958 0.012966803349809489 0.1730046692649039  0.3993353202646589 0.013067999784913187 0.17305476210197135  0.40039999999999992 0.013068000000000001 0.17305476220843932 
 0 8 0.10477940441532037 6 0.21872247605165995 6 0.34878090269863193 6 0.5010548000007069 6 0.70780430072081335 6 1 8
7 0 0  8 44 7  0.40039999999999998 0.013068000000000001 0.17305476220843932  0.40202555964545739 0.013067999671604115 0.17305476204588335  0.4035293707225554 0.012836914639362563 0.17294036992518347  0.40490536579200281 0.01243524392199404 0.17274158006211285  0.40615422174675614 0.01189955507882697 0.17248480935340182  0.40727996808908673 0.011260035293393597 0.17219181796660088  0.40828942784193722 0.010535896104893529 0.17188020907725041  0.40919141100505652 0.009740916713999041 0.17156290250465289  0.41041012614256017 0.0084228026980397493 0.17108744051491429  0.41079790327727628 0.007955269620109829 0.17092693641182757  0.41116367948558202 0.0074646926014898182 0.17076766611436073  0.4115099111871377 0.006946098997033915 0.17060981616187168  0.41183666065321312 0.0063945196320849048 0.17045438338353297  0.41214183316161729 0.0058054019260212215 0.17030350349899487  0.41242132572210516 0.0051747689264249339 0.17016063433223724  0.4128316963921273 0.0040556903410346864 0.16994524633114919  0.41298473333826635 0.0035816907703680716 0.16986327308068119  0.41312395498788712 0.0030780449814805286 0.16978722121236306  0.41324525405848767 0.0025455542242183295 0.16971977951959649  0.41334458806770641 0.0019848926532250793 0.16966376951442111  0.41341781569383967 0.0013966076047727774 0.16962212256334508  0.41346044063702675 0.00078112905586323925 0.16959784290861268  0.41347394547923283 -0.00049038567818664993 0.16959014990415036  0.4134457829760283 -0.0010988398613328552 0.16960619008188749  0.41338681745589062 -0.0016850880163192452 0.16963982610076284  0.41330084349180973 -0.0022474398608139058 0.16968855302986571  0.41319170352235357 -0.0027839556013265132 0.16974965059984293  0.41306356044556941 -0.0032923781785541288 0.16982021491700208  0.41292114752980041 -0.0037700432544187897 0.16989718330640799  0.41254166349414645 -0.0048840621199562131 0.17009845665777346  0.41228214648580902 -0.0055099142320216626 0.17023282934056871  0.41199762532906842 -0.0060946515723391608 0.17037568601979924  0.41169240494051362 -0.0066421099267238272 0.17052353896716616  0.41136886190865979 -0.0071567816853309379 0.17067420060298233  0.41102726052222233 -0.007643721270761984 0.170826652175503  0.41066543735866085 -0.0081082068804058122 0.17098077755523605  0.40946463224866647 -0.0094947362383172654 0.17146529195805063  0.40855024467801004 -0.010344183024219539 0.17179829895735729  0.40752367731601841 -0.011117911135448116 0.17212698344084534  0.40637301473056542 -0.011802750686423403 0.17243856203114938  0.40508892332310925 -0.012379850852180279 0.1727141564245048  0.40366533299106128 -0.012815180345963743 0.17292961322782219  0.40210027167480483 -0.013067999656510775 0.17305476203841216  0.40039999999999998 -0.013068000000000001 0.17305476220843932 
 0 9 0.26721733196027342 7 0.40517248075929813 7 0.49571414254219692 7 0.58439986090919316 7 0.71836974195590608 7 1 9
7 0 0  7 44 8  0.40039999999999992 -0.013068000000000001 0.17305476220843932  0.39934529610922465 -0.013067999786928509 0.17305476210296894  0.39832400456798139 -0.012968690799772259 0.17300560360253081  0.39734510007538854 -0.012781384513485048 0.17291288998344911  0.39641710525818774 -0.012517231402298415 0.17278390233377011  0.39554812421189584 -0.012188774988952693 0.17262732125617758  0.39474609148070888 -0.011810991302969632 0.17245310149408874  0.39347801066724281 -0.011101504606417813 0.17213725107897451  0.39296672789430509 -0.010776085674466614 0.17199573019728986  0.39248396810015368 -0.010430740470073387 0.17184965857462189  0.392028039818341 -0.010067188426883162 0.17170075322260003  0.39159722652485751 -0.0096863112984235267 0.17155036390426717  0.39118993719832096 -0.0092881195147576697 0.17139957228079306  0.3905397134151179 -0.0085848632280542212 0.1711458979936496  0.39028546217790755 -0.0082898229556261655 0.17104286531773386  0.39004171372408852 -0.0079863148112064835 0.17094058496417538  0.38980828405170176 -0.0076741448590403214 0.17083944115499522  0.38958514286785551 -0.0073530854296828254 0.17073985549628451  0.38937239066440082 -0.0070228702125667416 0.17064229494557243  0.38899758715515542 -0.0063930878118251527 0.17046613288897502  0.38883264095307879 -0.0060960344493019309 0.170386829554554  0.38867552492816798 -0.0057918099417253654 0.17030968854295706  0.38852645384009626 -0.0054802012101285106 0.17023506992967782  0.38838572706507918 -0.005161005785743104 0.17016337627853059  0.38825372619353377 -0.0048340361798902007 0.17009505382150328  0.3880232616175191 -0.0042055605344573357 0.16997409170609012  0.3879225720773728 -0.0039056268961977568 0.16992050583091428  0.38782931450842018 -0.0035995661154646992 0.16987024737145776  0.38774392753702658 -0.0032875862404408355 0.16982371732965224  0.38766683315758949 -0.0029698732005096757 0.16978130641254627  0.38759845197532744 -0.0026466034156463433 0.16974339509386496  0.38748485084703077 -0.0020163071377263387 0.16968002654844958  0.38743817901074051 -0.0017100691964268239 0.16965379571250891  0.38739967041093909 -0.0014000924911050133 0.16963202237677003  0.38736967530604005 -0.0010871961633517233 0.16961498913805637  0.38734843729731611 -0.00077217186897503688 0.16960289901840159  0.3873361038840849 -0.00045578705982194935 0.16959587450245875  0.38733252646211691 -0.00011896381725622399 0.16959383663169034  0.38733235098477115 -9.9138145836343854e-05 0.16959373666840907  0.38733221059487505 -7.9311495752859418e-05 0.16959365669142354  0.38733210529844192 -5.9484111503036894e-05 0.16959359670550317  0.38733203509948139 -3.9656237668929196e-05 0.1695935567138282  0.38733199999999984 -1.9828118917375954e-05 0.16959353671798974  0.38733199999999984 -3.4694469519536142e-18 0.16959353671798974 
 0 8 0.28956111867715961 6 0.50521869889639603 6 0.65368047540970797 6 0.78047298590803926 6 0.89161170054884076 6 0.9936205761004685 6 1 8
1 0.40039999999999998 -0.0066000000000000008 0.17305476220843932 0 1 0 
2 0.40039999999999998 -0.0066000000000000008 0.14665476220843932 0 1 0 0 -0 1 1 0 -0 0.026400000000000003
2 0.40039999999999998 0.0066000000000000008 0.14665476220843932 0 1 0 0 -0 1 1 0 -0 0.026400000000000003
1 0.40039999999999998 -0.013200000000000002 0.17305476220843932 0 1 0 
2 0.40039999999999998 0.013200000000000002 0.14665476220843932 0 1 0 0 -0 1 1 0 -0 0.026400000000000003
2 0.40039999999999998 -0.013200000000000002 0.14665476220843932 0 1 0 0 -0 1 1 0 -0 0.026400000000000003
2 0.40039999999999998 -0.0066000000000000008 0.14665476220843932 0 1 0 0 -0 1 1 0 -0 0.0066000000000000008
2 0.40039999999999998 0.0066 0.14665476220843932 0 1 0 0 -0 1 1 0 -0 0.0066000000000000008
2 0.40039999999999998 0.013200000000000002 0.14665476220843932 0 1 0 0 -0 1 1 0 -0 0.0066000000000000008
2 0.40039999999999998 -0.013200000000000002 0.14665476220843932 0 1 0 0 -0 1 1 0 -0 0.0066000000000000008
1 0.40039999999999998 -0.013200000000000002 0.15325476220843931 0 1 0 
Polygon3D 0
PolygonOnTriangulations 0
Surfaces 14
2 0.40039999999999998 -0.013200000000000002 0.38 0 1 0 0 -0 1 1 0 -0 0.026400000000000003
1 0.40039999999999998 -0.013200000000000002 0.38 0 1 0 0 -0 1 1 0 -0 
4 0.40039999999999998 0 0.38 0 0 1 1 0 -0 -0 1 0 0.023100000000000002
1 0.40039999999999998 0.013200000000000002 0.38 0 1 0 0 -0 1 1 0 -0 
2 0.40039999999999998 0 0.38 0 0 -1 -1 0 -0 0 1 0 0.013068000000000001
2 0.40039999999999998 -0.013200000000000002 0.14665476220843932 0 1 0 0 -0 1 1 0 -0 0.026400000000000003
2 0.40039999999999998 -0.0066000000000000008 0.14665476220843932 0 1 0 0 -0 1 1 0 -0 0.026400000000000003
1 0.40039999999999998 -0.0066000000000000008 0.14665476220843932 0 1 0 0 -0 1 1 0 -0 
1 0.40039999999999998 0.0066000000000000008 0.14665476220843932 0 1 0 0 -0 1 1 0 -0 
1 0.40039999999999998 0.013200000000000002 0.14665476220843932 0 1 0 0 -0 1 1 0 -0 
1 0.40039999999999998 -0.013200000000000002 0.14665476220843932 0 1 0 0 -0 1 1 0 -0 
2 0.40039999999999998 -0.013200000000000002 0.14665476220843932 0 1 0 0 -0 1 1 0 -0 0.0066000000000000008
1 0.40039999999999998 0.013200000000000002 0.14665476220843932 0 1 0 0 -0 1 1 0 -0 
1 0.40039999999999998 -0.013200000000000002 0.14665476220843932 0 1 0 0 -0 1 1 0 -0 
Triangulations 0

TShapes 98
Ve
1e-07
0.4004 -0.0132 0.4064
0 0

0101101
*
Ve
1e-07
0.4004 -0.0132 0.398957056733576
0 0

0101101
*
Ve
1e-07
0.4004 0.0132 0.4064
0 0

0101101
*
Ve
2.00001e-07
0.387332 -3.20073687425153e-18 0.35706122549045
0 0

0101101
*
Ve
1e-07
0.4004 0 0.4031
0 0

0101101
*
Ve
1e-07
0.4004 0 0.3569
0 0

0101101
*
Ve
1e-07
0.4004 0.0132 0.398957056733576
0 0

0101101
*
Ve
2.00001e-07
0.387332 -3.20073687425153e-18 0.169593536717989
0 0

0101101
*
Ve
1.00009017263364e-07
0.389121142594895 0.00660000000000011 0.170524143769582
0 0

0101101
*
Ve
2.00001e-07
0.4004 0.0130680000000005 0.173054762208439
0 0

0101101
*
Ve
1.00022887006371e-07
0.411678857320947 0.00660000000000322 0.170524143774062
0 0

0101101
*
Ve
1.00019630693831e-07
0.411678857465283 -0.00659999999999928 0.170524143752885
0 0

0101101
*
Ve
2.00001e-07
0.4004 -0.0130680000000005 0.173054762208439
0 0

0101101
*
Ve
1.00004263526978e-07
0.389121142603542 -0.00659999999999926 0.17052414376841
0 0

0101101
*
Ve
1e-07
0.4004 0.0066 0.173054762208439
0 0

0101101
*
Ve
1e-07
0.4004 -0.0066 0.173054762208439
0 0

0101101
*
Ve
1e-07
0.4004 0.0132 0.173054762208439
0 0

0101101
*
Ve
1e-07
0.4004 -0.0132 0.173054762208439
0 0

0101101
*
Ve
2.00001e-07
0.4004 -0.0066 0.153254762208439
0 0

0101101
*
Ve
2.00001e-07
0.4004 0.0066 0.153254762208439
0 0

0101101
*
Ve
1e-07
0.4004 0.0132 0.153254762208439
0 0

0101101
*
Ve
1e-07
0.4004 -0.0132 0.153254762208439
0 0

0101101
*
Ed
 1e-07 1 1 0
1  1 0 0 6.28318530717959
2  1 1 0 0 6.28318530717959
2  2 2 0 0 6.28318530717959
0

0101000
+98 0 -98 0 *
Ed
 1e-07 1 1 0
1  2 0 0 6.28318530717959
2  3 2 0 0 6.28318530717959
2  4 3 0 0 6.28318530717959
0

0101000
+97 0 -97 0 *
Ed
 1e-07 1 1 0
1  3 0 0 0.0264
3  5 6CN 1 0 0 0.0264
0

0101000
-96 0 +98 0 *
Ed
 1e-07 1 1 0
1  4 0 0 6.28318530717959
2  7 1 0 0 6.28318530717959
2  8 4 0 0 6.28318530717959
0

0101000
+96 0 -96 0 *
Ed
 1.09062762475186e-07 1 1 0
1  5 0 0 1
2  9 1 0 0 1
2  10 5 0 0 1
0

0101000
+95 0 -95 0 *
Ed
 1e-07 1 1 0
1  6 0 4.71238898038469 7.85398163397448
3  11 12CN 3 0 4.71238898038469 7.85398163397448
0

0101000
-94 0 +93 0 *
Ed
 1e-07 1 1 1
2  13 3 0 0 6.28318530717959
0

0101000
+93 0 -93 0 *
Ed
 1e-07 1 1 1
2  14 3 0 0 6.28318530717959
0

0101000
+94 0 -94 0 *
Ed
 1e-07 1 1 0
1  7 0 0 6.28318530717959
2  15 4 0 0 6.28318530717959
2  16 3 0 0 6.28318530717959
0

0101000
+92 0 -92 0 *
Ed
 1e-07 1 1 0
1  8 0 0.0229387745095496 0.210406463282011
3  17 18CN 5 0 0.0229387745095496 0.210406463282011
0

0101000
+95 0 -91 0 *
Ed
 1e-07 1 1 0
1  9 0 0 0.34116543883272
2  19 5 0 0 0.34116543883272
2  20 6 0 0 0.34116543883272
2  21 7 0 0 0.34116543883272
0

0101000
+91 0 -90 0 *
Ed
 1e-07 1 1 0
1  9 0 0.34116543883272 1
2  19 5 0 0.34116543883272 1
2  20 6 0 0.34116543883272 1
0

0101000
+90 0 -89 0 *
Ed
 1e-07 1 1 0
1  10 0 0 0.346070950476091
2  22 5 0 0 0.346070950476091
2  23 6 0 0 0.346070950476091
0

0101000
+89 0 -88 0 *
Ed
 1e-07 1 1 0
1  10 0 0.346070950476091 0.651086768316293
2  22 5 0 0.346070950476091 0.651086768316293
2  23 6 0 0.346070950476091 0.651086768316293
2  24 7 0 0.346070950476091 0.651086768316293
0

0101000
+88 0 -87 0 *
Ed
 1e-07 1 1 0
1  10 0 0.651086768316293 1
2  22 5 0 0.651086768316293 1
2  23 6 0 0.651086768316293 1
0

0101000
+87 0 -86 0 *
Ed
 1e-07 1 1 0
1  11 0 0 0.658859370797145
2  25 5 0 0 0.658859370797145
2  26 6 0 0 0.658859370797145
0

0101000
+86 0 -85 0 *
Ed
 1e-07 1 1 0
1  11 0 0.658859370797145 1
2  25 5 0 0.658859370797145 1
2  26 6 0 0.658859370797145 1
2  27 7 0 0.658859370797145 1
0

0101000
+85 0 -91 0 *
Ed
 1e-07 1 1 0
1  12 0 0 0.0132
3  28 29CN 7 0 0 0.0132
0

0101000
-84 0 +83 0 *
Ed
 1e-07 1 1 0
1  13 0 5.84175904247064 6.28318530717959
2  30 7 0 5.84175904247064 6.28318530717959
2  31 8 0 5.84175904247064 6.28318530717959
0

0101000
+85 0 -83 0 *
Ed
 1e-07 1 1 0
1  14 0 5.84175904219349 6.28318530717959
2  32 7 0 5.84175904219349 6.28318530717959
2  33 9 0 5.84175904219349 6.28318530717959
0

0101000
+90 0 -84 0 *
Ed
 1e-07 1 1 0
1  14 0 0.441426262031364 5.84175904219349
2  32 7 0 0.441426262031364 5.84175904219349
2  33 9 0 0.441426262031364 5.84175904219349
2  34 6 0 0.441426262031364 5.84175904219349
0

0101000
+88 0 -90 0 *
Ed
 1e-07 1 1 0
1  15 0 0.0262680000000005 0.0264
3  35 36CN 6 0 0.0262680000000005 0.0264
0

0101000
+89 0 -82 0 *
Ed
 1e-07 1 1 0
1  16 0 0 6.28318530717959
2  37 6 0 0 6.28318530717959
2  38 10 0 0 6.28318530717959
0

0101000
+82 0 -82 0 *
Ed
 1e-07 1 1 0
1  14 0 0 0.441426262031364
2  32 7 0 0 0.441426262031364
2  33 9 0 0 0.441426262031364
0

0101000
+84 0 -88 0 *
Ed
 1e-07 1 1 0
1  13 0 0 0.441426267317268
2  30 7 0 0 0.441426267317268
2  31 8 0 0 0.441426267317268
0

0101000
+83 0 -87 0 *
Ed
 1e-07 1 1 0
1  13 0 0.441426267317268 5.84175904247064
2  30 7 0 0.441426267317268 5.84175904247064
2  31 8 0 0.441426267317268 5.84175904247064
2  39 6 0 0.441426267317268 5.84175904247064
0

0101000
+87 0 -85 0 *
Ed
 1e-07 1 1 0
1  15 0 0 0.000131999999999546
3  35 36CN 6 0 0 0.000131999999999546
0

0101000
+81 0 -86 0 *
Ed
 1e-07 1 1 0
1  17 0 0 6.28318530717959
2  40 6 0 0 6.28318530717959
2  41 11 0 0 6.28318530717959
0

0101000
+81 0 -81 0 *
Ed
 1e-07 1 1 0
1  18 0 0 6.28318530717959
2  42 8 0 0 6.28318530717959
2  43 12 0 0 6.28318530717959
0

0101000
+80 0 -80 0 *
Ed
 1e-07 1 1 0
1  19 0 0 6.28318530717959
2  44 9 0 0 6.28318530717959
2  45 12 0 0 6.28318530717959
0

0101000
+79 0 -79 0 *
Ed
 1e-07 1 1 0
1  20 0 0 6.28318530717959
2  46 12 0 0 6.28318530717959
2  47 13 0 0 6.28318530717959
2  48 10 0 0 6.28318530717959
0

0101000
+78 0 -78 0 *
Ed
 1e-07 1 1 0
1  21 0 0 6.28318530717959
2  49 12 0 0 6.28318530717959
2  50 14 0 0 6.28318530717959
2  51 11 0 0 6.28318530717959
0

0101000
+77 0 -77 0 *
Ed
 1e-07 1 1 0
1  22 0 0 0.0066
3  52 53CN 12 0 0 0.0066
0

0101000
+77 0 -80 0 *
Ed
 1e-07 1 1 0
1  22 0 0.0198 0.0264
3  52 53CN 12 0 0.0198 0.0264
0

0101000
+79 0 -78 0 *
Wi

0101100
+76 0 *
Wi

0101100
-75 0 *
Wi

0101100
+74 0 +76 0 -74 0 -73 0 *
Wi

0101100
+72 0 *
Wi

0101100
+71 0 +70 0 -71 0 -69 0 *
Wi

0101100
-68 0 *
Wi

0101100
+75 0 *
Wi

0101100
+73 0 *
Wi

0101100
-68 0 *
Wi

0101100
-67 0 -66 0 -65 0 -64 0 -63 0 -62 0 -61 0 -60 0 +67 0 -72 0 
*
Wi

0101100
+59 0 +58 0 -60 0 -66 0 -57 0 *
Wi

0101100
+65 0 +56 0 +64 0 -55 0 -54 0 +55 0 *
Wi

0101100
-53 0 -63 0 +52 0 -59 0 *
Wi

0101100
-51 0 +61 0 +50 0 +49 0 -50 0 +62 0 *
Wi

0101100
+52 0 +58 0 +51 0 *
Wi

0101100
-48 0 *
Wi

0101100
+53 0 +57 0 +56 0 *
Wi

0101100
-47 0 *
Wi

0101100
+54 0 *
Wi

0101100
-46 0 *
Wi

0101100
+49 0 *
Wi

0101100
-45 0 *
Wi

0101100
-48 0 +44 0 +45 0 -44 0 *
Wi

0101100
+43 0 +47 0 -43 0 -46 0 *
Fa
0  1e-07 2 0

0111000
+42 0 +41 0 *
Fa
0  1e-07 1 0

0111000
+40 0 +39 0 *
Fa
0  1e-07 3 0

0101000
+38 0 +37 0 +36 0 *
Fa
0  1e-07 4 0

0111000
+35 0 +34 0 *
Fa
0  1e-07 5 0

0111000
+33 0 *
Fa
0  1e-07 7 0

0101000
+32 0 *
Fa
0  1e-07 6 0

0111000
+31 0 *
Fa
0  1e-07 7 0

0101000
+30 0 *
Fa
0  1e-07 6 0

0111000
+29 0 *
Fa
0  1e-07 8 0

0111000
+28 0 +27 0 *
Fa
0  1e-07 9 0

0111000
+26 0 +25 0 *
Fa
0  1e-07 10 0

0111000
+24 0 +23 0 *
Fa
0  1e-07 11 0

0111000
+22 0 +21 0 *
Fa
0  1e-07 12 0

0111000
+20 0 *
Fa
0  1e-07 12 0

0111000
+19 0 *
Sh

0101100
-18 0 +17 0 -16 0 +15 0 +14 0 -13 0 +12 0 -11 0 +10 0 +9 0 
-8 0 +7 0 -6 0 -5 0 -4 0 *
So

0100000
+3 0 *
Co

1100000
-98 3 +97 3 -96 3 +95 3 +94 3 -93 3 +92 3 +91 3 +90 3 +89 3 
+88 3 +87 3 +86 3 +85 3 +84 3 -83 3 +82 3 +81 3 -80 3 +79 3 
-78 3 +77 3 -76 3 +75 3 +74 3 -73 3 +72 3 -71 3 -70 3 +69 3 
+68 3 -67 3 -66 3 -65 3 -64 3 -63 3 -62 3 -61 3 -60 3 -59 3 
-58 3 +57 3 +56 3 -55 3 -54 3 +53 3 -52 3 -51 3 +50 3 +49 3 
-48 3 +47 3 -46 3 +45 3 -44 3 -43 3 -42 3 -41 3 +40 3 +39 3 
-38 3 -37 3 -36 3 +35 3 +34 3 +33 3 -32 3 +31 3 -30 3 +29 3 
+28 3 +27 3 -26 3 -25 3 +24 3 +23 3 -22 3 -21 3 -20 3 -19 3 
-18 3 +17 3 -16 3 +15 3 +14 3 -13 3 +12 3 -11 3 +10 3 +9 3 
-8 3 +7 3 -6 3 -5 3 -4 3 +3 3 +2 3 *

+1 0 