DBRep_DrawableShape

CASCADE Topology V1, (c) Matra-Datavision
Locations 33
1
0.866025403784439            -0.5               0               0 
            0.5 0.866025403784439               0               0 
              0               0               1               0 
1
              1               0               0               0 
              0               1               0               0 
              0               0               1               0 
2  1 1 2 1 0
1
1.11022302462516e-16              -1               0               0 
              1 1.11022302462516e-16               0               0 
              0               0               1               0 
2  4 1 2 1 0
1
1.11022302462516e-16               1               0               0 
             -1 1.11022302462516e-16               0               0 
              0               0               1               0 
2  6 1 2 1 0
1
             -1 -1.22464679914735e-16               0               0 
1.22464679914735e-16              -1               0               0 
              0               0               1               0 
2  8 1 2 1 0
1
0.866025403784439            -0.5               0               0 
            0.5 0.866025403784439               0               0 
              0               0               1               0 
1
             -1 -1.22464679914735e-16               0               0 
1.22464679914735e-16              -1               0               0 
              0               0               1               0 
1
1.11022302462516e-16              -1               0               0 
              1 1.11022302462516e-16               0               0 
              0               0               1               0 
1
1.11022302462516e-16               1               0               0 
             -1 1.11022302462516e-16               0               0 
              0               0               1               0 
2  1 1 6 1 2 1 0
2  1 1 6 -1 1 -1 0
2  1 1 8 1 1 -1 0
2  1 1 4 1 1 -1 0
2  1 1 6 1 1 -1 0
2  4 1 6 -1 1 -1 0
2  1 -1 0
2  1 1 4 1 6 -1 1 -1 0
2  8 1 6 -1 1 -1 0
2  1 1 8 1 6 -1 1 -1 0
2  1 1 4 1 2 1 0
2  1 1 4 -1 1 -1 0
2  1 1 6 1 4 -1 1 -1 0
2  1 1 8 1 2 1 0
2  1 1 8 -1 1 -1 0
2  1 1 4 1 8 -1 1 -1 0
2  1 1 6 1 8 -1 1 -1 0
2  1 1 6 1 0
2  1 1 4 1 0
2  1 1 8 1 0
Curve2ds 328
1 0.059999999999999998 0 0 -1 
1 0.36080000000000001 0 0 1 
1 0 0 1 0 
1 0 0.079199999999999993 1 0 
1 0 -0.019800000000000005 1 0 
1 0 0 0 -1 
1 0.36080000000000001 0 0 1 
1 0 0 1 0 
1 0 0.36080000000000001 1 0 
1 0.059999999999999998 0 0 1 
1 0 0.11880000000000002 1 0 
2 0 0 1 0 -0 1 0.27999999999999997
1 0 0.060000000000000012 1 0 
2 -3.4694469519536142e-18 0.059400000000000008 5.5511151231257827e-17 -1 1 5.5511151231257827e-17 0.27999999999999997
2 0 0 5.5511151231257827e-17 -1 1 5.5511151231257827e-17 0.27999999999999997
2 -3.4694469519536142e-18 0.059400000000000008 5.5511151231257827e-17 -1 1 5.5511151231257827e-17 0.27999999999999997
2 0 0 5.5511151231257827e-17 -1 1 5.5511151231257827e-17 0.27999999999999997
1 0.059999999999999998 0 0 1 
1 0 0.079200000000000007 1 0 
1 0.28160000000000002 0.099000000000000005 1 0 
1 0.059999999999999998 0 0 1 
1 0 0 1 0 
1 0.059999999999999998 0 0 -1 
1 0 0 0 1 
1 0.28160000000000002 0.019800000000000005 0 1 
1 0.059999999999999998 0 0 1 
1 0 0 1 0 
1 0.28160000000000002 0.019800000000000005 1 0 
1 0 0 0 1 
1 0 0 1 0 
1 0.28160000000000002 0.019800000000000005 1 0 
1 0 0 1 0 
1 0 0 1 0 
1 0 0 1 0 
2 0 0 1 0 -0 1 0.013200000000000002
2 0.030000000000000027 0.039599999999999969 1 0 -0 1 0.01319999999999999
1 0 0 0 1 
1 0 0.11880000000000002 1 0 
2 0 0 1 0 -0 1 0.27999999999999997
1 0 0 1 0 
2 -3.4694469519536142e-18 0.059400000000000008 5.5511151231257827e-17 -1 1 5.5511151231257827e-17 0.27999999999999997
2 0 0 5.5511151231257827e-17 -1 1 5.5511151231257827e-17 0.27999999999999997
2 -3.4694469519536142e-18 0.059400000000000008 5.5511151231257827e-17 -1 1 5.5511151231257827e-17 0.27999999999999997
2 0 0 5.5511151231257827e-17 -1 1 5.5511151231257827e-17 0.27999999999999997
1 0 0 0 1 
1 0 0.079200000000000007 1 0 
1 0.28160000000000002 0.099000000000000005 1 0 
1 0 0 0 1 
1 0 0 1 0 
1 0 0 0 -1 
1 0 0 0 1 
1 0.28160000000000002 0.019800000000000005 0 1 
8 -4.0000000001150227e-07 0.060000400000000009
1 0 0.27362682617024231 1 0 
8 -4.0000000001150227e-07 0.060000400000000009
1 6.0694180998548433 0 0 1 
1 2.9278254462650506 0 0 1 
1 4.4986217730599467 0 0 1 
1 1.3570291194701538 0 0 1 
8 -4.0000000001150227e-07 0.060000400000000009
1 0 0.27362682617024231 1 0 
8 -4.0000000001150227e-07 0.060000400000000009
1 0.21376720732474264 0 0 1 
1 3.3553598609145356 0 0 1 
1 4.9261561877094326 0 0 1 
1 1.7845635341196391 0 0 1 
1 0 -0.11880000000000002 1 0 
1 0 0.36080000000000001 1 0 
8 1.7845635341196247 2.9278254462650648
1 -1.5707963267948966 0.060000000000000012 1 0 
2 0 0 5.5511151231257827e-17 -1 1 5.5511151231257827e-17 0.27999999999999997
8 0.2137672073247282 1.3570291194701682
1 4.7123889803846897 0.060000000000000012 1 0 
2 0 0 5.5511151231257827e-17 -1 1 5.5511151231257827e-17 0.27999999999999997
2 0 0 5.5511151231257827e-17 -1 1 5.5511151231257827e-17 0.27999999999999997
2 0 0.059399999999999994 -1 -1.6653345369377348e-16 1.6653345369377348e-16 -1 0.27999999999999997
2 0 0.059400000000000008 1 0 -0 1 0.27999999999999997
2 0 0 1 0 -0 1 0.27999999999999997
8 0 0.2137672073247282
1 4.7123889803846897 0.060000000000000012 1 0 
2 0 0 5.5511151231257827e-17 -1 1 5.5511151231257827e-17 0.27999999999999997
2 0 0 5.5511151231257827e-17 -1 1 5.5511151231257827e-17 0.27999999999999997
2 0 0.059399999999999994 -1 -1.6653345369377348e-16 1.6653345369377348e-16 -1 0.27999999999999997
2 0 0.059400000000000008 1 0 -0 1 0.27999999999999997
2 0 0 1 0 -0 1 0.27999999999999997
8 6.0694180998548584 6.2831853071795862
1 -1.570796326794897 0.060000000000000012 1 0 
2 0 0 5.5511151231257827e-17 -1 1 5.5511151231257827e-17 0.27999999999999997
8 3.355359860914521 4.4986217730599609
1 -1.5707963267948961 0.060000000000000012 1 0 
2 0 0 5.5511151231257827e-17 -1 1 5.5511151231257827e-17 0.27999999999999997
8 4.9261561877094175 6.0694180998548584
1 -1.570796326794897 0.060000000000000012 1 0 
2 0 0 5.5511151231257827e-17 -1 1 5.5511151231257827e-17 0.27999999999999997
2 0 0 5.5511151231257827e-17 -1 1 5.5511151231257827e-17 0.27999999999999997
2 0 0.059400000000000008 -2.2204460492503126e-16 1 -1 -2.2204460492503126e-16 0.27999999999999997
2 0 0 5.5511151231257827e-17 -1 1 5.5511151231257827e-17 0.27999999999999997
2 0 0.059400000000000008 -2.2204460492503126e-16 1 -1 -2.2204460492503126e-16 0.27999999999999997
2 0 0 0.86602540378443871 -0.49999999999999994 0.49999999999999994 0.86602540378443871 0.19078784028338916
1 0 0.30469265401539752 1 0 
1 0 -0.079200000000000007 1 0 
1 0 0.079199999999999993 1 0 
1 0 -0.099000000000000005 1 0 
1 0 -0.079200000000000007 1 0 
1 0 0 1 0 
1 0 0.079200000000000007 1 0 
2 0 0 1 0 -0 1 0.013200000000000002
2 0.030000000000000027 0.039599999999999969 1 0 -0 1 0.01319999999999999
1 6.2831853071795862 -0 0 1 
1 0 -0 0 1 
1 0 0.020642943266424508 1 0 
7 0 0  10 56 7  4.7123889803846888 0.60824557891020914  4.767077088895145 0.60824557891020914  4.8217648284867538 0.60347305878032553  4.8755317676723795 0.59392861837683275  4.9274486641643307 0.57973942466808237  4.9767120848426005 0.5611666615676667  5.0227387886850918 0.53856664013310362  5.0651835711975748 0.51234154958945211  5.1038851807653796 0.48290149958726181  5.1387858292331492 0.45064517405425164  5.2243793088259363 0.35523918451785363  5.267283883117015 0.28706359312704677  5.2987424673818166 0.21345774982914864  5.3195828857045857 0.13626876402173593  5.3305243046124815 0.057000980286744607  5.3319201638747469 -0.023010915702639068  5.3237644592387365 -0.10248008536258232  5.3056977852656901 -0.18006385560571542  5.2770172229425576 -0.25419290951735807  5.2073284285388963 -0.37470840015564078  5.1711940826971787 -0.42339721985612044  5.1285722786933547 -0.4683642305413514  5.0792756158130938 -0.50876466620793503  5.0233360874262871 -0.54369412372761872  4.9610363005020188 -0.57217074965010395  4.8933713783186246 -0.59325027401596342  4.8222442261425709 -0.60624968241830179  4.7498440143152019 -0.61092701958587736  4.6245298540384585 -0.6047671374693675  4.5712697612646487 -0.59751632835941726  4.5193249067457035 -0.58570859714510781  4.46953377183066 -0.56951609859352925  4.4225805242127123 -0.54922563571153671  4.378933809025936 -0.52519832847944303  4.3388526027869174 -0.49782509304545003  4.3024423665614222 -0.46749599588547081  4.2697232320342167 -0.43458703921084574  4.1970412805945738 -0.34675300539450371  4.1616367978872946 -0.28904689733732047  4.1342949929577113 -0.22753506630020942  4.1145727180881293 -0.16330749647144099  4.1020565007028278 -0.097308388491411643  4.0964785467015945 -0.030375325173996742  4.0977468977824225 0.03669860928863132  4.1059535375439209 0.10310870097485003  4.1213590728119822 0.16799434222377291  4.1672158237664627 0.29278452698621871  4.1976668328825326 0.35268938723856991  4.2359643144009169 0.4091379577293992  4.2824862254201435 0.46107149108865997  4.3375866344431415 0.50726882176240906  4.4012627976480871 0.54642520775814774  4.4731103320373222 0.57703143256003386  4.5508880004053935 0.59784040694921714  4.6316385701622202 0.60824557891020925  4.7123889803846897 0.60824557891020925 
 0 11 0.78539816339743884 9 2.1598449493429386 9 3.1906800388020828 9 3.9638063558964278 9 5.1234958315380092 9 6.2831853071795862 11
8 1.7845635341196247 2.9278254462650648
1 -1.5707963267948966 0 1 0 
2 0 0 5.5511151231257827e-17 -1 1 5.5511151231257827e-17 0.27999999999999997
8 0.2137672073247282 1.3570291194701682
1 4.7123889803846897 0 1 0 
2 0 0 5.5511151231257827e-17 -1 1 5.5511151231257827e-17 0.27999999999999997
2 0 0 5.5511151231257827e-17 -1 1 5.5511151231257827e-17 0.27999999999999997
2 0 0.059399999999999994 -1 -1.6653345369377348e-16 1.6653345369377348e-16 -1 0.27999999999999997
2 0 0.059400000000000008 1 0 -0 1 0.27999999999999997
2 0 0 1 0 -0 1 0.27999999999999997
8 0 0.2137672073247282
1 4.7123889803846897 0 1 0 
2 0 0 5.5511151231257827e-17 -1 1 5.5511151231257827e-17 0.27999999999999997
2 0 0 5.5511151231257827e-17 -1 1 5.5511151231257827e-17 0.27999999999999997
2 0 0.059399999999999994 -1 -1.6653345369377348e-16 1.6653345369377348e-16 -1 0.27999999999999997
2 0 0.059400000000000008 1 0 -0 1 0.27999999999999997
2 0 0 1 0 -0 1 0.27999999999999997
8 6.0694180998548584 6.2831853071795862
1 -1.570796326794897 0 1 0 
2 0 0 5.5511151231257827e-17 -1 1 5.5511151231257827e-17 0.27999999999999997
8 3.355359860914521 4.4986217730599609
1 -1.5707963267948961 0 1 0 
2 0 0 5.5511151231257827e-17 -1 1 5.5511151231257827e-17 0.27999999999999997
8 4.9261561877094175 6.0694180998548584
1 -1.570796326794897 0 1 0 
2 0 0 5.5511151231257827e-17 -1 1 5.5511151231257827e-17 0.27999999999999997
2 0 0 5.5511151231257827e-17 -1 1 5.5511151231257827e-17 0.27999999999999997
2 0 0.059400000000000008 -2.2204460492503126e-16 1 -1 -2.2204460492503126e-16 0.27999999999999997
2 0 0 5.5511151231257827e-17 -1 1 5.5511151231257827e-17 0.27999999999999997
2 0 0.059400000000000008 -2.2204460492503126e-16 1 -1 -2.2204460492503126e-16 0.27999999999999997
2 0 0 0.86602540378443871 -0.49999999999999994 0.49999999999999994 0.86602540378443871 0.20000000000000001
1 0 0 1 0 
8 -4.0000000001150227e-07 0.060000400000000009
1 0 0.27362682617024231 1 0 
8 -4.0000000001150227e-07 0.060000400000000009
1 0.21376720732474264 0 0 1 
1 4.9261561877094326 0 0 1 
8 -4.0000000001150227e-07 0.060000400000000009
1 0 0.27362682617024231 1 0 
8 -4.0000000001150227e-07 0.060000400000000009
1 6.0694180998548433 0 0 1 
1 1.3570291194701538 0 0 1 
1 2.9278254462650506 0 0 1 
1 0 0.11880000000000002 1 0 
1 0.059999999999999998 0 0 1 
1 0.36080000000000001 0 0 1 
1 0.059999999999999998 0 0 -1 
1 0.28160000000000002 0.099000000000000005 1 0 
1 0.059999999999999998 0 0 1 
1 0 0 1 0 
1 0.059999999999999998 0 0 1 
1 0.28160000000000002 0.019800000000000005 0 1 
1 0.059999999999999998 0 0 -1 
1 0.059999999999999998 0 0 -1 
1 0.36080000000000001 0 0 1 
1 0.28160000000000002 0.019800000000000005 1 0 
1 0.059999999999999998 0 0 1 
1 0 0.11880000000000002 1 0 
1 0.059999999999999998 0 0 1 
1 0.36080000000000001 0 0 1 
1 0.059999999999999998 0 0 -1 
1 0.28160000000000002 0.099000000000000005 1 0 
1 0.059999999999999998 0 0 1 
1 0 0 1 0 
1 0.059999999999999998 0 0 1 
1 0.28160000000000002 0.019800000000000005 0 1 
1 0.059999999999999998 0 0 -1 
1 0.059999999999999998 0 0 -1 
1 0.36080000000000001 0 0 1 
1 0.28160000000000002 0.019800000000000005 1 0 
1 0.059999999999999998 0 0 1 
8 -4.0000000001150227e-07 0.060000400000000009
1 0 0.27362682617024231 1 0 
8 -4.0000000001150227e-07 0.060000400000000009
1 0.21376720732474264 0 0 1 
1 1.7845635341196393 0 0 1 
1 3.3553598609145356 0 0 1 
8 -4.0000000001150227e-07 0.060000400000000009
1 0 0.27362682617024231 1 0 
8 -4.0000000001150227e-07 0.060000400000000009
1 6.0694180998548433 0 0 1 
1 2.9278254462650506 0 0 1 
1 1.357029119470154 0 0 1 
1 4.4986217730599467 0 0 1 
8 -4.0000000001150227e-07 0.060000400000000009
1 0 0.27362682617024231 1 0 
8 -4.0000000001150227e-07 0.060000400000000009
1 6.0694180998548433 0 0 1 
1 4.4986217730599467 0 0 1 
8 -4.0000000001150227e-07 0.060000400000000009
1 0 0.27362682617024231 1 0 
8 -4.0000000001150227e-07 0.060000400000000009
1 0.21376720732474264 0 0 1 
1 3.3553598609145356 0 0 1 
1 1.7845635341196393 0 0 1 
1 4.9261561877094318 0 0 1 
1 0 0.11880000000000002 1 0 
1 0.059999999999999998 0 0 1 
1 0.36080000000000001 0 0 1 
1 0.059999999999999998 0 0 -1 
1 0.28160000000000002 0.099000000000000005 1 0 
1 0.059999999999999998 0 0 1 
1 0 0 1 0 
1 0.059999999999999998 0 0 1 
1 0.28160000000000002 0.019800000000000005 0 1 
1 0.059999999999999998 0 0 -1 
1 0.059999999999999998 0 0 -1 
1 0.36080000000000001 0 0 1 
1 0.28160000000000002 0.019800000000000005 1 0 
1 0.059999999999999998 0 0 1 
1 6.2831853071795862 -6.2831853071795862 0 1 
1 0 -6.2831853071795862 0 1 
1 0 0.058557056733575502 1 0 
7 0 0  10 56 7  1.5707963267948966 0.60824557891020914  1.5161082182844414 0.60824557891020914  1.4614204786880789 0.60347305878032553  1.4076535395043748 0.59392861837683275  1.355736643001046 0.57973942466808237  1.3064732223167286 0.5611666615676667  1.2604465184862725 0.53856664013310362  1.2180017359848567 0.51234154958945211  1.1793001264102334 0.48290149958726181  1.1443994779464366 0.45064517405425164  1.0588059983536495 0.35523918451785363  1.0159014240394533 0.28706359312704677  0.98444283986468695 0.21345774982914864  0.96360242137889141 0.13626876402173593  0.95266100257867947 0.057000980286744607  0.95126514343064628 -0.023010915702639068  0.95942084789858195 -0.10248008536258232  0.97748752192897614 -0.18006385560571542  1.0061680842370282 -0.25419290951735807  1.0758568786406892 -0.37470840015564078  1.1119912244327321 -0.42339721985612044  1.1546130285380969 -0.4683642305413514  1.2039096910273657 -0.50876466620793503  1.2598492194465507 -0.54369412372761872  1.3221490065829129 -0.57217074965010395  1.3898139286885454 -0.59325027401596342  1.4609410810717407 -0.60624968241830179  1.5333412928643844 -0.61092701958587736  1.6586554531411282 -0.6047671374693675  1.7119155459132256 -0.59751632835941726  1.7638604004261169 -0.58570859714510781  1.8136515353407656 -0.56951609859352925  1.8606047829590455 -0.54922563571153671  1.9042514981431851 -0.52519832847944303  1.9443327043832046 -0.49782509304545003  1.9807429406170178 -0.46749599588547081  2.0134620751453678 -0.43458703921084574  2.086144026585012 -0.34675300539450371  2.121548509287186 -0.28904689733732047  2.1488903142238707 -0.22753506630020942  2.168612589090571 -0.16330749647144099  2.181128806471154 -0.097308388491411643  2.1867067604761661 -0.030375325173996742  2.1854384093984178 0.03669860928863132  2.1772317696307004 0.10310870097485003  2.1618262343676031 0.16799434222377291  2.1159694834131231 0.29278452698621871  2.0855184745942097 0.35268938723856991  2.0472209920990281 0.4091379577293992  2.0006990844849497 0.46107149108865997  1.945598672144115 0.50726882176240906  1.8819225106562953 0.54642520775814774  1.8100749745208304 0.57703143256003386  1.7322973070658918 0.59784040694921714  1.6515467370173655 0.60824557891020925  1.5707963267948966 0.60824557891020925 
 0 11 0.78539816339744972 9 2.1598449493429883 9 3.190680038802137 9 3.9638063558965029 9 5.1234958315380457 9 6.2831853071795862 11
1 6.2831853071795862 -6.2831853071795862 0 1 
1 0 -6.2831853071795862 0 1 
1 0 -1.5707963267948966 1 0 
1 0 1.5707963267948966 1 0 
1 0 0.11880000000000002 1 0 
1 0 0 0 1 
1 0.36080000000000001 0 0 1 
1 0 0 0 -1 
1 0.28160000000000002 0.099000000000000005 1 0 
1 0 0 0 1 
1 0 0 1 0 
1 0 0 0 1 
1 0.28160000000000002 0.019800000000000005 0 1 
1 0 0 0 -1 
1 0 0 0 -1 
1 0.36080000000000001 0 0 1 
1 0 0 0 1 
1 0.28160000000000002 0.019800000000000005 1 0 
1 0 0.11880000000000002 1 0 
1 0 0 0 1 
1 0.36080000000000001 0 0 1 
1 0 0 0 -1 
1 0.28160000000000002 0.099000000000000005 1 0 
1 0 0 0 1 
1 0 0 1 0 
1 0 0 0 1 
1 0.28160000000000002 0.019800000000000005 0 1 
1 0 0 0 -1 
1 0 0 0 -1 
1 0.36080000000000001 0 0 1 
1 0 0 0 1 
1 0.28160000000000002 0.019800000000000005 1 0 
1 0 0.11880000000000002 1 0 
1 0 0 0 1 
1 0.36080000000000001 0 0 1 
1 0 0 0 -1 
1 0.28160000000000002 0.099000000000000005 1 0 
1 0 0 0 1 
1 0 0 1 0 
1 0 0 0 1 
1 0.28160000000000002 0.019800000000000005 0 1 
1 0 0 0 -1 
1 0 0 0 -1 
1 0.36080000000000001 0 0 1 
1 0 0 0 1 
1 0.28160000000000002 0.019800000000000005 1 0 
1 0 0.36080000000000001 1 0 
1 0 -0.11880000000000002 1 0 
1 0 0 1 0 
1 0 0.36080000000000001 1 0 
1 0 0.36080000000000001 1 0 
1 0 -0.11880000000000002 1 0 
1 0 -0.099000000000000005 1 0 
1 0 0.079199999999999993 1 0 
1 0 0 1 0 
1 0 -0.079200000000000007 1 0 
2 0.030000000000000027 0.039599999999999969 1 0 -0 1 0.01319999999999999
1 0 0.079200000000000007 1 0 
1 0 0 1 0 
1 0 0 1 0 
1 0 -0.019800000000000005 1 0 
1 0 0.079199999999999993 1 0 
2 0.030000000000000027 0.039599999999999969 1 0 -0 1 0.01319999999999999
1 0 0 1 0 
1 0 -0.099000000000000005 1 0 
1 0 0.079199999999999993 1 0 
1 0 0 1 0 
1 0 -0.079200000000000007 1 0 
2 0.030000000000000027 0.039599999999999969 1 0 -0 1 0.01319999999999999
1 0 0.079200000000000007 1 0 
1 0 0 1 0 
1 0 0.36080000000000001 1 0 
1 0 0 1 0 
1 0 0 1 0 
1 0 -0.019800000000000005 1 0 
1 0 0.079199999999999993 1 0 
2 0.030000000000000027 0.039599999999999969 1 0 -0 1 0.01319999999999999
1 0 0 1 0 
1 0 0 1 0 
1 0 0.36080000000000001 1 0 
1 0 0.36080000000000001 1 0 
1 0 -0.11880000000000002 1 0 
1 0 -0.099000000000000005 1 0 
1 0 0.079199999999999993 1 0 
1 0 0 1 0 
1 0 -0.079200000000000007 1 0 
2 0.030000000000000027 0.039599999999999969 1 0 -0 1 0.01319999999999999
1 0 0.079200000000000007 1 0 
1 0 0 1 0 
1 0 0 1 0 
1 0 -0.019800000000000005 1 0 
1 0 0.079199999999999993 1 0 
2 0.030000000000000027 0.039599999999999969 1 0 -0 1 0.01319999999999999
1 0 0 1 0 
1 0 0.058557056733575502 1 0 
7 0 0  10 56 7  1.5707963267948966 0.60824557891020914  1.5161082182844414 0.60824557891020914  1.4614204786880789 0.60347305878032553  1.4076535395043748 0.59392861837683275  1.355736643001046 0.57973942466808237  1.3064732223167286 0.5611666615676667  1.2604465184862725 0.53856664013310362  1.2180017359848567 0.51234154958945211  1.1793001264102334 0.48290149958726181  1.1443994779464366 0.45064517405425164  1.0588059983536495 0.35523918451785363  1.0159014240394533 0.28706359312704677  0.98444283986468695 0.21345774982914864  0.96360242137889141 0.13626876402173593  0.95266100257867947 0.057000980286744607  0.95126514343064628 -0.023010915702639068  0.95942084789858195 -0.10248008536258232  0.97748752192897614 -0.18006385560571542  1.0061680842370282 -0.25419290951735807  1.0758568786406892 -0.37470840015564078  1.1119912244327321 -0.42339721985612044  1.1546130285380969 -0.4683642305413514  1.2039096910273657 -0.50876466620793503  1.2598492194465507 -0.54369412372761872  1.3221490065829129 -0.57217074965010395  1.3898139286885454 -0.59325027401596342  1.4609410810717407 -0.60624968241830179  1.5333412928643844 -0.61092701958587736  1.6586554531411282 -0.6047671374693675  1.7119155459132256 -0.59751632835941726  1.7638604004261169 -0.58570859714510781  1.8136515353407656 -0.56951609859352925  1.8606047829590455 -0.54922563571153671  1.9042514981431851 -0.52519832847944303  1.9443327043832046 -0.49782509304545003  1.9807429406170178 -0.46749599588547081  2.0134620751453678 -0.43458703921084574  2.086144026585012 -0.34675300539450371  2.121548509287186 -0.28904689733732047  2.1488903142238707 -0.22753506630020942  2.168612589090571 -0.16330749647144099  2.181128806471154 -0.097308388491411643  2.1867067604761661 -0.030375325173996742  2.1854384093984178 0.03669860928863132  2.1772317696307004 0.10310870097485003  2.1618262343676031 0.16799434222377291  2.1159694834131231 0.29278452698621871  2.0855184745942097 0.35268938723856991  2.0472209920990281 0.4091379577293992  2.0006990844849497 0.46107149108865997  1.945598672144115 0.50726882176240906  1.8819225106562953 0.54642520775814774  1.8100749745208304 0.57703143256003386  1.7322973070658918 0.59784040694921714  1.6515467370173655 0.60824557891020925  1.5707963267948966 0.60824557891020925 
 0 11 0.78539816339744972 9 2.1598449493429883 9 3.190680038802137 9 3.9638063558965029 9 5.1234958315380457 9 6.2831853071795862 11
1 6.2831853071795862 -0 0 1 
1 0 -0 0 1 
1 6.2831853071795862 -0 0 1 
1 0 -0 0 1 
1 0 0.020642943266424508 1 0 
7 0 0  10 56 7  4.7123889803846888 0.60824557891020914  4.767077088895145 0.60824557891020914  4.8217648284867538 0.60347305878032553  4.8755317676723795 0.59392861837683275  4.9274486641643307 0.57973942466808237  4.9767120848426005 0.5611666615676667  5.0227387886850918 0.53856664013310362  5.0651835711975748 0.51234154958945211  5.1038851807653796 0.48290149958726181  5.1387858292331492 0.45064517405425164  5.2243793088259363 0.35523918451785363  5.267283883117015 0.28706359312704677  5.2987424673818166 0.21345774982914864  5.3195828857045857 0.13626876402173593  5.3305243046124815 0.057000980286744607  5.3319201638747469 -0.023010915702639068  5.3237644592387365 -0.10248008536258232  5.3056977852656901 -0.18006385560571542  5.2770172229425576 -0.25419290951735807  5.2073284285388963 -0.37470840015564078  5.1711940826971787 -0.42339721985612044  5.1285722786933547 -0.4683642305413514  5.0792756158130938 -0.50876466620793503  5.0233360874262871 -0.54369412372761872  4.9610363005020188 -0.57217074965010395  4.8933713783186246 -0.59325027401596342  4.8222442261425709 -0.60624968241830179  4.7498440143152019 -0.61092701958587736  4.6245298540384585 -0.6047671374693675  4.5712697612646487 -0.59751632835941726  4.5193249067457035 -0.58570859714510781  4.46953377183066 -0.56951609859352925  4.4225805242127123 -0.54922563571153671  4.378933809025936 -0.52519832847944303  4.3388526027869174 -0.49782509304545003  4.3024423665614222 -0.46749599588547081  4.2697232320342167 -0.43458703921084574  4.1970412805945738 -0.34675300539450371  4.1616367978872946 -0.28904689733732047  4.1342949929577113 -0.22753506630020942  4.1145727180881293 -0.16330749647144099  4.1020565007028278 -0.097308388491411643  4.0964785467015945 -0.030375325173996742  4.0977468977824225 0.03669860928863132  4.1059535375439209 0.10310870097485003  4.1213590728119822 0.16799434222377291  4.1672158237664627 0.29278452698621871  4.1976668328825326 0.35268938723856991  4.2359643144009169 0.4091379577293992  4.2824862254201435 0.46107149108865997  4.3375866344431415 0.50726882176240906  4.4012627976480871 0.54642520775814774  4.4731103320373222 0.57703143256003386  4.5508880004053935 0.59784040694921714  4.6316385701622202 0.60824557891020925  4.7123889803846897 0.60824557891020925 
 0 11 0.78539816339743884 9 2.1598449493429386 9 3.1906800388020828 9 3.9638063558964278 9 5.1234958315380092 9 6.2831853071795862 11
1 0 0.058557056733575502 1 0 
7 0 0  10 56 7  1.5707963267948966 0.60824557891020914  1.5161082182844414 0.60824557891020914  1.4614204786880789 0.60347305878032553  1.4076535395043748 0.59392861837683275  1.355736643001046 0.57973942466808237  1.3064732223167286 0.5611666615676667  1.2604465184862725 0.53856664013310362  1.2180017359848567 0.51234154958945211  1.1793001264102334 0.48290149958726181  1.1443994779464366 0.45064517405425164  1.0588059983536495 0.35523918451785363  1.0159014240394533 0.28706359312704677  0.98444283986468695 0.21345774982914864  0.96360242137889141 0.13626876402173593  0.95266100257867947 0.057000980286744607  0.95126514343064628 -0.023010915702639068  0.95942084789858195 -0.10248008536258232  0.97748752192897614 -0.18006385560571542  1.0061680842370282 -0.25419290951735807  1.0758568786406892 -0.37470840015564078  1.1119912244327321 -0.42339721985612044  1.1546130285380969 -0.4683642305413514  1.2039096910273657 -0.50876466620793503  1.2598492194465507 -0.54369412372761872  1.3221490065829129 -0.57217074965010395  1.3898139286885454 -0.59325027401596342  1.4609410810717407 -0.60624968241830179  1.5333412928643844 -0.61092701958587736  1.6586554531411282 -0.6047671374693675  1.7119155459132256 -0.59751632835941726  1.7638604004261169 -0.58570859714510781  1.8136515353407656 -0.56951609859352925  1.8606047829590455 -0.54922563571153671  1.9042514981431851 -0.52519832847944303  1.9443327043832046 -0.49782509304545003  1.9807429406170178 -0.46749599588547081  2.0134620751453678 -0.43458703921084574  2.086144026585012 -0.34675300539450371  2.121548509287186 -0.28904689733732047  2.1488903142238707 -0.22753506630020942  2.168612589090571 -0.16330749647144099  2.181128806471154 -0.097308388491411643  2.1867067604761661 -0.030375325173996742  2.1854384093984178 0.03669860928863132  2.1772317696307004 0.10310870097485003  2.1618262343676031 0.16799434222377291  2.1159694834131231 0.29278452698621871  2.0855184745942097 0.35268938723856991  2.0472209920990281 0.4091379577293992  2.0006990844849497 0.46107149108865997  1.945598672144115 0.50726882176240906  1.8819225106562953 0.54642520775814774  1.8100749745208304 0.57703143256003386  1.7322973070658918 0.59784040694921714  1.6515467370173655 0.60824557891020925  1.5707963267948966 0.60824557891020925 
 0 11 0.78539816339744972 9 2.1598449493429883 9 3.190680038802137 9 3.9638063558965029 9 5.1234958315380457 9 6.2831853071795862 11
1 6.2831853071795862 -0 0 1 
1 0 -0 0 1 
1 6.2831853071795862 -0 0 1 
1 0 -0 0 1 
1 0 0.020642943266424508 1 0 
7 0 0  10 56 7  4.7123889803846888 0.60824557891020914  4.767077088895145 0.60824557891020914  4.8217648284867538 0.60347305878032553  4.8755317676723795 0.59392861837683275  4.9274486641643307 0.57973942466808237  4.9767120848426005 0.5611666615676667  5.0227387886850918 0.53856664013310362  5.0651835711975748 0.51234154958945211  5.1038851807653796 0.48290149958726181  5.1387858292331492 0.45064517405425164  5.2243793088259363 0.35523918451785363  5.267283883117015 0.28706359312704677  5.2987424673818166 0.21345774982914864  5.3195828857045857 0.13626876402173593  5.3305243046124815 0.057000980286744607  5.3319201638747469 -0.023010915702639068  5.3237644592387365 -0.10248008536258232  5.3056977852656901 -0.18006385560571542  5.2770172229425576 -0.25419290951735807  5.2073284285388963 -0.37470840015564078  5.1711940826971787 -0.42339721985612044  5.1285722786933547 -0.4683642305413514  5.0792756158130938 -0.50876466620793503  5.0233360874262871 -0.54369412372761872  4.9610363005020188 -0.57217074965010395  4.8933713783186246 -0.59325027401596342  4.8222442261425709 -0.60624968241830179  4.7498440143152019 -0.61092701958587736  4.6245298540384585 -0.6047671374693675  4.5712697612646487 -0.59751632835941726  4.5193249067457035 -0.58570859714510781  4.46953377183066 -0.56951609859352925  4.4225805242127123 -0.54922563571153671  4.378933809025936 -0.52519832847944303  4.3388526027869174 -0.49782509304545003  4.3024423665614222 -0.46749599588547081  4.2697232320342167 -0.43458703921084574  4.1970412805945738 -0.34675300539450371  4.1616367978872946 -0.28904689733732047  4.1342949929577113 -0.22753506630020942  4.1145727180881293 -0.16330749647144099  4.1020565007028278 -0.097308388491411643  4.0964785467015945 -0.030375325173996742  4.0977468977824225 0.03669860928863132  4.1059535375439209 0.10310870097485003  4.1213590728119822 0.16799434222377291  4.1672158237664627 0.29278452698621871  4.1976668328825326 0.35268938723856991  4.2359643144009169 0.4091379577293992  4.2824862254201435 0.46107149108865997  4.3375866344431415 0.50726882176240906  4.4012627976480871 0.54642520775814774  4.4731103320373222 0.57703143256003386  4.5508880004053935 0.59784040694921714  4.6316385701622202 0.60824557891020925  4.7123889803846897 0.60824557891020925 
 0 11 0.78539816339743884 9 2.1598449493429386 9 3.1906800388020828 9 3.9638063558964278 9 5.1234958315380092 9 6.2831853071795862 11
1 0 0.058557056733575502 1 0 
7 0 0  10 56 7  1.5707963267948966 0.60824557891020914  1.5161082182844414 0.60824557891020914  1.4614204786880789 0.60347305878032553  1.4076535395043748 0.59392861837683275  1.355736643001046 0.57973942466808237  1.3064732223167286 0.5611666615676667  1.2604465184862725 0.53856664013310362  1.2180017359848567 0.51234154958945211  1.1793001264102334 0.48290149958726181  1.1443994779464366 0.45064517405425164  1.0588059983536495 0.35523918451785363  1.0159014240394533 0.28706359312704677  0.98444283986468695 0.21345774982914864  0.96360242137889141 0.13626876402173593  0.95266100257867947 0.057000980286744607  0.95126514343064628 -0.023010915702639068  0.95942084789858195 -0.10248008536258232  0.97748752192897614 -0.18006385560571542  1.0061680842370282 -0.25419290951735807  1.0758568786406892 -0.37470840015564078  1.1119912244327321 -0.42339721985612044  1.1546130285380969 -0.4683642305413514  1.2039096910273657 -0.50876466620793503  1.2598492194465507 -0.54369412372761872  1.3221490065829129 -0.57217074965010395  1.3898139286885454 -0.59325027401596342  1.4609410810717407 -0.60624968241830179  1.5333412928643844 -0.61092701958587736  1.6586554531411282 -0.6047671374693675  1.7119155459132256 -0.59751632835941726  1.7638604004261169 -0.58570859714510781  1.8136515353407656 -0.56951609859352925  1.8606047829590455 -0.54922563571153671  1.9042514981431851 -0.52519832847944303  1.9443327043832046 -0.49782509304545003  1.9807429406170178 -0.46749599588547081  2.0134620751453678 -0.43458703921084574  2.086144026585012 -0.34675300539450371  2.121548509287186 -0.28904689733732047  2.1488903142238707 -0.22753506630020942  2.168612589090571 -0.16330749647144099  2.181128806471154 -0.097308388491411643  2.1867067604761661 -0.030375325173996742  2.1854384093984178 0.03669860928863132  2.1772317696307004 0.10310870097485003  2.1618262343676031 0.16799434222377291  2.1159694834131231 0.29278452698621871  2.0855184745942097 0.35268938723856991  2.0472209920990281 0.4091379577293992  2.0006990844849497 0.46107149108865997  1.945598672144115 0.50726882176240906  1.8819225106562953 0.54642520775814774  1.8100749745208304 0.57703143256003386  1.7322973070658918 0.59784040694921714  1.6515467370173655 0.60824557891020925  1.5707963267948966 0.60824557891020925 
 0 11 0.78539816339744972 9 2.1598449493429883 9 3.190680038802137 9 3.9638063558965029 9 5.1234958315380457 9 6.2831853071795862 11
1 6.2831853071795862 -0 0 1 
1 0 -0 0 1 
1 6.2831853071795862 -0 0 1 
1 0 -0 0 1 
1 0 0.020642943266424508 1 0 
7 0 0  10 56 7  4.7123889803846888 0.60824557891020914  4.767077088895145 0.60824557891020914  4.8217648284867538 0.60347305878032553  4.8755317676723795 0.59392861837683275  4.9274486641643307 0.57973942466808237  4.9767120848426005 0.5611666615676667  5.0227387886850918 0.53856664013310362  5.0651835711975748 0.51234154958945211  5.1038851807653796 0.48290149958726181  5.1387858292331492 0.45064517405425164  5.2243793088259363 0.35523918451785363  5.267283883117015 0.28706359312704677  5.2987424673818166 0.21345774982914864  5.3195828857045857 0.13626876402173593  5.3305243046124815 0.057000980286744607  5.3319201638747469 -0.023010915702639068  5.3237644592387365 -0.10248008536258232  5.3056977852656901 -0.18006385560571542  5.2770172229425576 -0.25419290951735807  5.2073284285388963 -0.37470840015564078  5.1711940826971787 -0.42339721985612044  5.1285722786933547 -0.4683642305413514  5.0792756158130938 -0.50876466620793503  5.0233360874262871 -0.54369412372761872  4.9610363005020188 -0.57217074965010395  4.8933713783186246 -0.59325027401596342  4.8222442261425709 -0.60624968241830179  4.7498440143152019 -0.61092701958587736  4.6245298540384585 -0.6047671374693675  4.5712697612646487 -0.59751632835941726  4.5193249067457035 -0.58570859714510781  4.46953377183066 -0.56951609859352925  4.4225805242127123 -0.54922563571153671  4.378933809025936 -0.52519832847944303  4.3388526027869174 -0.49782509304545003  4.3024423665614222 -0.46749599588547081  4.2697232320342167 -0.43458703921084574  4.1970412805945738 -0.34675300539450371  4.1616367978872946 -0.28904689733732047  4.1342949929577113 -0.22753506630020942  4.1145727180881293 -0.16330749647144099  4.1020565007028278 -0.097308388491411643  4.0964785467015945 -0.030375325173996742  4.0977468977824225 0.03669860928863132  4.1059535375439209 0.10310870097485003  4.1213590728119822 0.16799434222377291  4.1672158237664627 0.29278452698621871  4.1976668328825326 0.35268938723856991  4.2359643144009169 0.4091379577293992  4.2824862254201435 0.46107149108865997  4.3375866344431415 0.50726882176240906  4.4012627976480871 0.54642520775814774  4.4731103320373222 0.57703143256003386  4.5508880004053935 0.59784040694921714  4.6316385701622202 0.60824557891020925  4.7123889803846897 0.60824557891020925 
 0 11 0.78539816339743884 9 2.1598449493429386 9 3.1906800388020828 9 3.9638063558964278 9 5.1234958315380092 9 6.2831853071795862 11
1 6.2831853071795862 -6.2831853071795862 0 1 
1 0 -6.2831853071795862 0 1 
1 0 -1.5707963267948966 1 0 
1 0 1.5707963267948966 1 0 
1 6.2831853071795862 -6.2831853071795862 0 1 
1 0 -6.2831853071795862 0 1 
1 0 -1.5707963267948966 1 0 
1 0 1.5707963267948966 1 0 
1 6.2831853071795862 -6.2831853071795862 0 1 
1 0 -6.2831853071795862 0 1 
1 0 -1.5707963267948966 1 0 
1 0 1.5707963267948966 1 0 
Curves 122
1 0.36080000000000001 -0.059400000000000008 0.46000000000000002 0 1 0 
1 0.36080000000000001 -0.039600000000000003 0.40000000000000002 0 0 1 
1 0.36080000000000001 -0.059400000000000008 0.40000000000000002 -0 1 0 
1 0.36080000000000001 -0.059400000000000008 0.40000000000000002 0 0 1 
1 0 0.059400000000000008 0.46000000000000002 1 0 -0 
2 0 0 0.46000000000000002 0 0 1 1 0 -0 -0 1 0 0.27999999999999997
1 0.28160000000000002 0.039600000000000003 0.46000000000000002 1 0 -0 
1 0 -0.059400000000000008 0.46000000000000002 1 0 -0 
1 0.28160000000000002 -0.039600000000000003 0.46000000000000002 -0 1 0 
1 0.28160000000000002 -0.039600000000000003 0.46000000000000002 1 0 -0 
1 0.28160000000000002 -0.039600000000000003 0.40000000000000002 1 0 -0 
1 0.28160000000000002 -0.039600000000000003 0.40000000000000002 0 0 1 
2 0.32119999999999999 -0.039600000000000003 0.43000000000000005 0 1 0 0 -0 1 1 0 -0 0.013200000000000002
1 0 0.059400000000000008 0.40000000000000002 1 0 -0 
2 0 0 0.40000000000000002 0 0 1 1 0 -0 -0 1 0 0.27999999999999997
1 0.28160000000000002 0.039600000000000003 0.40000000000000002 1 0 -0 
1 0 -0.059400000000000008 0.40000000000000002 1 0 -0 
1 0.28160000000000002 -0.039600000000000003 0.40000000000000002 -0 1 0 
1 0.27362682617024231 -0.059400000000000008 0.40000000000000002 0 0 1 
1 0.27362682617024231 0.059400000000000008 0.40000000000000002 0 0 1 
1 0.36080000000000001 0.059400000000000008 0.40000000000000002 0 0 1 
2 0 0 0.46000000000000002 0 0 1 1 0 -0 -0 1 0 0.27999999999999997
2 0 0 0.46000000000000002 0 0 1 1 0 -0 -0 1 0 0.27999999999999997
2 0 0 0.46000000000000002 0 0 1 1 0 -0 -0 1 0 0.19078784028338916
1 0.36080000000000001 0.039600000000000003 0.40000000000000002 0 0 1 
1 0.28160000000000002 0.039600000000000003 0.40000000000000002 0 0 1 
2 0.32119999999999999 0.039600000000000003 0.43000000000000005 0 1 0 0 -0 1 1 0 -0 0.013200000000000002
1 0.32119999999999999 -0.039600000000000003 0.44320000000000004 0 1 0 
2 0.32119999999999999 -0.018957056733575495 0.43000000000000005 0 1 0 0 -0 1 1 0 -0 0.013200000000000002
2 0 0 0.40000000000000002 0 0 1 1 0 -0 -0 1 0 0.27999999999999997
2 0 0 0.40000000000000002 0 0 1 1 0 -0 -0 1 0 0.27999999999999997
2 0 0 0.40000000000000002 0 0 1 1 0 -0 -0 1 0 0.20000000000000001
1 0.27362682617024231 0.059400000000000008 0.40000000000000002 0 0 1 
1 0.27362682617024231 -0.059400000000000008 0.40000000000000002 0 0 1 
1 0 0.059400000000000008 0.46000000000000002 1 0 -0 
1 0.36080000000000001 -0.059400000000000008 0.46000000000000002 0 1 0 
1 0.28160000000000002 0.039600000000000003 0.46000000000000002 1 0 -0 
1 0 -0.059400000000000008 0.46000000000000002 1 0 -0 
1 0.28160000000000002 -0.039600000000000003 0.46000000000000002 -0 1 0 
1 0.36080000000000001 -0.059400000000000008 0.46000000000000002 0 1 0 
1 0.28160000000000002 -0.039600000000000003 0.46000000000000002 1 0 -0 
1 0 0.059400000000000008 0.46000000000000002 1 0 -0 
1 0.36080000000000001 -0.059400000000000008 0.46000000000000002 0 1 0 
1 0.28160000000000002 0.039600000000000003 0.46000000000000002 1 0 -0 
1 0 -0.059400000000000008 0.46000000000000002 1 0 -0 
1 0.28160000000000002 -0.039600000000000003 0.46000000000000002 -0 1 0 
1 0.36080000000000001 -0.059400000000000008 0.46000000000000002 0 1 0 
1 0.28160000000000002 -0.039600000000000003 0.46000000000000002 1 0 -0 
1 0.27362682617024231 0.059400000000000008 0.40000000000000002 0 0 1 
1 0.27362682617024231 -0.059400000000000008 0.40000000000000002 0 0 1 
1 0.27362682617024231 -0.059400000000000008 0.40000000000000002 0 0 1 
1 0.27362682617024231 0.059400000000000008 0.40000000000000002 0 0 1 
1 0 0.059400000000000008 0.46000000000000002 1 0 -0 
1 0.36080000000000001 -0.059400000000000008 0.46000000000000002 0 1 0 
1 0.28160000000000002 0.039600000000000003 0.46000000000000002 1 0 -0 
1 0 -0.059400000000000008 0.46000000000000002 1 0 -0 
1 0.28160000000000002 -0.039600000000000003 0.46000000000000002 -0 1 0 
1 0.36080000000000001 -0.059400000000000008 0.46000000000000002 0 1 0 
1 0.28160000000000002 -0.039600000000000003 0.46000000000000002 1 0 -0 
2 0 0 0.40000000000000002 -2.4492935982947064e-16 -1 0 1 -2.4492935982947064e-16 0 0 0 1 0.20000000000000001
2 0.32119999999999999 0.018957056733575495 0.43000000000000005 0 1 0 0 -0 1 1 0 -0 0.013200000000000002
2 0.32119999999999999 0 0.43000000000000005 -2.4492935982947064e-16 -1 0 1 -2.4492935982947064e-16 0 0 0 1 0.023100000000000002
1 0 0.059400000000000008 0.40000000000000002 1 0 -0 
1 0.36080000000000001 -0.059400000000000008 0.40000000000000002 -0 1 0 
1 0.28160000000000002 0.039600000000000003 0.40000000000000002 1 0 -0 
1 0 -0.059400000000000008 0.40000000000000002 1 0 -0 
1 0.28160000000000002 -0.039600000000000003 0.40000000000000002 -0 1 0 
1 0.36080000000000001 -0.059400000000000008 0.40000000000000002 -0 1 0 
1 0.28160000000000002 -0.039600000000000003 0.40000000000000002 1 0 -0 
1 0 0.059400000000000008 0.40000000000000002 1 0 -0 
1 0.36080000000000001 -0.059400000000000008 0.40000000000000002 -0 1 0 
1 0.28160000000000002 0.039600000000000003 0.40000000000000002 1 0 -0 
1 0 -0.059400000000000008 0.40000000000000002 1 0 -0 
1 0.28160000000000002 -0.039600000000000003 0.40000000000000002 -0 1 0 
1 0.36080000000000001 -0.059400000000000008 0.40000000000000002 -0 1 0 
1 0.28160000000000002 -0.039600000000000003 0.40000000000000002 1 0 -0 
1 0 0.059400000000000008 0.40000000000000002 1 0 -0 
1 0.36080000000000001 -0.059400000000000008 0.40000000000000002 -0 1 0 
1 0.28160000000000002 0.039600000000000003 0.40000000000000002 1 0 -0 
1 0 -0.059400000000000008 0.40000000000000002 1 0 -0 
1 0.28160000000000002 -0.039600000000000003 0.40000000000000002 -0 1 0 
1 0.36080000000000001 -0.059400000000000008 0.40000000000000002 -0 1 0 
1 0.28160000000000002 -0.039600000000000003 0.40000000000000002 1 0 -0 
1 0.36080000000000001 0.059400000000000008 0.40000000000000002 0 0 1 
1 0.36080000000000001 -0.059400000000000008 0.40000000000000002 0 0 1 
1 0.36080000000000001 0.059400000000000008 0.40000000000000002 0 0 1 
1 0.36080000000000001 0.039600000000000003 0.40000000000000002 0 0 1 
1 0.28160000000000002 0.039600000000000003 0.40000000000000002 0 0 1 
2 0.32119999999999999 0.039600000000000003 0.43000000000000005 0 1 0 0 -0 1 1 0 -0 0.013200000000000002
1 0.28160000000000002 -0.039600000000000003 0.40000000000000002 0 0 1 
1 0.36080000000000001 -0.039600000000000003 0.40000000000000002 0 0 1 
2 0.32119999999999999 -0.039600000000000003 0.43000000000000005 0 1 0 0 -0 1 1 0 -0 0.013200000000000002
1 0.36080000000000001 0.039600000000000003 0.40000000000000002 0 0 1 
1 0.28160000000000002 0.039600000000000003 0.40000000000000002 0 0 1 
2 0.32119999999999999 0.039600000000000003 0.43000000000000005 0 1 0 0 -0 1 1 0 -0 0.013200000000000002
1 0.36080000000000001 -0.059400000000000008 0.40000000000000002 0 0 1 
1 0.28160000000000002 -0.039600000000000003 0.40000000000000002 0 0 1 
1 0.36080000000000001 -0.039600000000000003 0.40000000000000002 0 0 1 
2 0.32119999999999999 -0.039600000000000003 0.43000000000000005 0 1 0 0 -0 1 1 0 -0 0.013200000000000002
1 0.36080000000000001 -0.059400000000000008 0.40000000000000002 0 0 1 
1 0.36080000000000001 0.059400000000000008 0.40000000000000002 0 0 1 
1 0.36080000000000001 0.039600000000000003 0.40000000000000002 0 0 1 
1 0.28160000000000002 0.039600000000000003 0.40000000000000002 0 0 1 
2 0.32119999999999999 0.039600000000000003 0.43000000000000005 0 1 0 0 -0 1 1 0 -0 0.013200000000000002
1 0.28160000000000002 -0.039600000000000003 0.40000000000000002 0 0 1 
1 0.36080000000000001 -0.039600000000000003 0.40000000000000002 0 0 1 
2 0.32119999999999999 -0.039600000000000003 0.43000000000000005 0 1 0 0 -0 1 1 0 -0 0.013200000000000002
2 0.32119999999999999 0.018957056733575495 0.43000000000000005 0 1 0 0 -0 1 1 0 -0 0.013200000000000002
1 0.32119999999999999 -0.039600000000000003 0.44320000000000004 0 1 0 
1 0.32119999999999999 -0.039600000000000003 0.44320000000000004 0 1 0 
2 0.32119999999999999 -0.018957056733575495 0.43000000000000005 0 1 0 0 -0 1 1 0 -0 0.013200000000000002
2 0.32119999999999999 0.018957056733575495 0.43000000000000005 0 1 0 0 -0 1 1 0 -0 0.013200000000000002
1 0.32119999999999999 -0.039600000000000003 0.44320000000000004 0 1 0 
1 0.32119999999999999 -0.039600000000000003 0.44320000000000004 0 1 0 
2 0.32119999999999999 -0.018957056733575495 0.43000000000000005 0 1 0 0 -0 1 1 0 -0 0.013200000000000002
2 0.32119999999999999 0.018957056733575495 0.43000000000000005 0 1 0 0 -0 1 1 0 -0 0.013200000000000002
1 0.32119999999999999 -0.039600000000000003 0.44320000000000004 0 1 0 
1 0.32119999999999999 -0.039600000000000003 0.44320000000000004 0 1 0 
2 0.32119999999999999 -0.018957056733575495 0.43000000000000005 0 1 0 0 -0 1 1 0 -0 0.013200000000000002
2 0.32119999999999999 0 0.43000000000000005 -2.4492935982947064e-16 -1 0 1 -2.4492935982947064e-16 0 0 0 1 0.023100000000000002
2 0.32119999999999999 0 0.43000000000000005 -2.4492935982947064e-16 -1 0 1 -2.4492935982947064e-16 0 0 0 1 0.023100000000000002
2 0.32119999999999999 0 0.43000000000000005 -2.4492935982947064e-16 -1 0 1 -2.4492935982947064e-16 0 0 0 1 0.023100000000000002
Polygon3D 0
PolygonOnTriangulations 0
Surfaces 60
1 0.36080000000000001 -0.059400000000000008 0.40000000000000002 1 0 -0 0 0 1 0 -1 0 
1 0 -0.059400000000000008 0.46000000000000002 0 0 1 1 0 -0 -0 1 0 
1 0.36080000000000001 -0.039600000000000003 0.40000000000000002 1 0 -0 0 0 1 0 -1 0 
1 0.28160000000000002 -0.039600000000000003 0.40000000000000002 -0 1 0 0 0 1 1 0 -0 
1 0 -0.059400000000000008 0.40000000000000002 0 0 1 1 0 -0 -0 1 0 
1 0 -0.059400000000000008 0.40000000000000002 -0 1 0 0 0 1 1 0 -0 
1 0 0.059400000000000008 0.40000000000000002 -0 1 0 0 0 1 1 0 -0 
1 0 0 0.46000000000000002 0 0 1 1 0 -0 -0 1 0 
2 0 0 0.40000000000000002 0 0 1 1 0 -0 -0 1 0 0.27999999999999997
1 0 0 0.46000000000000002 0 0 1 1 0 -0 -0 1 0 
1 0.28160000000000002 0.039600000000000003 0.40000000000000002 -0 1 0 0 0 1 1 0 -0 
1 0.28160000000000002 -0.039600000000000003 0.46000000000000002 0 0 1 1 0 -0 -0 1 0 
1 0.28160000000000002 -0.039600000000000003 0.40000000000000002 1 0 -0 0 0 1 0 -1 0 
1 0.28160000000000002 -0.039600000000000003 0.40000000000000002 0 0 1 1 0 -0 -0 1 0 
2 0.32119999999999999 -0.039600000000000003 0.43000000000000005 0 1 0 0 -0 1 1 0 -0 0.013200000000000002
1 0.32119999999999999 -0.039600000000000003 0.43000000000000005 0 1 0 0 -0 1 1 0 -0 
1 0 0 0.40000000000000002 0 0 1 1 0 -0 -0 1 0 
1 0 0 0.40000000000000002 0 0 1 1 0 -0 -0 1 0 
2 0 0 0.40000000000000002 0 0 1 1 0 -0 -0 1 0 0.27999999999999997
2 0 0 0.40000000000000002 0 0 1 1 0 -0 -0 1 0 0.27999999999999997
2 0 0 0.40000000000000002 0 0 1 1 0 -0 -0 1 0 0.27999999999999997
1 0 -0.059400000000000008 0.46000000000000002 0 0 1 1 0 -0 -0 1 0 
1 0 -0.059400000000000008 0.46000000000000002 0 0 1 1 0 -0 -0 1 0 
1 0 -0.059400000000000008 0.46000000000000002 0 0 1 1 0 -0 -0 1 0 
4 0 0 0.40000000000000002 0 0 1 1 0 -0 -0 1 0 0.20000000000000001
1 0.32119999999999999 0.039600000000000003 0.43000000000000005 0 1 0 0 -0 1 1 0 -0 
4 0.32119999999999999 0 0.43000000000000005 0 0 1 1 0 -0 -0 1 0 0.023100000000000002
1 0 -0.059400000000000008 0.40000000000000002 0 0 1 1 0 -0 -0 1 0 
1 0 -0.059400000000000008 0.40000000000000002 0 0 1 1 0 -0 -0 1 0 
1 0 -0.059400000000000008 0.40000000000000002 0 0 1 1 0 -0 -0 1 0 
1 0 0.059400000000000008 0.40000000000000002 -0 1 0 0 0 1 1 0 -0 
1 0 -0.059400000000000008 0.40000000000000002 -0 1 0 0 0 1 1 0 -0 
1 0 0.059400000000000008 0.40000000000000002 -0 1 0 0 0 1 1 0 -0 
1 0.36080000000000001 -0.059400000000000008 0.40000000000000002 1 0 -0 0 0 1 0 -1 0 
1 0.28160000000000002 0.039600000000000003 0.40000000000000002 -0 1 0 0 0 1 1 0 -0 
1 0.28160000000000002 -0.039600000000000003 0.40000000000000002 1 0 -0 0 0 1 0 -1 0 
1 0.36080000000000001 -0.059400000000000008 0.40000000000000002 1 0 -0 0 0 1 0 -1 0 
1 0.28160000000000002 -0.039600000000000003 0.40000000000000002 -0 1 0 0 0 1 1 0 -0 
1 0.36080000000000001 -0.059400000000000008 0.40000000000000002 1 0 -0 0 0 1 0 -1 0 
1 0.28160000000000002 0.039600000000000003 0.40000000000000002 -0 1 0 0 0 1 1 0 -0 
1 0 -0.059400000000000008 0.40000000000000002 -0 1 0 0 0 1 1 0 -0 
1 0.28160000000000002 -0.039600000000000003 0.40000000000000002 1 0 -0 0 0 1 0 -1 0 
1 0.36080000000000001 -0.059400000000000008 0.40000000000000002 1 0 -0 0 0 1 0 -1 0 
1 0.28160000000000002 -0.039600000000000003 0.40000000000000002 -0 1 0 0 0 1 1 0 -0 
1 0 -0.059400000000000008 0.40000000000000002 -0 1 0 0 0 1 1 0 -0 
1 0 0.059400000000000008 0.40000000000000002 -0 1 0 0 0 1 1 0 -0 
1 0.36080000000000001 -0.059400000000000008 0.40000000000000002 1 0 -0 0 0 1 0 -1 0 
1 0.28160000000000002 0.039600000000000003 0.40000000000000002 -0 1 0 0 0 1 1 0 -0 
1 0.28160000000000002 -0.039600000000000003 0.40000000000000002 1 0 -0 0 0 1 0 -1 0 
1 0.36080000000000001 -0.059400000000000008 0.40000000000000002 1 0 -0 0 0 1 0 -1 0 
1 0.28160000000000002 -0.039600000000000003 0.40000000000000002 -0 1 0 0 0 1 1 0 -0 
2 0.32119999999999999 -0.039600000000000003 0.43000000000000005 0 1 0 0 -0 1 1 0 -0 0.013200000000000002
2 0.32119999999999999 -0.039600000000000003 0.43000000000000005 0 1 0 0 -0 1 1 0 -0 0.013200000000000002
2 0.32119999999999999 -0.039600000000000003 0.43000000000000005 0 1 0 0 -0 1 1 0 -0 0.013200000000000002
2 0.32119999999999999 -0.039600000000000003 0.43000000000000005 0 1 0 0 -0 1 1 0 -0 0.013200000000000002
2 0.32119999999999999 -0.039600000000000003 0.43000000000000005 0 1 0 0 -0 1 1 0 -0 0.013200000000000002
2 0.32119999999999999 -0.039600000000000003 0.43000000000000005 0 1 0 0 -0 1 1 0 -0 0.013200000000000002
4 0.32119999999999999 0 0.43000000000000005 0 0 1 1 0 -0 -0 1 0 0.023100000000000002
4 0.32119999999999999 0 0.43000000000000005 0 0 1 1 0 -0 -0 1 0 0.023100000000000002
4 0.32119999999999999 0 0.43000000000000005 0 0 1 1 0 -0 -0 1 0 0.023100000000000002
Triangulations 0

TShapes 384
Ve
1e-07
0.28 -6.85802207522518e-17 0.46
0 0

0101101
*
Ve
1e-07
0.3608 0.0396 0.46
0 0

0101101
*
Ve
1.00000003812922e-07
0.273626826170244 -0.0593999999999962 0.46
0 0

0101101
*
Ve
1e-07
0.2816 0.0396 0.46
0 0

0101101
*
Ve
1e-07
0.2816 -0.0396 0.46
0 0

0101101
*
Ve
1e-07
0.2816 -0.0396 0.4
0 0

0101101
*
Ve
1e-07
0.3212 -0.0396 0.4432
0 0

0101101
*
Ve
1.00000003795575e-07
0.273626826170244 0.0593999999999962 0.4
0 0

0101101
*
Ve
1e-07
0.3608 0.0594 0.4
0 0

0101101
*
Ve
1e-07
0.28 -6.85802207522518e-17 0.4
0 0

0101101
*
Ve
1e-07
0.3608 0.0396 0.4
0 0

0101101
*
Ve
1.00000003812922e-07
0.273626826170244 -0.0593999999999962 0.4
0 0

0101101
*
Ve
1e-07
0.2816 0.0396 0.4
0 0

0101101
*
Ve
1.00000003812922e-07
0.266667782620338 0.0853715041003296 0.46
0 0

0101101
*
Ve
1.00000003795575e-07
0.207267782620342 0.188255322069914 0.46
0 0

0101101
*
Ve
1e-07
0.242487113059643 0.14 0.46
0 0

0101101
*
Ve
1e-07
0.242487113059643 0.14 0.46
0 0

0101101
*
Ve
1.00000003795575e-07
0.207267782620342 0.188255322069914 0.46
0 0

0101101
*
Ve
1.00000003812922e-07
0.266667782620338 0.0853715041003296 0.46
0 0

0101101
*
Ve
1.00000003812922e-07
0.266667782620338 0.0853715041003296 0.46
0 0

0101101
*
Ve
1e-07
0.3212 0 0.43
0 0

0101101
*
Ve
1.00000003795575e-07
0.207267782620342 0.188255322069914 0.46
0 0

0101101
*
Ve
1e-07
0.242487113059643 0.14 0.46
0 0

0101101
*
Ve
2.00001e-07
0.190787840283389 -4.67295435838578e-17 0.46
0 0

0101101
*
Ve
1e-07
0.3212 0.0396 0.4432
0 0

0101101
*
Ve
2.00001e-07
0.3212 -0.0189570567335766 0.4432
0 0

0101101
*
Ve
1.00000003812922e-07
0.266667782620338 0.0853715041003296 0.4
0 0

0101101
*
Ve
1.00000003795575e-07
0.207267782620342 0.188255322069914 0.4
0 0

0101101
*
Ve
1e-07
0.242487113059643 0.14 0.4
0 0

0101101
*
Ve
1e-07
0.242487113059643 0.14 0.4
0 0

0101101
*
Ve
1.00000003795575e-07
0.207267782620342 0.188255322069914 0.4
0 0

0101101
*
Ve
1.00000003812922e-07
0.266667782620338 0.0853715041003296 0.4
0 0

0101101
*
Ve
1.00000003812922e-07
0.266667782620338 0.0853715041003296 0.4
0 0

0101101
*
Ve
1.00000003795575e-07
0.207267782620342 0.188255322069914 0.4
0 0

0101101
*
Ve
1e-07
0.242487113059643 0.14 0.4
0 0

0101101
*
Ve
2.00001e-07
0.199999999999994 -4.89858719658926e-17 0.40000005
0 0

0101101
*
Ve
1e-07
0.282761965685425 0.231841908984796 0.46
0 0

0101101
*
Ve
1e-07
0.292661965685426 0.214694605989864 0.46
0 0

0101101
*
Ve
1e-07
0.224072753705698 0.175094605989864 0.46
0 0

0101101
*
Ve
1e-07
0.342161965685426 0.128958091015204 0.46
0 0

0101101
*
Ve
1e-07
0.263672753705698 0.106505394010136 0.46
0 0

0101101
*
Ve
1e-07
0.332261965685425 0.146105394010136 0.46
0 0

0101101
*
Ve
1e-07
0.282761965685425 0.231841908984796 0.46
0 0

0101101
*
Ve
1e-07
0.292661965685426 0.214694605989864 0.46
0 0

0101101
*
Ve
1e-07
0.224072753705698 0.175094605989864 0.46
0 0

0101101
*
Ve
1e-07
0.342161965685426 0.128958091015204 0.46
0 0

0101101
*
Ve
1e-07
0.278167359695562 0.1606 0.43
0 0

0101101
*
Ve
1e-07
0.263672753705698 0.106505394010136 0.46
0 0

0101101
*
Ve
1e-07
0.332261965685425 0.146105394010136 0.46
0 0

0101101
*
Ve
1e-07
0.282761965685425 0.231841908984796 0.46
0 0

0101101
*
Ve
1e-07
0.292661965685426 0.214694605989864 0.46
0 0

0101101
*
Ve
1e-07
0.224072753705698 0.175094605989864 0.46
0 0

0101101
*
Ve
1e-07
0.342161965685426 0.128958091015204 0.46
0 0

0101101
*
Ve
1e-07
0.263672753705698 0.106505394010136 0.46
0 0

0101101
*
Ve
1e-07
0.332261965685425 0.146105394010136 0.46
0 0

0101101
*
Ve
2.00001e-07
0.3212 0.0189570567335766 0.4432
0 0

0101101
*
Ve
1e-07
0.3212 0 0.4531
0 0

0101101
*
Ve
1e-07
0.3212 0 0.4069
0 0

0101101
*
Ve
1e-07
0.282761965685425 0.231841908984796 0.4
0 0

0101101
*
Ve
1e-07
0.292661965685426 0.214694605989864 0.4
0 0

0101101
*
Ve
1e-07
0.224072753705698 0.175094605989864 0.4
0 0

0101101
*
Ve
1e-07
0.342161965685426 0.128958091015204 0.4
0 0

0101101
*
Ve
1e-07
0.263672753705698 0.106505394010136 0.4
0 0

0101101
*
Ve
1e-07
0.332261965685425 0.146105394010136 0.4
0 0

0101101
*
Ve
1e-07
0.282761965685425 0.231841908984796 0.4
0 0

0101101
*
Ve
1e-07
0.292661965685426 0.214694605989864 0.4
0 0

0101101
*
Ve
1e-07
0.224072753705698 0.175094605989864 0.4
0 0

0101101
*
Ve
1e-07
0.342161965685426 0.128958091015204 0.4
0 0

0101101
*
Ve
1e-07
0.263672753705698 0.106505394010136 0.4
0 0

0101101
*
Ve
1e-07
0.332261965685425 0.146105394010136 0.4
0 0

0101101
*
Ve
1e-07
0.282761965685425 0.231841908984796 0.4
0 0

0101101
*
Ve
1e-07
0.292661965685426 0.214694605989864 0.4
0 0

0101101
*
Ve
1e-07
0.278167359695562 0.1606 0.43
0 0

0101101
*
Ve
1e-07
0.224072753705698 0.175094605989864 0.4
0 0

0101101
*
Ve
1e-07
0.342161965685426 0.128958091015204 0.4
0 0

0101101
*
Ve
1e-07
0.263672753705698 0.106505394010136 0.4
0 0

0101101
*
Ve
1e-07
0.332261965685425 0.146105394010136 0.4
0 0

0101101
*
Ve
1e-07
0.258367359695562 0.194894605989864 0.4432
0 0

0101101
*
Ve
1e-07
0.297967359695562 0.126305394010136 0.4432
0 0

0101101
*
Ve
1e-07
0.258367359695562 0.194894605989864 0.4432
0 0

0101101
*
Ve
1e-07
0.297967359695562 0.126305394010136 0.4432
0 0

0101101
*
Ve
1e-07
0.258367359695562 0.194894605989864 0.4432
0 0

0101101
*
Ve
1e-07
0.297967359695562 0.126305394010136 0.4432
0 0

0101101
*
Ve
2.00001e-07
0.268688831328773 0.17701729271226 0.4432
0 0

0101101
*
Ve
2.00001e-07
0.28764588806235 0.14418270728774 0.4432
0 0

0101101
*
Ve
2.00001e-07
0.268688831328773 0.17701729271226 0.4432
0 0

0101101
*
Ve
2.00001e-07
0.28764588806235 0.14418270728774 0.4432
0 0

0101101
*
Ve
2.00001e-07
0.268688831328773 0.17701729271226 0.4432
0 0

0101101
*
Ve
2.00001e-07
0.28764588806235 0.14418270728774 0.4432
0 0

0101101
*
Ve
1e-07
0.278167359695562 0.1606 0.4531
0 0

0101101
*
Ve
1e-07
0.278167359695562 0.1606 0.4069
0 0

0101101
*
Ve
1e-07
0.278167359695562 0.1606 0.4531
0 0

0101101
*
Ve
1e-07
0.278167359695562 0.1606 0.4069
0 0

0101101
*
Ve
1e-07
0.278167359695562 0.1606 0.4531
0 0

0101101
*
Ve
1e-07
0.278167359695562 0.1606 0.4069
0 0

0101101
*
Ve
1e-07
0.278167359695562 0.1606 0.43
0 0

0101101
*
Ve
1e-07
0.3608 -0.0594 0.46
0 0

0101101
*
Ve
1e-07
0.3608 -0.0396 0.46
0 0

0101101
*
Ve
1e-07
0.3608 -0.0396 0.4
0 0

0101101
*
Ve
1e-07
0.3608 -0.0594 0.4
0 0

0101101
*
Ve
1.00000003795575e-07
0.273626826170244 0.0593999999999962 0.46
0 0

0101101
*
Ve
1e-07
0.3608 0.0594 0.46
0 0

0101101
*
Ed
 1e-07 1 1 0
1  1 0 0 0.0198
2  1 1 0 0 0.0198
2  2 2 0 0 0.0198
0

0101000
+288 0 -287 0 *
Ed
 1e-07 1 1 0
1  2 0 0 0.06
2  3 3 0 0 0.06
2  4 4 0 0 0.06
2  5 1 0 0 0.06
0

0101000
-287 0 +286 0 *
Ed
 1e-07 1 1 0
1  3 0 0 0.0198
2  6 1 0 0 0.0198
2  7 5 0 0 0.0198
0

0101000
+285 0 -286 0 *
Ed
 1e-07 1 1 0
1  4 0 0 0.06
2  8 1 0 0 0.06
2  9 6 0 0 0.06
0

0101000
-288 0 +285 0 *
Ed
 1e-07 1 1 0
1  5 0 0.273626826170244 0.3608
2  10 7 0 0.273626826170244 0.3608
2  11 2 0 0.273626826170244 0.3608
0

0101000
+284 0 -283 0 *
Ed
 1e-07 1 1 0
1  6 0 1.5707963267949 1.78456353411962
2  12 8 0 1.5707963267949 1.78456353411962
2  13 9 0 1.5707963267949 1.78456353411962
2  14 2 15 1.5707963267949 1.78456353411962
2  15 10 15 1.5707963267949 1.78456353411962
0

0101000
+384 15 -284 15 *
Ed
 1e-07 1 1 0
1  1 0 0.099 0.1188
2  1 1 0 0.099 0.1188
2  2 2 0 0.099 0.1188
0

0101000
+383 0 -283 0 *
Ed
 1e-07 1 1 0
1  6 0 1.35702911947017 1.5707963267949
2  12 8 0 1.35702911947017 1.5707963267949
2  13 9 0 1.35702911947017 1.5707963267949
2  16 2 15 1.35702911947017 1.5707963267949
2  17 10 15 1.35702911947017 1.5707963267949
0

0101000
+382 15 -384 15 *
Ed
 1e-07 1 1 0
1  7 0 0 0.0792
2  18 11 0 0 0.0792
2  19 12 0 0 0.0792
2  20 2 0 0 0.0792
0

0101000
-383 0 +381 0 *
Ed
 1e-07 1 1 0
1  8 0 0.273626826170244 0.3608
2  21 6 0 0.273626826170244 0.3608
2  22 2 0 0.273626826170244 0.3608
0

0101000
+382 0 -288 0 *
Ed
 1e-07 1 1 0
1  9 0 0 0.0792
2  23 13 0 0 0.0792
2  24 12 0 0 0.0792
2  25 2 0 0 0.0792
0

0101000
-381 0 +380 0 *
Ed
 1e-07 1 1 0
1  10 0 0 0.0792
2  26 4 0 0 0.0792
2  27 12 0 0 0.0792
2  28 2 0 0 0.0792
0

0101000
-287 0 +380 0 *
Ed
 1e-07 1 1 0
1  11 0 0 0.0792
2  29 4 0 0 0.0792
2  30 14 0 0 0.0792
2  31 5 0 0 0.0792
0

0101000
-286 0 +379 0 *
Ed
 1e-07 1 1 0
1  12 0 0 0.06
2  32 13 0 0 0.06
2  33 4 0 0 0.06
0

0101000
-380 0 +379 0 *
Ed
 1e-07 1 1 0
1  13 0 0 6.28318530717959
2  34 15 0 0 6.28318530717959
2  35 16 0 0 6.28318530717959
2  36 4 0 0 6.28318530717959
0

0101000
+378 0 -378 0 *
Ed
 1e-07 1 1 0
1  14 0 0.273626826170244 0.3608
2  37 7 0 0.273626826170244 0.3608
2  38 5 0 0.273626826170244 0.3608
0

0101000
+377 0 -376 0 *
Ed
 1e-07 1 1 0
1  15 0 1.5707963267949 1.78456353411962
2  39 17 0 1.5707963267949 1.78456353411962
2  40 9 0 1.5707963267949 1.78456353411962
2  41 5 15 1.5707963267949 1.78456353411962
2  42 18 15 1.5707963267949 1.78456353411962
0

0101000
+375 15 -377 15 *
Ed
 1e-07 1 1 0
1  3 0 0.099 0.1188
2  6 1 0 0.099 0.1188
2  7 5 0 0.099 0.1188
0

0101000
+374 0 -376 0 *
Ed
 1e-07 1 1 0
1  15 0 1.35702911947017 1.5707963267949
2  39 17 0 1.35702911947017 1.5707963267949
2  40 9 0 1.35702911947017 1.5707963267949
2  43 5 15 1.35702911947017 1.5707963267949
2  44 18 15 1.35702911947017 1.5707963267949
0

0101000
+373 15 -375 15 *
Ed
 1e-07 1 1 0
1  16 0 0 0.0792
2  45 11 0 0 0.0792
2  46 14 0 0 0.0792
2  47 5 0 0 0.0792
0

0101000
-374 0 +372 0 *
Ed
 1e-07 1 1 0
1  17 0 0.273626826170244 0.3608
2  48 6 0 0.273626826170244 0.3608
2  49 5 0 0.273626826170244 0.3608
0

0101000
+373 0 -285 0 *
Ed
 1e-07 1 1 0
1  18 0 0 0.0792
2  50 13 0 0 0.0792
2  51 14 0 0 0.0792
2  52 5 0 0 0.0792
0

0101000
-372 0 +379 0 *
Ed
 1e-07 1 1 0
1  19 0 0 0.06
2  53 6 0 0 0.06
2  54 19 0 0 0.06
2  55 20 16 0 0.06
2  56 21 17 0 0.06
2  57 9 18 0 0.06
0

0101000
+373 0 -382 0 *
Ed
 1e-07 1 1 0
1  20 0 0 0.06
2  58 7 0 0 0.06
2  59 19 0 0 0.06
2  60 20 16 0 0.06
2  61 21 17 0 0.06
2  62 9 18 0 0.06
0

0101000
+377 0 -284 0 *
Ed
 1e-07 1 1 0
1  21 0 0 0.06
2  63 1 0 0 0.06
2  64 7 0 0 0.06
0

0101000
-283 0 +376 0 *
Ed
 1e-07 1 1 0
1  6 0 1.78456353411962 2.92782544626506
2  12 8 0 1.78456353411962 2.92782544626506
2  13 9 0 1.78456353411962 2.92782544626506
2  65 19 15 1.78456353411962 2.92782544626506
2  66 10 15 1.78456353411962 2.92782544626506
0

0101000
+284 15 -371 19 *
Ed
 1e-07 1 1 0
1  6 0 0.213767207324728 1.35702911947017
2  12 8 0 0.213767207324728 1.35702911947017
2  13 9 0 0.213767207324728 1.35702911947017
2  67 19 15 0.213767207324728 1.35702911947017
2  68 10 15 0.213767207324728 1.35702911947017
0

0101000
+370 20 -382 15 *
Ed
 1e-07 1 1 0
1  6 0 2.92782544626506 3.14159265358979
2  12 8 0 2.92782544626506 3.14159265358979
2  13 9 0 2.92782544626506 3.14159265358979
2  69 10 15 2.92782544626506 3.14159265358979
2  70 22 21 2.92782544626506 3.14159265358979
0

0101000
+371 19 -369 19 *
Ed
 1e-07 1 1 0
1  22 0 0 0.213767207324728
2  71 23 0 0 0.213767207324728
2  72 8 0 0 0.213767207324728
2  73 19 15 0 0.213767207324728
2  74 10 15 0 0.213767207324728
0

0101000
+368 20 -370 20 *
Ed
 1e-07 1 1 0
1  6 0 3.14159265358979 3.35535986091452
2  12 8 0 3.14159265358979 3.35535986091452
2  13 9 0 3.14159265358979 3.35535986091452
2  75 10 15 3.14159265358979 3.35535986091452
2  76 22 21 3.14159265358979 3.35535986091452
0

0101000
+369 19 -367 19 *
Ed
 1e-07 1 1 0
1  23 0 6.06941809985486 6.28318530717959
2  77 23 0 6.06941809985486 6.28318530717959
2  78 8 0 6.06941809985486 6.28318530717959
2  79 19 15 6.06941809985486 6.28318530717959
2  80 10 15 6.06941809985486 6.28318530717959
0

0101000
+366 20 -368 20 *
Ed
 1e-07 1 1 0
1  6 0 3.35535986091452 4.49862177305996
2  12 8 0 3.35535986091452 4.49862177305996
2  13 9 0 3.35535986091452 4.49862177305996
2  81 19 15 3.35535986091452 4.49862177305996
2  82 10 15 3.35535986091452 4.49862177305996
0

0101000
+367 19 -365 22 *
Ed
 1e-07 1 1 0
1  6 0 4.92615618770942 6.06941809985486
2  12 8 0 4.92615618770942 6.06941809985486
2  13 9 0 4.92615618770942 6.06941809985486
2  83 19 15 4.92615618770942 6.06941809985486
2  84 10 15 4.92615618770942 6.06941809985486
0

0101000
+363 22 -366 20 *
Ed
 1e-07 1 1 0
1  6 0 4.49862177305996 4.71238898038469
2  12 8 0 4.49862177305996 4.71238898038469
2  13 9 0 4.49862177305996 4.71238898038469
2  85 10 15 4.49862177305996 4.71238898038469
2  86 24 23 4.49862177305996 4.71238898038469
0

0101000
+365 22 -362 22 *
Ed
 1e-07 1 1 0
1  6 0 4.71238898038469 4.92615618770942
2  12 8 0 4.71238898038469 4.92615618770942
2  13 9 0 4.71238898038469 4.92615618770942
2  87 10 15 4.71238898038469 4.92615618770942
2  88 24 23 4.71238898038469 4.92615618770942
0

0101000
+362 22 -363 22 *
Ed
 1e-07 1 1 0
1  24 0 0 6.28318530717959
2  89 10 1 0 6.28318530717959
2  90 25 0 0 6.28318530717959
0

0101000
+361 0 -361 0 *
Ed
 1e-07 1 1 0
1  25 0 0 0.06
2  91 3 0 0 0.06
2  92 11 0 0 0.06
2  93 1 0 0 0.06
0

0101000
-383 0 +374 0 *
Ed
 1e-07 1 1 0
1  26 0 0 0.06
2  94 13 0 0 0.06
2  95 11 0 0 0.06
0

0101000
-381 0 +372 0 *
Ed
 1e-07 1 1 0
1  27 0 0 6.28318530717959
2  96 15 0 0 6.28318530717959
2  97 26 0 0 6.28318530717959
2  98 11 0 0 6.28318530717959
0

0101000
+360 0 -360 0 *
Ed
 1e-07 1 1 0
1  28 0 0 0.0206429432664234
3  99 100CN 15 0 0 0.0206429432664234
0

0101000
+378 0 -359 0 *
Ed
 1e-07 1 1 0
1  29 0 0 6.28318530717959
2  101 15 0 0 6.28318530717959
2  102 27 0 0 6.28318530717959
0

0101000
+359 0 -359 0 *
Ed
 1e-07 1 1 0
1  15 0 1.78456353411962 2.92782544626506
2  39 17 0 1.78456353411962 2.92782544626506
2  40 9 0 1.78456353411962 2.92782544626506
2  103 19 15 1.78456353411962 2.92782544626506
2  104 18 15 1.78456353411962 2.92782544626506
0

0101000
+377 15 -358 19 *
Ed
 1e-07 1 1 0
1  15 0 0.213767207324728 1.35702911947017
2  39 17 0 0.213767207324728 1.35702911947017
2  40 9 0 0.213767207324728 1.35702911947017
2  105 19 15 0.213767207324728 1.35702911947017
2  106 18 15 0.213767207324728 1.35702911947017
0

0101000
+357 20 -373 15 *
Ed
 1e-07 1 1 0
1  15 0 2.92782544626506 3.14159265358979
2  39 17 0 2.92782544626506 3.14159265358979
2  40 9 0 2.92782544626506 3.14159265358979
2  107 18 15 2.92782544626506 3.14159265358979
2  108 28 21 2.92782544626506 3.14159265358979
0

0101000
+358 19 -356 19 *
Ed
 1e-07 1 1 0
1  30 0 0 0.213767207324728
2  109 29 0 0 0.213767207324728
2  110 17 0 0 0.213767207324728
2  111 19 15 0 0.213767207324728
2  112 18 15 0 0.213767207324728
0

0101000
+355 20 -357 20 *
Ed
 1e-07 1 1 0
1  15 0 3.14159265358979 3.35535986091452
2  39 17 0 3.14159265358979 3.35535986091452
2  40 9 0 3.14159265358979 3.35535986091452
2  113 18 15 3.14159265358979 3.35535986091452
2  114 28 21 3.14159265358979 3.35535986091452
0

0101000
+356 19 -354 19 *
Ed
 1e-07 1 1 0
1  31 0 6.06941809985486 6.28318530717959
2  115 29 0 6.06941809985486 6.28318530717959
2  116 17 0 6.06941809985486 6.28318530717959
2  117 19 15 6.06941809985486 6.28318530717959
2  118 18 15 6.06941809985486 6.28318530717959
0

0101000
+353 20 -355 20 *
Ed
 1e-07 1 1 0
1  15 0 3.35535986091452 4.49862177305996
2  39 17 0 3.35535986091452 4.49862177305996
2  40 9 0 3.35535986091452 4.49862177305996
2  119 19 15 3.35535986091452 4.49862177305996
2  120 18 15 3.35535986091452 4.49862177305996
0

0101000
+354 19 -352 22 *
Ed
 1e-07 1 1 0
1  15 0 4.92615618770942 6.06941809985486
2  39 17 0 4.92615618770942 6.06941809985486
2  40 9 0 4.92615618770942 6.06941809985486
2  121 19 15 4.92615618770942 6.06941809985486
2  122 18 15 4.92615618770942 6.06941809985486
0

0101000
+351 22 -353 20 *
Ed
 1e-07 1 1 0
1  15 0 4.49862177305996 4.71238898038469
2  39 17 0 4.49862177305996 4.71238898038469
2  40 9 0 4.49862177305996 4.71238898038469
2  123 18 15 4.49862177305996 4.71238898038469
2  124 30 23 4.49862177305996 4.71238898038469
0

0101000
+352 22 -350 22 *
Ed
 1e-07 1 1 0
1  15 0 4.71238898038469 4.92615618770942
2  39 17 0 4.71238898038469 4.92615618770942
2  40 9 0 4.71238898038469 4.92615618770942
2  125 18 15 4.71238898038469 4.92615618770942
2  126 30 23 4.71238898038469 4.92615618770942
0

0101000
+350 22 -351 22 *
Ed
 1e-07 1 1 0
1  32 0 0 6.28318530717959
2  127 18 1 0 6.28318530717959
2  128 25 0 0 6.28318530717959
0

0101000
+349 0 -349 0 *
Ed
 1e-07 1 1 0
1  33 0 0 0.06
2  129 31 0 0 0.06
2  130 9 0 0 0.06
2  131 19 15 0 0.06
0

0101000
+357 20 -370 20 *
Ed
 1e-07 1 1 0
1  34 0 0 0.06
2  132 32 0 0 0.06
2  133 21 0 0 0.06
2  134 19 25 0 0.06
2  135 9 26 0 0.06
0

0101000
+358 20 -371 20 *
Ed
 1e-07 1 1 0
1  35 0 0.273626826170244 0.3608
2  136 22 0 0.273626826170244 0.3608
2  137 33 0 0.273626826170244 0.3608
0

0101000
+367 20 -348 20 *
Ed
 1e-07 1 1 0
1  36 0 0.099 0.1188
2  138 22 0 0.099 0.1188
2  139 34 0 0.099 0.1188
0

0101000
+347 20 -348 20 *
Ed
 1e-07 1 1 0
1  37 0 0 0.0792
2  140 22 0 0 0.0792
2  141 35 0 0 0.0792
0

0101000
-347 20 +346 20 *
Ed
 1e-07 1 1 0
1  38 0 0.273626826170244 0.3608
2  142 22 0 0.273626826170244 0.3608
2  143 32 0 0.273626826170244 0.3608
0

0101000
+371 20 -345 20 *
Ed
 1e-07 1 1 0
1  39 0 0 0.0792
2  144 22 0 0 0.0792
2  145 36 0 0 0.0792
0

0101000
-346 20 +344 20 *
Ed
 1e-07 1 1 0
1  40 0 0 0.0198
2  146 37 0 0 0.0198
2  147 22 0 0 0.0198
0

0101000
+345 20 -343 20 *
Ed
 1e-07 1 1 0
1  41 0 0 0.0792
2  148 22 0 0 0.0792
2  149 38 0 0 0.0792
0

0101000
-343 20 +344 20 *
Ed
 1e-07 1 1 0
1  42 0 0.273626826170244 0.3608
2  150 23 0 0.273626826170244 0.3608
2  151 31 0 0.273626826170244 0.3608
0

0101000
+370 20 -342 20 *
Ed
 1e-07 1 1 0
1  43 0 0.099 0.1188
2  152 23 0 0.099 0.1188
2  153 39 0 0.099 0.1188
0

0101000
+341 20 -342 20 *
Ed
 1e-07 1 1 0
1  44 0 0 0.0792
2  154 23 0 0 0.0792
2  155 40 0 0 0.0792
0

0101000
-341 20 +340 20 *
Ed
 1e-07 1 1 0
1  45 0 0.273626826170244 0.3608
2  156 23 0 0.273626826170244 0.3608
2  157 41 0 0.273626826170244 0.3608
0

0101000
+366 20 -339 20 *
Ed
 1e-07 1 1 0
1  46 0 0 0.0792
2  158 23 0 0 0.0792
2  159 42 0 0 0.0792
0

0101000
-340 20 +337 20 *
Ed
 1e-07 1 1 0
1  47 0 0 0.0198
2  160 43 0 0 0.0198
2  161 23 0 0 0.0198
0

0101000
+339 20 -336 20 *
Ed
 1e-07 1 1 0
1  48 0 0 0.0792
2  162 23 0 0 0.0792
2  163 44 0 0 0.0792
0

0101000
-336 20 +337 20 *
Ed
 1e-07 1 1 0
1  49 0 0 0.06
2  164 33 0 0 0.06
2  165 21 0 0 0.06
2  166 19 25 0 0.06
2  167 9 26 0 0.06
0

0101000
+354 20 -367 20 *
Ed
 1e-07 1 1 0
1  50 0 0 0.06
2  168 45 0 0 0.06
2  169 20 0 0 0.06
2  170 19 28 0 0.06
2  171 21 29 0 0.06
2  172 9 30 0 0.06
0

0101000
+352 20 -365 20 *
Ed
 1e-07 1 1 0
1  51 0 0 0.06
2  173 41 0 0 0.06
2  174 9 0 0 0.06
2  175 19 15 0 0.06
0

0101000
+353 20 -366 20 *
Ed
 1e-07 1 1 0
1  52 0 0 0.06
2  176 46 0 0 0.06
2  177 20 0 0 0.06
2  178 19 28 0 0.06
2  179 21 29 0 0.06
2  180 9 30 0 0.06
0

0101000
+351 20 -363 20 *
Ed
 1e-07 1 1 0
1  53 0 0.273626826170244 0.3608
2  181 24 0 0.273626826170244 0.3608
2  182 46 0 0.273626826170244 0.3608
0

0101000
+363 20 -335 20 *
Ed
 1e-07 1 1 0
1  54 0 0.099 0.1188
2  183 24 0 0.099 0.1188
2  184 47 0 0.099 0.1188
0

0101000
+334 20 -335 20 *
Ed
 1e-07 1 1 0
1  55 0 0 0.0792
2  185 24 0 0 0.0792
2  186 48 0 0 0.0792
0

0101000
-334 20 +333 20 *
Ed
 1e-07 1 1 0
1  56 0 0.273626826170244 0.3608
2  187 24 0 0.273626826170244 0.3608
2  188 45 0 0.273626826170244 0.3608
0

0101000
+365 20 -332 20 *
Ed
 1e-07 1 1 0
1  57 0 0 0.0792
2  189 24 0 0 0.0792
2  190 49 0 0 0.0792
0

0101000
-333 20 +331 20 *
Ed
 1e-07 1 1 0
1  58 0 0 0.0198
2  191 50 0 0 0.0198
2  192 24 0 0 0.0198
0

0101000
+332 20 -330 20 *
Ed
 1e-07 1 1 0
1  59 0 0 0.0792
2  193 24 0 0 0.0792
2  194 51 0 0 0.0792
0

0101000
-330 20 +331 20 *
Ed
 1e-07 1 1 0
1  60 0 6.28318555717958 6.58787796119498
3  195 196CN 25 0 6.28318555717958 6.58787796119498
0

0101000
+349 0 -361 0 *
Ed
 1e-07 1 1 0
1  61 0 0 6.28318530717959
2  197 15 0 0 6.28318530717959
2  198 27 0 0 6.28318530717959
0

0101000
+329 0 -329 0 *
Ed
 1e-07 1 1 0
1  28 0 0.0585570567335766 0.0792
3  99 100CN 15 0 0.0585570567335766 0.0792
0

0101000
+329 0 -360 0 *
Ed
 1e-07 1 1 0
1  62 0 4.71238898038469 7.85398163397448
3  199 200CN 27 0 4.71238898038469 7.85398163397448
0

0101000
-328 0 +327 0 *
Ed
 1e-07 1 1 1
2  201 27 0 0 6.28318530717959
0

0101000
+327 0 -327 0 *
Ed
 1e-07 1 1 1
2  202 27 0 0 6.28318530717959
0

0101000
+328 0 -328 0 *
Ed
 1e-07 1 1 0
1  63 0 0.273626826170244 0.3608
2  203 28 0 0.273626826170244 0.3608
2  204 33 0 0.273626826170244 0.3608
0

0101000
+354 20 -326 20 *
Ed
 1e-07 1 1 0
1  64 0 0.099 0.1188
2  205 28 0 0.099 0.1188
2  206 34 0 0.099 0.1188
0

0101000
+325 20 -326 20 *
Ed
 1e-07 1 1 0
1  65 0 0 0.0792
2  207 28 0 0 0.0792
2  208 35 0 0 0.0792
0

0101000
-325 20 +324 20 *
Ed
 1e-07 1 1 0
1  66 0 0.273626826170244 0.3608
2  209 28 0 0.273626826170244 0.3608
2  210 32 0 0.273626826170244 0.3608
0

0101000
+358 20 -323 20 *
Ed
 1e-07 1 1 0
1  67 0 0 0.0792
2  211 28 0 0 0.0792
2  212 36 0 0 0.0792
0

0101000
-324 20 +322 20 *
Ed
 1e-07 1 1 0
1  68 0 0 0.0198
2  213 37 0 0 0.0198
2  214 28 0 0 0.0198
0

0101000
+323 20 -321 20 *
Ed
 1e-07 1 1 0
1  69 0 0 0.0792
2  215 38 0 0 0.0792
2  216 28 0 0 0.0792
0

0101000
-321 20 +322 20 *
Ed
 1e-07 1 1 0
1  70 0 0.273626826170244 0.3608
2  217 29 0 0.273626826170244 0.3608
2  218 31 0 0.273626826170244 0.3608
0

0101000
+357 20 -320 20 *
Ed
 1e-07 1 1 0
1  71 0 0.099 0.1188
2  219 29 0 0.099 0.1188
2  220 39 0 0.099 0.1188
0

0101000
+319 20 -320 20 *
Ed
 1e-07 1 1 0
1  72 0 0 0.0792
2  221 29 0 0 0.0792
2  222 40 0 0 0.0792
0

0101000
-319 20 +318 20 *
Ed
 1e-07 1 1 0
1  73 0 0.273626826170244 0.3608
2  223 29 0 0.273626826170244 0.3608
2  224 41 0 0.273626826170244 0.3608
0

0101000
+353 20 -317 20 *
Ed
 1e-07 1 1 0
1  74 0 0 0.0792
2  225 29 0 0 0.0792
2  226 42 0 0 0.0792
0

0101000
-318 20 +316 20 *
Ed
 1e-07 1 1 0
1  75 0 0 0.0198
2  227 43 0 0 0.0198
2  228 29 0 0 0.0198
0

0101000
+317 20 -315 20 *
Ed
 1e-07 1 1 0
1  76 0 0 0.0792
2  229 44 0 0 0.0792
2  230 29 0 0 0.0792
0

0101000
-315 20 +316 20 *
Ed
 1e-07 1 1 0
1  77 0 0.273626826170244 0.3608
2  231 30 0 0.273626826170244 0.3608
2  232 46 0 0.273626826170244 0.3608
0

0101000
+351 20 -314 20 *
Ed
 1e-07 1 1 0
1  78 0 0.099 0.1188
2  233 30 0 0.099 0.1188
2  234 47 0 0.099 0.1188
0

0101000
+313 20 -314 20 *
Ed
 1e-07 1 1 0
1  79 0 0 0.0792
2  235 30 0 0 0.0792
2  236 48 0 0 0.0792
0

0101000
-313 20 +311 20 *
Ed
 1e-07 1 1 0
1  80 0 0.273626826170244 0.3608
2  237 30 0 0.273626826170244 0.3608
2  238 45 0 0.273626826170244 0.3608
0

0101000
+352 20 -310 20 *
Ed
 1e-07 1 1 0
1  81 0 0 0.0792
2  239 30 0 0 0.0792
2  240 49 0 0 0.0792
0

0101000
-311 20 +309 20 *
Ed
 1e-07 1 1 0
1  82 0 0 0.0198
2  241 50 0 0 0.0198
2  242 30 0 0 0.0198
0

0101000
+310 20 -308 20 *
Ed
 1e-07 1 1 0
1  83 0 0 0.0792
2  243 51 0 0 0.0792
2  244 30 0 0 0.0792
0

0101000
-308 20 +309 20 *
Ed
 1e-07 1 1 0
1  84 0 0 0.06
2  245 31 0 0 0.06
2  246 39 0 0 0.06
0

0101000
-342 20 +320 20 *
Ed
 1e-07 1 1 0
1  85 0 0 0.06
2  247 37 0 0 0.06
2  248 32 0 0 0.06
0

0101000
-345 20 +323 20 *
Ed
 1e-07 1 1 0
1  86 0 0 0.06
2  249 33 0 0 0.06
2  250 34 0 0 0.06
0

0101000
-348 20 +326 20 *
Ed
 1e-07 1 1 0
1  87 0 0 0.06
2  251 34 0 0 0.06
2  252 35 0 0 0.06
0

0101000
-347 20 +325 20 *
Ed
 1e-07 1 1 0
1  88 0 0 0.06
2  253 35 0 0 0.06
2  254 36 0 0 0.06
0

0101000
-346 20 +324 20 *
Ed
 1e-07 1 1 0
1  89 0 0 6.28318530717959
2  255 35 0 0 6.28318530717959
2  256 52 0 0 6.28318530717959
0

0101000
+307 20 -307 20 *
Ed
 1e-07 1 1 0
1  90 0 0 0.06
2  257 38 0 0 0.06
2  258 36 0 0 0.06
0

0101000
-344 20 +322 20 *
Ed
 1e-07 1 1 0
1  91 0 0 0.06
2  259 37 0 0 0.06
2  260 38 0 0 0.06
0

0101000
-343 20 +321 20 *
Ed
 1e-07 1 1 0
1  92 0 0 6.28318530717959
2  261 38 0 0 6.28318530717959
2  262 53 0 0 6.28318530717959
0

0101000
+306 20 -306 20 *
Ed
 1e-07 1 1 0
1  93 0 0 0.06
2  263 39 0 0 0.06
2  264 40 0 0 0.06
0

0101000
-341 20 +319 20 *
Ed
 1e-07 1 1 0
1  94 0 0 0.06
2  265 40 0 0 0.06
2  266 42 0 0 0.06
0

0101000
-340 20 +318 20 *
Ed
 1e-07 1 1 0
1  95 0 0 6.28318530717959
2  267 40 0 0 6.28318530717959
2  268 54 0 0 6.28318530717959
0

0101000
+305 20 -305 20 *
Ed
 1e-07 1 1 0
1  96 0 0 0.06
2  269 43 0 0 0.06
2  270 41 0 0 0.06
0

0101000
-339 20 +317 20 *
Ed
 1e-07 1 1 0
1  97 0 0 0.06
2  271 44 0 0 0.06
2  272 42 0 0 0.06
0

0101000
-337 20 +316 20 *
Ed
 1e-07 1 1 0
1  98 0 0 0.06
2  273 43 0 0 0.06
2  274 44 0 0 0.06
0

0101000
-336 20 +315 20 *
Ed
 1e-07 1 1 0
1  99 0 0 6.28318530717959
2  275 44 0 0 6.28318530717959
2  276 55 0 0 6.28318530717959
0

0101000
+304 20 -304 20 *
Ed
 1e-07 1 1 0
1  100 0 0 0.06
2  277 50 0 0 0.06
2  278 45 0 0 0.06
0

0101000
-332 20 +310 20 *
Ed
 1e-07 1 1 0
1  101 0 0 0.06
2  279 46 0 0 0.06
2  280 47 0 0 0.06
0

0101000
-335 20 +314 20 *
Ed
 1e-07 1 1 0
1  102 0 0 0.06
2  281 47 0 0 0.06
2  282 48 0 0 0.06
0

0101000
-334 20 +313 20 *
Ed
 1e-07 1 1 0
1  103 0 0 0.06
2  283 48 0 0 0.06
2  284 49 0 0 0.06
0

0101000
-333 20 +311 20 *
Ed
 1e-07 1 1 0
1  104 0 0 6.28318530717959
2  285 48 0 0 6.28318530717959
2  286 56 0 0 6.28318530717959
0

0101000
+303 20 -303 20 *
Ed
 1e-07 1 1 0
1  105 0 0 0.06
2  287 51 0 0 0.06
2  288 49 0 0 0.06
0

0101000
-331 20 +309 20 *
Ed
 1e-07 1 1 0
1  106 0 0 0.06
2  289 50 0 0 0.06
2  290 51 0 0 0.06
0

0101000
-330 20 +308 20 *
Ed
 1e-07 1 1 0
1  107 0 0 6.28318530717959
2  291 51 0 0 6.28318530717959
2  292 57 0 0 6.28318530717959
0

0101000
+302 20 -302 20 *
Ed
 1e-07 1 1 0
1  108 0 0 6.28318530717959
2  293 52 0 0 6.28318530717959
2  294 58 0 0 6.28318530717959
0

0101000
+301 20 -301 20 *
Ed
 1e-07 1 1 0
1  109 0 0.0585570567335766 0.0792
3  295 296CN 52 0 0.0585570567335766 0.0792
0

0101000
+301 20 -307 20 *
Ed
 1e-07 1 1 0
1  110 0 0 0.0206429432664234
3  297 298CN 53 0 0 0.0206429432664234
0

0101000
+306 20 -300 20 *
Ed
 1e-07 1 1 0
1  111 0 0 6.28318530717959
2  299 53 0 0 6.28318530717959
2  300 58 0 0 6.28318530717959
0

0101000
+300 20 -300 20 *
Ed
 1e-07 1 1 0
1  112 0 0 6.28318530717959
2  301 54 0 0 6.28318530717959
2  302 59 0 0 6.28318530717959
0

0101000
+299 20 -299 20 *
Ed
 1e-07 1 1 0
1  113 0 0.0585570567335766 0.0792
3  303 304CN 54 0 0.0585570567335766 0.0792
0

0101000
+299 20 -305 20 *
Ed
 1e-07 1 1 0
1  114 0 0 0.0206429432664234
3  305 306CN 55 0 0 0.0206429432664234
0

0101000
+304 20 -298 20 *
Ed
 1e-07 1 1 0
1  115 0 0 6.28318530717959
2  307 55 0 0 6.28318530717959
2  308 59 0 0 6.28318530717959
0

0101000
+298 20 -298 20 *
Ed
 1e-07 1 1 0
1  116 0 0 6.28318530717959
2  309 56 0 0 6.28318530717959
2  310 60 0 0 6.28318530717959
0

0101000
+297 20 -297 20 *
Ed
 1e-07 1 1 0
1  117 0 0.0585570567335766 0.0792
3  311 312CN 56 0 0.0585570567335766 0.0792
0

0101000
+297 20 -303 20 *
Ed
 1e-07 1 1 0
1  118 0 0 0.0206429432664234
3  313 314CN 57 0 0 0.0206429432664234
0

0101000
+302 20 -296 20 *
Ed
 1e-07 1 1 0
1  119 0 0 6.28318530717959
2  315 57 0 0 6.28318530717959
2  316 60 0 0 6.28318530717959
0

0101000
+296 20 -296 20 *
Ed
 1e-07 1 1 0
1  120 0 4.71238898038469 7.85398163397448
3  317 318CN 58 0 4.71238898038469 7.85398163397448
0

0101000
-295 20 +294 20 *
Ed
 1e-07 1 1 1
2  319 58 0 0 6.28318530717959
0

0101000
+294 20 -294 20 *
Ed
 1e-07 1 1 1
2  320 58 0 0 6.28318530717959
0

0101000
+295 20 -295 20 *
Ed
 1e-07 1 1 0
1  121 0 4.71238898038469 7.85398163397448
3  321 322CN 59 0 4.71238898038469 7.85398163397448
0

0101000
-293 20 +292 20 *
Ed
 1e-07 1 1 1
2  323 59 0 0 6.28318530717959
0

0101000
+292 20 -292 20 *
Ed
 1e-07 1 1 1
2  324 59 0 0 6.28318530717959
0

0101000
+293 20 -293 20 *
Ed
 1e-07 1 1 0
1  122 0 4.71238898038469 7.85398163397448
3  325 326CN 60 0 4.71238898038469 7.85398163397448
0

0101000
-291 20 +290 20 *
Ed
 1e-07 1 1 1
2  327 60 0 0 6.28318530717959
0

0101000
+290 20 -290 20 *
Ed
 1e-07 1 1 1
2  328 60 0 0 6.28318530717959
0

0101000
+291 20 -291 20 *
Wi

0101100
-282 0 +281 0 +280 0 -279 0 *
Wi

0101100
-278 1 -277 31 +276 1 -275 31 +274 1 +273 1 +272 1 +282 1 -271 1 *
Wi

0101100
-270 0 -281 0 +269 0 +271 0 *
Wi

0101100
-268 0 *
Wi

0101100
-267 1 -266 31 +265 1 -264 31 +263 1 +262 1 +261 1 +280 1 -270 1 *
Wi

0101100
-262 1 +260 1 -279 1 +273 1 *
Wi

0101100
-267 1 +259 1 -258 1 +278 1 *
Wi

0101100
+277 31 +275 31 +257 31 +256 31 +255 31 +254 31 +253 31 +252 31 +251 31 +250 31 
+249 31 +248 31 *
Wi

0101100
-247 0 *
Wi

0101100
-276 0 +258 0 +265 0 -246 0 *
Wi

0101100
-263 0 -246 0 +245 0 +274 0 *
Wi

0101100
-244 0 *
Wi

0101100
-269 0 -272 0 +261 0 +245 0 *
Wi

0101100
+243 0 +268 0 -243 0 -242 0 *
Wi

0101100
+266 31 +264 31 +241 31 +240 31 +239 31 +238 31 +237 31 +236 31 +235 31 +234 31 
+233 31 +232 31 *
Wi

0101100
-231 0 *
Wi

0101100
-256 31 +260 1 +240 31 -230 31 *
Wi

0101100
-257 31 -259 1 +229 32 +241 31 *
Wi

0101100
-228 32 -253 31 +227 32 -255 31 +226 32 +225 32 +224 32 +223 32 -222 32 *
Wi

0101100
-221 31 -254 31 +220 31 -252 31 +219 31 +218 31 +217 31 +216 31 -215 31 *
Wi

0101100
-251 31 -214 32 +213 33 +235 31 *
Wi

0101100
-250 31 +212 31 +234 31 -211 33 *
Wi

0101100
-210 33 -248 31 +209 33 -249 31 +208 33 +207 33 +206 33 +205 33 -204 33 *
Wi

0101100
-247 0 +203 0 +231 0 -203 0 *
Wi

0101100
+202 0 -201 0 -244 0 +201 0 *
Wi

0101100
+200 0 +199 0 -200 0 -198 0 *
Wi

0101100
+242 0 *
Wi

0101100
-202 0 *
Wi

0101100
-197 32 -237 31 +196 32 -239 31 +195 32 +194 32 +193 32 +192 32 -191 32 *
Wi

0101100
-190 31 -238 31 +189 31 -236 31 +188 31 +187 31 +186 31 +185 31 -184 31 *
Wi

0101100
-183 33 -232 31 +182 33 -233 31 +181 33 +180 33 +179 33 +178 33 -177 33 *
Wi

0101100
-190 31 +230 31 -176 31 +221 31 *
Wi

0101100
-194 32 +229 32 -175 32 +225 32 *
Wi

0101100
-197 32 +214 32 -174 32 +228 32 *
Wi

0101100
-227 0 +174 0 +196 0 -173 0 *
Wi

0101100
-195 0 -173 0 +172 0 +226 0 *
Wi

0101100
-171 0 *
Wi

0101100
-170 0 -224 0 +193 0 +172 0 *
Wi

0101100
-223 0 +169 0 +192 0 -175 0 *
Wi

0101100
-191 0 -169 0 +170 0 +222 0 *
Wi

0101100
-168 0 *
Wi

0101100
-220 0 +176 0 +189 0 -167 0 *
Wi

0101100
-188 0 -167 0 +166 0 +219 0 *
Wi

0101100
-165 0 *
Wi

0101100
-187 31 +212 31 -164 31 +218 31 *
Wi

0101100
-163 0 -217 0 +186 0 +166 0 *
Wi

0101100
-216 0 +162 0 +185 0 -164 0 *
Wi

0101100
-184 0 -162 0 +163 0 +215 0 *
Wi

0101100
-161 0 *
Wi

0101100
-180 33 +213 33 -160 33 +207 33 *
Wi

0101100
-183 33 +211 33 -159 33 +210 33 *
Wi

0101100
-209 0 +159 0 +182 0 -158 0 *
Wi

0101100
-181 0 -158 0 +157 0 +208 0 *
Wi

0101100
-156 0 *
Wi

0101100
-155 0 -206 0 +179 0 +157 0 *
Wi

0101100
-205 0 +154 0 +178 0 -160 0 *
Wi

0101100
-177 0 -154 0 +155 0 +204 0 *
Wi

0101100
-153 0 *
Wi

0101100
+152 0 -151 0 -171 0 +151 0 *
Wi

0101100
+150 0 +168 0 -150 0 -149 0 *
Wi

0101100
+148 0 -147 0 -165 0 +147 0 *
Wi

0101100
+146 0 +161 0 -146 0 -145 0 *
Wi

0101100
+144 0 -143 0 -156 0 +143 0 *
Wi

0101100
+142 0 +153 0 -142 0 -141 0 *
Wi

0101100
+140 0 +139 0 -140 0 -138 0 *
Wi

0101100
+149 0 *
Wi

0101100
-152 0 *
Wi

0101100
+137 0 +136 0 -137 0 -135 0 *
Wi

0101100
+145 0 *
Wi

0101100
-148 0 *
Wi

0101100
+134 0 +133 0 -134 0 -132 0 *
Wi

0101100
+141 0 *
Wi

0101100
-144 0 *
Fa
0  1e-07 1 0

0111000
+131 0 *
Fa
0  1e-07 2 1

0101000
+130 0 *
Fa
0  1e-07 4 0

0101000
+129 0 +128 0 *
Fa
0  1e-07 5 1

0101000
+127 0 *
Fa
0  1e-07 6 1

0101000
+126 0 *
Fa
0  1e-07 7 1

0101000
+125 0 *
Fa
0  1e-07 10 1

0111000
+124 0 +123 0 *
Fa
0  1e-07 1 0

0101000
+122 0 *
Fa
0  1e-07 11 0

0101000
+121 0 +120 0 *
Fa
0  1e-07 13 0

0101000
+119 0 *
Fa
0  1e-07 15 0

0101000
+118 0 *
Fa
0  1e-07 18 1

0111000
+117 0 +116 0 *
Fa
0  1e-07 19 1

0101000
+115 0 *
Fa
0  1e-07 19 1

0101000
+114 0 *
Fa
0  1e-07 22 32

0101000
+113 0 *
Fa
0  1e-07 23 31

0101000
+112 0 *
Fa
0  1e-07 19 1

0101000
+111 0 *
Fa
0  1e-07 19 1

0101000
+110 0 *
Fa
0  1e-07 24 33

0101000
+109 0 *
Fa
0  1e-07 25 0

0111000
+108 0 *
Fa
0  1e-07 15 0

0101000
+107 0 *
Fa
0  1e-07 27 0

0101000
+106 0 +105 0 +104 0 *
Fa
0  1e-07 28 32

0101000
+103 0 *
Fa
0  1e-07 29 31

0101000
+102 0 *
Fa
0  1e-07 30 33

0101000
+101 0 *
Fa
0  1e-07 31 31

0101000
+100 0 *
Fa
0  1e-07 32 32

0101000
+99 0 *
Fa
0  1e-07 33 32

0101000
+98 0 *
Fa
0  1e-07 34 0

0101000
+97 0 *
Fa
0  1e-07 35 0

0101000
+96 0 +95 0 *
Fa
0  1e-07 36 0

0101000
+94 0 *
Fa
0  1e-07 37 0

0101000
+93 0 *
Fa
0  1e-07 38 0

0101000
+92 0 +91 0 *
Fa
0  1e-07 39 0

0101000
+90 0 *
Fa
0  1e-07 40 0

0101000
+89 0 +88 0 *
Fa
0  1e-07 41 31

0101000
+87 0 *
Fa
0  1e-07 42 0

0101000
+86 0 *
Fa
0  1e-07 43 0

0101000
+85 0 *
Fa
0  1e-07 44 0

0101000
+84 0 +83 0 *
Fa
0  1e-07 45 33

0101000
+82 0 *
Fa
0  1e-07 46 33

0101000
+81 0 *
Fa
0  1e-07 47 0

0111000
+80 0 *
Fa
0  1e-07 48 0

0101000
+79 0 +78 0 *
Fa
0  1e-07 49 0

0101000
+77 0 *
Fa
0  1e-07 50 0

0101000
+76 0 *
Fa
0  1e-07 51 0

0101000
+75 0 +74 0 *
Fa
0  1e-07 52 0

0101000
+73 0 *
Fa
0  1e-07 53 0

0101000
+72 0 *
Fa
0  1e-07 54 0

0101000
+71 0 *
Fa
0  1e-07 55 0

0101000
+70 0 *
Fa
0  1e-07 56 0

0101000
+69 0 *
Fa
0  1e-07 57 0

0101000
+68 0 *
Fa
0  1e-07 58 0

0101000
+67 0 +66 0 +65 0 *
Fa
0  1e-07 59 0

0101000
+64 0 +63 0 +62 0 *
Fa
0  1e-07 60 0

0101000
+61 0 +60 0 +59 0 *
Sh

0101100
+58 1 +57 0 +56 1 -55 0 -54 0 +53 0 +52 0 +51 1 -50 1 +49 1 
+48 1 -47 0 +46 0 +45 0 +44 0 +43 0 +42 0 +41 0 +40 0 -39 0 
+38 1 +37 1 -36 0 -35 0 -34 0 +33 0 -32 0 +31 0 +30 32 -29 32 
+28 32 +27 32 +26 32 +25 31 -24 31 -23 0 +22 31 +21 31 +20 31 -19 0 
+18 0 +17 33 -16 33 +15 33 +14 33 +13 33 +12 32 +11 32 +10 31 +9 31 
+8 33 +7 33 +6 32 +5 31 +4 33 *
So

0100000
+3 0 *
Co

1100000
-384 3 +383 3 -382 3 +381 3 +380 3 -379 3 -378 3 +377 3 -376 3 +375 3 
-374 3 +373 3 -372 3 -371 5 +370 7 -369 5 +368 7 -367 5 +366 7 -365 9 
+364 10 +363 9 -362 9 -361 2 +360 3 -359 3 +358 5 -357 7 +356 5 -355 7 
+354 5 -353 7 +352 9 -351 9 +350 9 +349 2 +348 5 +347 5 +346 5 -345 5 
+344 5 -343 5 +342 7 +341 7 +340 7 -339 7 +338 11 +337 7 -336 7 +335 9 
+334 9 +333 9 -332 9 +331 9 -330 9 +329 3 -328 3 +327 3 -326 5 -325 5 
-324 5 +323 5 -322 5 +321 5 -320 7 -319 7 -318 7 +317 7 -316 7 +315 7 
-314 9 -313 9 +312 12 -311 9 +310 9 -309 9 +308 9 +307 5 -306 5 +305 7 
-304 7 +303 9 -302 9 +301 5 -300 5 +299 7 -298 7 +297 9 -296 9 -295 5 
+294 5 -293 7 +292 7 -291 9 +290 9 +289 13 -288 3 +287 3 +286 3 +285 3 
-284 3 +283 3 -282 3 +281 3 +280 3 -279 3 -278 3 -277 14 +276 3 -275 14 
+274 3 +273 3 +272 3 -271 3 -270 3 +269 3 -268 3 +267 3 +266 14 -265 3 
+264 14 -263 3 -262 3 -261 3 -260 3 +259 3 -258 3 +257 14 +256 14 +255 14 
+254 14 +253 14 +252 14 +251 14 +250 14 +249 14 +248 14 -247 2 -246 3 -245 3 
+244 3 +243 3 -242 3 -241 14 -240 14 -239 14 -238 14 -237 14 -236 14 -235 14 
-234 14 -233 14 -232 14 +231 2 -230 14 +229 24 -228 24 +227 24 +226 24 +225 24 
+224 24 +223 24 -222 24 -221 14 +220 14 +219 14 +218 14 +217 14 +216 14 -215 14 
-214 24 +213 27 +212 14 -211 27 -210 27 +209 27 +208 27 +207 27 +206 27 +205 27 
-204 27 -203 2 +202 3 -201 3 +200 3 +199 3 -198 3 +197 24 -196 24 -195 24 
-194 24 -193 24 -192 24 +191 24 +190 14 -189 14 -188 14 -187 14 -186 14 -185 14 
+184 14 +183 27 -182 27 -181 27 -180 27 -179 27 -178 27 +177 27 -176 14 +175 24 
-174 24 -173 24 -172 24 +171 24 -170 24 +169 24 -168 24 -167 14 -166 14 +165 14 
+164 14 -163 14 +162 14 -161 14 +160 27 -159 27 -158 27 -157 27 +156 27 -155 27 
+154 27 -153 27 +152 24 -151 24 +150 24 -149 24 +148 14 -147 14 +146 14 -145 14 
+144 27 -143 27 +142 27 -141 27 +140 24 +139 24 -138 24 +137 14 +136 14 -135 14 
+134 27 +133 27 -132 27 +131 3 +130 2 +129 3 +128 3 -127 2 -126 2 +125 2 
+124 2 +123 2 +122 3 -121 3 -120 3 +119 3 +118 3 -117 2 -116 2 +115 2 
+114 2 +113 2 +112 2 +111 2 +110 2 +109 2 -108 2 +107 3 +106 3 +105 3 
+104 3 -103 2 -102 2 -101 2 +100 2 -99 2 +98 2 +97 24 -96 24 -95 24 
+94 24 +93 24 +92 24 +91 24 +90 14 -89 14 -88 14 -87 2 +86 14 +85 14 
+84 14 +83 14 -82 2 +81 2 +80 27 -79 27 -78 27 +77 27 +76 27 +75 27 
+74 27 +73 24 +72 24 +71 14 +70 14 +69 27 +68 27 +67 24 +66 24 +65 24 
+64 14 +63 14 +62 14 +61 27 +60 27 +59 27 +58 3 +57 2 +56 3 -55 2 
-54 2 +53 2 +52 2 +51 3 -50 3 +49 3 +48 3 -47 2 +46 2 +45 2 
+44 2 +43 2 +42 2 +41 2 +40 2 -39 2 +38 3 +37 3 -36 2 -35 2 
-34 2 +33 2 -32 2 +31 2 +30 24 -29 24 +28 24 +27 24 +26 24 +25 14 
-24 14 -23 2 +22 14 +21 14 +20 14 -19 2 +18 2 +17 27 -16 27 +15 27 
+14 27 +13 27 +12 24 +11 24 +10 14 +9 14 +8 27 +7 27 +6 24 +5 14 
+4 27 +3 2 +2 2 *

+1 0 